<svg id="Capa_1" data-name="Capa 1" xmlns="http://www.w3.org/2000/svg" viewBox="0 0 474.99 474.99"><defs><style>.cls-1{fill:#bacbde;}</style></defs><title>boat</title><path class="cls-1" d="M440.9,356.94l-15.14-80.11a10.33,10.33,0,0,0-15.47-6.92L340.48,312a10.32,10.32,0,0,0,6,19.14l27.27-1.9c-26,35-65.22,49.35-110.18,53V153.1h22.45A21.55,21.55,0,0,0,299,157.45a21.77,21.77,0,1,0-12.94-39.19H263.61V86.79a47.35,47.35,0,1,0-52.24,0v31.47H188.93a21.77,21.77,0,1,0,0,34.84h22.45V382.27c-45-3.69-84.14-18-110.18-53l27.27,1.9a10.32,10.32,0,0,0,6-19.13L64.69,269.91a10.33,10.33,0,0,0-15.47,6.92L34.08,356.94a10.32,10.32,0,0,0,18.3,8.24l16.29-21c31.84,51.56,81.92,94.73,139.67,105.94L230.19,472a10.33,10.33,0,0,0,14.59,0l21.86-21.86c57.75-11.2,107.83-54.38,139.67-105.94l16.29,21a10.32,10.32,0,0,0,18.3-8.24ZM237.49,34.84A12.52,12.52,0,1,1,225,47.35,12.53,12.53,0,0,1,237.49,34.84Z"/></svg>