<svg id="Layer_1" data-name="Layer 1" xmlns="http://www.w3.org/2000/svg" viewBox="0 0 512 512"><defs><style>.cls-1{fill:#bacbde;}</style></defs><title>business</title><path class="cls-1" d="M211,271h90v30H211Z"/><path class="cls-1" d="M415.38,301H331v15a15,15,0,0,1-15,15H196a15,15,0,0,1-15-15V301H96.62a45,45,0,0,1-42.69-30.76L0,108.41V436a45.05,45.05,0,0,0,45,45H467a45.05,45.05,0,0,0,45-45V108.42L458.06,270.24A44.93,44.93,0,0,1,415.38,301Z"/><path class="cls-1" d="M316,31H196a45.05,45.05,0,0,0-45,45V91H25.81L82.38,260.75A15,15,0,0,0,96.62,271H181V256a15,15,0,0,1,15-15H316a15,15,0,0,1,15,15v15h84.38a15,15,0,0,0,14.24-10.25L486.2,91H361V76A45.05,45.05,0,0,0,316,31ZM181,91V76a15,15,0,0,1,15-15H316a15,15,0,0,1,15,15V91Z"/></svg>