<svg id="Capa_1" data-name="Capa 1" xmlns="http://www.w3.org/2000/svg" viewBox="0 0 512 512"><defs><style>.cls-1{fill:#bacbde;}</style></defs><title>car</title><path class="cls-1" d="M293.6,231a25,25,0,1,0,25,25.05A25.08,25.08,0,0,0,293.6,231Z"/><path class="cls-1" d="M310.19,155V200.2A58.42,58.42,0,0,1,341.52,223l43-14A102.61,102.61,0,0,0,310.19,155Z"/><path class="cls-1" d="M394.75,240.57l-43,14c0,.48,0,1,0,1.46a57.9,57.9,0,0,1-12,35.37l26.53,36.51a102.14,102.14,0,0,0,28.42-87.31Z"/><path class="cls-1" d="M293.6,37.6H91.79a16.59,16.59,0,0,0,0,33.18H178a220,220,0,0,0-48.68,41.46H16.59a16.59,16.59,0,1,0,0,33.17h88.75a218,218,0,0,0,10,236.67H68.29a16.59,16.59,0,0,0,0,33.17h76a220.33,220.33,0,0,0,33.7,26H18.3a16.59,16.59,0,0,0,0,33.18H293.6C414,474.4,512,376.42,512,256S414,37.6,293.6,37.6Zm80.58,327.26c-.31.26-.61.52-.94.75s-.75.52-1.13.76a135.25,135.25,0,0,1-157,0c-.38-.24-.76-.49-1.13-.76s-.63-.49-.94-.75A135.4,135.4,0,0,1,158.11,256c0-74.71,60.78-135.49,135.49-135.49S429.09,181.29,429.09,256A135.4,135.4,0,0,1,374.18,364.86Z"/><path class="cls-1" d="M202.72,209l43,14A58.42,58.42,0,0,1,277,200.2V155A102.61,102.61,0,0,0,202.72,209Z"/><path class="cls-1" d="M313,310.89a58.06,58.06,0,0,1-38.76,0l-26.53,36.53a102.16,102.16,0,0,0,91.83,0Z"/><path class="cls-1" d="M235.38,256c0-.49,0-1,0-1.46l-43-14a102.16,102.16,0,0,0,28.42,87.32l26.53-36.52A57.9,57.9,0,0,1,235.38,256Z"/></svg>