<svg id="Capa_1" data-name="Capa 1" xmlns="http://www.w3.org/2000/svg" viewBox="0 0 959.19 959.19"><defs><style>.cls-1{fill:#bacbde;}</style></defs><title>fly</title><path class="cls-1" d="M923.78,2.34l-101.5,46.2a61.05,61.05,0,0,0-17.6,12.2l-165.4,165.5-569.6-68.3a33.84,33.84,0,0,0-28,9.7L10,199.34a33.87,33.87,0,0,0,10.1,54.9l408.2,183-117.2,117.2H106.38a34.24,34.24,0,0,0-24,9.9l-17.1,17.2a33.86,33.86,0,0,0,10.6,55.1l172.7,74,74,172.7a33.87,33.87,0,0,0,55.1,10.6l17.2-17.2a33.82,33.82,0,0,0,9.9-24V648L522,530.84l183,408.3a33.87,33.87,0,0,0,54.9,10.1l31.7-31.7a34,34,0,0,0,9.7-28l-68.4-569.6,165.5-165.5a59.72,59.72,0,0,0,12.2-17.6l46.2-101.5C966.48,14.44,944.88-7.26,923.78,2.34Z"/></svg>