<svg id="Capa_1" data-name="Capa 1" xmlns="http://www.w3.org/2000/svg" viewBox="0 0 512 512"><defs><style>.cls-1{fill:#bacbde;}</style></defs><title>gun</title><polygon class="cls-1" points="125.81 76 95.8 166 124.19 166 154.18 76 125.81 76"/><path class="cls-1" d="M497,76H482V61a15,15,0,0,0-30,0V76H185.82l-30,90H512V91A15,15,0,0,0,497,76Z"/><path class="cls-1" d="M45,76A15,15,0,0,0,30,91a15,15,0,0,1-15,15A15,15,0,0,0,0,121v45H64.18l30-90Z"/><path class="cls-1" d="M0,196v15a15,15,0,0,0,15,15c8.26,0,15,6.72,15.15,12.88L5.24,414.63A44.93,44.93,0,0,0,49.6,466h59a45.15,45.15,0,0,0,44.65-39.29L163.59,346H225a45.05,45.05,0,0,0,45-45V256H437a15,15,0,0,0,13.42-8.29L476.27,196ZM180,316a30,30,0,0,1,0-60h1a73.8,73.8,0,0,0-1.23,41.07A73,73,0,0,0,188.15,316Zm60-15a14.81,14.81,0,0,1-11.77,14.35A43.41,43.41,0,0,1,213.38,256H240Z"/></svg>