<?xml version="1.0"?>
<svg xmlns="http://www.w3.org/2000/svg" xmlns:xlink="http://www.w3.org/1999/xlink" version="1.1" id="Capa_1" x="0px" y="0px" viewBox="0 0 195.296 195.296" style="enable-background:new 0 0 195.296 195.296;" xml:space="preserve" width="512px" height="512px"><g><g>
	<path d="M6.168,98.509h62.714l9.86-46.453c0.501-2.359,2.601-4.034,5.025-3.96c2.411,0.064,4.432,1.841,4.806,4.223l8.212,52.346   l5.126-16.338c0.597-1.902,2.266-3.268,4.248-3.476c1.982-0.208,3.899,0.78,4.878,2.517l7.196,12.765l70.343-0.545   c2.813-5.474,4.885-11.471,5.908-18.094c2.852-18.445-1.915-37.002-12.749-49.641c-9.598-11.196-23.243-17.113-39.459-17.113   c-25.163,0-39.46,16.897-44.629,24.519c-5.168-7.622-19.466-24.519-44.629-24.519c-16.216,0-29.861,5.917-39.459,17.113   C2.726,44.491-2.041,63.049,0.811,81.494C1.768,87.682,3.633,93.328,6.168,98.509z" data-original="#000000" class="active-path" data-old_color="#000000" fill="#BACBDE"/>
	<path d="M115.364,110.155c-1.798-0.029-3.501-0.96-4.394-2.544l-2.974-5.275l-8.068,25.714c-0.658,2.096-2.599,3.503-4.768,3.503   c-0.124,0-0.248-0.004-0.373-0.014c-2.316-0.172-4.209-1.917-4.569-4.211l-7.323-46.676l-5.072,23.896   c-0.49,2.31-2.53,3.962-4.891,3.962H12.253c11.886,16.212,30.28,27.131,44.996,35.856c7.213,4.277,14.026,8.317,18.764,12.182   c17.495,14.272,19.096,21.473,19.155,21.773c0.154,1.249,1.21,2.236,2.476,2.236c1.292,0,2.367-0.94,2.484-2.227   c0.012-0.071,1.37-7.272,19.157-21.782c4.738-3.865,11.551-7.905,18.764-12.182c14.372-8.522,32.255-19.134,44.155-34.728   L115.364,110.155z" data-original="#000000" class="active-path" data-old_color="#000000" fill="#BACBDE"/>
</g></g> </svg>
