<svg id="Capa_1" data-name="Capa 1" xmlns="http://www.w3.org/2000/svg" viewBox="0 0 306.77 306.77"><defs><style>.cls-1{fill:#bacbde;}</style></defs><title>house</title><path class="cls-1" d="M302.93,149.79a14.63,14.63,0,0,0-1.2-20.93L164.63,8.9a17.1,17.1,0,0,0-22.29.25L4.77,135.26a14.54,14.54,0,0,0-.66,20.9l3.45,3.59c5.72,6,15,6.67,20.64,1.58l10.28-9.2V286.92a15,15,0,0,0,15,15h53.62a15,15,0,0,0,15-15v-94.3h68.4v94.3c-.12,8.26,5.79,15,14.05,15h56.83a15,15,0,0,0,15-15V154l6.34,5.57c3.5,3.07,10.84.61,16.4-5.51Z"/></svg>