<svg id="Layer_1" data-name="Layer 1" xmlns="http://www.w3.org/2000/svg" viewBox="0 0 384 384"><defs><style>.cls-1{fill:#bacbde;}</style></defs><title>hunter</title><path class="cls-1" d="M208,32.81V0H176V32.81A160.28,160.28,0,0,0,32.81,176H0v32H32.81A160.28,160.28,0,0,0,176,351.19V384h32V351.19A160.28,160.28,0,0,0,351.19,208H384V176H351.19A160.28,160.28,0,0,0,208,32.81ZM318.89,176H286.55A96.07,96.07,0,0,0,208,97.45V65.11A128.12,128.12,0,0,1,318.89,176Zm-65,32A64.1,64.1,0,0,1,208,253.89V224H176v29.89A64.1,64.1,0,0,1,130.11,208H160V176H130.11A64.1,64.1,0,0,1,176,130.11V160h32V130.11A64.1,64.1,0,0,1,253.89,176H224v32ZM176,65.11V97.45A96.07,96.07,0,0,0,97.45,176H65.11A128.12,128.12,0,0,1,176,65.11ZM65.11,208H97.45A96.07,96.07,0,0,0,176,286.55v32.34A128.12,128.12,0,0,1,65.11,208ZM208,318.89V286.55A96.07,96.07,0,0,0,286.55,208h32.34A128.12,128.12,0,0,1,208,318.89Z"/></svg>