<?xml version="1.0" standalone="no"?>
<!DOCTYPE svg PUBLIC "-//W3C//DTD SVG 20010904//EN"
 "http://www.w3.org/TR/2001/REC-SVG-20010904/DTD/svg10.dtd">
<svg version="1.0" xmlns="http://www.w3.org/2000/svg"
 width="64.000000pt" height="64.000000pt" viewBox="0 0 64.000000 64.000000"
 preserveAspectRatio="xMidYMid meet">

<g transform="translate(0.000000,64.000000) scale(0.100000,-0.100000)"
fill="#000000" stroke="none">
<path d="M0 320 l0 -320 165 0 165 0 0 76 c0 74 -1 76 -35 107 -33 29 -35 34
-35 93 l0 63 -58 -25 c-68 -30 -107 -23 -118 22 -10 39 4 55 81 93 105 51 120
48 173 -26 l43 -63 74 0 c41 0 77 5 80 10 3 6 13 10 21 10 10 0 14 -12 14 -39
0 -21 7 -73 16 -115 9 -43 14 -106 12 -142 -3 -61 -2 -64 20 -64 l22 0 0 320
0 320 -135 0 -135 0 0 -32 c0 -25 3 -29 12 -20 17 17 48 15 48 -2 0 -20 -39
-46 -67 -46 -13 0 -23 -5 -23 -10 0 -21 -65 -50 -114 -50 -48 0 -116 30 -116
51 0 5 -10 9 -23 9 -28 0 -67 26 -67 46 0 17 31 19 48 2 9 -9 12 -5 12 20 0
31 -2 32 -40 32 l-40 0 0 -320z m290 -221 c0 -43 -3 -50 -17 -47 -22 4 -30 72
-13 94 20 23 30 6 30 -47z"/>
<path d="M120 617 c0 -51 49 -96 105 -96 57 -1 105 44 105 98 0 20 -6 21 -105
21 -103 0 -105 -1 -105 -23z"/>
<path d="M530 180 c-8 -5 -49 -10 -90 -10 l-75 0 0 -85 0 -85 98 0 97 0 -1 78
c-1 91 -7 115 -29 102z m-10 -75 c0 -48 -2 -55 -20 -55 -18 0 -20 7 -20 55 0
48 2 55 20 55 18 0 20 -7 20 -55z"/>
</g>
</svg>
