<?xml version="1.0"?>
<svg xmlns="http://www.w3.org/2000/svg" xmlns:xlink="http://www.w3.org/1999/xlink" version="1.1" viewBox="0 0 264 264" enable-background="new 0 0 264 264" width="512px" height="512px"><g><g>
    <path d="m254.833,115.5h-5.33c0,0-28.035-53.736-28.305-54.092-1.396-2.338-3.944-3.908-6.865-3.908h-66.333v-31c0-5.522-4.144-10-9.667-10h-13c-5.523,0-10.333,4.478-10.333,10v31h-64.667c-2.921,0-5.469,1.57-6.865,3.908-0.27,0.355-28.305,54.092-28.305,54.092h-4.33c-5.5,0-10.833,4-10.833,9.5v6.5c0,27.338 22.162,49.5 49.5,49.5s49.5-22.162 49.5-49.5v-6.5c0-5.5-3.667-9.5-9.167-9.5h-5.33l-21.867-42h52.364v141h-55.667c-5.522,0-10.333,4.477-10.333,10v13c0,5.523 4.811,10 10.333,10h145c5.523,0 9.667-4.477 9.667-10v-13c0-5.523-4.145-10-9.667-10h-56.333v-141h54.03l-21.867,42h-4.33c-5.5,0-10.833,4-10.833,9.5v6.5c0,27.338 22.162,49.5 49.5,49.5s49.5-22.162 49.5-49.5v-6.5c0-5.5-3.667-9.5-9.167-9.5zm-188.368,0h-33.264l16.632-31.943 16.632,31.943zm131.736,0l16.632-31.943 16.632,31.943h-33.264z" data-original="#000000" class="active-path" data-old_color="#000000" fill="#BACBDE"/>
  </g></g> </svg>
