<?xml version="1.0"?>
<svg xmlns="http://www.w3.org/2000/svg" xmlns:xlink="http://www.w3.org/1999/xlink" version="1.1" id="Capa_1" x="0px" y="0px" viewBox="0 0 512 512" style="enable-background:new 0 0 512 512;" xml:space="preserve" width="512px" height="512px"><g><g>
	<g>
		<path d="M506.886,374.802c-2.25-1.365-55.865-33.573-122.885-33.573c-6.901,0-13.75,0.274-20.523,0.689    c15.727-8.544,31.572-18.44,46.232-29.895C480.5,256.719,510.25,166.873,511.479,163.079c1.135-3.513,0.385-7.369-2-10.194    c-2.396-2.804-6.021-4.107-9.719-3.659c-3.063,0.459-75.646,11.872-142.083,72.294c-17.954,16.333-34.208,34.47-48.491,52.288    C315.52,249.087,320,221.356,320,191.805C320,89.586,267.167,7.922,264.917,4.503c-3.938-6.004-13.896-6.004-17.833,0    C244.833,7.922,192,89.586,192,191.805c0,29.552,4.48,57.282,10.814,82.004c-14.283-17.818-30.536-35.956-48.491-52.288    C87.885,161.098,15.302,149.685,12.24,149.227c-3.635-0.448-7.312,0.855-9.719,3.659c-2.385,2.825-3.135,6.681-2,10.194    c1.229,3.794,30.979,93.64,101.771,148.945c14.66,11.455,30.505,21.35,46.232,29.895c-6.773-0.416-13.622-0.689-20.523-0.689    c-67.021,0-120.635,32.207-122.885,33.573c-3.188,1.949-5.125,5.42-5.115,9.151c0.01,3.742,1.979,7.202,5.177,9.12    c2.281,1.365,56.625,33.541,122.823,33.541c14.766,0,29.318-2.122,43.143-5.344c-22.628,26.667-21.87,57.633-21.799,59.169    c0.146,3.283,1.792,6.327,4.469,8.234c1.823,1.303,3.99,1.98,6.188,1.98c1.021,0,2.042-0.146,3.042-0.438    c1.604-0.479,39.771-12.122,69.021-45.945c5.244-6.062,9.471-12.071,13.271-17.969v75.025c0,5.899,4.771,10.673,10.667,10.673    c5.896,0,10.667-4.774,10.667-10.673v-75.025c3.799,5.898,8.027,11.907,13.271,17.969c29.25,33.823,67.417,45.465,69.021,45.945    c1,0.292,2.021,0.438,3.042,0.438c2.198,0,4.365-0.677,6.188-1.98c2.677-1.907,4.323-4.951,4.469-8.234    c0.07-1.537,0.837-32.582-21.878-59.271c13.9,3.281,28.496,5.446,43.221,5.446c67.021,0,120.635-32.207,122.885-33.573    c3.177-1.939,5.115-5.399,5.115-9.12C512,380.201,510.063,376.74,506.886,374.802z" data-original="#000000" class="active-path" data-old_color="#000000" fill="#BACBDE"/>
	</g>
</g></g> </svg>
