<svg id="Capa_1" data-name="Capa 1" xmlns="http://www.w3.org/2000/svg" viewBox="0 0 455.4 455.4"><defs><style>.cls-1{fill:#90aabf;}.cls-2{opacity:0.2;}.cls-3{fill:#fff;}</style></defs><title>none</title><path class="cls-1" d="M405.5,412.8c-69.7,56.9-287.3,56.9-355.6,0-69.7-56.9-62.6-300.1,0-364.1s293-64,355.6,0S475.2,355.9,405.5,412.8Z"/><g class="cls-2"><path class="cls-3" d="M229.1,313.2C166.6,363,96.9,388.6,31.4,390-16.9,307.5-7,107,49.9,48.7,101.1-3.9,261.8-13.9,354.3,18.8,377,112.7,330.1,232.1,229.1,313.2Z"/></g><path class="cls-3" d="M335.8,336c-8.5,8.5-22.8,8.5-32.7,0l-75.4-75.4L152.3,336c-8.5,8.5-24.2,8.5-32.7,0s-8.5-24.2,0-32.7l76.8-75.4-76.8-75.4c-8.5-8.5-8.5-22.8,0-32.7,8.5-8.5,24.2-8.5,32.7,0l75.4,76.8,75.4-76.8c8.5-8.5,22.8-8.5,32.7,0,8.5,8.5,8.5,24.2,0,32.7l-75.4,75.4,75.4,75.4C345.8,313.2,345.8,327.4,335.8,336Z"/></svg>