<svg id="Capa_1" data-name="Capa 1" xmlns="http://www.w3.org/2000/svg" viewBox="0 0 495.97 495.97"><defs><style>.cls-1{fill:#bacbde;}</style></defs><title>organization</title><g id="Layer_8" data-name="Layer 8"><path class="cls-1" d="M496,151.65a45.17,45.17,0,0,1-53.42,44.54L405.36,329v47.73H90.61V327.11l-36.87-131a45.92,45.92,0,0,1-8.44.81A45.28,45.28,0,1,1,87.14,169c45.26,15.27,115.15,27.72,146.6-24.93a45.3,45.3,0,1,1,28.52,0C280.62,178,321.53,213.43,410.72,173A45.3,45.3,0,1,1,496,151.65ZM90.61,440.16H405.37V397.25H90.61Z"/></g></svg>