<?xml version="1.0" encoding="utf-8"?>
<!-- Generator: Adobe Illustrator 23.0.3, SVG Export Plug-In . SVG Version: 6.00 Build 0)  -->
<svg version="1.1" id="Capa_1" xmlns="http://www.w3.org/2000/svg" xmlns:xlink="http://www.w3.org/1999/xlink" x="0px" y="0px"
	 viewBox="0 0 408.5 408.5" style="enable-background:new 0 0 408.5 408.5;" xml:space="preserve">
<style type="text/css">
	.st0{fill:#E07373;}
</style>
<g>
	<g>
		<path class="st0" d="M87.7,388.8c0.5,11,9.5,19.7,20.5,19.7h191.9c11,0,20.1-8.7,20.5-19.7l13.7-289.3H74L87.7,388.8z
			 M247.7,171.3c0-4.6,3.7-8.3,8.4-8.3h13.4c4.6,0,8.4,3.7,8.4,8.3v165.3c0,4.6-3.7,8.3-8.4,8.3H256c-4.6,0-8.4-3.7-8.4-8.3V171.3z
			 M189.2,171.3c0-4.6,3.7-8.3,8.3-8.3h13.4c4.6,0,8.3,3.7,8.3,8.3v165.3c0,4.6-3.7,8.3-8.3,8.3h-13.4c-4.6,0-8.3-3.7-8.3-8.3V171.3
			L189.2,171.3z M130.8,171.3c0-4.6,3.7-8.3,8.3-8.3h13.4c4.6,0,8.3,3.7,8.3,8.3v165.3c0,4.6-3.7,8.3-8.3,8.3h-13.4
			c-4.6,0-8.3-3.7-8.3-8.3V171.3z"/>
		<path class="st0" d="M343.6,21H255V4.3c0-2.4-1.9-4.3-4.3-4.3h-93c-2.4,0-4.3,1.9-4.3,4.3V21H64.9C57.8,21,52,26.8,52,33.9v40.5
			h304.5V33.9C356.5,26.8,350.7,21,343.6,21z"/>
	</g>
</g>
</svg>
