<svg id="Capa_1" data-name="Capa 1" xmlns="http://www.w3.org/2000/svg" viewBox="0 0 455.43 455.43"><defs><style>.cls-1{fill:#8dc640;}.cls-2{opacity:0.2;}.cls-3{fill:#fff;}</style></defs><title>success</title><path class="cls-1" d="M405.49,412.76c-69.69,56.89-287.29,56.89-355.55,0-69.69-56.88-62.58-300.08,0-364.08s293-64,355.55,0S475.18,355.88,405.49,412.76Z"/><g class="cls-2"><path class="cls-3" d="M229.14,313.21C166.56,363,96.87,388.59,31.45,390-16.91,307.52-6.95,107,49.94,48.68,101.14-3.95,261.85-13.9,354.29,18.81,377.05,112.68,330.12,232.14,229.14,313.21Z"/></g><path class="cls-3" d="M195,354.45c-9.95,0-19.91-4.26-25.6-12.8L89.76,239.25c-11.38-14.22-8.53-34.13,5.69-45.51s34.13-8.53,45.51,5.69l54,69.69,119.47-155C325.85,99.88,345.76,97,360,108.41s17.07,31.29,5.69,45.51L220.6,341.65C213.49,348.76,205,354.45,195,354.45Z"/></svg>