<?xml version="1.0"?>
<svg xmlns="http://www.w3.org/2000/svg" xmlns:xlink="http://www.w3.org/1999/xlink" version="1.1" id="Capa_1" x="0px" y="0px" width="512px" height="512px" viewBox="0 0 47.919 47.919" style="enable-background:new 0 0 47.919 47.919;" xml:space="preserve"><g><g>
	<g>
		<path d="M45.772,21.305h-0.117l-4.89-11.354c-0.338-0.788-1.11-1.294-1.969-1.294h-5.904V5.398c0-1.186-0.959-2.145-2.146-2.145    H17.168c-1.185,0-2.144,0.959-2.144,2.145v3.258H9.123c-0.857,0-1.63,0.506-1.968,1.294L2.264,21.305h-0.12    C0.96,21.305,0,22.264,0,23.449v3.553v9.403c0,1.188,0.96,2.145,2.144,2.145H2.95v3.971c0,1.186,0.959,2.146,2.144,2.146h5.155    c1.184,0,2.145-0.96,2.145-2.146V38.55h23.131v3.971c0,1.186,0.961,2.146,2.146,2.146h5.153c1.188,0,2.145-0.96,2.145-2.146V38.55    h0.806c1.188,0,2.145-0.957,2.145-2.145v-9.403v-3.553C47.917,22.264,46.96,21.305,45.772,21.305z M10.535,12.942h26.851    l3.603,8.363H6.935L10.535,12.942z M9.292,34.125c-2.319,0-4.199-1.879-4.199-4.198c0-2.317,1.879-4.197,4.199-4.197    c2.317,0,4.196,1.88,4.196,4.197C13.488,32.246,11.609,34.125,9.292,34.125z M38.508,34.125c-2.316,0-4.198-1.879-4.198-4.198    c0-2.317,1.879-4.197,4.198-4.197c2.317,0,4.196,1.88,4.196,4.197C42.704,32.246,40.825,34.125,38.508,34.125z" data-original="#000000" class="active-path" data-old_color="#000000" fill="#BACBDE"/>
	</g>
</g></g> </svg>
