<svg id="Capa_1" data-name="Capa 1" xmlns="http://www.w3.org/2000/svg" viewBox="0 0 612 612"><defs><style>.cls-1{fill:#bacbde;}</style></defs><title>work</title><path class="cls-1" d="M607.67,331.7l-27.39-40.09c-8.13-70.15-28.19-122.07-61.06-158.26-38.49-42.36-93.49-63-168.15-63-10.52,0-21.61.42-33,1.25C190.89,81,122.76,227.49,95.8,303.66l-4,1.75C30,332.57-.07,362.81,0,397.84c0,13.22,7.8,27.34,25.19,45.79C37.82,457,55.07,472,73.74,485.7c22,16.16,78.06,53.95,124.4,55.78,2.07.08,4.29.12,6.59.12h0c73,0,303.85-43,402.66-181.5A24.79,24.79,0,0,0,607.67,331.7ZM483.35,360.82c-5.88,4-11.9,7.7-18,11.3a458.94,458.94,0,0,1-41.11,21.39c-26.72,12.29-54.66,22.36-83.37,28.87-26.11,5.93-53.92,9.56-80.54,5a243.32,243.32,0,0,1-73.68-25.48c-22.76-12.27-46.1-27.7-62.63-47.93q15.49,6.81,31.26,12.94a626,626,0,0,1,24-68.65c9.15-21.72,19.86-42.6,35.44-60.43,18.34-21,41.09-38.53,65.07-52.61,20.16-11.84,41.73-21.14,64.63-26.07a184.86,184.86,0,0,0-26.32,12c-25.25,14.1-48,33.1-67.13,54.71-8.42,9.49-17.3,19.91-23.19,31.22-6.52,12.52-10.73,26-14.19,39.62-6.81,27.1-10.82,55-13.44,82.77-.27,2.9-.16,2.64,2.71,3.42l5.45,1.48c3.28,1,6.62,1.77,9.95,2.57,6.9,1.66,13.84,3.1,20.8,4.53,41.82,8.95,97.51-1.32,132-9,34.83-7.74,69.41-16.63,104.17-24.7l1.1-.26c5.17-1.17,4-.9,2.1-.46,4.86-1.1,9.73-2.17,14.62-3.13C493,355.42,484.42,360.1,483.35,360.82Z"/></svg>