<svg id="Capa_1" data-name="Capa 1" xmlns="http://www.w3.org/2000/svg" viewBox="0 0 438.53 438.53"><defs><style>.cls-1{fill:#fff;}</style></defs><title>arrow-right</title><path class="cls-1" d="M409.13,109.2a218.26,218.26,0,0,0-79.8-79.79Q278.95,0,219.27,0T109.21,29.41a218.26,218.26,0,0,0-79.8,79.79Q0,159.6,0,219.27T29.41,329.33a218.29,218.29,0,0,0,79.8,79.8q50.39,29.4,110.06,29.4t110.06-29.4a218.36,218.36,0,0,0,79.8-79.8q29.4-50.4,29.4-110.06T409.13,109.2Zm-47.4,122.91-26,26L232.4,361.44a18.59,18.59,0,0,1-25.69,0l-26-26a17.93,17.93,0,0,1,0-25.69l54-54H91.36a18.55,18.55,0,0,1-18.27-18.27V201a18.53,18.53,0,0,1,18.27-18.27H234.69l-54-54a18.63,18.63,0,0,1,0-25.7l26-26a18.63,18.63,0,0,1,25.7,0L335.76,180.44l26,26a18.59,18.59,0,0,1,0,25.69Z"/></svg>