<svg id="Layer_1" data-name="Layer 1" xmlns="http://www.w3.org/2000/svg" viewBox="0 0 512 512"><defs><style>.cls-1{fill:#fff;}</style></defs><title>bullet</title><path class="cls-1" d="M66.52,50.46,52.62,19.1,38.71,50.46c-.88,2-19.51,44.69-23.47,107.22H90C86,95.15,67.4,52.45,66.52,50.46Z"/><polygon class="cls-1" points="8.92 188.09 8.92 218.51 16.2 218.51 94.41 218.51 96.31 218.51 96.31 188.09 8.92 188.09"/><polygon class="cls-1" points="101.02 248.93 9.58 248.93 0 248.93 0 492.9 105.23 492.9 105.23 248.93 101.02 248.93"/><path class="cls-1" d="M202.14,50.46,188.24,19.1,174.33,50.46c-.88,2-19.51,44.69-23.47,107.22h74.75C221.65,95.15,203,52.45,202.14,50.46Z"/><polygon class="cls-1" points="144.54 188.09 144.54 218.51 158.1 218.51 231.93 218.51 231.93 188.09 144.54 188.09"/><polygon class="cls-1" points="151.49 248.93 135.65 248.93 135.65 492.9 240.82 492.9 240.82 248.93 151.49 248.93"/><path class="cls-1" d="M337.73,50.46,323.83,19.1,309.92,50.46c-.88,2-19.51,44.69-23.47,107.22H361.2C357.24,95.15,338.61,52.45,337.73,50.46Z"/><polygon class="cls-1" points="280.13 188.09 280.13 218.51 299.98 218.51 367.52 218.51 367.52 188.09 280.13 188.09"/><polygon class="cls-1" points="293.37 248.93 271.24 248.93 271.24 492.9 376.41 492.9 376.41 248.93 293.37 248.93"/><path class="cls-1" d="M473.32,50.46,459.41,19.1l-13.9,31.36c-.88,2-19.51,44.69-23.47,107.22h74.75C492.83,95.15,474.2,52.45,473.32,50.46Z"/><polygon class="cls-1" points="415.72 188.09 415.72 218.51 441.86 218.51 503.11 218.51 503.11 188.09 415.72 188.09"/><polygon class="cls-1" points="435.24 248.93 406.83 248.93 406.83 492.9 512 492.9 512 248.93 435.24 248.93"/></svg>