<?xml version="1.0" encoding="utf-8"?>
<!-- Generator: Adobe Illustrator 23.0.1, SVG Export Plug-In . SVG Version: 6.00 Build 0)  -->
<svg version="1.1" id="Capa_1" xmlns="http://www.w3.org/2000/svg" xmlns:xlink="http://www.w3.org/1999/xlink" x="0px" y="0px"
	 viewBox="0 0 205.2 205.2" style="enable-background:new 0 0 205.2 205.2;" xml:space="preserve">
<style type="text/css">
	.st0{fill:#C85555;}
</style>
<title>car-close</title>
<path class="st0" d="M155.4,114.5V84V62.8V22.4c0-12.4-10.8-22.4-24-22.4H73.9c-13.2,0-24,10-24,22.4v40.4V84v30.6v21.2v47.1
	c0,12.3,10.8,22.4,24,22.4h57.5c13.2,0,24-10,24-22.4v-47.2V114.5z M140.4,117.7v35.6H64.9v-35.6l0,0V65.9l0,0v-0.1h75.5v0.1l0,0
	V117.7z M73.9,15h57.5c4.9,0,9,3.4,9,7.4v28.4H64.9V22.4C64.9,18.4,69,15,73.9,15z M131.4,190.2H73.9c-4.9,0-9-3.4-9-7.4v-14.6h75.5
	v14.6C140.4,186.9,136.3,190.2,131.4,190.2z"/>
</svg>
