<svg id="Capa_1" data-name="Capa 1" xmlns="http://www.w3.org/2000/svg" viewBox="0 0 205.23 205.23"><defs><style>.cls-1{fill:#64c855;}</style></defs><title>car-open</title><path class="cls-1" d="M155.37,114.54V84l29.2,29.2a7.5,7.5,0,0,0,10.61-10.61l-39.81-39.8V22.35C155.37,10,144.6,0,131.37,0H73.86c-13.23,0-24,10-24,22.35v40.4l-39.8,39.81a7.5,7.5,0,1,0,10.6,10.6L49.86,84v30.59l-39.8,39.8A7.5,7.5,0,1,0,20.66,165l29.2-29.2v47.12c0,12.33,10.77,22.35,24,22.35h57.51c13.23,0,24-10,24-22.35V135.76l29.2,29.2a7.5,7.5,0,0,0,10.61-10.61Zm-15,3.11v35.59H64.86V117.65h0V65.86h0v-.12h75.51v.12h0v51.79ZM73.86,15h57.51c4.88,0,9,3.37,9,7.35V50.73H64.86V22.35C64.86,18.37,69,15,73.86,15Zm57.51,175.23H73.86c-4.88,0-9-3.36-9-7.35V168.24h75.51v14.64C140.37,186.87,136.25,190.23,131.37,190.23Z"/></svg>