<svg id="Capa_1" data-name="Capa 1" xmlns="http://www.w3.org/2000/svg" viewBox="0 0 230.98 230.98"><defs><style>.cls-1{fill:#64c855;}</style></defs><title>engine-enable</title><path class="cls-1" d="M230.34,106.84,219.16,81.53a7.49,7.49,0,0,0-6.86-4.47H193.78a7.5,7.5,0,0,0-7.5,7.5V96.38h-5.77V86.66a7.49,7.49,0,0,0-7.5-7.5h-20V58.69a7.5,7.5,0,0,0-7.5-7.5h-36.9V44.05h36.9a7.5,7.5,0,1,0,0-15H56.76a7.5,7.5,0,0,0,0,15H93.65v7.14H56.76a7.5,7.5,0,0,0-7.5,7.5v6.23H32.8a7.5,7.5,0,0,0-7.5,7.5v40.25H15V72.42a7.5,7.5,0,0,0-15,0v95.5a7.5,7.5,0,0,0,15,0V127.67H25.3v40.25a7.5,7.5,0,0,0,7.5,7.5H61.94l29.61,24.76a7.49,7.49,0,0,0,4.81,1.75H173a7.5,7.5,0,0,0,7.5-7.5V174h5.77v11.83a7.5,7.5,0,0,0,7.5,7.5H212.3a7.51,7.51,0,0,0,6.86-4.47l11.18-25.32a7.48,7.48,0,0,0,.64-3V109.87A7.56,7.56,0,0,0,230.34,106.84ZM216,158.91l-8.57,19.4h-6.13V166.49a7.5,7.5,0,0,0-7.5-7.5H173a7.5,7.5,0,0,0-7.5,7.5v20.44H99.08l-29.6-24.76a7.51,7.51,0,0,0-4.81-1.75H40.3V79.92H56.76a7.5,7.5,0,0,0,7.5-7.5V66.19h73.79V86.66a7.5,7.5,0,0,0,7.5,7.5h20v9.72a7.5,7.5,0,0,0,7.5,7.5h20.77a7.5,7.5,0,0,0,7.5-7.5V92.06h6.13L216,111.45Z"/></svg>