<svg id="Capa_1" data-name="Capa 1" xmlns="http://www.w3.org/2000/svg" viewBox="0 0 384 384"><defs><style>.cls-1{fill:#fff;}</style></defs><title>gas</title><path class="cls-1" d="M352.43,90.24l.32-.32L273.28,10.67,250.67,33.28l45,45a53.25,53.25,0,0,0,19,103A52.71,52.71,0,0,0,336,176.85V330.67a21.34,21.34,0,0,1-42.67,0v-96A42.65,42.65,0,0,0,250.67,192H229.33V42.67A42.65,42.65,0,0,0,186.67,0h-128A42.65,42.65,0,0,0,16,42.67V384H229.33V224h32V330.67a53.34,53.34,0,0,0,106.67,0V128A53.57,53.57,0,0,0,352.43,90.24ZM186.67,149.33h-128V42.67h128Zm128,0A21.33,21.33,0,1,1,336,128,21.4,21.4,0,0,1,314.67,149.33Z"/></svg>