<svg id="Layer_1" data-name="Layer 1" xmlns="http://www.w3.org/2000/svg" viewBox="0 0 512 512"><defs><style>.cls-1{fill:#fff;}</style></defs><title>gasoline</title><path class="cls-1" d="M10.32,50.91,146.84,91.12a32.06,32.06,0,0,1,11.55,6.18l41.51,34.58L234.84,94.4,177.47,47.79a14,14,0,0,0-4.9-2.58L24.81,1.7A14.06,14.06,0,0,0,7.34,11.22L.81,33.46A14.07,14.07,0,0,0,10.32,50.91Z"/><path class="cls-1" d="M216.83,146a9.16,9.16,0,0,1,3.13,5.29l63.52,330.15a37.24,37.24,0,0,0,51.61,27l95-42a9.15,9.15,0,0,1,12.16,4.91,12.18,12.18,0,0,0,15.92,6.67l46.27-19a12.2,12.2,0,0,0,6.67-15.91L424.7,232.39a9.13,9.13,0,0,1,1.55-9.45l9.93-11.46a14.07,14.07,0,0,0-1.43-19.82l-96.39-83.52a14.09,14.09,0,0,0-19.85,1.47l-21.46,24.83a9.14,9.14,0,0,1-12.8,1L249,106.07l-35,37.55Zm117,333.15A20.75,20.75,0,0,1,305,463.27L283.57,322a43.65,43.65,0,0,1,6.75-30.69l23.83,18.83a59.89,59.89,0,0,1,20,28.44l41.13,122.28Zm-14.62-207,13.71-2.46a44.16,44.16,0,0,1,49.36,29.25l43.87,130.35a9.13,9.13,0,0,1-5,11.29l-29,12.82L351.54,332.78a77.84,77.84,0,0,0-26.11-37l-22-17.45a44.11,44.11,0,0,1,15.86-6.14Zm-49.83-64.08,12.95,54.84a9.13,9.13,0,0,1-6.8,11,8.82,8.82,0,0,1-2.11.25,9.14,9.14,0,0,1-8.89-7l-12.95-54.84a9.15,9.15,0,1,1,17.8-4.21Zm-25.59-54.75a9.14,9.14,0,0,1,11.11,6.6l4.58,17.9a9.16,9.16,0,0,1-6.6,11.12,8.77,8.77,0,0,1-2.27.28,9.14,9.14,0,0,1-8.85-6.87l-4.55-17.88a9.14,9.14,0,0,1,6.6-11.15Z"/><path class="cls-1" d="M45.73,278.72A44.22,44.22,0,0,0,91.43,233c0-21.15-29.59-68.23-45.7-86.83C29.63,164.77,0,211.85,0,233a44.22,44.22,0,0,0,45.7,45.71Z"/></svg>