<svg id="Capa_1" data-name="Capa 1" xmlns="http://www.w3.org/2000/svg" viewBox="0 0 211.4 211.4"><defs><style>.cls-1{fill:#64c855;}</style></defs><title>light-enable</title><path class="cls-1" d="M182.32,56.62c-16.48-12.07-37-19.27-54.9-19.27S96.1,44.61,87.86,58.93c-6.46,11.22-9.6,26.52-9.6,46.77s3.14,35.55,9.6,46.77c8.24,14.32,21.55,21.58,39.56,21.58s38.42-7.2,54.9-19.27c18.75-13.73,29.08-31.16,29.08-49.08S201.07,70.35,182.32,56.62Zm-8.86,86.06c-13.79,10.1-31.43,16.37-46,16.37-15.9,0-34.16-6.06-34.16-53.35s18.26-53.35,34.16-53.35c14.61,0,32.25,6.27,46,16.37,14.58,10.67,22.94,24.15,22.94,37S188,132,173.46,142.68Z"/><path class="cls-1" d="M64.06,44.94H7.5a7.5,7.5,0,0,0,0,15H64.06a7.5,7.5,0,0,0,0-15Z"/><path class="cls-1" d="M64.06,72.3H7.5a7.5,7.5,0,0,0,0,15H64.06a7.5,7.5,0,0,0,0-15Z"/><path class="cls-1" d="M64.06,99.65H7.5a7.5,7.5,0,0,0,0,15H64.06a7.5,7.5,0,0,0,0-15Z"/><path class="cls-1" d="M64.06,127H7.5a7.5,7.5,0,1,0,0,15H64.06a7.5,7.5,0,1,0,0-15Z"/><path class="cls-1" d="M64.06,154.36H7.5a7.5,7.5,0,0,0,0,15H64.06a7.5,7.5,0,0,0,0-15Z"/></svg>