<svg id="Capa_1" data-name="Capa 1" xmlns="http://www.w3.org/2000/svg" viewBox="0 0 475.08 475.08"><defs><style>.cls-1{fill:#fff;}</style></defs><title>microphone</title><path class="cls-1" d="M237.54,328.9q37.7,0,64.52-26.83t26.84-64.53V91.36q0-37.68-26.84-64.52T237.54,0Q199.86,0,173,26.84T146.18,91.37V237.54q0,37.7,26.84,64.53T237.54,328.9Z"/><path class="cls-1" d="M396.56,188.15A18.27,18.27,0,0,0,365.45,201v36.55q0,52.83-37.55,90.36t-90.36,37.55q-52.81,0-90.36-37.55t-37.55-90.36V201a18.17,18.17,0,0,0-31.12-12.84A17.58,17.58,0,0,0,73.09,201v36.55q0,63.11,42.11,109.78t104.07,53.52v37.7H146.18a18.27,18.27,0,0,0,0,36.54H328.9a18.27,18.27,0,0,0,0-36.54H255.82v-37.7q61.95-6.84,104.06-53.52T402,237.54V201A17.56,17.56,0,0,0,396.56,188.15Z"/></svg>