<svg id="_57" data-name="57" xmlns="http://www.w3.org/2000/svg" viewBox="0 0 513.91 477.68"><defs><style>.cls-1{fill:#fff;}</style></defs><title>speedometr</title><rect class="cls-1" x="211.92" y="0.8" width="6.2" height="30.96" transform="translate(0.43 37.46) rotate(-9.97)"/><polygon class="cls-1" points="147.23 56.23 141.89 59.31 126.4 32.51 131.76 29.41 147.23 56.23"/><rect class="cls-1" x="70.08" y="82.19" width="6.19" height="30.95" transform="translate(-48.66 90.76) rotate(-49.91)"/><polygon class="cls-1" points="45.64 172.32 43.53 178.13 14.45 167.54 16.55 161.73 45.64 172.32"/><polygon class="cls-1" points="30.96 250.99 30.96 257.17 0.01 257.17 0 250.98 30.96 250.99"/><polygon class="cls-1" points="367.75 450.86 373.11 447.76 388.59 474.57 383.21 477.68 367.75 450.86"/><polygon class="cls-1" points="429.3 400.5 433.27 395.77 456.97 415.67 452.99 420.42 429.3 400.5"/><polygon class="cls-1" points="468.86 332.71 470.98 326.89 500.05 337.49 497.94 343.32 468.86 332.71"/><polygon class="cls-1" points="482.95 255.19 482.93 249.01 513.88 249.02 513.91 255.22 482.95 255.19"/><polygon class="cls-1" points="469.07 177.72 466.95 171.9 496.04 161.33 498.17 167.15 469.07 177.72"/><polygon class="cls-1" points="431.27 110.4 427.29 105.67 451 85.78 455.01 90.52 431.27 110.4"/><polygon class="cls-1" points="372.07 58.66 366.73 55.56 382.2 28.77 387.59 31.86 372.07 58.66"/><polygon class="cls-1" points="299.23 32.07 293.14 30.99 298.52 0.52 304.64 1.59 299.23 32.07"/><rect class="cls-1" x="172" y="14.5" width="4.74" height="23.71" transform="translate(1.53 61.36) rotate(-20.04)"/><rect class="cls-1" x="99.75" y="56.21" width="4.74" height="23.7" transform="translate(-19.86 81.58) rotate(-40)"/><polygon class="cls-1" points="59.94 135.84 57.57 139.95 37.04 128.1 39.41 124 59.94 135.84"/><polygon class="cls-1" points="30.28 209.48 29.46 214.16 6.12 210.04 6.93 205.38 30.28 209.48"/><polygon class="cls-1" points="401.51 428.55 405.13 425.5 420.37 443.66 416.74 446.71 401.51 428.55"/><rect class="cls-1" x="462.21" y="360.35" width="4.74" height="23.7" transform="translate(-90.07 588.37) rotate(-59.99)"/><polygon class="cls-1" points="481.02 294.08 481.85 289.41 505.2 293.53 504.37 298.19 481.02 294.08"/><polygon class="cls-1" points="481.85 214.77 481.02 210.09 504.38 205.98 505.2 210.65 481.85 214.77"/><polygon class="cls-1" points="455.5 139.95 453.13 135.85 473.67 124 476.02 128.1 455.5 139.95"/><polygon class="cls-1" points="405.14 78.67 401.51 75.62 416.76 57.46 420.38 60.51 405.14 78.67"/><rect class="cls-1" x="326.84" y="23.98" width="23.71" height="4.73" transform="translate(197.69 335.42) rotate(-69.92)"/><polygon class="cls-1" points="258.9 23.72 254.17 23.71 254.17 0 258.92 0.01 258.9 23.72"/><rect class="cls-1" x="246.8" y="3.47" width="3.58" height="17.92" transform="translate(-0.28 8.26) rotate(-1.9)"/><polygon class="cls-1" points="242.64 21.68 239.07 21.92 237.81 4.05 241.39 3.81 242.64 21.68"/><rect class="cls-1" x="230.11" y="4.64" width="3.57" height="17.92" transform="translate(-0.16 24.08) rotate(-5.94)"/><polygon class="cls-1" points="226.6 23.24 223.07 23.74 220.57 5.99 224.12 5.5 226.6 23.24"/><polygon class="cls-1" points="210.72 25.92 207.23 26.65 203.5 9.12 207 8.39 210.72 25.92"/><polygon class="cls-1" points="202.86 27.66 199.4 28.52 195.06 11.14 198.53 10.28 202.86 27.66"/><polygon class="cls-1" points="195.07 29.69 191.64 30.67 186.69 13.44 190.13 12.47 195.07 29.69"/><polygon class="cls-1" points="187.34 31.98 183.95 33.08 178.41 16.04 181.81 14.94 187.34 31.98"/><polygon class="cls-1" points="172.17 37.37 168.86 38.71 162.14 22.09 165.46 20.76 172.17 37.37"/><polygon class="cls-1" points="164.73 40.47 161.47 41.91 154.18 25.55 157.44 24.1 164.73 40.47"/><rect class="cls-1" x="150.09" y="27.58" width="3.57" height="17.92" transform="translate(-0.66 70.22) rotate(-25.98)"/><polygon class="cls-1" points="150.2 47.41 147.05 49.09 138.63 33.26 141.79 31.59 150.2 47.41"/><polygon class="cls-1" points="136.19 55.35 133.16 57.25 123.66 42.05 126.7 40.16 136.19 55.35"/><rect class="cls-1" x="121.13" y="44.3" width="3.57" height="17.92" transform="translate(-8.78 77.78) rotate(-33.97)"/><polygon class="cls-1" points="122.77 64.26 119.88 66.35 109.35 51.86 112.24 49.76 122.77 64.26"/><polygon class="cls-1" points="116.3 69.06 113.49 71.25 102.45 57.13 105.27 54.94 116.3 69.06"/><polygon class="cls-1" points="103.88 79.31 101.23 81.7 89.23 68.39 91.89 66 103.88 79.31"/><polygon class="cls-1" points="97.95 84.76 95.38 87.24 82.92 74.35 85.5 71.88 97.95 84.76"/><polygon class="cls-1" points="92.2 90.41 89.73 92.98 76.83 80.54 79.32 77.97 92.2 90.41"/><polygon class="cls-1" points="86.67 96.26 84.29 98.91 70.96 86.92 73.35 84.27 86.67 96.26"/><polygon class="cls-1" points="76.22 108.52 74.03 111.33 59.9 100.3 62.1 97.48 76.22 108.52"/><polygon class="cls-1" points="71.32 114.91 69.23 117.79 54.72 107.27 56.83 104.38 71.32 114.91"/><polygon class="cls-1" points="66.65 121.47 64.66 124.42 49.8 114.41 51.81 111.46 66.65 121.47"/><polygon class="cls-1" points="62.21 128.19 60.33 131.22 45.13 121.73 47.02 118.7 62.21 128.19"/><polygon class="cls-1" points="54.05 142.08 52.38 145.22 36.55 136.82 38.24 133.67 54.05 142.08"/><polygon class="cls-1" points="50.34 149.23 48.78 152.43 32.67 144.59 34.24 141.37 50.34 149.23"/><polygon class="cls-1" points="46.88 156.5 45.43 159.76 29.05 152.47 30.52 149.21 46.88 156.5"/><polygon class="cls-1" points="43.67 163.89 42.33 167.2 25.73 160.49 27.07 157.18 43.67 163.89"/><polygon class="cls-1" points="38.05 178.98 36.95 182.37 19.91 176.85 21.02 173.45 38.05 178.98"/><polygon class="cls-1" points="35.64 186.66 34.65 190.09 17.43 185.16 18.42 181.73 35.64 186.66"/><polygon class="cls-1" points="33.5 194.43 32.62 197.89 15.24 193.56 16.12 190.09 33.5 194.43"/><polygon class="cls-1" points="31.62 202.27 30.88 205.75 13.35 202.03 14.1 198.54 31.62 202.27"/><polygon class="cls-1" points="28.7 218.1 28.2 221.63 10.46 219.15 10.97 215.61 28.7 218.1"/><polygon class="cls-1" points="27.67 226.09 27.28 229.63 9.47 227.77 9.85 224.21 27.67 226.09"/><polygon class="cls-1" points="26.9 234.11 26.64 237.66 8.77 236.42 9.03 232.85 26.9 234.11"/><polygon class="cls-1" points="26.41 242.15 26.28 245.71 8.38 245.09 8.52 241.52 26.41 242.15"/><polygon class="cls-1" points="377.71 448.59 380.74 446.72 390.25 461.91 387.21 463.79 377.71 448.59"/><polygon class="cls-1" points="384.5 444.26 387.46 442.28 397.49 457.12 394.53 459.11 384.5 444.26"/><polygon class="cls-1" points="391.13 439.69 394.03 437.61 404.56 452.1 401.67 454.19 391.13 439.69"/><polygon class="cls-1" points="397.6 434.89 400.42 432.71 411.47 446.82 408.64 449.01 397.6 434.89"/><polygon class="cls-1" points="410.01 424.64 412.67 422.27 424.68 435.57 422.02 437.95 410.01 424.64"/><polygon class="cls-1" points="415.95 419.19 418.53 416.73 430.99 429.6 428.41 432.08 415.95 419.19"/><polygon class="cls-1" points="421.69 413.54 424.17 410.99 437.07 423.42 434.59 425.99 421.69 413.54"/><polygon class="cls-1" points="427.23 407.69 429.62 405.05 442.95 417.03 440.55 419.68 427.23 407.69"/><polygon class="cls-1" points="437.67 395.43 439.88 392.64 454.01 403.65 451.81 406.46 437.67 395.43"/><polygon class="cls-1" points="442.57 389.04 444.69 386.16 459.18 396.69 457.08 399.57 442.57 389.04"/><polygon class="cls-1" points="447.24 382.47 449.25 379.54 464.11 389.54 462.1 392.5 447.24 382.47"/><polygon class="cls-1" points="451.68 375.76 453.59 372.74 468.78 382.23 466.89 385.25 451.68 375.76"/><polygon class="cls-1" points="459.84 361.87 461.53 358.73 477.35 367.13 475.67 370.28 459.84 361.87"/><polygon class="cls-1" points="463.55 354.72 465.13 351.52 481.25 359.37 479.66 362.57 463.55 354.72"/><polygon class="cls-1" points="467.02 347.45 468.48 344.2 484.85 351.47 483.39 354.74 467.02 347.45"/><polygon class="cls-1" points="470.22 340.06 471.57 336.76 488.19 343.46 486.83 346.77 470.22 340.06"/><polygon class="cls-1" points="475.85 324.97 476.96 321.59 494.01 327.11 492.88 330.5 475.85 324.97"/><polygon class="cls-1" points="478.26 317.29 479.26 313.86 496.48 318.79 495.48 322.22 478.26 317.29"/><polygon class="cls-1" points="480.4 309.52 481.28 306.06 498.67 310.39 497.79 313.86 480.4 309.52"/><polygon class="cls-1" points="482.28 301.69 483.04 298.2 500.56 301.92 499.8 305.42 482.28 301.69"/><polygon class="cls-1" points="485.19 285.85 485.71 282.32 503.44 284.81 502.94 288.35 485.19 285.85"/><polygon class="cls-1" points="486.24 277.86 486.62 274.32 504.44 276.18 504.06 279.74 486.24 277.86"/><polygon class="cls-1" points="487 269.85 487.27 266.29 505.14 267.53 504.87 271.1 487 269.85"/><polygon class="cls-1" points="487.48 261.81 487.63 258.25 505.53 258.86 505.38 262.43 487.48 261.81"/><polygon class="cls-1" points="487.6 245.71 487.51 242.14 505.4 241.5 505.51 245.08 487.6 245.71"/><polygon class="cls-1" points="487.25 237.66 487.01 234.1 504.89 232.84 505.12 236.41 487.25 237.66"/><polygon class="cls-1" points="486.6 229.63 486.25 226.08 504.06 224.2 504.43 227.75 486.6 229.63"/><polygon class="cls-1" points="485.69 221.63 485.21 218.09 502.94 215.59 503.43 219.13 485.69 221.63"/><polygon class="cls-1" points="483.01 205.74 482.3 202.25 499.81 198.52 500.54 202.02 483.01 205.74"/><polygon class="cls-1" points="481.26 197.89 480.41 194.42 497.8 190.08 498.64 193.55 481.26 197.89"/><polygon class="cls-1" points="479.24 190.09 478.27 186.66 495.49 181.71 496.45 185.15 479.24 190.09"/><polygon class="cls-1" points="476.94 182.37 475.86 178.97 492.89 173.43 493.98 176.84 476.94 182.37"/><polygon class="cls-1" points="471.55 167.19 470.23 163.88 486.84 157.16 488.16 160.48 471.55 167.19"/><polygon class="cls-1" points="468.46 159.75 467.02 156.48 483.39 149.2 484.83 152.46 468.46 159.75"/><polygon class="cls-1" points="465.11 152.43 463.57 149.21 479.66 141.36 481.21 144.58 465.11 152.43"/><polygon class="cls-1" points="461.51 145.22 459.86 142.07 475.67 133.65 477.33 136.81 461.51 145.22"/><polygon class="cls-1" points="453.56 131.22 451.7 128.18 466.88 118.68 468.76 121.72 453.56 131.22"/><polygon class="cls-1" points="449.23 124.42 447.25 121.46 462.1 111.44 464.08 114.41 449.23 124.42"/><polygon class="cls-1" points="444.66 117.79 442.59 114.9 457.06 104.36 459.16 107.27 444.66 117.79"/><polygon class="cls-1" points="439.86 111.33 437.69 108.5 451.8 97.47 453.99 100.29 439.86 111.33"/><polygon class="cls-1" points="429.6 98.91 427.24 96.24 440.54 84.25 442.93 86.92 429.6 98.91"/><polygon class="cls-1" points="424.16 92.98 421.7 90.4 434.57 77.95 437.05 80.53 424.16 92.98"/><polygon class="cls-1" points="418.5 87.24 415.95 84.75 428.39 71.85 430.96 74.35 418.5 87.24"/><polygon class="cls-1" points="412.66 81.7 410.02 79.3 422 65.98 424.65 68.39 412.66 81.7"/><polygon class="cls-1" points="400.4 71.26 397.61 69.04 408.62 54.92 411.44 57.13 400.4 71.26"/><polygon class="cls-1" points="394 66.36 391.14 64.24 401.65 49.75 404.54 51.86 394 66.36"/><polygon class="cls-1" points="387.44 61.69 384.5 59.68 394.5 44.82 397.46 46.83 387.44 61.69"/><polygon class="cls-1" points="380.72 57.25 377.71 55.34 387.19 40.15 390.22 42.05 380.72 57.25"/><polygon class="cls-1" points="366.83 49.09 363.7 47.4 372.1 31.58 375.26 33.26 366.83 49.09"/><polygon class="cls-1" points="359.68 45.38 356.5 43.8 364.34 27.69 367.56 29.27 359.68 45.38"/><polygon class="cls-1" points="352.41 41.92 349.17 40.45 356.44 24.08 359.71 25.55 352.41 41.92"/><polygon class="cls-1" points="345.02 38.72 341.73 37.36 348.43 20.75 351.74 22.1 345.02 38.72"/><polygon class="cls-1" points="329.94 33.09 326.56 31.97 332.08 14.93 335.48 16.04 329.94 33.09"/><polygon class="cls-1" points="322.25 30.68 318.83 29.68 323.76 12.46 327.2 13.45 322.25 30.68"/><polygon class="cls-1" points="314.49 28.54 311.03 27.65 315.35 10.26 318.83 11.14 314.49 28.54"/><polygon class="cls-1" points="306.66 26.66 303.17 25.91 306.88 8.38 310.39 9.13 306.66 26.66"/><polygon class="cls-1" points="290.82 23.74 287.29 23.23 289.77 5.49 293.32 5.99 290.82 23.74"/><polygon class="cls-1" points="282.83 22.7 279.29 22.31 281.15 4.49 284.71 4.87 282.83 22.7"/><polygon class="cls-1" points="274.82 21.93 271.26 21.67 272.5 3.79 276.07 4.05 274.82 21.93"/><polygon class="cls-1" points="266.78 21.45 263.21 21.31 263.82 3.41 267.41 3.54 266.78 21.45"/><path class="cls-1" d="M2.08,298h0c.28-.41.69-.91,1-1.31l3.38-4H9.06l-4.45,4.74,5.07,6.8H7.13l-4-5.53-1.08,1.19v4.34H0V287.33H2.08Z"/><path class="cls-1" d="M11.6,295.84c0-1.19,0-2.17-.1-3.12h1.84l.09,1.86h.07a4,4,0,0,1,3.63-2.12,3.4,3.4,0,0,1,3.26,2.31h.05a4.7,4.7,0,0,1,1.29-1.5,3.94,3.94,0,0,1,2.54-.81c1.53,0,3.8,1,3.8,5v6.8H26v-6.53c0-2.22-.82-3.56-2.51-3.56A2.71,2.71,0,0,0,21,296.08a3.35,3.35,0,0,0-.17,1.05v7.13H18.82v-6.91c0-1.84-.81-3.18-2.41-3.18a3.1,3.1,0,0,0-2.76,3.13v7H11.6Z"/><polygon class="cls-1" points="29.72 305.21 36.37 287.93 37.99 287.93 31.32 305.21 29.72 305.21"/><path class="cls-1" d="M39.66,287.33h2.1v7.2h.05a4,4,0,0,1,1.5-1.48,4.42,4.42,0,0,1,2.14-.59c1.55,0,4,1,4,4.93v6.87h-2.1v-6.63c0-1.86-.69-3.43-2.66-3.43a3,3,0,0,0-2.82,2.09,2.77,2.77,0,0,0-.14,1v7h-2.1Z"/><path class="cls-1" d="M44.49,261.27a6.6,6.6,0,0,1-2.42-2.82,11.61,11.61,0,0,1,0-8.82,6.57,6.57,0,0,1,2.42-2.83,6.47,6.47,0,0,1,9.44,2.83,11.49,11.49,0,0,1,0,8.82,6.31,6.31,0,0,1-5.93,3.8A6.44,6.44,0,0,1,44.49,261.27Zm5.79-3.38a9.37,9.37,0,0,0,0-7.71,2.68,2.68,0,0,0-4.53,0,9.37,9.37,0,0,0,0,7.71,2.68,2.68,0,0,0,4.53,0Z"/><path class="cls-1" d="M67.06,185v3h-12v-2.38l6.13-5.78a6.24,6.24,0,0,0,1.31-1.6,2.86,2.86,0,0,0,.34-1.33,1.75,1.75,0,0,0-.64-1.46,3,3,0,0,0-1.9-.51,4.28,4.28,0,0,0-1.88.4A3.58,3.58,0,0,0,57,176.5l-2.67-1.72a6.2,6.2,0,0,1,2.56-2.17,8.6,8.6,0,0,1,3.74-.78,7.66,7.66,0,0,1,3.1.58A4.75,4.75,0,0,1,65.8,174a4.22,4.22,0,0,1,.74,2.48A5.47,5.47,0,0,1,66,179a9.25,9.25,0,0,1-2.1,2.58L60.23,185Z"/><path class="cls-1" d="M71.82,187.27a6.51,6.51,0,0,1-2.41-2.82,11.49,11.49,0,0,1,0-8.82,6.48,6.48,0,0,1,11.86,0,11.61,11.61,0,0,1,0,8.82,6.53,6.53,0,0,1-2.42,2.82,6.79,6.79,0,0,1-7,0Zm5.8-3.38a9.47,9.47,0,0,0,0-7.71,2.62,2.62,0,0,0-2.28-1.25,2.59,2.59,0,0,0-2.26,1.25,9.37,9.37,0,0,0,0,7.71,2.59,2.59,0,0,0,2.26,1.25A2.62,2.62,0,0,0,77.62,183.89Z"/><path class="cls-1" d="M102.74,127.64h-2.59V131H96.57v-3.33H88v-2.47L95.5,115.1h3.86l-6.94,9.55h4.26v-3h3.47v3h2.59Z"/><path class="cls-1" d="M107.11,130.27a6.51,6.51,0,0,1-2.41-2.82,11.49,11.49,0,0,1,0-8.82,6.48,6.48,0,0,1,11.86,0,11.61,11.61,0,0,1,0,8.82,6.53,6.53,0,0,1-2.42,2.82,6.79,6.79,0,0,1-7,0Zm5.8-3.38a9.47,9.47,0,0,0,0-7.71,2.69,2.69,0,0,0-4.54,0,9.37,9.37,0,0,0,0,7.71,2.69,2.69,0,0,0,4.54,0Z"/><path class="cls-1" d="M152.61,73.63a4.82,4.82,0,0,1,2,1.74,4.59,4.59,0,0,1,.73,2.59,4.94,4.94,0,0,1-.8,2.79,5.2,5.2,0,0,1-2.16,1.85,7.1,7.1,0,0,1-3,.65,6.76,6.76,0,0,1-5.22-2,8.34,8.34,0,0,1-1.88-5.83,9.8,9.8,0,0,1,1-4.63,6.92,6.92,0,0,1,2.85-2.92,8.59,8.59,0,0,1,4.23-1,10.17,10.17,0,0,1,2.43.28,6.58,6.58,0,0,1,2,.81l-1.36,2.69a5.3,5.3,0,0,0-3-.79,4.31,4.31,0,0,0-3.2,1.18,4.92,4.92,0,0,0-1.27,3.42,5.32,5.32,0,0,1,3.92-1.4A6.16,6.16,0,0,1,152.61,73.63ZM151,79.87a2.39,2.39,0,0,0,0-3.46,2.86,2.86,0,0,0-2-.65,2.92,2.92,0,0,0-2,.67,2.16,2.16,0,0,0-.78,1.71,2.14,2.14,0,0,0,.75,1.7,3,3,0,0,0,2,.66A2.85,2.85,0,0,0,151,79.87Z"/><path class="cls-1" d="M159.93,82.27a6.58,6.58,0,0,1-2.41-2.82,11.61,11.61,0,0,1,0-8.82,6.55,6.55,0,0,1,2.41-2.83,6.49,6.49,0,0,1,9.45,2.83,11.61,11.61,0,0,1,0,8.82A6.53,6.53,0,0,1,167,82.27a6.79,6.79,0,0,1-7,0Zm5.8-3.38a7.08,7.08,0,0,0,.83-3.85,7.12,7.12,0,0,0-.83-3.86,2.69,2.69,0,0,0-4.54,0,7.12,7.12,0,0,0-.83,3.86,7.08,7.08,0,0,0,.83,3.85,2.69,2.69,0,0,0,4.54,0Z"/><path class="cls-1" d="M214.87,49.17a4,4,0,0,1,.62,2.2,4.11,4.11,0,0,1-.84,2.57,5.32,5.32,0,0,1-2.36,1.7,10.4,10.4,0,0,1-7,0,5.23,5.23,0,0,1-2.33-1.7,4.16,4.16,0,0,1-.83-2.57,4,4,0,0,1,.62-2.2,4.57,4.57,0,0,1,1.78-1.54,3.88,3.88,0,0,1-1.36-1.37,4.1,4.1,0,0,1,.3-4.3,4.9,4.9,0,0,1,2.15-1.58,8.48,8.48,0,0,1,3.18-.55,8.64,8.64,0,0,1,3.21.55A4.88,4.88,0,0,1,214.15,42a3.8,3.8,0,0,1-1.09,5.67A4.53,4.53,0,0,1,214.87,49.17ZM211,52.92a2.11,2.11,0,0,0,0-3.32,3.49,3.49,0,0,0-2.18-.61,3.44,3.44,0,0,0-2.16.61,2.15,2.15,0,0,0,0,3.33,4.08,4.08,0,0,0,4.34,0Zm-4-9.86a1.75,1.75,0,0,0-.67,1.46A1.72,1.72,0,0,0,207,46a2.77,2.77,0,0,0,1.79.52,2.88,2.88,0,0,0,1.81-.52,1.71,1.71,0,0,0,.68-1.43,1.75,1.75,0,0,0-.68-1.46,2.82,2.82,0,0,0-1.81-.53A2.74,2.74,0,0,0,207,43.06Z"/><path class="cls-1" d="M220.46,55.27A6.53,6.53,0,0,1,218,52.45a10.29,10.29,0,0,1-.87-4.41,10.26,10.26,0,0,1,.87-4.41,6.5,6.5,0,0,1,2.42-2.83,6.85,6.85,0,0,1,7,0,6.55,6.55,0,0,1,2.41,2.83,10.26,10.26,0,0,1,.87,4.41,10.29,10.29,0,0,1-.87,4.41,6.58,6.58,0,0,1-2.41,2.82,6.79,6.79,0,0,1-7,0Zm5.79-3.38a7.08,7.08,0,0,0,.83-3.85,7.12,7.12,0,0,0-.83-3.86,2.69,2.69,0,0,0-4.54,0,7.13,7.13,0,0,0-.82,3.86,7.09,7.09,0,0,0,.82,3.85,2.69,2.69,0,0,0,4.54,0Z"/><path class="cls-1" d="M282.32,42.1V58h-3.67V45.05h-3.18V42.1Z"/><path class="cls-1" d="M288.38,57.27A6.53,6.53,0,0,1,286,54.45a10.29,10.29,0,0,1-.87-4.41,10.26,10.26,0,0,1,.87-4.41,6.5,6.5,0,0,1,2.42-2.83,6.47,6.47,0,0,1,9.44,2.83,11.49,11.49,0,0,1,0,8.82,6.31,6.31,0,0,1-5.93,3.8A6.44,6.44,0,0,1,288.38,57.27Zm5.79-3.38A7.08,7.08,0,0,0,295,50a7.12,7.12,0,0,0-.83-3.86,2.68,2.68,0,0,0-4.53,0,7,7,0,0,0-.83,3.86,7,7,0,0,0,.83,3.85,2.68,2.68,0,0,0,4.53,0Z"/><path class="cls-1" d="M303.77,57.27a6.58,6.58,0,0,1-2.41-2.82,10.29,10.29,0,0,1-.87-4.41,10.26,10.26,0,0,1,.87-4.41,6.55,6.55,0,0,1,2.41-2.83,6.87,6.87,0,0,1,7,0,6.55,6.55,0,0,1,2.41,2.83,10.26,10.26,0,0,1,.87,4.41,10.29,10.29,0,0,1-.87,4.41,6.58,6.58,0,0,1-2.41,2.82,6.81,6.81,0,0,1-7,0Zm5.8-3.38A7.08,7.08,0,0,0,310.4,50a7.12,7.12,0,0,0-.83-3.86,2.69,2.69,0,0,0-4.54,0,7.13,7.13,0,0,0-.82,3.86,7.09,7.09,0,0,0,.82,3.85,2.69,2.69,0,0,0,4.54,0Z"/><path class="cls-1" d="M348.32,66.1V82h-3.67V69.05h-3.18v-3Z"/><path class="cls-1" d="M363,79v3H351V79.59l6.13-5.78a6.24,6.24,0,0,0,1.31-1.6,2.86,2.86,0,0,0,.34-1.33,1.75,1.75,0,0,0-.64-1.46,3,3,0,0,0-1.9-.51,4.28,4.28,0,0,0-1.88.4,3.58,3.58,0,0,0-1.41,1.19l-2.67-1.72a6.2,6.2,0,0,1,2.56-2.17,8.6,8.6,0,0,1,3.74-.78,7.66,7.66,0,0,1,3.1.58A4.75,4.75,0,0,1,361.69,68a4.22,4.22,0,0,1,.74,2.48,5.47,5.47,0,0,1-.55,2.43,9.14,9.14,0,0,1-2.11,2.58L356.12,79Z"/><path class="cls-1" d="M367.71,81.27a6.51,6.51,0,0,1-2.41-2.82,11.49,11.49,0,0,1,0-8.82,6.48,6.48,0,0,1,11.86,0,11.61,11.61,0,0,1,0,8.82,6.53,6.53,0,0,1-2.42,2.82,6.79,6.79,0,0,1-7,0Zm5.8-3.38a7.09,7.09,0,0,0,.82-3.85,7.13,7.13,0,0,0-.82-3.86,2.62,2.62,0,0,0-2.28-1.25A2.58,2.58,0,0,0,369,70.18a7.12,7.12,0,0,0-.83,3.86,7.08,7.08,0,0,0,.83,3.85,2.58,2.58,0,0,0,2.26,1.25A2.62,2.62,0,0,0,373.51,77.89Z"/><path class="cls-1" d="M397.32,115.1V131h-3.67V118.05h-3.18v-3Z"/><path class="cls-1" d="M414.63,127.64H412V131h-3.58v-3.33h-8.55v-2.47l7.48-10.07h3.86l-6.94,9.55h4.26v-3H412v3h2.59Z"/><path class="cls-1" d="M419,130.27a6.51,6.51,0,0,1-2.41-2.82,11.49,11.49,0,0,1,0-8.82A6.62,6.62,0,0,1,426,115.8a6.57,6.57,0,0,1,2.42,2.83,11.61,11.61,0,0,1,0,8.82,6.6,6.6,0,0,1-2.42,2.82,6.79,6.79,0,0,1-7,0Zm5.8-3.38a9.47,9.47,0,0,0,0-7.71,2.62,2.62,0,0,0-2.28-1.25,2.58,2.58,0,0,0-2.26,1.25,9.37,9.37,0,0,0,0,7.71,2.58,2.58,0,0,0,2.26,1.25A2.62,2.62,0,0,0,424.8,126.89Z"/><path class="cls-1" d="M428.32,172.1V188h-3.67V175.05h-3.18v-3Z"/><path class="cls-1" d="M441.5,178.63a4.82,4.82,0,0,1,2,1.74,4.59,4.59,0,0,1,.73,2.59,4.94,4.94,0,0,1-.8,2.79,5.2,5.2,0,0,1-2.16,1.85,7.1,7.1,0,0,1-3.05.65,6.76,6.76,0,0,1-5.22-2,8.34,8.34,0,0,1-1.88-5.83,9.8,9.8,0,0,1,1-4.63,6.92,6.92,0,0,1,2.85-2.92,8.59,8.59,0,0,1,4.23-1,10.17,10.17,0,0,1,2.43.28,6.58,6.58,0,0,1,2,.81l-1.36,2.69a5.3,5.3,0,0,0-3-.79,4.3,4.3,0,0,0-3.2,1.18,4.92,4.92,0,0,0-1.27,3.42,5.32,5.32,0,0,1,3.92-1.4A6.19,6.19,0,0,1,441.5,178.63Zm-1.6,6.24a2.39,2.39,0,0,0,0-3.46,2.86,2.86,0,0,0-2-.65,2.92,2.92,0,0,0-2,.67,2.16,2.16,0,0,0-.78,1.71,2.14,2.14,0,0,0,.75,1.7,3,3,0,0,0,2,.66A2.85,2.85,0,0,0,439.9,184.87Z"/><path class="cls-1" d="M448.82,187.27a6.51,6.51,0,0,1-2.41-2.82,11.49,11.49,0,0,1,0-8.82,6.48,6.48,0,0,1,11.86,0,11.61,11.61,0,0,1,0,8.82,6.53,6.53,0,0,1-2.42,2.82,6.79,6.79,0,0,1-7,0Zm5.8-3.38a9.47,9.47,0,0,0,0-7.71,2.69,2.69,0,0,0-4.54,0,9.37,9.37,0,0,0,0,7.71,2.69,2.69,0,0,0,4.54,0Z"/><path class="cls-1" d="M444.32,244.1V260h-3.67V247.05h-3.18v-3Z"/><path class="cls-1" d="M459.76,253.17a4,4,0,0,1,.62,2.2,4.11,4.11,0,0,1-.84,2.57,5.32,5.32,0,0,1-2.36,1.7,10.4,10.4,0,0,1-7,0,5.23,5.23,0,0,1-2.33-1.7,4.1,4.1,0,0,1-.83-2.57,4,4,0,0,1,.62-2.2,4.57,4.57,0,0,1,1.78-1.54,3.88,3.88,0,0,1-1.36-1.37,4.1,4.1,0,0,1,.3-4.3,4.9,4.9,0,0,1,2.15-1.58,8.48,8.48,0,0,1,3.18-.55,8.58,8.58,0,0,1,3.2.55A4.85,4.85,0,0,1,459,246a3.89,3.89,0,0,1,.77,2.4,3.6,3.6,0,0,1-1.86,3.27A4.53,4.53,0,0,1,459.76,253.17Zm-3.9,3.75a2.12,2.12,0,0,0,0-3.32,3.54,3.54,0,0,0-2.19-.61,3.44,3.44,0,0,0-2.16.61,2.15,2.15,0,0,0,0,3.33,4.1,4.1,0,0,0,4.35,0Zm-4-9.86a1.91,1.91,0,0,0,0,2.89,2.81,2.81,0,0,0,1.8.52,2.88,2.88,0,0,0,1.81-.52,1.71,1.71,0,0,0,.68-1.43,1.75,1.75,0,0,0-.68-1.46,2.82,2.82,0,0,0-1.81-.53A2.74,2.74,0,0,0,451.89,247.06Z"/><path class="cls-1" d="M465.34,259.27a6.58,6.58,0,0,1-2.41-2.82,11.61,11.61,0,0,1,0-8.82,6.55,6.55,0,0,1,2.41-2.83,6.49,6.49,0,0,1,9.45,2.83,11.61,11.61,0,0,1,0,8.82,6.53,6.53,0,0,1-2.42,2.82,6.79,6.79,0,0,1-7,0Zm5.8-3.38a9.37,9.37,0,0,0,0-7.71,2.69,2.69,0,0,0-4.54,0,9.37,9.37,0,0,0,0,7.71,2.69,2.69,0,0,0,4.54,0Z"/><path class="cls-1" d="M432.06,326v3h-12v-2.38l6.13-5.78a6.47,6.47,0,0,0,1.31-1.6,2.86,2.86,0,0,0,.34-1.33,1.75,1.75,0,0,0-.64-1.46,3,3,0,0,0-1.9-.51,4.28,4.28,0,0,0-1.88.4,3.48,3.48,0,0,0-1.4,1.19l-2.68-1.72a6.2,6.2,0,0,1,2.56-2.17,8.6,8.6,0,0,1,3.74-.78,7.66,7.66,0,0,1,3.1.58A4.75,4.75,0,0,1,430.8,315a4.22,4.22,0,0,1,.74,2.48A5.47,5.47,0,0,1,431,320a9.25,9.25,0,0,1-2.1,2.58L425.23,326Z"/><path class="cls-1" d="M436.82,328.27a6.51,6.51,0,0,1-2.41-2.82,11.49,11.49,0,0,1,0-8.82,6.48,6.48,0,0,1,11.86,0,11.61,11.61,0,0,1,0,8.82,6.53,6.53,0,0,1-2.42,2.82,6.79,6.79,0,0,1-7,0Zm5.8-3.38a9.47,9.47,0,0,0,0-7.71,2.62,2.62,0,0,0-2.28-1.25,2.59,2.59,0,0,0-2.26,1.25,9.37,9.37,0,0,0,0,7.71,2.59,2.59,0,0,0,2.26,1.25A2.62,2.62,0,0,0,442.62,324.89Z"/><path class="cls-1" d="M452.22,328.27a6.6,6.6,0,0,1-2.42-2.82,11.61,11.61,0,0,1,0-8.82,6.57,6.57,0,0,1,2.42-2.83,6.85,6.85,0,0,1,7,0,6.57,6.57,0,0,1,2.42,2.83,11.61,11.61,0,0,1,0,8.82,6.6,6.6,0,0,1-2.42,2.82,6.79,6.79,0,0,1-7,0Zm5.79-3.38a9.37,9.37,0,0,0,0-7.71,2.68,2.68,0,0,0-4.53,0,9.37,9.37,0,0,0,0,7.71,2.68,2.68,0,0,0,4.53,0Z"/><path class="cls-1" d="M397.06,391v3h-12v-2.38l6.13-5.78a6.47,6.47,0,0,0,1.31-1.6,2.86,2.86,0,0,0,.34-1.33,1.75,1.75,0,0,0-.64-1.46,3,3,0,0,0-1.9-.51,4.28,4.28,0,0,0-1.88.4,3.48,3.48,0,0,0-1.4,1.19l-2.68-1.72a6.2,6.2,0,0,1,2.56-2.17,8.6,8.6,0,0,1,3.74-.78,7.66,7.66,0,0,1,3.1.58A4.75,4.75,0,0,1,395.8,380a4.22,4.22,0,0,1,.74,2.48A5.47,5.47,0,0,1,396,385a9.25,9.25,0,0,1-2.1,2.58L390.23,391Z"/><path class="cls-1" d="M410.44,391v3h-12v-2.38l6.13-5.78a6.47,6.47,0,0,0,1.31-1.6,2.86,2.86,0,0,0,.34-1.33,1.75,1.75,0,0,0-.64-1.46,3,3,0,0,0-1.9-.51,4.28,4.28,0,0,0-1.88.4,3.58,3.58,0,0,0-1.41,1.19l-2.67-1.72a6.2,6.2,0,0,1,2.56-2.17,8.6,8.6,0,0,1,3.74-.78,7.66,7.66,0,0,1,3.1.58,4.75,4.75,0,0,1,2.06,1.63,4.22,4.22,0,0,1,.74,2.48,5.47,5.47,0,0,1-.55,2.43,9.25,9.25,0,0,1-2.1,2.58L403.61,391Z"/><path class="cls-1" d="M415.2,393.27a6.51,6.51,0,0,1-2.41-2.82,11.49,11.49,0,0,1,0-8.82,6.62,6.62,0,0,1,9.44-2.83,6.57,6.57,0,0,1,2.42,2.83,11.61,11.61,0,0,1,0,8.82,6.6,6.6,0,0,1-2.42,2.82,6.79,6.79,0,0,1-7,0Zm5.8-3.38a9.47,9.47,0,0,0,0-7.71,2.62,2.62,0,0,0-2.28-1.25,2.59,2.59,0,0,0-2.26,1.25,9.37,9.37,0,0,0,0,7.71,2.59,2.59,0,0,0,2.26,1.25A2.62,2.62,0,0,0,421,389.89Z"/><path class="cls-1" d="M341.06,439v3h-12v-2.38l6.13-5.78a6.47,6.47,0,0,0,1.31-1.6,2.86,2.86,0,0,0,.34-1.33,1.75,1.75,0,0,0-.64-1.46,3,3,0,0,0-1.9-.51,4.28,4.28,0,0,0-1.88.4,3.48,3.48,0,0,0-1.4,1.19l-2.68-1.72a6.2,6.2,0,0,1,2.56-2.17,8.6,8.6,0,0,1,3.74-.78,7.66,7.66,0,0,1,3.1.58A4.75,4.75,0,0,1,339.8,428a4.22,4.22,0,0,1,.74,2.48A5.47,5.47,0,0,1,340,433a9.25,9.25,0,0,1-2.1,2.58L334.23,439Z"/><path class="cls-1" d="M356.89,438.64H354.3V442h-3.58v-3.33h-8.55v-2.47l7.49-10.07h3.85l-6.94,9.55h4.26v-3h3.47v3h2.59Z"/><path class="cls-1" d="M361.27,441.27a6.53,6.53,0,0,1-2.42-2.82,11.61,11.61,0,0,1,0-8.82,6.5,6.5,0,0,1,2.42-2.83,6.85,6.85,0,0,1,7,0,6.55,6.55,0,0,1,2.41,2.83,11.61,11.61,0,0,1,0,8.82,6.58,6.58,0,0,1-2.41,2.82,6.79,6.79,0,0,1-7,0Zm5.79-3.38a9.37,9.37,0,0,0,0-7.71,2.69,2.69,0,0,0-4.54,0,9.47,9.47,0,0,0,0,7.71,2.69,2.69,0,0,0,4.54,0Z"/></svg>