<svg id="Capa_1" data-name="Capa 1" xmlns="http://www.w3.org/2000/svg" viewBox="0 0 346.4 346.4"><defs><style>.cls-1{fill:#cbd9e2;}</style></defs><title>bag</title><path class="cls-1" d="M308,144a110.63,110.63,0,0,0-24.8-70c0-.4.4-.8.4-1.2V6.8A6.32,6.32,0,0,0,277.2.4H235.6a6.32,6.32,0,0,0-6.4,6.4V38A96,96,0,0,0,210,34a37.47,37.47,0,0,0-73.6,0,142,142,0,0,0-18.8,3.6V6.4A6.32,6.32,0,0,0,111.2,0H70a6.32,6.32,0,0,0-6.4,6.4V73.2a108.73,108.73,0,0,0-25.2,70L31.6,273.6c0,64,53.2,72.8,110.4,72.8h62.4c57.2,0,110.4-8.8,110.4-72.8ZM241.6,13.2h28.8V61.6a115.33,115.33,0,0,0-28.8-18.8V13.2Zm-68.4,3.6c10.8,0,20,7.2,23.6,16.8H149.6A25,25,0,0,1,173.2,16.8ZM76.4,13.2h28.8V42.8A107.29,107.29,0,0,0,76.4,61.2Zm62,33.2s5.5-.5,7.6-.4h51.6c.8,0,8.2.2,10.4.4,46.8,4.8,84,43.2,87.2,91.2H216a26.19,26.19,0,0,0-25.6-20H159.2a26.19,26.19,0,0,0-25.6,20H51.2A98.31,98.31,0,0,1,138.4,46.4Zm66,97.6a13.49,13.49,0,0,1-13.6,13.6H159.6a13.6,13.6,0,0,1,0-27.2h31.2A13.49,13.49,0,0,1,204.4,144Zm0,190H142c-60.4,0-98-10-98-59.6l6.8-124h83.6a26.19,26.19,0,0,0,25.6,20h31.2a26.19,26.19,0,0,0,25.6-20h79.6L303.2,274C302.4,324,264.8,334,204.4,334Z"/><path class="cls-1" d="M192.8,193.2H157.6c-36.4,0-65.2,17.2-65.2,39.6v33.6c0,21.2,25.6,35.2,65.2,35.2h35.2c39.6,0,65.2-13.6,65.2-35.2V232.8C258,210.8,229.2,193.2,192.8,193.2ZM157.6,206h35.2c26.4,0,45.2,9.6,50.8,20.4H106.8C112,215.6,131.2,206,157.6,206Zm87.6,60.4c0,13.2-22,22.4-52.4,22.4H157.6c-30.4,0-52.4-9.6-52.4-22.4V239.2h140v27.2Z"/></svg>