<svg id="Layer_1" data-name="Layer 1" xmlns="http://www.w3.org/2000/svg" viewBox="0 0 512 512"><defs><style>.cls-1{fill:#cbd9e2;}</style></defs><title>boots</title><path class="cls-1" d="M240.63,193.68c5.9,4,13.62-2,11.43-8.71s-11.61-6.88-14.23-.52A7.66,7.66,0,0,0,240.63,193.68Z"/><path class="cls-1" d="M498.9,261.29c-7.63-7.63-23.6-12.73-48.84-15.59-14.75-1.67-28-2-32.33-2.09-7.07-2.84-17.06-7.23-29.3-13.13a7.6,7.6,0,0,0-11.5-9.87l-2.82,2.81q-5.55-2.8-11.54-5.93l.13-.13A7.6,7.6,0,0,0,352,206.61L348.53,210q-5.5-3-11.27-6.2l.45-.45A7.6,7.6,0,0,0,327,192.61L323.54,196q-5.44-3.14-11-6.44l.23-.23A7.6,7.6,0,0,0,302,178.62l-2.91,2.91c-15.74-9.62-32.24-20.21-49.11-31.76-3-2.29-26.77-19.6-44.44-16.37a20.37,20.37,0,0,0-13.93,9.38c-11.66,18.51-11.68,33.08.5,48.52-11.41,7-23.11,12-33.27,12-17.88,0-27.29-17.12-35.59-32.22-6.85-12.46-13.32-24.24-24.89-24.24a50.22,50.22,0,0,0-5.83.35c-20.17,2.35-38.1,15.54-46.81,34.43-7.27,15.78-17.33,39.16-24,61-7.7,25.22-9.14,42.22-4.4,52.82L.58,335.66a7.59,7.59,0,0,0,2,8.64c1.59,1.4,40.09,34.14,126,34.14H401.45c55.51,0,97.86-24.25,100.84-57,5.17-5,8.56-12.78,9.46-21.95C513.18,285.05,508.37,270.76,498.9,261.29ZM475,265.75c-10.74,4.14-25.24,9.61-37.7,13.88-8,2.76-32.48,11.14-43.62,4.77a10.73,10.73,0,0,1-2.54-1.95c21.24-3,33.2-8.88,36.44-17.8a14.4,14.4,0,0,0,.86-5.49C444.29,260,462.5,262.12,475,265.75ZM282.48,208.86a7.6,7.6,0,0,0,10.76,0l8.16-8.15q5.6,3.33,11,6.47l-4.93,4.93a7.6,7.6,0,1,0,10.76,10.75l7.86-7.86q5.78,3.23,11.25,6.22l-4.89,4.88a7.61,7.61,0,0,0,10.76,10.76l8.13-8.14q6,3.15,11.52,6l-5.42,5.42a7.6,7.6,0,1,0,10.76,10.75l9-9c18.15,8.85,30.39,14,34.6,15.77a7.63,7.63,0,0,1,1.35,2c-1.34,1.84-9.69,6.71-33.89,8.87-29.22,2.59-66.55,33-75.18,54.33-22.64-2.34-48-5.26-73.91-8.41-2.75-12.52-13.11-24.73-31.32-36.81l81-90.09c2.75,1.72,5.48,3.42,8.18,5.07l-5.51,5.52A7.61,7.61,0,0,0,282.48,208.86Zm-78-58a5.18,5.18,0,0,1,3.79-2.52c6.46-1.19,17.21,3.74,25.56,8.84a258.41,258.41,0,0,1-29.14,25.54C195.8,172.16,196.07,164.21,204.46,150.88ZM59.51,188c6.5-14.11,19.82-24,34.76-25.69a35.55,35.55,0,0,1,4.07-.25c2.58,0,8.43,10.64,11.57,16.36,5.2,9.47,11.48,20.9,20.72,29.13a39.45,39.45,0,0,1-31.1,2.83l-43.7-14.26C57,193.43,58.23,190.74,59.51,188ZM40.64,233.73c12.83,3.18,43,11,74.65,22.11a7.61,7.61,0,0,0,5-14.36C89.44,230.69,60,222.89,46,219.39q1.77-4.48,3.77-9.28l45,14.69a54.61,54.61,0,0,0,45.54-5.32l5.12-3.14a41.17,41.17,0,0,0,13.36,2.14c34,0,74.28-38.64,87.75-52.62q10.31,7,20.24,13.38l-81.19,90.35a349.1,349.1,0,0,0-36.73-17.32,7.61,7.61,0,1,0-5.76,14.08c47.35,19.4,64.5,35.29,70.12,46-81.42-10.11-163.92-21.77-182.54-24.43C28.31,280.42,30.28,263,40.64,233.73Zm423,115.5c-16.28,9-38.36,14-62.17,14H128.58c-64.12,0-100-19.51-111.66-27.26l13.59-32.72c42,6,285,40.24,347.42,40.24,1.48,0,3,0,4.42,0a7.61,7.61,0,0,0-.1-15.21h-.11c-1.4,0-2.8,0-4.21,0-12.55,0-32.93-1.46-57.73-3.84,3.18-5.15,9.16-12.31,18.22-19.87,12.16-10.14,25.27-17.27,36.26-19.91a26.71,26.71,0,0,0,11.45,12.94c5.43,3.11,11.83,4.33,18.66,4.33,12.23,0,25.78-3.92,37.43-7.91,17.67-6.06,39.3-14.46,49-18.27,4.83,7,6.05,15.76,5.41,22.25-.57,5.78-2.59,10.63-5.35,12.94-5.78,2-36.52,11.93-79.34,15.79a7.61,7.61,0,0,0,1.36,15.15,393.66,393.66,0,0,0,71.43-13C480.11,338.76,470.2,345.58,463.62,349.23Z"/></svg>