<svg id="Layer_1" data-name="Layer 1" xmlns="http://www.w3.org/2000/svg" viewBox="0 0 368 368"><defs><style>.cls-1{fill:#cbd9e2;}</style></defs><title>braclet</title><path class="cls-1" d="M184,296.32C80.82,296.32,0,261.9,0,218V143a6.82,6.82,0,1,1,13.63,0c0,31.27,68.46,64.74,170.37,64.74S354.37,174.26,354.37,143A6.82,6.82,0,1,1,368,143v75C368,261.9,287.18,296.32,184,296.32ZM13.63,173.14V218c0,31.27,68.46,64.74,170.37,64.74S354.37,249.22,354.37,218V173.14C327.16,201.71,262,221.36,184,221.36S40.84,201.71,13.63,173.14Z"/><path class="cls-1" d="M33.06,187.28a6.83,6.83,0,0,1-3.73-1.11C10.14,173.6,0,158.66,0,143c0-30,36.53-56,97.73-69.48A42.46,42.46,0,0,1,133.6,82a43.47,43.47,0,0,1,16.33,34c0,21.49-15,39.44-35.54,43.07-32,5.63-59.52,15.25-77.59,27.08A6.86,6.86,0,0,1,33.06,187.28Zm73.8-101.14a29.07,29.07,0,0,0-6.2.68c-52.87,11.66-87,33.71-87,56.17,0,12.2,10,22.35,19.61,29.33,19.62-11.83,46.73-21,78.78-26.66a29.52,29.52,0,0,0,24.28-29.25,30.11,30.11,0,0,0-11.24-23.8A29,29,0,0,0,106.86,86.14Z"/><path class="cls-1" d="M334.94,187.28a6.8,6.8,0,0,1-3.73-1.11c-17-11.11-41.48-20-70.89-25.85a43.75,43.75,0,0,1-35.43-42.65,43.5,43.5,0,0,1,54.18-42.08C334.76,89.56,368,114.76,368,143c0,15.67-10.14,30.61-29.33,43.18A6.8,6.8,0,0,1,334.94,187.28ZM268.36,87.89A29.77,29.77,0,0,0,263,147c29,5.71,53.68,14.45,71.81,25.37,9.64-7,19.6-17.13,19.6-29.33,0-21.25-30.13-42-78.62-54.19A30.64,30.64,0,0,0,268.36,87.89Z"/></svg>