<svg id="Layer_1" data-name="Layer 1" xmlns="http://www.w3.org/2000/svg" xmlns:xlink="http://www.w3.org/1999/xlink" viewBox="0 0 30 30"><defs><style>.cls-1{fill:url(#linear-gradient);}.cls-2{fill:url(#linear-gradient-2);}.cls-3{fill:#182738;}</style><linearGradient id="linear-gradient" x1="0.33" y1="0.33" x2="28.36" y2="28.36" gradientUnits="userSpaceOnUse"><stop offset="0" stop-color="#fff"/><stop offset="1" stop-color="#c7c7c7"/></linearGradient><linearGradient id="linear-gradient-2" x1="24.71" y1="24.71" x2="5.29" y2="5.29" xlink:href="#linear-gradient"/></defs><title>button-3</title><rect class="cls-1" width="30" height="30" rx="6"/><rect class="cls-2" x="4" y="4" width="22" height="22" rx="4.4"/><path class="cls-3" d="M17.75,15a2.24,2.24,0,0,1,.59,1.59A2.55,2.55,0,0,1,18,17.91a2.75,2.75,0,0,1-1.17,1,4.49,4.49,0,0,1-1.93.37A6.81,6.81,0,0,1,13.12,19a4.48,4.48,0,0,1-1.46-.67l.75-1.49a3.62,3.62,0,0,0,1.11.56,4.34,4.34,0,0,0,1.29.2A2.05,2.05,0,0,0,16,17.36a.92.92,0,0,0,.42-.8c0-.69-.53-1-1.58-1h-.88V14.24l1.72-2H12.08V10.73H18V12l-1.9,2.16A2.79,2.79,0,0,1,17.75,15Z"/></svg>