<?xml version="1.0" encoding="utf-8"?>
<!-- Generator: Adobe Illustrator 24.0.1, SVG Export Plug-In . SVG Version: 6.00 Build 0)  -->
<svg version="1.1" id="Layer_1" xmlns="http://www.w3.org/2000/svg" xmlns:xlink="http://www.w3.org/1999/xlink" x="0px" y="0px"
	 viewBox="0 0 490.7 490.7" style="enable-background:new 0 0 490.7 490.7;" xml:space="preserve">
<style type="text/css">
	.st0{fill:#FFFFFF;}
</style>
<g>
	<g>
		<path class="st0" d="M339.3,115.9L319.8,8.8c-0.9-5.1-5.4-8.8-10.5-8.8h-128c-5.1,0-9.6,3.7-10.5,8.8l-19.5,107.1
			c-41.5,30.1-66,78.2-66,129.5s24.6,99.3,66,129.5l19.5,107.1c0.9,5.1,5.4,8.8,10.5,8.8h128c5.1,0,9.6-3.7,10.5-8.8l19.5-107.1
			c41.5-30.1,66-78.2,66-129.5S380.7,146,339.3,115.9z M245.3,362.7C180.6,362.7,128,310,128,245.3S180.6,128,245.3,128
			s117.3,52.6,117.3,117.3S310,362.7,245.3,362.7z"/>
	</g>
</g>
<g>
	<g>
		<path class="st0" d="M295.6,280.5L256,240.9v-59.6c0-5.9-4.8-10.7-10.7-10.7s-10.7,4.8-10.7,10.7v64c0,2.8,1.1,5.5,3.1,7.6
			l42.7,42.7c2.1,2.1,4.8,3.1,7.6,3.1s5.5-1,7.6-3.1C299.7,291.4,299.7,284.6,295.6,280.5z"/>
	</g>
</g>
</svg>
