<?xml version="1.0" encoding="utf-8"?>
<!-- Generator: Adobe Illustrator 24.0.2, SVG Export Plug-In . SVG Version: 6.00 Build 0)  -->
<svg version="1.1" id="Capa_1" xmlns="http://www.w3.org/2000/svg" xmlns:xlink="http://www.w3.org/1999/xlink" x="0px" y="0px"
	 viewBox="0 0 402 402" style="enable-background:new 0 0 402 402;" xml:space="preserve">
<style type="text/css">
	.st0{fill:#FFFFFF;}
</style>
<g>
	<path class="st0" d="M352,13.4C343.1,4.5,332.3,0,319.8,0H82.2C69.7,0,58.9,4.5,50,13.4C41,22.4,36.5,33.1,36.5,45.7v310.6
		c0,12.6,4.5,23.3,13.4,32.3c8.9,8.9,19.7,13.4,32.3,13.4h237.5c12.6,0,23.3-4.5,32.3-13.4c8.9-9,13.4-19.7,13.4-32.3V45.7
		C365.5,33.1,361,22.4,352,13.4z M213.8,378.3c-3.6,3.6-7.9,5.4-12.8,5.4c-5,0-9.2-1.8-12.9-5.4c-3.6-3.6-5.4-7.9-5.4-12.8
		c0-4.9,1.8-9.2,5.4-12.8c3.6-3.6,7.9-5.4,12.9-5.4c4.9,0,9.2,1.8,12.8,5.4c3.6,3.6,5.4,7.9,5.4,12.8
		C219.3,370.4,217.5,374.7,213.8,378.3z M328.9,319.8c0,2.5-0.9,4.6-2.7,6.4c-1.8,1.8-3.9,2.7-6.4,2.7H82.2c-2.5,0-4.6-0.9-6.4-2.7
		s-2.7-3.9-2.7-6.4V45.7c0-2.5,0.9-4.6,2.7-6.4c1.8-1.8,3.9-2.7,6.4-2.7h237.5c2.5,0,4.6,0.9,6.4,2.7c1.8,1.8,2.7,3.9,2.7,6.4V319.8
		z"/>
</g>
</svg>
