<?xml version="1.0" encoding="utf-8"?>
<!-- Generator: Adobe Illustrator 24.0.1, SVG Export Plug-In . SVG Version: 6.00 Build 0)  -->
<svg version="1.1" id="Layer_1" xmlns="http://www.w3.org/2000/svg" xmlns:xlink="http://www.w3.org/1999/xlink" x="0px" y="0px"
	 viewBox="0 0 512 512" style="enable-background:new 0 0 512 512;" xml:space="preserve">
<style type="text/css">
	.st0{fill:#FFFFFF;}
</style>
<path class="st0" d="M512,162.7v-12.8c0-35.7-29.1-64.8-64.8-64.8H64.8C29.1,85.1,0,114.2,0,149.9v12.8H512z"/>
<path class="st0" d="M0,195h512v40H0V195z"/>
<path class="st0" d="M0,267.3v94.7c0,35.7,29.1,64.8,64.8,64.8h382.4c35.7,0,64.8-29.1,64.8-64.8v-94.7L0,267.3z M375.5,354
	c-9.4,0-17.1-7.6-17.1-17.1c0-9.4,7.6-17.1,17.1-17.1s17.1,7.6,17.1,17.1S384.9,354,375.5,354z M423.3,354
	c-9.4,0-17.1-7.6-17.1-17.1c0-9.4,7.6-17.1,17.1-17.1s17.1,7.6,17.1,17.1S432.7,354,423.3,354z"/>
</svg>
