<svg id="Capa_1" data-name="Capa 1" xmlns="http://www.w3.org/2000/svg" viewBox="0 0 472.61 472.61"><defs><style>.cls-1{fill:#cbd9e2;}</style></defs><title>hand-left</title><path class="cls-1" d="M90.58,127.61V326.89c0,80.35,65.38,145.72,145.73,145.72S382,407.24,382,326.89V209.13a28,28,0,0,0-28-28,45.77,45.77,0,0,0-26.39,8.34V91.37a37,37,0,0,0-54.35-32.7V37a37,37,0,1,0-74,0v3.53a37,37,0,0,0-54.36,32.7V94.9a37,37,0,0,0-54.35,32.71Zm19.7,0a17.33,17.33,0,1,1,34.65,0v99.64a9.85,9.85,0,0,0,19.7,0v-154a17.33,17.33,0,0,1,34.66,0v154a9.85,9.85,0,0,0,19.69,0V37a17.33,17.33,0,1,1,34.66,0V227.25a9.85,9.85,0,0,0,19.69,0V91.37a17.33,17.33,0,1,1,34.66,0v217.4a9.85,9.85,0,1,0,19.69,0V227.25a26.42,26.42,0,0,1,26.39-26.39,8.28,8.28,0,0,1,8.27,8.27V326.89a126,126,0,0,1-252.06,0Z"/></svg>