<svg id="Capa_1" data-name="Capa 1" xmlns="http://www.w3.org/2000/svg" viewBox="0 0 512 512"><defs><style>.cls-1{fill:#cbd9e2;}</style></defs><title>hat</title><path class="cls-1" d="M381.92,107.83l-88-10.64A147.81,147.81,0,0,0,134.49,201.82L109.8,284.88,5.13,342a9.84,9.84,0,0,0-1.44,16.32,260.92,260.92,0,0,0,155.48,57.44c3,.1,5.94.15,8.91.15a260.76,260.76,0,0,0,150-47.2L376.51,328l124.28,12.75c.33,0,.67,0,1,0a9.83,9.83,0,0,0,9.84-9.79l.37-75.69A147.79,147.79,0,0,0,381.92,107.83Zm-75.06,244.7C223.23,410.81,110.66,410,28,351.92l92.12-50.25,226.41,23.22ZM492,320,130.88,283l6.2-20.85,68.58,7.4c.35,0,.71,0,1.06,0A9.84,9.84,0,0,0,207.77,250l-65-7,10.57-35.53a127.81,127.81,0,0,1,138.2-90.7l88,10.63A128.11,128.11,0,0,1,492.32,255.19Z"/><path class="cls-1" d="M237.19,253.14h-.08a9.84,9.84,0,0,0-2,19.58c.35,0,.71.05,1.06.05a9.84,9.84,0,0,0,1-19.62Z"/></svg>