<svg id="Layer_1" data-name="Layer 1" xmlns="http://www.w3.org/2000/svg" viewBox="0 0 480 480"><defs><style>.cls-1{fill:#cbd9e2;}</style></defs><title>watch</title><path class="cls-1" d="M364,216H353.66A127.18,127.18,0,0,0,332,165.66V104a8,8,0,0,0-8-8h-8V8a8,8,0,0,0-8-8H148a8,8,0,0,0-8,8V96h-8a8,8,0,0,0-8,8v61.66a127.13,127.13,0,0,0,0,148.68V376a8,8,0,0,0,8,8h8v88a8,8,0,0,0,8,8H308a8,8,0,0,0,8-8V384h8a8,8,0,0,0,8-8V314.34A127.18,127.18,0,0,0,353.66,264H364a16,16,0,0,0,16-16V232A16,16,0,0,0,364,216ZM316,112v35.29a127.31,127.31,0,0,0-16-13V112ZM156,16H300V96h-8a8,8,0,0,0-8,8v21.08a126.42,126.42,0,0,0-112,0V104a8,8,0,0,0-8-8h-8Zm0,96v22.26a127.31,127.31,0,0,0-16,13V112ZM140,368V332.71a127.31,127.31,0,0,0,16,13V368Zm160,96H156V384h8a8,8,0,0,0,8-8V354.92a126.42,126.42,0,0,0,112,0V376a8,8,0,0,0,8,8h8Zm0-96V345.74a127.31,127.31,0,0,0,16-13V368Zm-72-16A112,112,0,1,1,340,240,112,112,0,0,1,228,352ZM364,248h-8.41c.17-2.66.41-5.3.41-8s-.24-5.34-.41-8H364Z"/><path class="cls-1" d="M236,217.47V176H220v41.47a23.7,23.7,0,0,0-13.6,32.81l-24.06,24.06,11.31,11.32,24.07-24.06A23.92,23.92,0,1,0,236,217.47ZM228,248a8,8,0,1,1,8-8A8,8,0,0,1,228,248Z"/><path class="cls-1" d="M228,136A104,104,0,1,0,332,240,104,104,0,0,0,228,136Zm0,192a88,88,0,1,1,88-88A88,88,0,0,1,228,328Z"/><path class="cls-1" d="M180,48h96V64H180Z"/><path class="cls-1" d="M180,416h96v16H180Z"/></svg>