<svg width="32" height="32" viewBox="0 0 32 32" fill="none" xmlns="http://www.w3.org/2000/svg">
<path d="M15.0625 12.25H16.9375V15.0625H19.75V16.9375H16.9375V19.75H15.0625V16.9375H12.25V15.0625H15.0625V12.25Z" fill="white"/>
<path d="M0 15.0625H1.90638C2.129 11.6425 3.56644 8.45775 6.01206 6.01213C8.45775 3.5665 11.6424 2.129 15.0625 1.90638V0H16.9375V1.90638C20.3576 2.129 23.5422 3.5665 25.9879 6.01213C28.4336 8.45775 29.871 11.6425 30.0936 15.0625H32V16.9375H30.0936C29.871 20.3575 28.4336 23.5422 25.9879 25.9879C23.5422 28.4335 20.3576 29.871 16.9375 30.0936V32H15.0625V30.0936C11.6424 29.871 8.45775 28.4335 6.01206 25.9879C3.56644 23.5422 2.129 20.3575 1.90638 16.9375H0V15.0625ZM3.78556 15.0625H6.609C7.05056 10.6056 10.6056 7.05056 15.0625 6.609V3.78556C9.05356 4.24244 4.24244 9.05363 3.78556 15.0625ZM16 23.5625C20.17 23.5625 23.5625 20.17 23.5625 16C23.5625 11.83 20.17 8.4375 16 8.4375C11.83 8.4375 8.4375 11.83 8.4375 16C8.4375 20.17 11.83 23.5625 16 23.5625ZM16.9375 3.78556V6.609C21.3944 7.05056 24.9494 10.6056 25.391 15.0625H28.2144C27.7576 9.05363 22.9464 4.24244 16.9375 3.78556ZM28.2144 16.9375H25.391C24.9494 21.3944 21.3944 24.9494 16.9375 25.391V28.2144C22.9464 27.7576 27.7576 22.9464 28.2144 16.9375ZM15.0625 28.2144V25.391C10.6056 24.9494 7.05056 21.3944 6.609 16.9375H3.78556C4.24244 22.9464 9.05356 27.7576 15.0625 28.2144Z" fill="white"/>
</svg>
