<svg id="Capa_1" data-name="Capa 1" xmlns="http://www.w3.org/2000/svg" viewBox="0 0 438.53 438.53"><defs><style>.cls-1{fill:#fff;}</style></defs><title>arrow-left</title><path class="cls-1" d="M29.4,329.33a218.36,218.36,0,0,0,79.8,79.8q50.4,29.4,110.06,29.4t110.06-29.4a218.29,218.29,0,0,0,79.8-79.8q29.42-50.4,29.41-110.06t-29.4-110.06a218.36,218.36,0,0,0-79.8-79.8Q278.93,0,219.26,0T109.2,29.41a218.29,218.29,0,0,0-79.8,79.8Q0,159.6,0,219.27T29.4,329.33ZM76.8,206.42l26-26L206.13,77.09a18.63,18.63,0,0,1,25.7,0l26,26a17.94,17.94,0,0,1,0,25.7l-54,53.95H347.17A18.53,18.53,0,0,1,365.44,201v36.54a18.53,18.53,0,0,1-18.27,18.28H203.84l54,54a18.62,18.62,0,0,1,0,25.69l-26,26a18.63,18.63,0,0,1-25.7,0L102.78,258.1l-26-26a18.61,18.61,0,0,1,0-25.7Z"/></svg>