<?xml version="1.0" encoding="utf-8"?>
<!-- Generator: Adobe Illustrator 23.1.1, SVG Export Plug-In . SVG Version: 6.00 Build 0)  -->
<svg version="1.1" id="Слой_1" xmlns="http://www.w3.org/2000/svg" xmlns:xlink="http://www.w3.org/1999/xlink" x="0px" y="0px"
	 viewBox="0 0 513.9 477.7" style="enable-background:new 0 0 513.9 477.7;" xml:space="preserve">
<style type="text/css">
	.st0{display:none;}
	.st1{display:inline;}
	.st2{fill:#FFFFFF;}
</style>
<g class="st0">
	<rect x="-161.5" y="-171.9" class="st1" width="850.1" height="839.4"/>
</g>
<g id="_x35_7">
	<g>
		<g>
			<g>
				<rect x="211.9" y="0.8" transform="matrix(0.9849 -0.1731 0.1731 0.9849 0.4298 37.466)" class="st2" width="6.2" height="31"/>
			</g>
			<g>
				<polygon class="st2" points="147.2,56.2 141.9,59.3 126.4,32.5 131.8,29.4 				"/>
			</g>
			<g>
				
					<rect x="70.1" y="82.2" transform="matrix(0.6439 -0.7651 0.7651 0.6439 -48.6579 90.7544)" class="st2" width="6.2" height="30.9"/>
			</g>
			<g>
				<polygon class="st2" points="45.6,172.3 43.5,178.1 14.4,167.5 16.6,161.7 				"/>
			</g>
			<g>
				<polygon class="st2" points="31,251 31,257.2 0,257.2 0,251 				"/>
			</g>
			<g>
				<polygon class="st2" points="367.8,450.9 373.1,447.8 388.6,474.6 383.2,477.7 				"/>
			</g>
			<g>
				<polygon class="st2" points="429.3,400.5 433.3,395.8 457,415.7 453,420.4 				"/>
			</g>
			<g>
				<polygon class="st2" points="468.9,332.7 471,326.9 500,337.5 497.9,343.3 				"/>
			</g>
			<g>
				<polygon class="st2" points="483,255.2 482.9,249 513.9,249 513.9,255.2 				"/>
			</g>
			<g>
				<polygon class="st2" points="469.1,177.7 467,171.9 496,161.3 498.2,167.1 				"/>
			</g>
			<g>
				<polygon class="st2" points="431.3,110.4 427.3,105.7 451,85.8 455,90.5 				"/>
			</g>
			<g>
				<polygon class="st2" points="372.1,58.7 366.7,55.6 382.2,28.8 387.6,31.8 				"/>
			</g>
			<g>
				<polygon class="st2" points="299.2,32.1 293.1,31 298.5,0.5 304.6,1.6 				"/>
			</g>
			<g>
				
					<rect x="172" y="14.5" transform="matrix(0.9394 -0.3427 0.3427 0.9394 1.5249 61.3504)" class="st2" width="4.7" height="23.7"/>
			</g>
			<g>
				
					<rect x="99.8" y="56.2" transform="matrix(0.766 -0.6429 0.6429 0.766 -19.8461 81.5828)" class="st2" width="4.7" height="23.7"/>
			</g>
			<g>
				<polygon class="st2" points="59.9,135.8 57.6,139.9 37,128.1 39.4,124 				"/>
			</g>
			<g>
				<polygon class="st2" points="30.3,209.5 29.5,214.2 6.1,210 6.9,205.4 				"/>
			</g>
			<g>
				<polygon class="st2" points="401.5,428.6 405.1,425.5 420.4,443.7 416.7,446.7 				"/>
			</g>
			<g>
				
					<rect x="462.2" y="360.3" transform="matrix(0.5001 -0.866 0.866 0.5001 -90.0476 588.3857)" class="st2" width="4.7" height="23.7"/>
			</g>
			<g>
				<polygon class="st2" points="481,294.1 481.8,289.4 505.2,293.5 504.4,298.2 				"/>
			</g>
			<g>
				<polygon class="st2" points="481.8,214.8 481,210.1 504.4,206 505.2,210.6 				"/>
			</g>
			<g>
				<polygon class="st2" points="455.5,139.9 453.1,135.9 473.7,124 476,128.1 				"/>
			</g>
			<g>
				<polygon class="st2" points="405.1,78.7 401.5,75.6 416.8,57.4 420.4,60.5 				"/>
			</g>
			<g>
				
					<rect x="326.8" y="24" transform="matrix(0.3433 -0.9392 0.9392 0.3433 197.6536 335.4374)" class="st2" width="23.7" height="4.7"/>
			</g>
			<g>
				<polygon class="st2" points="258.9,23.7 254.2,23.7 254.2,0 258.9,0 				"/>
			</g>
			<g>
				
					<rect x="246.8" y="3.5" transform="matrix(0.9994 -3.320162e-02 3.320162e-02 0.9994 -0.2753 8.2595)" class="st2" width="3.6" height="17.9"/>
			</g>
			<g>
				<polygon class="st2" points="242.6,21.7 239.1,21.9 237.8,4.1 241.4,3.8 				"/>
			</g>
			<g>
				
					<rect x="230.1" y="4.6" transform="matrix(0.9946 -0.1035 0.1035 0.9946 -0.1619 24.0733)" class="st2" width="3.6" height="17.9"/>
			</g>
			<g>
				<polygon class="st2" points="226.6,23.2 223.1,23.7 220.6,6 224.1,5.5 				"/>
			</g>
			<g>
				<polygon class="st2" points="210.7,25.9 207.2,26.6 203.5,9.1 207,8.4 				"/>
			</g>
			<g>
				<polygon class="st2" points="202.9,27.7 199.4,28.5 195,11.1 198.5,10.3 				"/>
			</g>
			<g>
				<polygon class="st2" points="195.1,29.7 191.6,30.7 186.7,13.4 190.1,12.5 				"/>
			</g>
			<g>
				<polygon class="st2" points="187.3,32 184,33.1 178.4,16 181.8,14.9 				"/>
			</g>
			<g>
				<polygon class="st2" points="172.2,37.4 168.9,38.7 162.1,22.1 165.5,20.8 				"/>
			</g>
			<g>
				<polygon class="st2" points="164.7,40.5 161.5,41.9 154.2,25.5 157.4,24.1 				"/>
			</g>
			<g>
				<rect x="150.1" y="27.6" transform="matrix(0.899 -0.438 0.438 0.899 -0.67 70.2156)" class="st2" width="3.6" height="17.9"/>
			</g>
			<g>
				<polygon class="st2" points="150.2,47.4 147,49.1 138.6,33.3 141.8,31.6 				"/>
			</g>
			<g>
				<polygon class="st2" points="136.2,55.3 133.2,57.2 123.7,42.1 126.7,40.2 				"/>
			</g>
			<g>
				
					<rect x="121.1" y="44.3" transform="matrix(0.8293 -0.5588 0.5588 0.8293 -8.7838 77.7771)" class="st2" width="3.6" height="17.9"/>
			</g>
			<g>
				<polygon class="st2" points="122.8,64.3 119.9,66.3 109.3,51.9 112.2,49.8 				"/>
			</g>
			<g>
				<polygon class="st2" points="116.3,69.1 113.5,71.2 102.4,57.1 105.3,54.9 				"/>
			</g>
			<g>
				<polygon class="st2" points="103.9,79.3 101.2,81.7 89.2,68.4 91.9,66 				"/>
			</g>
			<g>
				<polygon class="st2" points="97.9,84.8 95.4,87.2 82.9,74.3 85.5,71.9 				"/>
			</g>
			<g>
				<polygon class="st2" points="92.2,90.4 89.7,93 76.8,80.5 79.3,78 				"/>
			</g>
			<g>
				<polygon class="st2" points="86.7,96.3 84.3,98.9 70.9,86.9 73.4,84.3 				"/>
			</g>
			<g>
				<polygon class="st2" points="76.2,108.5 74,111.3 59.9,100.3 62.1,97.5 				"/>
			</g>
			<g>
				<polygon class="st2" points="71.3,114.9 69.2,117.8 54.7,107.3 56.8,104.4 				"/>
			</g>
			<g>
				<polygon class="st2" points="66.6,121.5 64.6,124.4 49.8,114.4 51.8,111.4 				"/>
			</g>
			<g>
				<polygon class="st2" points="62.2,128.2 60.3,131.2 45.1,121.7 47,118.7 				"/>
			</g>
			<g>
				<polygon class="st2" points="54.1,142.1 52.4,145.2 36.6,136.8 38.2,133.7 				"/>
			</g>
			<g>
				<polygon class="st2" points="50.3,149.2 48.8,152.4 32.7,144.6 34.2,141.4 				"/>
			</g>
			<g>
				<polygon class="st2" points="46.9,156.5 45.4,159.8 29.1,152.5 30.5,149.2 				"/>
			</g>
			<g>
				<polygon class="st2" points="43.7,163.9 42.3,167.2 25.7,160.5 27.1,157.2 				"/>
			</g>
			<g>
				<polygon class="st2" points="38.1,179 36.9,182.4 19.9,176.8 21,173.4 				"/>
			</g>
			<g>
				<polygon class="st2" points="35.6,186.7 34.6,190.1 17.4,185.2 18.4,181.7 				"/>
			</g>
			<g>
				<polygon class="st2" points="33.5,194.4 32.6,197.9 15.2,193.6 16.1,190.1 				"/>
			</g>
			<g>
				<polygon class="st2" points="31.6,202.3 30.9,205.8 13.4,202 14.1,198.5 				"/>
			</g>
			<g>
				<polygon class="st2" points="28.7,218.1 28.2,221.6 10.5,219.1 11,215.6 				"/>
			</g>
			<g>
				<polygon class="st2" points="27.7,226.1 27.3,229.6 9.5,227.8 9.9,224.2 				"/>
			</g>
			<g>
				<polygon class="st2" points="26.9,234.1 26.6,237.7 8.8,236.4 9,232.9 				"/>
			</g>
			<g>
				<polygon class="st2" points="26.4,242.1 26.3,245.7 8.4,245.1 8.5,241.5 				"/>
			</g>
			<g>
				<polygon class="st2" points="377.7,448.6 380.7,446.7 390.2,461.9 387.2,463.8 				"/>
			</g>
			<g>
				<polygon class="st2" points="384.5,444.3 387.5,442.3 397.5,457.1 394.5,459.1 				"/>
			</g>
			<g>
				<polygon class="st2" points="391.1,439.7 394,437.6 404.6,452.1 401.7,454.2 				"/>
			</g>
			<g>
				<polygon class="st2" points="397.6,434.9 400.4,432.7 411.5,446.8 408.6,449 				"/>
			</g>
			<g>
				<polygon class="st2" points="410,424.6 412.7,422.3 424.7,435.6 422,437.9 				"/>
			</g>
			<g>
				<polygon class="st2" points="416,419.2 418.5,416.7 431,429.6 428.4,432.1 				"/>
			</g>
			<g>
				<polygon class="st2" points="421.7,413.5 424.2,411 437.1,423.4 434.6,426 				"/>
			</g>
			<g>
				<polygon class="st2" points="427.2,407.7 429.6,405.1 443,417 440.5,419.7 				"/>
			</g>
			<g>
				<polygon class="st2" points="437.7,395.4 439.9,392.6 454,403.6 451.8,406.5 				"/>
			</g>
			<g>
				<polygon class="st2" points="442.6,389 444.7,386.2 459.2,396.7 457.1,399.6 				"/>
			</g>
			<g>
				<polygon class="st2" points="447.2,382.5 449.2,379.5 464.1,389.5 462.1,392.5 				"/>
			</g>
			<g>
				<polygon class="st2" points="451.7,375.7 453.6,372.7 468.8,382.2 466.9,385.2 				"/>
			</g>
			<g>
				<polygon class="st2" points="459.8,361.9 461.5,358.7 477.3,367.1 475.7,370.3 				"/>
			</g>
			<g>
				<polygon class="st2" points="463.5,354.7 465.1,351.5 481.2,359.4 479.7,362.6 				"/>
			</g>
			<g>
				<polygon class="st2" points="467,347.4 468.5,344.2 484.8,351.5 483.4,354.7 				"/>
			</g>
			<g>
				<polygon class="st2" points="470.2,340.1 471.6,336.8 488.2,343.5 486.8,346.8 				"/>
			</g>
			<g>
				<polygon class="st2" points="475.8,325 477,321.6 494,327.1 492.9,330.5 				"/>
			</g>
			<g>
				<polygon class="st2" points="478.3,317.3 479.3,313.9 496.5,318.8 495.5,322.2 				"/>
			</g>
			<g>
				<polygon class="st2" points="480.4,309.5 481.3,306.1 498.7,310.4 497.8,313.9 				"/>
			</g>
			<g>
				<polygon class="st2" points="482.3,301.7 483,298.2 500.6,301.9 499.8,305.4 				"/>
			</g>
			<g>
				<polygon class="st2" points="485.2,285.9 485.7,282.3 503.4,284.8 502.9,288.3 				"/>
			</g>
			<g>
				<polygon class="st2" points="486.2,277.9 486.6,274.3 504.4,276.2 504,279.7 				"/>
			</g>
			<g>
				<polygon class="st2" points="487,269.8 487.3,266.3 505.1,267.5 504.9,271.1 				"/>
			</g>
			<g>
				<polygon class="st2" points="487.5,261.8 487.6,258.2 505.5,258.9 505.4,262.4 				"/>
			</g>
			<g>
				<polygon class="st2" points="487.6,245.7 487.5,242.1 505.4,241.5 505.5,245.1 				"/>
			</g>
			<g>
				<polygon class="st2" points="487.2,237.7 487,234.1 504.9,232.8 505.1,236.4 				"/>
			</g>
			<g>
				<polygon class="st2" points="486.6,229.6 486.2,226.1 504.1,224.2 504.4,227.8 				"/>
			</g>
			<g>
				<polygon class="st2" points="485.7,221.6 485.2,218.1 502.9,215.6 503.4,219.1 				"/>
			</g>
			<g>
				<polygon class="st2" points="483,205.7 482.3,202.2 499.8,198.5 500.5,202 				"/>
			</g>
			<g>
				<polygon class="st2" points="481.3,197.9 480.4,194.4 497.8,190.1 498.6,193.5 				"/>
			</g>
			<g>
				<polygon class="st2" points="479.2,190.1 478.3,186.6 495.5,181.7 496.5,185.1 				"/>
			</g>
			<g>
				<polygon class="st2" points="476.9,182.4 475.9,179 492.9,173.4 494,176.8 				"/>
			</g>
			<g>
				<polygon class="st2" points="471.5,167.2 470.2,163.9 486.8,157.2 488.2,160.5 				"/>
			</g>
			<g>
				<polygon class="st2" points="468.5,159.8 467,156.5 483.4,149.2 484.8,152.5 				"/>
			</g>
			<g>
				<polygon class="st2" points="465.1,152.4 463.6,149.2 479.7,141.4 481.2,144.6 				"/>
			</g>
			<g>
				<polygon class="st2" points="461.5,145.2 459.8,142.1 475.7,133.6 477.3,136.8 				"/>
			</g>
			<g>
				<polygon class="st2" points="453.6,131.2 451.7,128.2 466.9,118.7 468.8,121.7 				"/>
			</g>
			<g>
				<polygon class="st2" points="449.2,124.4 447.2,121.5 462.1,111.4 464.1,114.4 				"/>
			</g>
			<g>
				<polygon class="st2" points="444.7,117.8 442.6,114.9 457.1,104.4 459.2,107.3 				"/>
			</g>
			<g>
				<polygon class="st2" points="439.9,111.3 437.7,108.5 451.8,97.5 454,100.3 				"/>
			</g>
			<g>
				<polygon class="st2" points="429.6,98.9 427.2,96.2 440.5,84.2 442.9,86.9 				"/>
			</g>
			<g>
				<polygon class="st2" points="424.2,93 421.7,90.4 434.6,77.9 437,80.5 				"/>
			</g>
			<g>
				<polygon class="st2" points="418.5,87.2 416,84.7 428.4,71.8 431,74.3 				"/>
			</g>
			<g>
				<polygon class="st2" points="412.7,81.7 410,79.3 422,66 424.7,68.4 				"/>
			</g>
			<g>
				<polygon class="st2" points="400.4,71.2 397.6,69 408.6,54.9 411.4,57.1 				"/>
			</g>
			<g>
				<polygon class="st2" points="394,66.4 391.1,64.2 401.7,49.8 404.5,51.9 				"/>
			</g>
			<g>
				<polygon class="st2" points="387.4,61.7 384.5,59.7 394.5,44.8 397.5,46.8 				"/>
			</g>
			<g>
				<polygon class="st2" points="380.7,57.2 377.7,55.3 387.2,40.1 390.2,42.1 				"/>
			</g>
			<g>
				<polygon class="st2" points="366.8,49.1 363.7,47.4 372.1,31.6 375.3,33.3 				"/>
			</g>
			<g>
				<polygon class="st2" points="359.7,45.4 356.5,43.8 364.3,27.7 367.5,29.3 				"/>
			</g>
			<g>
				<polygon class="st2" points="352.4,41.9 349.2,40.4 356.4,24.1 359.7,25.5 				"/>
			</g>
			<g>
				<polygon class="st2" points="345,38.7 341.7,37.4 348.4,20.8 351.7,22.1 				"/>
			</g>
			<g>
				<polygon class="st2" points="329.9,33.1 326.6,32 332.1,14.9 335.5,16 				"/>
			</g>
			<g>
				<polygon class="st2" points="322.2,30.7 318.8,29.7 323.8,12.4 327.2,13.4 				"/>
			</g>
			<g>
				<polygon class="st2" points="314.5,28.5 311,27.6 315.4,10.3 318.8,11.1 				"/>
			</g>
			<g>
				<polygon class="st2" points="306.7,26.7 303.2,25.9 306.9,8.4 310.4,9.1 				"/>
			</g>
			<g>
				<polygon class="st2" points="290.8,23.7 287.3,23.2 289.8,5.5 293.3,6 				"/>
			</g>
			<g>
				<polygon class="st2" points="282.8,22.7 279.3,22.3 281.1,4.5 284.7,4.9 				"/>
			</g>
			<g>
				<polygon class="st2" points="274.8,21.9 271.3,21.7 272.5,3.8 276.1,4.1 				"/>
			</g>
			<g>
				<polygon class="st2" points="266.8,21.4 263.2,21.3 263.8,3.4 267.4,3.5 				"/>
			</g>
			<g>
				<g>
					<path class="st2" d="M2.1,298L2.1,298c0.3-0.4,0.7-0.9,1.1-1.3l3.4-4h2.5l-4.5,4.7l5.1,6.8H7.1l-4-5.5l-1.1,1.2v4.3H0v-16.9
						h2.1V298z"/>
				</g>
				<g>
					<path class="st2" d="M11.6,295.8c0-1.2,0-2.2-0.1-3.1h1.8l0.1,1.9h0.1c0.6-1.1,1.7-2.1,3.6-2.1c1.6,0,2.8,1,3.3,2.3h0.1
						c0.4-0.6,0.8-1.1,1.3-1.5c0.7-0.5,1.4-0.8,2.6-0.8c1.5,0,3.8,1,3.8,5v6.8H26v-6.5c0-2.2-0.8-3.5-2.5-3.5
						c-1.2,0-2.1,0.9-2.5,1.9c-0.1,0.3-0.2,0.7-0.2,1v7.1h-2.1v-6.9c0-1.8-0.8-3.2-2.4-3.2c-1.3,0-2.3,1-2.6,2.1
						c-0.1,0.3-0.2,0.7-0.2,1v7h-2.1L11.6,295.8L11.6,295.8z"/>
				</g>
				<g>
					<polygon class="st2" points="29.7,305.2 36.4,287.9 38,287.9 31.3,305.2 					"/>
				</g>
				<g>
					<path class="st2" d="M39.7,287.3h2.1v7.2h0.1c0.3-0.6,0.9-1.1,1.5-1.5c0.6-0.4,1.4-0.6,2.1-0.6c1.6,0,4,1,4,4.9v6.9h-2.1v-6.6
						c0-1.9-0.7-3.4-2.7-3.4c-1.4,0-2.4,1-2.8,2.1c-0.1,0.3-0.1,0.6-0.1,1v7h-2.1V287.3z"/>
				</g>
			</g>
		</g>
		<g>
			<path class="st2" d="M44.5,261.3c-1-0.6-1.8-1.6-2.4-2.8s-0.9-2.7-0.9-4.4s0.3-3.2,0.9-4.4s1.4-2.2,2.4-2.8s2.2-1,3.5-1
				s2.5,0.3,3.5,1s1.8,1.6,2.4,2.8c0.6,1.2,0.9,2.7,0.9,4.4s-0.3,3.2-0.9,4.4s-1.4,2.2-2.4,2.8s-2.2,1-3.5,1S45.5,261.9,44.5,261.3z
				 M50.3,257.9c0.6-0.8,0.8-2.1,0.8-3.9c0-1.7-0.3-3-0.8-3.9c-0.6-0.8-1.3-1.2-2.3-1.2c-0.9,0-1.7,0.4-2.3,1.2
				c-0.6,0.8-0.8,2.1-0.8,3.9s0.3,3,0.8,3.9c0.6,0.8,1.3,1.2,2.3,1.2C49,259.1,49.7,258.7,50.3,257.9z"/>
		</g>
		<g>
			<path class="st2" d="M67.1,185v3h-12v-2.4l6.1-5.8c0.6-0.6,1.1-1.1,1.3-1.6c0.2-0.5,0.3-0.9,0.3-1.3c0-0.6-0.2-1.1-0.6-1.5
				s-1.1-0.5-1.9-0.5c-0.7,0-1.3,0.1-1.9,0.4c-0.6,0.3-1,0.7-1.4,1.2l-2.7-1.7c0.6-0.9,1.5-1.6,2.6-2.2c1.1-0.5,2.3-0.8,3.7-0.8
				c1.2,0,2.2,0.2,3.1,0.6s1.6,0.9,2.1,1.6s0.7,1.5,0.7,2.5c0,0.9-0.2,1.7-0.5,2.4s-1.1,1.6-2.1,2.6l-3.6,3.5L67.1,185L67.1,185z"/>
			<path class="st2" d="M71.8,187.3c-1-0.6-1.8-1.6-2.4-2.8s-0.9-2.7-0.9-4.4s0.3-3.2,0.9-4.4s1.4-2.2,2.4-2.8s2.2-1,3.5-1
				s2.5,0.3,3.5,1c1,0.6,1.8,1.6,2.4,2.8c0.6,1.2,0.9,2.7,0.9,4.4s-0.3,3.2-0.9,4.4s-1.4,2.2-2.4,2.8s-2.2,1-3.5,1
				S72.9,187.9,71.8,187.3z M77.6,183.9c0.6-0.8,0.8-2.1,0.8-3.9c0-1.7-0.3-3-0.8-3.9c-0.6-0.8-1.3-1.2-2.3-1.2
				c-0.9,0-1.7,0.4-2.3,1.2c-0.6,0.8-0.8,2.1-0.8,3.9s0.3,3,0.8,3.9c0.6,0.8,1.3,1.2,2.3,1.2C76.3,185.1,77.1,184.7,77.6,183.9z"/>
		</g>
		<g>
			<path class="st2" d="M102.7,127.6h-2.6v3.3h-3.6v-3.3H88v-2.5l7.5-10.1h3.9l-6.9,9.5h4.3v-3h3.5v3h2.6L102.7,127.6L102.7,127.6z"
				/>
			<path class="st2" d="M107.1,130.3c-1-0.6-1.8-1.6-2.4-2.8s-0.9-2.7-0.9-4.4s0.3-3.2,0.9-4.4s1.4-2.2,2.4-2.8s2.2-1,3.5-1
				s2.5,0.3,3.5,1c1,0.6,1.8,1.6,2.4,2.8c0.6,1.2,0.9,2.7,0.9,4.4s-0.3,3.2-0.9,4.4s-1.4,2.2-2.4,2.8s-2.2,1-3.5,1
				S108.1,130.9,107.1,130.3z M112.9,126.9c0.5-0.8,0.8-2.1,0.8-3.9c0-1.7-0.3-3-0.8-3.9c-0.6-0.8-1.3-1.2-2.3-1.2
				c-0.9,0-1.7,0.4-2.3,1.2c-0.6,0.8-0.8,2.1-0.8,3.9s0.3,3,0.8,3.9c0.6,0.8,1.3,1.2,2.3,1.2S112.4,127.7,112.9,126.9z"/>
		</g>
		<g>
			<path class="st2" d="M152.6,73.6c0.8,0.4,1.5,1,2,1.7c0.5,0.8,0.7,1.6,0.7,2.6c0,1.1-0.3,2-0.8,2.8c-0.5,0.8-1.2,1.4-2.2,1.9
				s-1.9,0.6-3,0.6c-2.2,0-4-0.7-5.2-2c-1.2-1.4-1.9-3.3-1.9-5.8c0-1.8,0.3-3.3,1-4.6s1.6-2.3,2.9-2.9s2.6-1,4.2-1
				c0.9,0,1.7,0.1,2.4,0.3s1.4,0.5,2,0.8l-1.4,2.7c-0.8-0.5-1.8-0.8-3-0.8c-1.4,0-2.4,0.4-3.2,1.2s-1.2,1.9-1.3,3.4
				c0.9-0.9,2.2-1.4,3.9-1.4C150.9,73,151.8,73.2,152.6,73.6z M151,79.9c0.5-0.4,0.7-1,0.7-1.7s-0.2-1.3-0.7-1.7
				c-0.5-0.4-1.1-0.6-2-0.6c-0.8,0-1.5,0.2-2,0.7s-0.8,1-0.8,1.7s0.2,1.3,0.8,1.7s1.2,0.7,2,0.7C149.9,80.5,150.5,80.3,151,79.9z"/>
			<path class="st2" d="M159.9,82.3c-1-0.6-1.8-1.6-2.4-2.8s-0.9-2.7-0.9-4.4s0.3-3.2,0.9-4.4c0.6-1.2,1.4-2.2,2.4-2.8
				c1-0.6,2.2-1,3.5-1s2.5,0.3,3.5,1s1.8,1.6,2.4,2.8c0.6,1.2,0.9,2.7,0.9,4.4s-0.3,3.2-0.9,4.4c-0.6,1.2-1.4,2.2-2.4,2.8
				c-1,0.6-2.2,1-3.5,1S161,82.9,159.9,82.3z M165.7,78.9c0.5-0.8,0.8-2.1,0.8-3.9c0-1.7-0.3-3-0.8-3.9c-0.5-0.8-1.3-1.2-2.3-1.2
				c-1,0-1.7,0.4-2.3,1.2c-0.5,0.8-0.8,2.1-0.8,3.9s0.3,3,0.8,3.9s1.3,1.2,2.3,1.2C164.4,80.1,165.2,79.7,165.7,78.9z"/>
		</g>
		<g>
			<path class="st2" d="M214.9,49.2c0.4,0.6,0.6,1.4,0.6,2.2c0,1-0.3,1.8-0.8,2.6s-1.4,1.3-2.4,1.7s-2.2,0.6-3.5,0.6
				c-1.3,0-2.5-0.2-3.5-0.6s-1.8-1-2.3-1.7c-0.5-0.7-0.8-1.6-0.8-2.6c0-0.8,0.2-1.6,0.6-2.2c0.4-0.6,1-1.1,1.8-1.5
				c-0.6-0.4-1-0.8-1.4-1.4s-0.5-1.2-0.5-1.9c0-0.9,0.3-1.7,0.8-2.4c0.5-0.7,1.2-1.2,2.1-1.6c0.9-0.4,2-0.6,3.2-0.6
				c1.2,0,2.3,0.2,3.2,0.6s1.6,0.9,2.2,1.6c0.5,0.7,0.8,1.5,0.8,2.4c0,0.7-0.2,1.3-0.5,1.9s-0.8,1-1.4,1.4
				C213.9,48,214.5,48.5,214.9,49.2z M211,52.9c0.5-0.4,0.8-1,0.8-1.7s-0.3-1.2-0.8-1.7s-1.3-0.6-2.2-0.6c-0.9,0-1.6,0.2-2.1,0.6
				c-0.5,0.4-0.8,1-0.8,1.7c0,0.7,0.3,1.3,0.8,1.7c0.5,0.4,1.2,0.6,2.1,0.6C209.7,53.6,210.4,53.3,211,52.9z M207,43.1
				c-0.5,0.4-0.7,0.8-0.7,1.5c0,0.6,0.2,1.1,0.7,1.4c0.4,0.4,1,0.5,1.8,0.5c0.8,0,1.4-0.2,1.8-0.5s0.7-0.8,0.7-1.4
				c0-0.6-0.2-1.1-0.7-1.5c-0.5-0.4-1.1-0.5-1.8-0.5C208,42.5,207.4,42.7,207,43.1z"/>
			<path class="st2" d="M220.5,55.3c-1-0.6-1.8-1.6-2.4-2.8s-0.9-2.7-0.9-4.4s0.3-3.2,0.9-4.4c0.6-1.2,1.4-2.2,2.4-2.8
				c1-0.6,2.2-1,3.5-1s2.5,0.3,3.5,1s1.8,1.6,2.4,2.8c0.6,1.2,0.9,2.7,0.9,4.4s-0.3,3.2-0.9,4.4c-0.6,1.2-1.4,2.2-2.4,2.8
				c-1,0.6-2.2,1-3.5,1S221.5,55.9,220.5,55.3z M226.2,51.9c0.5-0.8,0.8-2.1,0.8-3.9c0-1.7-0.3-3-0.8-3.9c-0.5-0.8-1.3-1.2-2.3-1.2
				c-1,0-1.7,0.4-2.3,1.2c-0.5,0.8-0.8,2.1-0.8,3.9s0.3,3,0.8,3.9s1.3,1.2,2.3,1.2C224.9,53.1,225.7,52.7,226.2,51.9z"/>
		</g>
	</g>
	<g>
		<path class="st2" d="M339.8,437.4h-2.7v3.5h-3.7v-3.5h-8.9v-2.6l7.8-10.5h4l-7.2,9.9h4.4v-3.1h3.6v3.1h2.7L339.8,437.4
			L339.8,437.4z"/>
		<path class="st2" d="M341,432.6c0-5.5,3-8.5,7.1-8.5c4.1,0,7.1,3.1,7.1,8.5c0,5.5-3,8.5-7.1,8.5C344,441.1,341,438.1,341,432.6z
			 M351.3,432.6c0-3.8-1.3-5.3-3.2-5.3c-1.9,0-3.2,1.6-3.2,5.3c0,3.8,1.3,5.3,3.2,5.3C350,437.9,351.3,436.4,351.3,432.6z"/>
		<path class="st2" d="M357,432.6c0-5.5,3-8.5,7.1-8.5c4.1,0,7.1,3.1,7.1,8.5c0,5.5-3,8.5-7.1,8.5C360,441.1,357,438.1,357,432.6z
			 M367.3,432.6c0-3.8-1.3-5.3-3.2-5.3c-1.9,0-3.2,1.6-3.2,5.3c0,3.8,1.3,5.3,3.2,5.3C366,437.9,367.3,436.4,367.3,432.6z"/>
	</g>
	<g>
		<path class="st2" d="M395.3,389.2c0,2.8-2.2,5.3-6.8,5.3c-2.3,0-4.7-0.6-6.3-1.8l1.5-2.9c1.2,0.9,3,1.5,4.7,1.5
			c1.9,0,3.1-0.8,3.1-2.1c0-1.2-0.9-2-3.1-2h-1.8v-2.5l3.4-3.8h-7v-3.1h11.6v2.5l-3.7,4.2C393.8,384.9,395.3,386.8,395.3,389.2z"/>
		<path class="st2" d="M410.7,389c0,3.4-2.8,5.5-6.3,5.5c-4.6,0-7.4-2.9-7.4-8.2c0-5.7,3.5-8.9,8.4-8.9c1.8,0,3.5,0.4,4.6,1.1
			l-1.4,2.8c-0.9-0.6-2-0.8-3.1-0.8c-2.8,0-4.5,1.6-4.7,4.8c1-1,2.4-1.5,4.1-1.5C408.2,383.9,410.7,385.9,410.7,389z M407,389.2
			c0-1.5-1.1-2.5-2.8-2.5c-1.7,0-2.9,1-2.9,2.5c0,1.4,1.1,2.5,2.9,2.5C405.9,391.7,407,390.7,407,389.2z"/>
		<path class="st2" d="M412.1,386c0-5.5,3-8.5,7.1-8.5c4.1,0,7.1,3.1,7.1,8.5c0,5.5-3,8.5-7.1,8.5
			C415.1,394.5,412.1,391.4,412.1,386z M422.4,386c0-3.8-1.3-5.3-3.2-5.3c-1.9,0-3.2,1.6-3.2,5.3c0,3.8,1.3,5.3,3.2,5.3
			C421.1,391.3,422.4,389.7,422.4,386z"/>
	</g>
	<g>
		<path class="st2" d="M432.1,324.5c0,2.8-2.2,5.3-6.8,5.3c-2.3,0-4.7-0.6-6.3-1.8l1.5-2.9c1.2,0.9,3,1.5,4.7,1.5
			c1.9,0,3.1-0.8,3.1-2.1c0-1.2-0.9-2-3.1-2h-1.8v-2.5l3.4-3.9h-7V313h11.6v2.5l-3.7,4.2C430.6,320.2,432.1,322,432.1,324.5z"/>
		<path class="st2" d="M446.1,326.4v3.1h-12.5V327l6.4-6c1.5-1.4,1.7-2.2,1.7-3c0-1.3-0.9-2-2.6-2c-1.4,0-2.6,0.5-3.4,1.6l-2.8-1.8
			c1.3-1.9,3.6-3.1,6.6-3.1c3.7,0,6.1,1.9,6.1,4.9c0,1.6-0.5,3.1-2.8,5.2l-3.8,3.6L446.1,326.4L446.1,326.4z"/>
		<path class="st2" d="M447.7,321.2c0-5.5,3-8.5,7.1-8.5c4.1,0,7.1,3.1,7.1,8.5s-3,8.5-7.1,8.5C450.7,329.8,447.7,326.7,447.7,321.2
			z M458,321.2c0-3.8-1.3-5.3-3.2-5.3c-1.9,0-3.2,1.6-3.2,5.3c0,3.8,1.3,5.3,3.2,5.3C456.7,326.6,458,325,458,321.2z"/>
	</g>
	<g>
		<path class="st2" d="M444.7,257.2v3.1h-12.5v-2.5l6.4-6c1.5-1.4,1.7-2.2,1.7-3c0-1.3-0.9-2-2.6-2c-1.4,0-2.6,0.5-3.4,1.6l-2.8-1.8
			c1.3-1.9,3.6-3.1,6.6-3.1c3.7,0,6.1,1.9,6.1,4.9c0,1.6-0.5,3.1-2.8,5.2l-3.8,3.6L444.7,257.2L444.7,257.2z"/>
		<path class="st2" d="M460.1,255.5c0,3.1-2.8,5.1-7,5.1c-4.2,0-6.9-2-6.9-5.1c0-1.8,0.9-3.1,2.5-3.9c-1.2-0.8-1.9-1.9-1.9-3.4
			c0-2.9,2.6-4.7,6.3-4.7c3.8,0,6.4,1.8,6.4,4.7c0,1.5-0.7,2.6-1.9,3.4C459.2,252.4,460.1,253.8,460.1,255.5z M456.2,255.4
			c0-1.5-1.2-2.4-3.1-2.4c-1.9,0-3.1,0.9-3.1,2.4s1.2,2.4,3.1,2.4C455,257.8,456.2,256.9,456.2,255.4z M450.5,248.4c0,1.2,1,2,2.5,2
			c1.6,0,2.6-0.8,2.6-2c0-1.3-1-2.1-2.6-2.1C451.6,246.3,450.5,247.1,450.5,248.4z"/>
		<path class="st2" d="M461.8,252.1c0-5.5,3-8.5,7.1-8.5c4.1,0,7.1,3.1,7.1,8.5s-3,8.5-7.1,8.5C464.9,260.6,461.8,257.5,461.8,252.1
			z M472.2,252.1c0-3.8-1.3-5.3-3.2-5.3c-1.9,0-3.2,1.6-3.2,5.3c0,3.8,1.3,5.3,3.2,5.3C470.8,257.4,472.2,255.8,472.2,252.1z"/>
	</g>
	<g>
		<path class="st2" d="M428.7,185v3.1h-12.5v-2.5l6.4-6c1.5-1.4,1.7-2.2,1.7-3c0-1.3-0.9-2-2.6-2c-1.4,0-2.6,0.5-3.4,1.6l-2.8-1.8
			c1.3-1.9,3.6-3.1,6.6-3.1c3.7,0,6.1,1.9,6.1,4.9c0,1.6-0.5,3.1-2.8,5.2l-3.8,3.6L428.7,185L428.7,185z"/>
		<path class="st2" d="M445.2,184.6h-2.7v3.5h-3.7v-3.5h-8.9V182l7.8-10.5h4l-7.2,9.9h4.4v-3.1h3.6v3.1h2.7L445.2,184.6L445.2,184.6
			z"/>
		<path class="st2" d="M446.3,179.8c0-5.5,3-8.5,7.1-8.5c4.1,0,7.1,3.1,7.1,8.5s-3,8.5-7.1,8.5C449.3,188.4,446.3,185.3,446.3,179.8
			z M456.6,179.8c0-3.8-1.3-5.3-3.2-5.3c-1.9,0-3.2,1.6-3.2,5.3c0,3.8,1.3,5.3,3.2,5.3C455.3,185.1,456.6,183.6,456.6,179.8z"/>
	</g>
	<g>
		<path class="st2" d="M398.7,128v3.1h-12.5v-2.5l6.4-6c1.5-1.4,1.7-2.2,1.7-3c0-1.3-0.9-2-2.6-2c-1.4,0-2.6,0.5-3.4,1.6l-2.8-1.8
			c1.3-1.9,3.6-3.1,6.6-3.1c3.7,0,6.1,1.9,6.1,4.9c0,1.6-0.5,3.1-2.8,5.2l-3.8,3.6L398.7,128L398.7,128z"/>
		<path class="st2" d="M400.2,122.8c0-5.5,3-8.5,7.1-8.5c4.1,0,7.1,3.1,7.1,8.5s-3,8.5-7.1,8.5C403.2,131.4,400.2,128.3,400.2,122.8
			z M410.5,122.8c0-3.8-1.3-5.3-3.2-5.3c-1.9,0-3.2,1.6-3.2,5.3c0,3.8,1.3,5.3,3.2,5.3C409.2,128.1,410.5,126.6,410.5,122.8z"/>
		<path class="st2" d="M416.2,122.8c0-5.5,3-8.5,7.1-8.5c4.1,0,7.1,3.1,7.1,8.5s-3,8.5-7.1,8.5C419.3,131.4,416.2,128.3,416.2,122.8
			z M426.6,122.8c0-3.8-1.3-5.3-3.2-5.3c-1.9,0-3.2,1.6-3.2,5.3c0,3.8,1.3,5.3,3.2,5.3C425.2,128.1,426.6,126.6,426.6,122.8z"/>
	</g>
	<g>
		<path class="st2" d="M341.7,65.7v16.5h-3.8V68.8h-3.3v-3.1L341.7,65.7L341.7,65.7z"/>
		<path class="st2" d="M358.2,77c0,3.4-2.8,5.5-6.3,5.5c-4.6,0-7.4-2.9-7.4-8.2c0-5.7,3.5-8.9,8.4-8.9c1.8,0,3.5,0.4,4.6,1.1
			l-1.4,2.8c-0.9-0.6-2-0.8-3.1-0.8c-2.8,0-4.5,1.6-4.6,4.8c1-1,2.4-1.5,4.1-1.5C355.8,71.9,358.2,73.9,358.2,77z M354.5,77.2
			c0-1.5-1.1-2.5-2.8-2.5c-1.7,0-2.9,1-2.9,2.5c0,1.4,1.1,2.5,2.9,2.5C353.4,79.7,354.5,78.7,354.5,77.2z"/>
		<path class="st2" d="M359.6,74c0-5.5,3-8.6,7.1-8.6c4.1,0,7.1,3.1,7.1,8.6s-3,8.6-7.1,8.6C362.7,82.5,359.6,79.4,359.6,74z
			 M370,74c0-3.8-1.3-5.3-3.2-5.3c-1.9,0-3.2,1.6-3.2,5.3c0,3.8,1.3,5.3,3.2,5.3C368.6,79.3,370,77.7,370,74z"/>
	</g>
	<g>
		<path class="st2" d="M277.6,41.4V58h-3.8V44.5h-3.3v-3.1L277.6,41.4L277.6,41.4z"/>
		<path class="st2" d="M292.8,54.8V58h-12.5v-2.5l6.4-6c1.5-1.4,1.7-2.2,1.7-3.1c0-1.3-0.9-2.1-2.6-2.1c-1.4,0-2.6,0.5-3.4,1.6
			l-2.8-1.8c1.3-1.9,3.6-3.1,6.6-3.1c3.7,0,6.1,1.9,6.1,4.9c0,1.6-0.5,3.1-2.8,5.2l-3.8,3.6L292.8,54.8L292.8,54.8z"/>
		<path class="st2" d="M294.3,49.7c0-5.5,3-8.6,7.1-8.6c4.1,0,7.1,3.1,7.1,8.6s-3,8.6-7.1,8.6C297.4,58.3,294.3,55.2,294.3,49.7z
			 M304.6,49.7c0-3.8-1.3-5.3-3.2-5.3c-1.9,0-3.2,1.6-3.2,5.3c0,3.8,1.3,5.3,3.2,5.3C303.3,55,304.6,53.5,304.6,49.7z"/>
	</g>
</g>
</svg>
