<svg id="Layer_1" data-name="Layer 1" xmlns="http://www.w3.org/2000/svg" viewBox="0 0 475 475"><defs><style>.cls-1{fill:#cbd9e2;}</style></defs><title>bulletprof</title><path class="cls-1" d="M437.44,227.12a225.3,225.3,0,0,1-38.3-125.59V44.8a28.77,28.77,0,0,0-20.56-27.86L323.42.34a7.81,7.81,0,0,0-7,1.24A7.93,7.93,0,0,0,313.29,8V92.18a75.86,75.86,0,0,1-151.72,0V8A7.93,7.93,0,0,0,151.35.34L96.28,16.94A28.76,28.76,0,0,0,75.73,44.8v56.73a225.38,225.38,0,0,1-38.3,125.59l-7.09,10.34a8.15,8.15,0,0,0-1.52,4.44v225A8.24,8.24,0,0,0,37,475H437.89a8.25,8.25,0,0,0,8.16-8.12v-225a8.12,8.12,0,0,0-1.52-4.44ZM430.08,459H44.79V244.32L50.62,236A241.21,241.21,0,0,0,91.7,101.53V44.8a12.88,12.88,0,0,1,9.15-12.57L145.6,18.72V92.18a91.84,91.84,0,0,0,183.67,0V18.72L374,32.23a12.88,12.88,0,0,1,9.15,12.57v56.73A241.29,241.29,0,0,0,424.25,236l5.83,8.33Z"/><path class="cls-1" d="M188.52,308.31a8,8,0,0,0-8-8H71.74a8,8,0,0,0-8,8v107.8a8,8,0,0,0,8,8h108.8a8,8,0,0,0,8-8Zm-16,8v16H79.72v-16ZM79.72,408.12V348.23h92.83v59.89Z"/><path class="cls-1" d="M411.12,308.31a8,8,0,0,0-8-8H294.33a8,8,0,0,0-8,8v107.8a8,8,0,0,0,8,8h108.8a8,8,0,0,0,8-8Zm-16,8v16H302.31v-16Zm-92.83,91.83V348.23h92.83v59.89Z"/><path class="cls-1" d="M188.52,244.42a8,8,0,0,0-8-8H71.74a8,8,0,0,0-8,8v33.94a8,8,0,0,0,8,8h108.8a8,8,0,0,0,8-8Zm-16,26H79.72v-18h92.83Z"/><path class="cls-1" d="M411.12,244.42a8,8,0,0,0-8-8H294.33a8,8,0,0,0-8,8v33.94a8,8,0,0,0,8,8h108.8a8,8,0,0,0,8-8Zm-16,26H302.31v-18h92.83Z"/></svg>