<svg id="Layer_1" data-name="Layer 1" xmlns="http://www.w3.org/2000/svg" xmlns:xlink="http://www.w3.org/1999/xlink" viewBox="0 0 30 30"><defs><style>.cls-1{fill:url(#linear-gradient);}.cls-2{fill:url(#linear-gradient-2);}.cls-3{fill:#182738;}</style><linearGradient id="linear-gradient" x1="0.33" y1="0.33" x2="28.36" y2="28.36" gradientUnits="userSpaceOnUse"><stop offset="0" stop-color="#fff"/><stop offset="1" stop-color="#c7c7c7"/></linearGradient><linearGradient id="linear-gradient-2" x1="24.71" y1="24.71" x2="5.29" y2="5.29" xlink:href="#linear-gradient"/></defs><title>button-2</title><rect class="cls-1" width="30" height="30" rx="6"/><rect class="cls-2" x="4" y="4" width="22" height="22" rx="4.4"/><path class="cls-3" d="M18.37,17.69v1.58H12V18L15.26,15a3.64,3.64,0,0,0,.69-.84,1.56,1.56,0,0,0,.18-.71.92.92,0,0,0-.34-.77,1.59,1.59,0,0,0-1-.27,2.33,2.33,0,0,0-1,.21,1.94,1.94,0,0,0-.74.63l-1.42-.91A3.34,3.34,0,0,1,13,11.14a4.64,4.64,0,0,1,2-.41,4.17,4.17,0,0,1,1.64.3,2.58,2.58,0,0,1,1.09.87,2.23,2.23,0,0,1,.39,1.31,3,3,0,0,1-.29,1.29,4.86,4.86,0,0,1-1.11,1.36l-1.94,1.83Z"/></svg>