<svg id="Capa_1" data-name="Capa 1" xmlns="http://www.w3.org/2000/svg" viewBox="0 0 293.25 293.25"><defs><style>.cls-1{fill:#cbd9e2;}</style></defs><title>glasses</title><path class="cls-1" d="M77.92,89.56a57,57,0,0,0-47.7,25.79H6a6,6,0,0,0,0,12H24.21A57.06,57.06,0,1,0,77.92,89.56Zm0,102.12A45.06,45.06,0,1,1,123,146.62,45.11,45.11,0,0,1,77.92,191.68Z"/><path class="cls-1" d="M287.25,115.35H260.2a57,57,0,0,0-96.18,1.2,23.88,23.88,0,0,0-30.28-6.28,6,6,0,0,0,5.76,10.53,11.67,11.67,0,0,1,5.7-1.45,11.9,11.9,0,0,1,11.89,11.89,5.86,5.86,0,0,0,.12,1.19A57.07,57.07,0,0,0,265.9,166.74a6,6,0,0,0-11.23-4.23,45.07,45.07,0,1,1-42.19-60.95,44.81,44.81,0,0,1,44.51,38,6,6,0,0,0,11.86-1.87,56.87,56.87,0,0,0-2.66-10.34h21.06a6,6,0,0,0,0-12Z"/></svg>