<svg id="Layer_1" data-name="Layer 1" xmlns="http://www.w3.org/2000/svg" viewBox="0 0 64 64"><defs><style>.cls-1{fill:#fff;}</style></defs><title>gun-3</title><path class="cls-1" d="M60.6,44.2a11.58,11.58,0,0,0-7.3-3.4,11.46,11.46,0,0,0,3-7.9,11.9,11.9,0,0,0-3.4-8.3,11.62,11.62,0,0,0-10.3-3.2A11.8,11.8,0,0,0,39.4,11a11.57,11.57,0,0,0-16.1-.3A11.75,11.75,0,0,0,11.6,0,11.6,11.6,0,0,0,3.4,19.8l.2.2,6.8,3.7c-.4,2.2-1.2,2.6-3.1,2.6H6.7c-.9-1.9-2.1-2.9-3.4-2.9a2.28,2.28,0,0,0-1.9,1c-.8,1-.9,2.7-.4,4.5C6,47,18.4,59.3,35.7,63.6h.5c1.4,0,2.3-.4,2.6-1.3.6-1.4-.8-3.3-1.5-4.1,0-1.4.5-3,3.2-3.6.3,4.7,2.9,5.9,3.8,6.2A11.63,11.63,0,0,0,60.6,44.2ZM31.1,12.3a7,7,0,1,1-7,7A7,7,0,0,1,31.1,12.3ZM4.6,11.6a7,7,0,1,1,7,7A7,7,0,0,1,4.6,11.6ZM37.5,48a10.27,10.27,0,0,1-1.8,3.4,7.11,7.11,0,0,1-5.1,1.9c-11.5,0-25.1-17.9-18-25a12.07,12.07,0,0,1,3.6-2C17,25.8,20,24,21.8,24c1.6,0,2.1,1.3,2.6,2.7,2,6.5,6.3,1.2,9.1,3.7,1.5,1.4.7,4.1.6,6.6a3.32,3.32,0,0,0,1.5,2.2C37.4,40.8,42.5,39.7,37.5,48Zm.2-15.1a7,7,0,1,1,7,7A7,7,0,0,1,37.7,32.9ZM52.4,59.4a7,7,0,1,1,7-7A7.09,7.09,0,0,1,52.4,59.4Z"/></svg>