<svg id="Capa_1" data-name="Capa 1" xmlns="http://www.w3.org/2000/svg" viewBox="0 0 472.61 472.61"><defs><style>.cls-1{fill:#cbd9e2;}</style></defs><title>hand-right</title><path class="cls-1" d="M345,90.58a36.81,36.81,0,0,0-17.33,4.32V73.25a37,37,0,0,0-54.35-32.7V37a37,37,0,1,0-74,0V58.67a37,37,0,0,0-54.35,32.7v98.14a45.81,45.81,0,0,0-26.39-8.34,28,28,0,0,0-28,28V326.89c0,80.35,65.38,145.72,145.73,145.72S382,407.24,382,326.89V127.61A37.07,37.07,0,0,0,345,90.58Zm17.33,236.31a126,126,0,0,1-252.06,0V209.13a8.28,8.28,0,0,1,8.27-8.27,26.41,26.41,0,0,1,26.38,26.39v81.52a9.85,9.85,0,1,0,19.7,0V91.37a17.33,17.33,0,1,1,34.65,0V227.25a9.85,9.85,0,0,0,19.7,0V37a17.33,17.33,0,1,1,34.65,0V227.25a9.85,9.85,0,0,0,19.7,0v-154a17.33,17.33,0,0,1,34.66,0v154a9.85,9.85,0,0,0,19.69,0V127.61a17.33,17.33,0,1,1,34.66,0Z"/></svg>