<svg id="Capa_1" data-name="Capa 1" xmlns="http://www.w3.org/2000/svg" viewBox="0 0 512 512"><defs><style>.cls-1{fill:#cbd9e2;}</style></defs><title>jeans</title><path class="cls-1" d="M409.59,494.48,384,8.08A8.55,8.55,0,0,0,375.46,0H136.53A8.53,8.53,0,0,0,128,8.09l-25.6,486.4a8.53,8.53,0,0,0,7.67,8.94L195.42,512a8.59,8.59,0,0,0,9.26-7.12L256,189.64l51.32,315.2a8.54,8.54,0,0,0,8.41,7.16c.28,0,.56,0,.86,0l85.34-8.54A8.54,8.54,0,0,0,409.59,494.48Zm-86.73-.31-58.44-359a8.54,8.54,0,0,0-16.85,0l-58.44,359-69.25-6.93L144.63,17.07H367.36l24.75,470.18Z"/><rect class="cls-1" x="136.53" y="34.13" width="238.93" height="17.07"/><path class="cls-1" d="M247.46,8.53V120.4A53,53,0,0,1,230.4,81.32V8.53H213.33V81.32a69.94,69.94,0,0,0,38.85,62.84,8.41,8.41,0,0,0,3.81.91,8.55,8.55,0,0,0,8.54-8.54V8.53Z"/><path class="cls-1" d="M170.82,41l-1,5.17a69.26,69.26,0,0,1-35.35,47.68H128v17.06h8.53a8.54,8.54,0,0,0,3.82-.89,86.24,86.24,0,0,0,46.19-60.51l1-5.21Z"/><path class="cls-1" d="M377.55,93.86A69.19,69.19,0,0,1,342.2,46.22l-1-5.21-16.76,3.3,1,5.24A86.29,86.29,0,0,0,371.64,110a8.48,8.48,0,0,0,3.82.9H384V93.86Z"/></svg>