<svg id="Layer_1" data-name="Layer 1" xmlns="http://www.w3.org/2000/svg" viewBox="0 0 512 512"><defs><style>.cls-1{fill:#cbd9e2;}</style></defs><title>jewelry</title><path class="cls-1" d="M296.25,161.85a40,40,0,1,0-40,40A40,40,0,0,0,296.25,161.85Zm-60,0a20,20,0,1,1,20,20A20,20,0,0,1,236.25,161.85Z"/><path class="cls-1" d="M352.52,397.74c-2.8-3.75-7.25-9.05-12.29-12.6v-24.5a30,30,0,0,0,0-56.56V280.64a30,30,0,0,0,0-56.56V194.21a90,90,0,0,0-74-121.8V68.54a35,35,0,1,0-40.31-51,10,10,0,0,0,17.32,10,15,15,0,1,1,13,22.5,10,10,0,0,0-10,10V72.41c-2.71.3-5.4.72-8.05,1.26a10,10,0,1,0,4,19.6,69.94,69.94,0,1,1-54.89,56.45,10,10,0,1,0-19.7-3.44,90.14,90.14,0,0,0,4.67,47.93v29.87a30,30,0,0,0,0,56.56v23.44a30,30,0,0,0,0,56.56v24.5c-5,3.55-9.49,8.85-12.29,12.6-4.47,6-12,17.91-12,30.3a34.5,34.5,0,0,0,34.2,34.46h.28A34.49,34.49,0,0,0,216.54,428c0-12.39-7.5-24.3-12-30.3-2.8-3.75-7.25-9.05-12.29-12.6v-24.5a30,30,0,0,0,0-56.56V280.64a30,30,0,0,0,16.47-42.38,89.3,89.3,0,0,0,37.51,13v22.28a30,30,0,0,0,0,56.56v23.44a30,30,0,0,0,0,56.57v24.5c-5,3.54-9.49,8.84-12.29,12.59-4.48,6-12,17.91-12,30.31A34.5,34.5,0,0,0,256.17,512h.28a34.5,34.5,0,0,0,34.07-34.46c0-12.4-7.51-24.31-12-30.31-2.8-3.75-7.25-9.05-12.29-12.59v-24.5a30,30,0,0,0,0-56.57V330.13a30,30,0,0,0,0-56.56V251.29a89.3,89.3,0,0,0,37.51-13,30,30,0,0,0,16.47,42.38v23.44a30,30,0,0,0,0,56.56v24.5c-5,3.55-9.49,8.85-12.29,12.6-4.48,6-12,17.9-12,30.3a34.5,34.5,0,0,0,34.19,34.46h.29A34.49,34.49,0,0,0,364.5,428C364.5,415.64,357,403.73,352.52,397.74Zm-22.29-55.38a10,10,0,1,1,10-10A10,10,0,0,1,330.23,342.36Zm0-80a10,10,0,1,1,10-10A10,10,0,0,1,330.23,262.36ZM182.38,442.5h-.12A14.62,14.62,0,0,1,168,428c0-8.63,9.1-20.71,14.27-25.37,5.17,4.66,14.27,16.74,14.27,25.37A14.61,14.61,0,0,1,182.38,442.5Zm-.11-100.14a10,10,0,1,1,10-10A10,10,0,0,1,182.27,342.36Zm0-80a10,10,0,1,1,10-10A10,10,0,0,1,182.27,262.36ZM256.36,492h-.13A14.62,14.62,0,0,1,242,477.54c0-8.63,9.1-20.71,14.27-25.37,5.17,4.66,14.27,16.74,14.27,25.37A14.61,14.61,0,0,1,256.36,492Zm-.11-100.14a10,10,0,0,1,0-20h0a10,10,0,0,1,0,20Zm0-80a10,10,0,1,1,10-10A10,10,0,0,1,256.25,311.86ZM330.34,442.5h-.13A14.61,14.61,0,0,1,316,428c0-8.63,9.1-20.71,14.27-25.37,5.17,4.66,14.27,16.74,14.27,25.37A14.61,14.61,0,0,1,330.34,442.5Z"/><path class="cls-1" d="M192.63,113.63a10,10,0,0,0,14.08-1.29h0a10,10,0,1,0-14.08,1.29Z"/></svg>