<svg id="Layer_1" data-name="Layer 1" xmlns="http://www.w3.org/2000/svg" viewBox="0 0 512 512"><defs><style>.cls-1{fill:#cbd9e2;}</style></defs><title>mask</title><path class="cls-1" d="M426.41,352.29C413.2,361.36,397.79,366,380.6,366c-36.05,0-54.55-12.93-72.44-25.43-14.67-10.25-29.83-20.84-52.16-20.84s-37.49,10.59-52.16,20.84C186,353,167.46,366,131.41,366,36.77,366,21.59,225,20.13,151.31c5.32,1.15,10.79,2.07,16.49,2.76A10,10,0,0,0,39,134.22a152.4,152.4,0,0,1-26.13-5.43A10,10,0,0,0,0,138.36c0,42.69,3.86,104.32,22.27,155.55,9.93,27.66,23.19,49.43,39.4,64.71C80.92,376.75,104.38,386,131.41,386c42.34,0,65.38-16.1,83.89-29,13.78-9.63,24.67-17.23,40.7-17.23s26.92,7.6,40.7,17.23c18.51,12.94,41.55,29,83.9,29,21.31,0,40.53-5.78,57.13-17.17a10,10,0,1,0-11.32-16.49Z"/><path class="cls-1" d="M508,130.33a10,10,0,0,0-8.86-1.54c-36.42,11.06-73.92,6.41-110.19,1.91-25.34-3.14-49.27-6.11-72.51-4-23.66,2.17-43.51,9.63-60.4,22.75-16.89-13.12-36.74-20.58-60.4-22.75-23.24-2.13-47.17.84-72.51,4l-6.52.8A10,10,0,0,0,119,151.36l6.54-.81c48.38-6,90.16-11.18,123.72,19.38a10,10,0,0,0,13.46,0c33.56-30.56,75.34-25.38,123.72-19.38,34.21,4.24,69.47,8.61,105.43.77-.78,41.71-5.67,96.12-22.7,140.49A10,10,0,0,0,487.85,299c20-52,24.15-116,24.15-160.62A10,10,0,0,0,508,130.33Z"/><path class="cls-1" d="M345.3,292.65a82.31,82.31,0,0,0,37.35-8.46c31.06-15.56,42.12-47.15,45.44-60a10,10,0,0,0-12.43-12.11c-10.79,3.07-23.67,2.12-37.3,1.11-32.9-2.43-73.85-5.47-91.6,55.69a10,10,0,0,0,5.81,12C311.63,288.73,329.25,292.65,345.3,292.65Zm31.58-59.52c8.78.65,17.73,1.31,26.53.89-5.17,11.18-14.25,24.53-29.72,32.28-17.23,8.64-39,8.43-64.83-.58C322.73,229.12,346.87,230.91,376.88,233.13Z"/><path class="cls-1" d="M83.91,224.18c3.32,12.86,14.38,44.44,45.44,60a82.19,82.19,0,0,0,37.36,8.47c16,0,33.66-3.92,52.72-11.74a10,10,0,0,0,5.81-12c-17.75-61.16-58.7-58.12-91.6-55.69-13.63,1-26.51,2-37.3-1.11a10,10,0,0,0-12.43,12.11Zm51.21,8.95c30-2.22,54.16-4,68,32.59-25.83,9-47.6,9.22-64.83.58-15.47-7.75-24.55-21.1-29.72-32.28C117.39,234.44,126.34,233.78,135.12,233.13Z"/><path class="cls-1" d="M77.92,155.23c.21,0,.42,0,.64,0a10,10,0,0,0-1.25-20h0a10,10,0,0,0,.62,20Z"/><path class="cls-1" d="M465.75,323.1a10,10,0,0,0-13.87,2.77h0a10,10,0,1,0,13.87-2.78Z"/></svg>