<svg id="Ties" xmlns="http://www.w3.org/2000/svg" viewBox="0 0 512 512"><defs><style>.cls-1{fill:#cbd9e2;}</style></defs><title>tie</title><path class="cls-1" d="M403.74,58.13A10.67,10.67,0,0,0,389.25,54L314.52,95.35h-117L122.75,54a10.66,10.66,0,1,0-10.33,18.65l74.24,41.1,26.81,53.82L189.13,404.79a10.68,10.68,0,0,0,4.15,9.57l56.25,42.83a10.7,10.7,0,0,0,12.92,0l56.26-42.83a10.67,10.67,0,0,0,4.14-9.57L298.51,167.54l26.82-53.81,74.24-41.11A10.66,10.66,0,0,0,403.74,58.13ZM256,435.31,211,401l22.88-223h44.32L301,401Zm24.09-278.59H231.91l-20-40h88.1Z"/></svg>