<svg width="10" height="7" viewBox="0 0 10 7" fill="none" xmlns="http://www.w3.org/2000/svg">
<path d="M2.90986 6.99993C2.79405 7.0006 2.68067 6.96677 2.58416 6.90275C2.48766 6.83873 2.4124 6.74742 2.368 6.64047C2.32359 6.53351 2.31204 6.41575 2.33482 6.30221C2.3576 6.18866 2.41367 6.08447 2.4959 6.00292L8.32635 0.172464C8.38056 0.117816 8.44504 0.0744408 8.51609 0.0448404C8.58714 0.0152399 8.66335 0 8.74032 0C8.81728 0 8.89349 0.0152399 8.96454 0.0448404C9.03559 0.0744408 9.10008 0.117816 9.15428 0.172464C9.26287 0.281705 9.32382 0.429479 9.32382 0.583511C9.32382 0.737543 9.26287 0.885317 9.15428 0.994558L3.32382 6.82501C3.26983 6.8801 3.20543 6.92393 3.13437 6.95396C3.06331 6.98398 2.987 6.99961 2.90986 6.99993Z" fill="#37D1E7"/>
<path d="M2.90986 6.99994C2.75607 6.99775 2.60937 6.93489 2.50173 6.82503L0.169545 4.49285C0.0609525 4.38361 0 4.23583 0 4.0818C0 3.92777 0.0609525 3.78 0.169545 3.67076C0.223747 3.61611 0.288232 3.57273 0.359282 3.54313C0.430331 3.51353 0.506539 3.49829 0.583507 3.49829C0.660476 3.49829 0.736684 3.51353 0.807733 3.54313C0.878783 3.57273 0.943268 3.61611 0.99747 3.67076L3.32965 6.00294C3.41225 6.08483 3.46847 6.18957 3.49107 6.30367C3.51368 6.41777 3.50164 6.53602 3.4565 6.64323C3.41136 6.75043 3.33519 6.84168 3.23778 6.90525C3.14036 6.96882 3.02616 7.0018 2.90986 6.99994Z" fill="#37D1E7"/>
</svg>
