<svg id="Layer_1" data-name="Layer 1" xmlns="http://www.w3.org/2000/svg" viewBox="0 0 21.93 22.06"><defs><style>.cls-1{fill:#fff;}</style></defs><title>dropcall</title><path class="cls-1" d="M16.43,0a5.5,5.5,0,1,0,5.5,5.5A5.51,5.51,0,0,0,16.43,0Zm2.35,7.15a.48.48,0,0,1,0,.7.48.48,0,0,1-.7,0L16.43,6.21,14.78,7.85a.48.48,0,0,1-.7,0,.48.48,0,0,1,0-.7L15.72,5.5,14.08,3.85a.49.49,0,0,1,.7-.7l1.65,1.64,1.65-1.64a.49.49,0,0,1,.7.7L17.14,5.5Z"/><path class="cls-1" d="M17.5,15.57A10.86,10.86,0,0,1,14.09,15a1.51,1.51,0,0,0-1.48.31L10.45,17a12,12,0,0,1-5.36-5.36L6.67,9.5A1.52,1.52,0,0,0,7.05,8,10.59,10.59,0,0,1,6.5,4.56,1.5,1.5,0,0,0,5,3.06H1.5A1.5,1.5,0,0,0,0,4.56a17.52,17.52,0,0,0,17.5,17.5,1.5,1.5,0,0,0,1.5-1.5V17.07A1.5,1.5,0,0,0,17.5,15.57Z"/></svg>