<svg width="48" height="45" viewBox="0 0 48 45" fill="none" xmlns="http://www.w3.org/2000/svg">
<path d="M39.3971 1.97802C39.3971 1.13736 38.7617 0.494505 37.9308 0.494505H33.5316C32.7006 0.494505 32.0652 1.13736 32.0652 1.97802V6.18132L25.2709 0.445055C24.5377 -0.148352 23.5112 -0.148352 22.778 0.445055L0 19.4835L2.49287 22.5494L5.8167 19.7802V43.5165C5.8167 44.3571 6.45214 45 7.2831 45H18.6232C19.4542 45 20.0896 44.3571 20.0896 43.5165V31.1538H27.9104V43.5165C27.9104 44.3571 28.5458 45 29.3768 45H40.7169C41.5479 45 42.1833 44.3571 42.1833 43.5165V19.7802L45.5071 22.5494L48 19.4835L39.3971 12.3132V1.97802Z" fill="#3092B4"/>
</svg>
