<svg width="50" height="53" viewBox="0 0 50 53" fill="none" xmlns="http://www.w3.org/2000/svg">
<path d="M48.7341 19.1257C46.7952 16.1079 37.7341 14.6856 30.8753 14.5075C32.1802 13.9303 33.1666 13.4743 33.1666 13.4743L30.7298 9.98488L35.9896 12.1575C35.9896 12.1575 36.5759 10.4603 44.5698 10.1685C47.685 10.0542 40.2148 1.37311 33.8702 3.20153C32.6499 3.55322 27.2879 7.18821 23.8321 10.4834C23.2796 5.48659 20.4986 -0.591494 17.4254 0.0462988C13.4284 0.877117 8.43074 2.29513 9.93068 4.02798C10.7346 4.95812 13.7614 9.32272 16.8146 12.5198C11.8846 10.747 5.85099 9.36083 3.74468 10.7095C0.546018 12.7578 -0.205834 18.9671 0.0443653 21.1103C0.294564 23.2567 4.73983 15.8899 4.73983 15.8899L5.39762 21.6051C5.39762 21.6051 12.9086 21.239 14.9265 20.7849C15.5636 20.6412 16.4127 20.5169 17.3018 20.4132C13.1525 24.6935 8.22004 32.4376 7.86199 34.0836C7.36159 36.3805 9.36005 40.682 11.5247 43.8404C13.6899 46.9975 17.0209 38.0397 17.6869 36.2137C18.3528 34.3897 16.0916 29.9095 16.0916 29.9095L20.5187 32.7299C20.5187 32.7299 23.6258 25.3194 24.2403 22.7164C24.2434 22.7039 24.246 22.6914 24.2491 22.6789C25.053 23.9763 25.5804 25.6436 25.8901 27.5451C26.1391 29.0762 26.2513 30.7522 26.2607 32.4957C26.2682 33.9168 26.2087 35.381 26.1014 36.8465C25.9315 39.1641 25.6424 41.4829 25.3095 43.6336C24.9326 46.0705 24.5018 48.2906 24.1299 50.0453C23.8628 51.3021 23.6264 52.3122 23.4602 53H28.1977C28.384 52.3628 28.5551 51.7275 28.7169 51.0966C29.3064 48.7822 29.734 46.5184 30.02 44.3358C30.3486 41.8371 30.4953 39.4458 30.5122 37.1995C30.5254 35.4941 30.4627 33.8743 30.3442 32.3564C30.1956 30.4698 29.9617 28.7445 29.6801 27.2109C29.3409 25.3669 28.9333 23.8146 28.5244 22.5946C29.751 22.9906 30.9173 23.4641 31.671 24.0382C33.7598 25.6324 41.5291 31.5693 41.5291 31.5693L45.0683 24.9352C45.0683 24.9352 46.5676 36.215 47.9001 33.7263C49.2333 31.2357 51.3991 23.2723 48.7341 19.1257Z" fill="#3092B4"/>
</svg>
