<svg width="30" height="34" viewBox="0 0 30 34" fill="none" xmlns="http://www.w3.org/2000/svg">
<path d="M23.5875 10.625H27.9083C28.6875 10.625 29.325 9.9875 29.325 9.20834C29.325 8.42917 28.6875 7.79167 27.9083 7.79167H23.5875C22.8083 7.79167 22.1708 8.42917 22.1708 9.20834C22.1708 9.9875 22.8083 10.625 23.5875 10.625Z" fill="white"/>
<path d="M27.9083 23.375H23.5875C22.8083 23.375 22.1708 24.0125 22.1708 24.7917C22.1708 25.5708 22.8083 26.2083 23.5875 26.2083H27.9083C28.6875 26.2083 29.325 25.5708 29.325 24.7917C29.325 24.0125 28.6875 23.375 27.9083 23.375Z" fill="white"/>
<path d="M23.5875 29.0417C21.25 29.0417 19.3375 27.1292 19.3375 24.7917C19.3375 22.4542 21.25 20.5417 23.5875 20.5417H27.625V13.4583H23.5875C21.25 13.4583 19.3375 11.5458 19.3375 9.20833C19.3375 6.87083 21.25 4.95833 23.5875 4.95833H27.625V1.41667C27.625 0.6375 26.9875 0 26.2083 0H1.41667C0.6375 0 0 0.6375 0 1.41667V32.5833C0 33.3625 0.6375 34 1.41667 34H26.2083C26.9875 34 27.625 33.3625 27.625 32.5833V29.0417H23.5875Z" fill="white"/>
</svg>
