<svg width="34" height="34" viewBox="0 0 34 34" fill="none" xmlns="http://www.w3.org/2000/svg">
<path d="M32.0872 0.0999038L0.895594 12.6555C0.620402 12.761 0.385687 12.951 0.225133 13.1982C0.0645786 13.4454 -0.013561 13.7371 0.00192819 14.0315C0.0174173 14.3259 0.125739 14.6079 0.311347 14.8368C0.496956 15.0658 0.750309 15.2301 1.03505 15.3061L14.8877 19.1193L18.6994 32.9769C18.7762 33.2569 18.9384 33.5059 19.1634 33.6893C19.3884 33.8727 19.6649 33.9813 19.9546 34H20.0475C20.3282 34.0008 20.6025 33.9169 20.8347 33.7593C21.0669 33.6017 21.2462 33.3776 21.3491 33.1165L33.9001 1.91349C34.0016 1.65997 34.0264 1.38224 33.9716 1.11473C33.9167 0.847221 33.7846 0.601701 33.5915 0.408606C33.3985 0.215511 33.1531 0.0833322 32.8857 0.0284575C32.6183 -0.0264173 32.3406 -0.00157513 32.0872 0.0999038Z" fill="white"/>
</svg>
