<svg width="97" height="82" viewBox="0 0 97 82" fill="none" xmlns="http://www.w3.org/2000/svg">
<g clip-path="url(#clip0)">
<path d="M48.4439 24.4651C47.172 24.4651 46.1246 25.5125 46.1246 26.7844C46.1246 28.0563 47.172 29.1037 48.4439 29.1037C49.7158 29.1037 50.7632 28.0563 50.7632 26.7844C50.7632 25.5125 49.7158 24.4651 48.4439 24.4651Z" fill="white"/>
<path d="M96.9626 27.1211C96.9626 27.0837 96.9626 27.0463 96.9626 27.0463C96.9626 27.0089 96.9626 27.0089 96.9626 26.9715C96.9626 26.9341 96.9626 26.8966 96.9626 26.8966V26.8218V26.747H97C97 26.7096 97 26.7096 97 26.6722C97 26.6348 97 26.5974 97 26.5974C97 26.5974 97 26.56 97 26.5226V26.4477C97 26.4103 97 26.3729 97 26.3729V26.2981C97 26.2981 97 26.2607 97 26.2233L96.9626 26.1485L96.9252 26.0737V26.0363C96.9252 25.9988 96.8878 25.9614 96.8878 25.924C96.8878 25.8866 96.8878 25.8866 96.8504 25.8492V25.8118C96.8504 25.7744 96.813 25.737 96.813 25.6996C96.813 25.6622 96.7756 25.6622 96.7756 25.6248L82.8596 1.08484L82.8222 1.04744C82.7848 0.972619 82.7474 0.93521 82.71 0.860393L82.6726 0.822985C82.5978 0.748168 82.5604 0.673351 82.4855 0.598535C82.4107 0.523718 82.3359 0.486309 82.2985 0.411492L82.2611 0.374084L82.074 0.261859L81.9992 0.22445C81.9244 0.187042 81.8496 0.149634 81.7748 0.112225C81.7 0.0748168 81.5877 0.0374084 81.5129 0.0374084H81.4381C81.3633 0 81.2885 0 81.2511 0H81.1762C81.1014 0 80.9892 0 80.9144 0H16.0856C15.9734 0 15.8986 0 15.7863 0H15.7115C15.6367 0 15.5619 0.0374084 15.4871 0.0374084H15.4123C15.3374 0.0748168 15.2626 0.0748168 15.1878 0.112225H15.1504L14.926 0.261859L14.8511 0.299267C14.7763 0.336676 14.7389 0.374084 14.6641 0.411492L14.5893 0.448901C14.5145 0.486309 14.4771 0.561126 14.4022 0.598535L14.4396 0.635943C14.3648 0.71076 14.3274 0.785577 14.2526 0.860393L14.2152 0.897802C14.1778 0.972619 14.1404 1.01003 14.103 1.08484V1.12225L0.22445 25.5874L0.187042 25.6248L0.149634 25.6996C0.149634 25.737 0.112225 25.7744 0.112225 25.8118C0.112225 25.8492 0.112225 25.8118 0.112225 25.8492C0.112225 25.8866 0.0748168 25.8866 0.0748168 25.924C0.0748168 25.9614 0.0374084 25.9988 0.0374084 26.0363V26.0737L0 26.1485V26.2233C0 26.2233 0 26.2607 0 26.2981V26.3729C0 26.4103 0 26.4477 0 26.4477C0 26.4852 0 26.4852 0 26.5226C0 26.5226 0 26.56 0 26.5974C0 26.6348 0 26.6722 0 26.7096C0 26.747 0 26.747 0 26.7844V26.8218V26.8966C0 26.9341 0 26.9341 0 26.9715C0 27.0089 0 27.0089 0 27.0463V27.1211V27.1959C0 27.2333 0 27.2333 0 27.2707C0 27.3081 0 27.3081 0 27.3455V27.4204L0.0374084 27.4952C0.0374084 27.5326 0.0374084 27.5326 0.0748168 27.57L0.112225 27.6448L0.149634 27.7196L0.187042 27.7944L0.22445 27.8693L0.261859 27.9441L0.299267 28.0189L0.336676 28.0937L0.374084 28.1685L0.411492 28.2433L0.448901 28.3182L0.486309 28.393L0.523718 28.4304L47.0598 80.5777C47.0972 80.6525 47.172 80.6899 47.2468 80.7648L47.2842 80.8022C47.359 80.877 47.4339 80.9144 47.5087 80.9518L47.5835 80.9892L47.8079 81.1014L47.8828 81.1388C47.9576 81.1762 48.0698 81.2137 48.1446 81.2511L48.2194 81.2885C48.2943 81.3259 48.3691 81.3259 48.4439 81.3259H48.5187C48.6309 81.3259 48.7057 81.3633 48.818 81.3633C48.9302 81.3633 49.005 81.3633 49.1172 81.3259H49.1921L49.4165 81.2885L49.4913 81.2511C49.6035 81.2137 49.6784 81.1762 49.7532 81.1388L49.7906 81.1014C49.8654 81.064 49.9402 81.0266 50.015 80.9892L50.0899 80.9518C50.1647 80.9144 50.2395 80.8396 50.3143 80.8022L50.3517 80.7648C50.4265 80.6899 50.4639 80.6525 50.5388 80.5777L96.4389 28.3182L96.4763 28.2808L96.5137 28.2433L96.5511 28.1685L96.5885 28.0937L96.6259 28.0189L96.6633 27.9441L96.7007 27.8693L96.7381 27.7944L96.7756 27.7196L96.813 27.6448L96.8504 27.57C96.9252 27.5326 96.9626 27.1211 96.9626 27.1211ZM77.3606 4.56383L69.8789 22.445L53.6437 4.56383H77.3606ZM43.2815 4.56383L27.2333 22.4825L19.5646 4.56383H43.2815ZM15.7863 7.48168L23.0436 24.4651H6.17239L15.7863 7.48168ZM7.33205 29.1037H24.9888L41.0744 66.8862L7.33205 29.1037ZM48.7057 72.9464L30.0015 29.1037H39.1666C40.4385 29.0663 41.4485 27.9815 41.3737 26.7096C41.3363 25.5125 40.3637 24.5399 39.1666 24.5025H31.6475L48.4439 5.76089L65.4273 24.5025H57.6838C56.4119 24.4651 55.327 25.4377 55.2896 26.7096C55.2522 27.9815 56.2248 29.0663 57.4967 29.1037C57.5715 29.1037 57.6089 29.1037 57.6838 29.1037H67.0733L48.7057 72.9464ZM56.2997 66.8114L72.1234 29.1037H89.5931L56.2997 66.8114ZM74.0686 24.4651L81.1762 7.51909L90.7528 24.4651H74.0686Z" fill="white"/>
</g>
<defs>
<clipPath id="clip0">
<rect width="97" height="81.3633" fill="white"/>
</clipPath>
</defs>
</svg>
