<svg width="16" height="16" viewBox="0 0 16 16" fill="none" xmlns="http://www.w3.org/2000/svg">
<path d="M15.9995 0.805019L14.7125 14.402C14.7012 14.5411 14.6581 14.6755 14.5868 14.7944C14.5155 14.9133 14.418 15.0134 14.3021 15.0866C14.1862 15.1598 14.0552 15.2041 13.9196 15.2159C13.784 15.2277 13.6475 15.2067 13.5213 15.1546L9.27262 13.4692L6.89005 15.7592C6.73342 15.9135 6.52467 15.9998 6.30745 15.9999C6.19361 16.0014 6.08062 15.9796 5.97507 15.9358C5.86951 15.8921 5.77349 15.8272 5.69258 15.7451C5.61168 15.6629 5.5475 15.5651 5.50377 15.4573C5.46005 15.3495 5.43766 15.2339 5.4379 15.1171V13.4978L11.1769 6.14286C11.2209 6.08674 11.2485 6.01902 11.2565 5.94752C11.2645 5.87602 11.2527 5.80364 11.2223 5.73875C11.1919 5.67386 11.1443 5.6191 11.0849 5.58079C11.0255 5.54247 10.9567 5.52217 10.8865 5.52222C10.7986 5.52313 10.7139 5.55671 10.6483 5.61674L4.03096 11.388L0.544059 10.004C0.392567 9.94401 0.260993 9.84079 0.164892 9.70655C0.0687906 9.5723 0.0121808 9.41264 0.00175479 9.24645C-0.00867125 9.08026 0.0275225 8.91448 0.106057 8.76871C0.184592 8.62294 0.302183 8.50329 0.44493 8.42388L14.9351 0.0952099C15.0492 0.0288641 15.1789 -0.00394875 15.3099 0.000378916C15.441 0.00470658 15.5683 0.0460072 15.678 0.11974C15.7876 0.193473 15.8753 0.296782 15.9314 0.418311C15.9875 0.539839 16.0099 0.67488 15.996 0.808586L15.9995 0.805019Z" fill="#5CC4EA"/>
</svg>
