<svg id="svg" xmlns="http://www.w3.org/2000/svg" xmlns:xlink="http://www.w3.org/1999/xlink" width="400" height="400" viewBox="0, 0, 400,400"><g id="svgg"><path id="path0" d="M110.892 162.050 C 110.173 162.257,108.913 163.141,108.092 164.013 C 107.271 164.885,106.380 165.599,106.112 165.599 C 105.474 165.600,99.600 171.307,99.600 171.925 C 99.600 172.186,99.420 172.400,99.200 172.400 C 98.980 172.400,98.798 172.625,98.796 172.900 C 98.793 173.175,98.163 174.010,97.396 174.756 C 96.628 175.502,96.000 176.342,96.000 176.623 C 96.000 176.904,95.775 177.208,95.500 177.300 C 95.129 177.424,95.000 179.049,95.000 183.600 C 95.000 188.151,95.129 189.776,95.500 189.900 C 95.775 189.992,96.000 190.296,96.000 190.577 C 96.000 190.858,96.628 191.698,97.396 192.444 C 98.163 193.190,98.793 194.025,98.796 194.300 C 98.798 194.575,98.980 194.800,99.200 194.800 C 99.420 194.800,99.600 195.002,99.600 195.248 C 99.600 195.852,105.491 201.600,106.110 201.601 C 106.379 201.601,107.267 202.310,108.083 203.177 C 111.389 206.691,122.166 206.728,125.656 203.238 C 126.538 202.356,127.611 201.524,128.041 201.387 C 129.210 201.016,134.349 195.744,134.629 194.628 C 134.763 194.094,135.126 193.561,135.436 193.441 C 135.746 193.322,136.000 192.945,136.000 192.603 C 136.000 192.260,136.440 191.813,136.978 191.608 C 137.669 191.346,138.035 190.818,138.223 189.818 C 138.369 189.038,138.649 188.400,138.845 188.400 C 139.040 188.400,139.200 186.060,139.200 183.200 C 139.200 180.250,139.039 178.000,138.827 178.000 C 138.622 178.000,138.326 177.595,138.170 177.100 C 138.013 176.605,137.209 175.542,136.382 174.738 C 135.555 173.935,134.749 172.870,134.591 172.372 C 134.243 171.274,129.135 166.160,128.041 165.813 C 127.611 165.676,126.538 164.844,125.656 163.962 C 123.375 161.680,115.642 160.679,110.892 162.050 M194.283 162.004 C 193.669 162.189,192.440 163.066,191.554 163.952 C 190.667 164.839,189.589 165.676,189.159 165.813 C 188.065 166.160,182.957 171.274,182.609 172.372 C 182.451 172.870,181.619 173.959,180.760 174.792 C 179.892 175.635,179.088 176.861,178.949 177.554 C 178.812 178.239,178.543 178.800,178.350 178.800 C 178.158 178.800,178.000 180.960,178.000 183.600 C 178.000 186.240,178.158 188.400,178.350 188.400 C 178.543 188.400,178.812 188.961,178.949 189.646 C 179.088 190.339,179.892 191.565,180.760 192.408 C 181.619 193.241,182.445 194.313,182.596 194.789 C 182.938 195.864,188.095 201.049,189.159 201.387 C 189.589 201.524,190.662 202.356,191.544 203.238 C 195.034 206.728,205.811 206.691,209.117 203.177 C 209.933 202.310,210.821 201.601,211.090 201.601 C 211.709 201.600,217.600 195.852,217.600 195.248 C 217.600 195.002,217.746 194.800,217.925 194.800 C 218.104 194.800,218.506 194.150,218.818 193.355 C 219.131 192.556,219.790 191.756,220.292 191.565 C 220.792 191.375,221.200 190.960,221.200 190.643 C 221.200 190.326,221.425 189.992,221.700 189.900 C 222.537 189.622,222.661 178.318,221.836 177.493 C 221.486 177.143,221.198 176.709,221.196 176.529 C 221.193 176.348,220.563 175.590,219.796 174.844 C 219.028 174.098,218.400 173.243,218.400 172.944 C 218.400 172.645,218.220 172.400,218.000 172.400 C 217.780 172.400,217.600 172.186,217.600 171.925 C 217.600 171.307,211.726 165.600,211.088 165.599 C 210.820 165.599,209.933 164.890,209.117 164.023 C 206.996 161.769,198.786 160.652,194.283 162.004 M277.685 162.052 C 276.961 162.260,275.701 163.118,274.885 163.958 C 274.068 164.798,273.005 165.610,272.521 165.763 C 271.380 166.123,266.123 171.380,265.763 172.521 C 265.610 173.005,264.803 174.064,263.969 174.874 C 260.524 178.223,260.544 188.999,264.000 192.354 C 264.852 193.180,265.670 194.339,265.818 194.928 C 265.966 195.518,266.222 196.000,266.387 196.000 C 266.669 196.000,267.515 196.824,270.356 199.863 C 271.005 200.557,271.955 201.258,272.468 201.420 C 272.981 201.582,274.064 202.397,274.874 203.231 C 278.223 206.676,288.999 206.656,292.354 203.200 C 293.180 202.348,294.339 201.530,294.928 201.382 C 295.518 201.234,296.000 200.980,296.000 200.818 C 296.000 200.425,300.435 196.000,300.829 196.000 C 300.998 196.000,301.258 195.448,301.406 194.773 C 301.554 194.098,301.928 193.449,302.238 193.330 C 302.547 193.212,302.800 192.860,302.800 192.549 C 302.800 192.237,303.234 191.785,303.765 191.543 C 306.797 190.162,306.353 177.924,303.157 174.807 C 302.364 174.033,301.582 172.981,301.420 172.468 C 301.258 171.955,300.557 171.005,299.863 170.356 C 296.824 167.515,296.000 166.669,296.000 166.387 C 296.000 166.222,295.518 165.966,294.928 165.818 C 294.339 165.670,293.180 164.852,292.354 164.000 C 290.151 161.730,282.379 160.698,277.685 162.052 " stroke="none" fill="#fcfcfc" fill-rule="evenodd"></path><path id="path1" d="M109.200 158.885 C 108.210 159.105,107.310 159.418,107.200 159.581 C 107.090 159.744,106.500 159.999,105.888 160.149 C 105.277 160.299,104.377 160.896,103.888 161.475 C 103.400 162.055,102.577 162.905,102.059 163.365 C 97.167 167.709,93.681 171.685,93.186 173.483 C 92.896 174.538,92.466 175.528,92.230 175.685 C 91.644 176.075,91.638 190.720,92.223 191.115 C 92.456 191.272,92.890 192.435,93.187 193.700 C 93.485 194.965,93.854 196.000,94.008 196.000 C 94.162 196.000,94.898 196.640,95.644 197.422 C 97.383 199.246,100.754 202.617,102.578 204.356 C 103.360 205.102,104.000 205.860,104.000 206.041 C 104.000 206.221,104.720 206.563,105.600 206.800 C 106.480 207.037,107.200 207.378,107.200 207.557 C 107.200 208.120,112.576 208.800,117.031 208.800 C 121.305 208.800,126.400 208.127,126.400 207.563 C 126.400 207.398,126.985 207.135,127.700 206.979 C 128.980 206.698,139.600 196.584,139.600 195.646 C 139.600 195.432,139.870 194.987,140.199 194.658 C 142.405 192.452,142.556 172.800,140.368 172.800 C 140.166 172.800,140.000 172.508,140.000 172.152 C 140.000 171.043,129.168 160.544,127.687 160.219 C 126.979 160.064,126.400 159.802,126.400 159.637 C 126.400 158.574,113.203 157.997,109.200 158.885 M192.829 158.835 C 191.855 159.026,190.955 159.339,190.829 159.530 C 190.703 159.721,190.079 160.005,189.441 160.161 C 188.073 160.496,177.200 171.147,177.200 172.152 C 177.200 172.508,177.034 172.800,176.832 172.800 C 174.802 172.800,174.784 193.632,176.814 194.333 C 177.026 194.407,177.200 194.734,177.200 195.060 C 177.200 196.141,188.061 206.662,189.504 206.979 C 190.217 207.136,190.800 207.398,190.800 207.563 C 190.800 208.127,195.895 208.800,200.169 208.800 C 204.624 208.800,210.000 208.120,210.000 207.557 C 210.000 207.378,210.720 207.037,211.600 206.800 C 212.480 206.563,213.200 206.221,213.200 206.041 C 213.200 205.860,213.845 205.102,214.634 204.356 C 215.423 203.610,216.818 202.218,217.734 201.262 C 218.650 200.306,220.164 198.776,221.098 197.862 C 222.033 196.948,222.798 196.052,222.798 195.871 C 222.799 195.691,223.063 195.280,223.384 194.959 C 223.706 194.637,224.092 193.705,224.242 192.887 C 224.392 192.069,224.714 191.272,224.958 191.115 C 225.561 190.725,225.573 176.086,224.970 175.685 C 224.734 175.528,224.295 174.509,223.996 173.419 C 223.609 172.014,222.991 171.025,221.868 170.019 C 220.997 169.239,219.906 168.174,219.442 167.653 C 218.565 166.667,217.049 165.153,214.624 162.844 C 213.841 162.098,213.200 161.340,213.200 161.159 C 213.200 160.979,212.480 160.637,211.600 160.400 C 210.720 160.163,210.000 159.822,210.000 159.643 C 210.000 158.619,197.041 158.009,192.829 158.835 M276.000 158.885 C 275.010 159.105,274.110 159.418,274.000 159.581 C 273.890 159.744,273.300 159.999,272.690 160.149 C 271.055 160.549,260.562 171.151,260.209 172.759 C 260.059 173.442,259.796 174.000,259.623 174.000 C 259.006 174.000,258.400 178.620,258.400 183.321 C 258.400 188.023,259.048 193.200,259.637 193.200 C 259.802 193.200,260.056 193.746,260.203 194.414 C 260.583 196.144,271.027 206.610,272.751 206.989 C 273.438 207.140,274.000 207.398,274.000 207.563 C 274.000 208.138,279.132 208.800,283.600 208.800 C 288.068 208.800,293.200 208.138,293.200 207.563 C 293.200 207.398,293.755 207.142,294.433 206.993 C 295.971 206.655,306.016 196.708,306.816 194.731 C 307.112 193.999,307.470 193.310,307.610 193.200 C 309.147 191.998,309.115 174.000,307.577 174.000 C 307.404 174.000,307.140 173.438,306.989 172.751 C 306.610 171.027,296.144 160.583,294.414 160.203 C 293.746 160.056,293.200 159.802,293.200 159.637 C 293.200 158.574,280.003 157.997,276.000 158.885 M122.729 161.980 C 123.458 162.189,124.775 163.081,125.656 163.962 C 126.538 164.844,127.611 165.676,128.041 165.813 C 129.135 166.160,134.243 171.274,134.591 172.372 C 134.749 172.870,135.555 173.935,136.382 174.738 C 137.209 175.542,138.013 176.605,138.170 177.100 C 138.326 177.595,138.622 178.000,138.827 178.000 C 139.039 178.000,139.200 180.250,139.200 183.200 C 139.200 186.060,139.040 188.400,138.845 188.400 C 138.649 188.400,138.369 189.038,138.223 189.818 C 138.035 190.818,137.669 191.346,136.978 191.608 C 136.440 191.813,136.000 192.260,136.000 192.603 C 136.000 192.945,135.746 193.322,135.436 193.441 C 135.126 193.561,134.763 194.094,134.629 194.628 C 134.349 195.744,129.210 201.016,128.041 201.387 C 127.611 201.524,126.538 202.356,125.656 203.238 C 122.166 206.728,111.389 206.691,108.083 203.177 C 107.267 202.310,106.379 201.601,106.110 201.601 C 105.491 201.600,99.600 195.852,99.600 195.248 C 99.600 195.002,99.420 194.800,99.200 194.800 C 98.980 194.800,98.798 194.575,98.796 194.300 C 98.793 194.025,98.163 193.190,97.396 192.444 C 96.628 191.698,96.000 190.858,96.000 190.577 C 96.000 190.296,95.775 189.992,95.500 189.900 C 95.129 189.776,95.000 188.151,95.000 183.600 C 95.000 179.049,95.129 177.424,95.500 177.300 C 95.775 177.208,96.000 176.904,96.000 176.623 C 96.000 176.342,96.628 175.502,97.396 174.756 C 98.163 174.010,98.793 173.175,98.796 172.900 C 98.798 172.625,98.980 172.400,99.200 172.400 C 99.420 172.400,99.600 172.186,99.600 171.925 C 99.600 171.307,105.474 165.600,106.112 165.599 C 106.380 165.599,107.271 164.885,108.092 164.013 C 110.205 161.767,118.143 160.664,122.729 161.980 M206.117 162.026 C 206.996 162.270,208.259 163.111,209.117 164.023 C 209.933 164.890,210.820 165.599,211.088 165.599 C 211.726 165.600,217.600 171.307,217.600 171.925 C 217.600 172.186,217.780 172.400,218.000 172.400 C 218.220 172.400,218.400 172.645,218.400 172.944 C 218.400 173.243,219.028 174.098,219.796 174.844 C 220.563 175.590,221.193 176.348,221.196 176.529 C 221.198 176.709,221.486 177.143,221.836 177.493 C 222.661 178.318,222.537 189.622,221.700 189.900 C 221.425 189.992,221.200 190.326,221.200 190.643 C 221.200 190.960,220.792 191.375,220.292 191.565 C 219.790 191.756,219.131 192.556,218.818 193.355 C 218.506 194.150,218.104 194.800,217.925 194.800 C 217.746 194.800,217.600 195.002,217.600 195.248 C 217.600 195.852,211.709 201.600,211.090 201.601 C 210.821 201.601,209.933 202.310,209.117 203.177 C 205.811 206.691,195.034 206.728,191.544 203.238 C 190.662 202.356,189.589 201.524,189.159 201.387 C 188.095 201.049,182.938 195.864,182.596 194.789 C 182.445 194.313,181.619 193.241,180.760 192.408 C 179.892 191.565,179.088 190.339,178.949 189.646 C 178.812 188.961,178.543 188.400,178.350 188.400 C 178.158 188.400,178.000 186.240,178.000 183.600 C 178.000 180.960,178.158 178.800,178.350 178.800 C 178.543 178.800,178.812 178.239,178.949 177.554 C 179.088 176.861,179.892 175.635,180.760 174.792 C 181.619 173.959,182.451 172.870,182.609 172.372 C 182.957 171.274,188.065 166.160,189.159 165.813 C 189.589 165.676,190.667 164.839,191.554 163.952 C 192.440 163.066,193.669 162.189,194.283 162.004 C 195.906 161.517,204.340 161.532,206.117 162.026 M289.326 162.028 C 290.181 162.266,291.511 163.132,292.354 164.000 C 293.180 164.852,294.339 165.670,294.928 165.818 C 295.518 165.966,296.000 166.222,296.000 166.387 C 296.000 166.669,296.824 167.515,299.863 170.356 C 300.557 171.005,301.258 171.955,301.420 172.468 C 301.582 172.981,302.364 174.033,303.157 174.807 C 306.353 177.924,306.797 190.162,303.765 191.543 C 303.234 191.785,302.800 192.237,302.800 192.549 C 302.800 192.860,302.547 193.212,302.238 193.330 C 301.928 193.449,301.554 194.098,301.406 194.773 C 301.258 195.448,300.998 196.000,300.829 196.000 C 300.435 196.000,296.000 200.425,296.000 200.818 C 296.000 200.980,295.518 201.234,294.928 201.382 C 294.339 201.530,293.180 202.348,292.354 203.200 C 288.999 206.656,278.223 206.676,274.874 203.231 C 274.064 202.397,272.981 201.582,272.468 201.420 C 271.955 201.258,271.005 200.557,270.356 199.863 C 267.515 196.824,266.669 196.000,266.387 196.000 C 266.222 196.000,265.966 195.518,265.818 194.928 C 265.670 194.339,264.852 193.180,264.000 192.354 C 260.544 188.999,260.524 178.223,263.969 174.874 C 264.803 174.064,265.610 173.005,265.763 172.521 C 266.123 171.380,271.380 166.123,272.521 165.763 C 273.005 165.610,274.068 164.798,274.885 163.958 C 277.055 161.726,284.603 160.717,289.326 162.028 " stroke="none" fill="#84ccc4" fill-rule="evenodd"></path><path id="path2" d="M63.364 38.551 C 63.246 38.857,62.300 39.216,61.242 39.357 C 58.937 39.662,56.923 41.284,56.553 43.133 C 56.414 43.830,56.142 44.400,55.950 44.400 C 55.758 44.400,55.600 44.823,55.600 45.341 C 55.600 46.236,55.431 46.295,52.138 46.548 C 47.422 46.911,46.911 47.422,46.548 52.138 C 46.295 55.431,46.236 55.600,45.341 55.600 C 44.823 55.600,44.400 55.758,44.400 55.950 C 44.400 56.142,43.830 56.414,43.133 56.553 C 41.334 56.913,39.692 58.913,39.356 61.154 C 39.204 62.169,38.835 63.180,38.537 63.400 C 38.083 63.736,38.012 89.199,38.098 221.400 L 38.200 379.000 46.000 379.000 L 53.800 379.000 53.914 374.900 L 54.028 370.800 57.314 370.753 C 59.121 370.727,60.825 370.734,61.100 370.770 C 61.375 370.806,61.600 370.557,61.600 370.218 C 61.600 369.878,61.756 369.600,61.946 369.600 C 62.136 369.600,62.326 368.030,62.368 366.111 C 62.460 361.934,61.934 362.460,66.111 362.368 C 68.030 362.326,69.600 362.136,69.600 361.946 C 69.600 361.756,69.848 361.600,70.150 361.600 C 70.573 361.600,70.716 360.744,70.768 357.916 C 70.848 353.511,70.327 354.060,74.511 353.968 C 76.430 353.926,78.000 353.736,78.000 353.546 C 78.000 353.356,78.250 353.200,78.556 353.200 C 78.861 353.200,79.103 352.975,79.093 352.700 C 79.082 352.425,79.102 350.805,79.137 349.100 L 79.200 346.000 82.400 346.000 C 84.690 346.000,85.602 345.858,85.606 345.500 C 85.610 345.167,85.742 345.200,86.000 345.600 C 86.331 346.113,86.389 346.098,86.394 345.500 C 86.397 345.105,86.705 344.797,87.100 344.794 C 87.704 344.789,87.718 344.730,87.200 344.363 C 86.748 344.044,86.724 343.889,87.100 343.736 C 87.437 343.600,87.600 342.565,87.600 340.567 L 87.600 337.600 90.567 337.600 C 92.565 337.600,93.600 337.437,93.736 337.100 C 93.889 336.724,94.044 336.748,94.363 337.200 C 94.730 337.718,94.789 337.704,94.794 337.100 C 94.797 336.705,95.105 336.397,95.500 336.394 C 96.098 336.389,96.113 336.331,95.600 336.000 C 95.200 335.742,95.167 335.610,95.500 335.606 C 95.858 335.602,96.000 334.690,96.000 332.400 L 96.000 329.200 215.900 329.154 C 281.845 329.128,335.980 329.066,336.200 329.015 C 336.420 328.964,336.825 328.894,337.100 328.861 C 337.375 328.827,337.600 328.553,337.600 328.251 C 337.600 327.920,338.235 327.601,339.200 327.446 C 340.080 327.306,340.800 327.051,340.800 326.882 C 340.800 326.712,341.326 326.262,341.969 325.882 C 342.678 325.463,343.242 324.720,343.401 323.996 C 343.545 323.338,343.829 322.800,344.032 322.800 C 344.234 322.800,344.400 322.350,344.400 321.800 C 344.400 320.855,344.520 320.800,346.600 320.800 C 348.289 320.800,348.800 320.661,348.800 320.200 C 348.800 319.870,348.980 319.600,349.200 319.600 C 349.420 319.600,349.600 319.780,349.600 320.000 C 349.600 320.220,350.050 320.400,350.600 320.400 C 351.150 320.400,351.600 320.220,351.600 320.000 C 351.600 319.780,351.864 319.600,352.186 319.600 C 353.017 319.600,353.707 318.113,353.508 316.754 C 353.415 316.119,353.487 315.600,353.669 315.600 C 353.851 315.600,354.000 314.520,354.000 313.200 C 354.000 310.919,354.049 310.800,354.981 310.800 C 357.792 310.800,360.800 307.816,360.800 305.028 C 360.800 304.430,361.088 304.018,361.598 303.885 C 362.393 303.677,362.396 303.241,362.396 183.829 C 362.396 63.444,362.392 63.037,361.163 62.000 C 361.032 61.890,360.810 61.203,360.668 60.474 C 360.325 58.713,358.368 56.809,356.607 56.524 C 355.833 56.398,355.200 56.139,355.200 55.948 C 355.200 55.756,354.957 55.600,354.659 55.600 C 354.267 55.600,354.046 54.660,353.856 52.190 C 353.464 47.087,353.252 46.878,348.095 46.514 L 344.790 46.280 344.544 44.740 C 344.409 43.893,344.141 43.200,343.949 43.200 C 343.757 43.200,343.600 42.980,343.600 42.710 C 343.600 41.838,340.713 39.600,339.589 39.600 C 339.002 39.600,338.109 39.241,337.603 38.802 C 336.397 37.756,63.764 37.506,63.364 38.551 M61.996 40.300 C 61.994 40.465,61.319 40.884,60.496 41.230 C 59.634 41.593,58.746 42.356,58.400 43.030 C 57.496 44.792,56.604 45.653,57.000 44.381 C 57.167 43.842,57.551 43.256,57.852 43.080 C 58.154 42.904,58.400 42.521,58.400 42.229 C 58.400 41.936,58.940 41.473,59.600 41.200 C 60.260 40.927,60.800 40.545,60.800 40.351 C 60.800 40.158,61.070 40.000,61.400 40.000 C 61.730 40.000,61.998 40.135,61.996 40.300 M44.729 57.300 C 44.438 57.575,43.674 58.070,43.030 58.400 C 42.356 58.746,41.593 59.634,41.230 60.496 C 40.582 62.033,40.000 62.462,40.000 61.400 C 40.000 61.070,40.158 60.800,40.351 60.800 C 40.545 60.800,40.927 60.260,41.200 59.600 C 41.473 58.940,41.936 58.400,42.229 58.400 C 42.521 58.400,42.904 58.156,43.080 57.859 C 43.381 57.350,44.185 56.903,44.929 56.832 C 45.109 56.814,45.019 57.025,44.729 57.300 M127.127 157.463 C 127.277 157.695,128.101 158.014,128.958 158.171 C 130.543 158.463,130.939 158.812,136.200 164.552 C 137.300 165.753,138.380 166.751,138.600 166.771 C 139.152 166.823,141.600 169.387,141.600 169.914 C 141.600 170.150,141.837 170.581,142.126 170.871 C 144.078 172.833,144.088 194.369,142.138 196.319 C 141.842 196.615,141.600 197.050,141.600 197.286 C 141.600 197.813,139.152 200.377,138.600 200.429 C 138.380 200.449,137.300 201.447,136.200 202.648 C 130.939 208.388,130.543 208.737,128.958 209.029 C 128.101 209.186,127.272 209.514,127.115 209.758 C 126.682 210.429,107.124 210.373,106.900 209.700 C 106.808 209.425,106.383 209.200,105.954 209.200 C 103.969 209.200,100.399 206.672,99.814 204.853 C 99.699 204.494,99.091 203.857,98.464 203.438 C 97.837 203.019,96.981 202.165,96.562 201.539 C 96.143 200.914,95.613 200.402,95.383 200.401 C 93.646 200.396,91.363 196.686,90.972 193.233 C 90.821 191.895,90.540 190.800,90.348 190.800 C 90.157 190.800,90.000 187.560,90.000 183.600 C 90.000 179.640,90.157 176.400,90.348 176.400 C 90.540 176.400,90.821 175.305,90.972 173.967 C 91.363 170.514,93.646 166.804,95.383 166.799 C 95.613 166.798,96.143 166.286,96.562 165.661 C 96.981 165.035,97.837 164.181,98.464 163.762 C 99.091 163.343,99.699 162.706,99.814 162.347 C 100.404 160.512,103.971 158.000,105.987 158.000 C 106.434 158.000,106.800 157.830,106.800 157.623 C 106.800 156.782,126.586 156.626,127.127 157.463 M210.307 157.521 C 210.395 157.785,210.817 158.000,211.246 158.000 C 213.043 158.000,217.200 160.791,217.200 161.998 C 217.200 162.372,221.573 166.800,221.942 166.800 C 223.499 166.800,225.813 170.562,226.210 173.739 C 226.365 174.983,226.651 176.000,226.846 176.000 C 227.041 176.000,227.200 179.330,227.200 183.400 C 227.200 187.470,227.043 190.800,226.852 190.800 C 226.660 190.800,226.379 191.895,226.228 193.233 C 225.851 196.569,223.560 200.400,221.942 200.400 C 221.573 200.400,217.200 204.828,217.200 205.202 C 217.200 206.409,213.043 209.200,211.246 209.200 C 210.817 209.200,210.392 209.425,210.300 209.700 C 210.076 210.373,190.518 210.429,190.085 209.758 C 189.928 209.514,189.099 209.186,188.242 209.029 C 186.657 208.737,186.261 208.388,181.000 202.648 C 179.900 201.447,178.820 200.449,178.600 200.429 C 178.048 200.377,175.600 197.813,175.600 197.286 C 175.600 197.050,175.358 196.615,175.062 196.319 C 173.130 194.387,173.130 172.813,175.062 170.881 C 175.358 170.585,175.602 170.131,175.604 169.871 C 175.609 169.346,178.083 166.819,178.643 166.767 C 178.839 166.749,179.900 165.753,181.000 164.552 C 186.392 158.670,186.667 158.431,188.359 158.160 C 189.262 158.016,190.000 157.751,190.000 157.572 C 190.000 156.721,210.024 156.671,210.307 157.521 M293.503 157.508 C 293.593 157.778,294.080 158.000,294.584 158.000 C 296.019 158.000,298.104 159.095,299.200 160.424 C 300.491 161.990,305.210 166.709,306.776 168.000 C 308.105 169.096,309.200 171.181,309.200 172.616 C 309.200 173.120,309.425 173.608,309.700 173.700 C 310.082 173.827,310.200 176.169,310.200 183.600 C 310.200 191.031,310.082 193.373,309.700 193.500 C 309.425 193.592,309.200 194.080,309.200 194.584 C 309.200 196.019,308.105 198.104,306.776 199.200 C 305.210 200.491,300.491 205.210,299.200 206.776 C 298.104 208.105,296.019 209.200,294.584 209.200 C 294.080 209.200,293.592 209.425,293.500 209.700 C 293.373 210.082,291.031 210.200,283.600 210.200 C 276.169 210.200,273.827 210.082,273.700 209.700 C 273.608 209.425,273.120 209.200,272.616 209.200 C 271.181 209.200,269.096 208.105,268.000 206.776 C 266.709 205.210,261.990 200.491,260.424 199.200 C 259.095 198.104,258.000 196.019,258.000 194.584 C 258.000 194.080,257.775 193.592,257.500 193.500 C 257.118 193.373,257.000 191.031,257.000 183.600 C 257.000 176.169,257.118 173.827,257.500 173.700 C 257.775 173.608,258.000 173.120,258.000 172.616 C 258.000 171.181,259.095 169.096,260.424 168.000 C 261.990 166.709,266.709 161.990,268.000 160.424 C 269.106 159.083,271.183 158.000,272.649 158.000 C 273.172 158.000,273.600 157.831,273.600 157.624 C 273.600 156.719,293.201 156.604,293.503 157.508 M360.000 304.567 C 360.000 304.878,359.865 305.193,359.700 305.267 C 359.535 305.340,359.095 306.060,358.723 306.866 C 358.244 307.902,357.629 308.483,356.623 308.846 C 355.840 309.129,355.200 309.505,355.200 309.680 C 355.200 309.856,354.930 310.000,354.600 310.000 C 353.589 310.000,353.934 309.303,355.088 309.014 C 356.530 308.652,358.717 306.475,359.021 305.100 C 359.272 303.962,360.000 303.566,360.000 304.567 M343.200 321.371 C 343.200 321.686,342.975 322.181,342.700 322.471 C 342.425 322.762,341.934 323.515,341.608 324.145 C 341.031 325.263,340.432 325.636,338.400 326.143 C 337.429 326.385,337.431 326.378,338.468 325.889 C 339.834 325.245,342.800 322.047,342.800 321.217 C 342.800 320.988,342.890 320.800,343.000 320.800 C 343.110 320.800,343.200 321.057,343.200 321.371 " stroke="none" fill="#04948c" fill-rule="evenodd"></path><path id="path3" d="M108.500 157.069 C 107.565 157.166,106.800 157.416,106.800 157.623 C 106.800 157.830,106.434 158.000,105.987 158.000 C 103.971 158.000,100.404 160.512,99.814 162.347 C 99.699 162.706,99.091 163.343,98.464 163.762 C 97.837 164.181,96.981 165.035,96.562 165.661 C 96.143 166.286,95.613 166.798,95.383 166.799 C 93.646 166.804,91.363 170.514,90.972 173.967 C 90.821 175.305,90.540 176.400,90.348 176.400 C 90.157 176.400,90.000 179.640,90.000 183.600 C 90.000 187.560,90.157 190.800,90.348 190.800 C 90.540 190.800,90.821 191.895,90.972 193.233 C 91.363 196.686,93.646 200.396,95.383 200.401 C 95.613 200.402,96.143 200.914,96.562 201.539 C 96.981 202.165,97.837 203.019,98.464 203.438 C 99.091 203.857,99.699 204.494,99.814 204.853 C 100.399 206.672,103.969 209.200,105.954 209.200 C 106.383 209.200,106.808 209.425,106.900 209.700 C 107.124 210.373,126.682 210.429,127.115 209.758 C 127.272 209.514,128.101 209.186,128.958 209.029 C 130.543 208.737,130.939 208.388,136.200 202.648 C 137.300 201.447,138.380 200.449,138.600 200.429 C 139.152 200.377,141.600 197.813,141.600 197.286 C 141.600 197.050,141.842 196.615,142.138 196.319 C 144.088 194.369,144.078 172.833,142.126 170.871 C 141.837 170.581,141.600 170.150,141.600 169.914 C 141.600 169.387,139.152 166.823,138.600 166.771 C 138.380 166.751,137.300 165.753,136.200 164.552 C 130.939 158.812,130.543 158.463,128.958 158.171 C 128.101 158.014,127.277 157.695,127.127 157.463 C 126.849 157.032,111.889 156.716,108.500 157.069 M191.700 157.069 C 190.765 157.166,190.000 157.393,190.000 157.572 C 190.000 157.751,189.262 158.016,188.359 158.160 C 186.667 158.431,186.392 158.670,181.000 164.552 C 179.900 165.753,178.839 166.749,178.643 166.767 C 178.083 166.819,175.609 169.346,175.604 169.871 C 175.602 170.131,175.358 170.585,175.062 170.881 C 173.130 172.813,173.130 194.387,175.062 196.319 C 175.358 196.615,175.600 197.050,175.600 197.286 C 175.600 197.813,178.048 200.377,178.600 200.429 C 178.820 200.449,179.900 201.447,181.000 202.648 C 186.261 208.388,186.657 208.737,188.242 209.029 C 189.099 209.186,189.928 209.514,190.085 209.758 C 190.518 210.429,210.076 210.373,210.300 209.700 C 210.392 209.425,210.817 209.200,211.246 209.200 C 213.043 209.200,217.200 206.409,217.200 205.202 C 217.200 204.828,221.573 200.400,221.942 200.400 C 223.560 200.400,225.851 196.569,226.228 193.233 C 226.379 191.895,226.660 190.800,226.852 190.800 C 227.043 190.800,227.200 187.470,227.200 183.400 C 227.200 179.330,227.041 176.000,226.846 176.000 C 226.651 176.000,226.365 174.983,226.210 173.739 C 225.813 170.562,223.499 166.800,221.942 166.800 C 221.573 166.800,217.200 162.372,217.200 161.998 C 217.200 160.791,213.043 158.000,211.246 158.000 C 210.817 158.000,210.395 157.785,210.307 157.521 C 210.145 157.034,195.462 156.677,191.700 157.069 M275.100 157.070 C 274.275 157.168,273.600 157.417,273.600 157.624 C 273.600 157.831,273.172 158.000,272.649 158.000 C 271.183 158.000,269.106 159.083,268.000 160.424 C 266.709 161.990,261.990 166.709,260.424 168.000 C 259.095 169.096,258.000 171.181,258.000 172.616 C 258.000 173.120,257.775 173.608,257.500 173.700 C 257.118 173.827,257.000 176.169,257.000 183.600 C 257.000 191.031,257.118 193.373,257.500 193.500 C 257.775 193.592,258.000 194.080,258.000 194.584 C 258.000 196.019,259.095 198.104,260.424 199.200 C 261.990 200.491,266.709 205.210,268.000 206.776 C 269.096 208.105,271.181 209.200,272.616 209.200 C 273.120 209.200,273.608 209.425,273.700 209.700 C 273.827 210.082,276.169 210.200,283.600 210.200 C 291.031 210.200,293.373 210.082,293.500 209.700 C 293.592 209.425,294.080 209.200,294.584 209.200 C 296.019 209.200,298.104 208.105,299.200 206.776 C 300.491 205.210,305.210 200.491,306.776 199.200 C 308.105 198.104,309.200 196.019,309.200 194.584 C 309.200 194.080,309.425 193.592,309.700 193.500 C 310.082 193.373,310.200 191.031,310.200 183.600 C 310.200 176.169,310.082 173.827,309.700 173.700 C 309.425 173.608,309.200 173.120,309.200 172.616 C 309.200 171.181,308.105 169.096,306.776 168.000 C 305.210 166.709,300.491 161.990,299.200 160.424 C 298.104 159.095,296.019 158.000,294.584 158.000 C 294.080 158.000,293.593 157.778,293.503 157.508 C 293.337 157.011,278.550 156.659,275.100 157.070 M123.854 158.869 C 125.254 159.127,126.400 159.473,126.400 159.637 C 126.400 159.802,126.979 160.064,127.687 160.219 C 129.168 160.544,140.000 171.043,140.000 172.152 C 140.000 172.508,140.166 172.800,140.368 172.800 C 142.556 172.800,142.405 192.452,140.199 194.658 C 139.870 194.987,139.600 195.432,139.600 195.646 C 139.600 196.584,128.980 206.698,127.700 206.979 C 126.985 207.135,126.400 207.398,126.400 207.563 C 126.400 208.127,121.305 208.800,117.031 208.800 C 112.576 208.800,107.200 208.120,107.200 207.557 C 107.200 207.378,106.480 207.037,105.600 206.800 C 104.720 206.563,104.000 206.221,104.000 206.041 C 104.000 205.860,103.360 205.102,102.578 204.356 C 100.754 202.617,97.383 199.246,95.644 197.422 C 94.898 196.640,94.162 196.000,94.008 196.000 C 93.854 196.000,93.485 194.965,93.187 193.700 C 92.890 192.435,92.456 191.272,92.223 191.115 C 91.638 190.720,91.644 176.075,92.230 175.685 C 92.466 175.528,92.896 174.538,93.186 173.483 C 93.681 171.685,97.167 167.709,102.059 163.365 C 102.577 162.905,103.400 162.055,103.888 161.475 C 104.377 160.896,105.277 160.299,105.888 160.149 C 106.500 159.999,107.090 159.744,107.200 159.581 C 107.932 158.496,119.213 158.014,123.854 158.869 M207.223 158.859 C 208.750 159.111,210.000 159.464,210.000 159.643 C 210.000 159.822,210.720 160.163,211.600 160.400 C 212.480 160.637,213.200 160.979,213.200 161.159 C 213.200 161.340,213.841 162.098,214.624 162.844 C 217.049 165.153,218.565 166.667,219.442 167.653 C 219.906 168.174,220.997 169.239,221.868 170.019 C 222.991 171.025,223.609 172.014,223.996 173.419 C 224.295 174.509,224.734 175.528,224.970 175.685 C 225.573 176.086,225.561 190.725,224.958 191.115 C 224.714 191.272,224.392 192.069,224.242 192.887 C 224.092 193.705,223.706 194.637,223.384 194.959 C 223.063 195.280,222.799 195.691,222.798 195.871 C 222.798 196.052,222.033 196.948,221.098 197.862 C 220.164 198.776,218.650 200.306,217.734 201.262 C 216.818 202.218,215.423 203.610,214.634 204.356 C 213.845 205.102,213.200 205.860,213.200 206.041 C 213.200 206.221,212.480 206.563,211.600 206.800 C 210.720 207.037,210.000 207.378,210.000 207.557 C 210.000 208.120,204.624 208.800,200.169 208.800 C 195.895 208.800,190.800 208.127,190.800 207.563 C 190.800 207.398,190.217 207.136,189.504 206.979 C 188.061 206.662,177.200 196.141,177.200 195.060 C 177.200 194.734,177.026 194.407,176.814 194.333 C 174.784 193.632,174.802 172.800,176.832 172.800 C 177.034 172.800,177.200 172.508,177.200 172.152 C 177.200 171.147,188.073 160.496,189.441 160.161 C 190.079 160.005,190.703 159.721,190.829 159.530 C 191.524 158.476,202.249 158.037,207.223 158.859 M290.654 158.869 C 292.054 159.127,293.200 159.473,293.200 159.637 C 293.200 159.802,293.746 160.056,294.414 160.203 C 296.144 160.583,306.610 171.027,306.989 172.751 C 307.140 173.438,307.404 174.000,307.577 174.000 C 309.115 174.000,309.147 191.998,307.610 193.200 C 307.470 193.310,307.112 193.999,306.816 194.731 C 306.016 196.708,295.971 206.655,294.433 206.993 C 293.755 207.142,293.200 207.398,293.200 207.563 C 293.200 208.138,288.068 208.800,283.600 208.800 C 279.132 208.800,274.000 208.138,274.000 207.563 C 274.000 207.398,273.438 207.140,272.751 206.989 C 271.027 206.610,260.583 196.144,260.203 194.414 C 260.056 193.746,259.802 193.200,259.637 193.200 C 259.048 193.200,258.400 188.023,258.400 183.321 C 258.400 178.620,259.006 174.000,259.623 174.000 C 259.796 174.000,260.059 173.442,260.209 172.759 C 260.562 171.151,271.055 160.549,272.690 160.149 C 273.300 159.999,273.890 159.744,274.000 159.581 C 274.732 158.496,286.013 158.014,290.654 158.869 " stroke="none" fill="#44c8c4" fill-rule="evenodd"></path><path id="path4" d="M60.800 40.351 C 60.800 40.545,60.260 40.927,59.600 41.200 C 58.940 41.473,58.400 41.936,58.400 42.229 C 58.400 42.521,58.154 42.904,57.852 43.080 C 57.551 43.256,57.167 43.842,57.000 44.381 C 56.604 45.653,57.496 44.792,58.400 43.030 C 58.746 42.356,59.634 41.593,60.496 41.230 C 62.033 40.582,62.462 40.000,61.400 40.000 C 61.070 40.000,60.800 40.158,60.800 40.351 M44.000 57.090 C 43.670 57.215,43.256 57.561,43.080 57.859 C 42.904 58.156,42.521 58.400,42.229 58.400 C 41.936 58.400,41.473 58.940,41.200 59.600 C 40.927 60.260,40.545 60.800,40.351 60.800 C 40.158 60.800,40.000 61.070,40.000 61.400 C 40.000 62.462,40.582 62.033,41.230 60.496 C 41.593 59.634,42.356 58.746,43.030 58.400 C 45.028 57.375,45.722 56.439,44.000 57.090 M359.021 305.100 C 358.717 306.475,356.530 308.652,355.088 309.014 C 353.934 309.303,353.589 310.000,354.600 310.000 C 354.930 310.000,355.200 309.856,355.200 309.680 C 355.200 309.505,355.840 309.129,356.623 308.846 C 357.629 308.483,358.244 307.902,358.723 306.866 C 359.095 306.060,359.535 305.340,359.700 305.267 C 360.130 305.076,360.072 304.000,359.632 304.000 C 359.429 304.000,359.154 304.495,359.021 305.100 M342.800 321.217 C 342.800 322.047,339.834 325.245,338.468 325.889 C 337.431 326.378,337.429 326.385,338.400 326.143 C 340.432 325.636,341.031 325.263,341.608 324.145 C 341.934 323.515,342.425 322.762,342.700 322.471 C 343.189 321.954,343.396 320.800,343.000 320.800 C 342.890 320.800,342.800 320.988,342.800 321.217 " stroke="none" fill="#04c8c8" fill-rule="evenodd"></path></g></svg>