<?xml version="1.0" encoding="iso-8859-1"?>
<!-- Generator: Adobe Illustrator 19.0.0, SVG Export Plug-In . SVG Version: 6.00 Build 0)  -->
<svg version="1.1" id="Capa_1" xmlns="http://www.w3.org/2000/svg" xmlns:xlink="http://www.w3.org/1999/xlink" x="0px" y="0px"
	 viewBox="0 0 464 464" style="enable-background:new 0 0 464 464;" xml:space="preserve">
<circle style="fill:#DD1C4B;" cx="232" cy="232" r="232"/>
<path style="fill:#B21D48;" d="M461.296,196.496c0.184,3.816,0.288,7.648,0.288,11.504
	c0.103,128.13-103.683,232.083-231.813,232.187C115.207,440.279,17.728,356.733,0.288,243.504
	C6.78,371.469,115.78,469.943,243.745,463.451s226.439-115.492,219.947-243.457C463.293,212.125,462.493,204.283,461.296,196.496z"
	/>
<g>
	<path style="fill:#F6F6E7;" d="M311.672,231.88l138.216-79.736c-9.196-25.035-22.647-48.295-39.76-68.752L272,163.08V3.504
		c-26.462-4.672-53.538-4.672-80,0v159.144L54.248,82.96c-17.292,20.565-30.875,43.981-40.144,69.2l138.224,80L14.112,311.856
		c9.196,25.035,22.647,48.295,39.76,68.752L192,300.92v159.576c26.462,4.672,53.538,4.672,80,0V301.352l137.752,79.688
		c17.292-20.565,30.875-43.981,40.144-69.2L311.672,231.88z"/>
	<circle style="fill:#F6F6E7;" cx="136" cy="400" r="16"/>
	<circle style="fill:#F6F6E7;" cx="328" cy="400" r="16"/>
	<circle style="fill:#F6F6E7;" cx="424" cy="232" r="16"/>
	<circle style="fill:#F6F6E7;" cx="328" cy="64" r="16"/>
	<circle style="fill:#F6F6E7;" cx="136" cy="64" r="16"/>
	<circle style="fill:#F6F6E7;" cx="40" cy="232" r="16"/>
</g>
<path style="fill:#DD1C4B;" d="M339.48,124.52c-59.36-59.36-155.601-59.36-214.96,0s-59.36,155.601,0,214.96s155.601,59.36,214.96,0
	c0,0,0,0,0,0C398.839,280.12,398.839,183.88,339.48,124.52z M288,328.992c-53.568,30.93-122.066,12.578-152.996-40.99
	s-12.578-122.066,40.99-152.996s122.066-12.578,152.996,40.99c0.001,0.001,0.002,0.003,0.002,0.004
	C359.918,229.567,341.566,298.063,288,328.992z"/>
<path style="fill:#F6F6E7;" d="M322.512,141.488c-49.988-49.986-131.034-49.984-181.019,0.005s-49.984,131.034,0.005,181.019
	c49.987,49.984,131.028,49.984,181.015,0c49.988-49.986,49.99-131.031,0.005-181.019
	C322.515,141.491,322.514,141.49,322.512,141.488L322.512,141.488z M279.2,313.68c-45.106,26.058-102.795,10.616-128.853-34.49
	s-10.616-102.795,34.49-128.853s102.795-10.616,128.853,34.49c0.01,0.018,0.02,0.035,0.03,0.053
	C339.741,229.981,324.289,287.637,279.2,313.68z"/>
<circle style="fill:#DD1C4B;" cx="232" cy="232" r="112"/>
<g>
</g>
<g>
</g>
<g>
</g>
<g>
</g>
<g>
</g>
<g>
</g>
<g>
</g>
<g>
</g>
<g>
</g>
<g>
</g>
<g>
</g>
<g>
</g>
<g>
</g>
<g>
</g>
<g>
</g>
</svg>
