<svg id="Layer_1" data-name="Layer 1" xmlns="http://www.w3.org/2000/svg" viewBox="0 0 1426.78 349.11"><defs><style>.cls-1{fill:#fff;}</style></defs><title>logo</title><g id="logo"><path class="cls-1" d="M526.94,217.29a86.46,86.46,0,0,1-15.7,8.26,120.45,120.45,0,0,1-16.52,6.33,118.67,118.67,0,0,1-103.26-16,245.78,245.78,0,0,1-28.08-22.58,71.48,71.48,0,0,0,31.39-2.75A145.94,145.94,0,0,0,434.14,174a90.4,90.4,0,0,0,28.64-27.26,71.9,71.9,0,0,0,10.46-37.45A51.32,51.32,0,0,0,464.71,81a58.71,58.71,0,0,0-24.79-20.1,100.55,100.55,0,0,0-17.62-5.51c-1.37-29.46-19.82-54-64.7-54-8.54,0-24.79.55-32,.55h-1.92v79.6A124.83,124.83,0,0,0,300.6,106.6a44.52,44.52,0,0,0-4.41,8c-.55.55.55,1.1.83.55a183,183,0,0,1,23.13-27.26,28,28,0,0,1,3.3-2.75v32.21h2.48c10.46,0,23.4.28,30.29.28a97.52,97.52,0,0,0,12.66-.83c-7.15,9.09-13.76,18.45-20.1,28.09A366.77,366.77,0,0,0,313,215.08c-2.75,6.89-5,13.77-7.16,20.65a199.46,199.46,0,0,0-6.06,22,1.54,1.54,0,0,0,1.65,1.38c.55,0,.83-.28,1.11-.83,3.85-12.11,7.43-24.5,11.84-36.89a321,321,0,0,1,15.41-36.07,387.2,387.2,0,0,1,40.76-66.09l2.2-2.75c32.76-6,49.25-29.43,49.25-57.24,1.92.55,3.58.82,5.5,1.37a66.32,66.32,0,0,1,28.92,16.52,46.78,46.78,0,0,1,12.94,25.34,64.61,64.61,0,0,1-5,35.24A75.66,75.66,0,0,1,440.2,166.9,129.84,129.84,0,0,1,405,185.07a172.66,172.66,0,0,1-20.38,5.51,58.1,58.1,0,0,1-19.55.82,33.12,33.12,0,0,1-8.81-3,2.05,2.05,0,0,0-2.48.28,2.1,2.1,0,0,0,.28,2.48c19.55,17.9,40.2,35.79,65.8,44.33a123.45,123.45,0,0,0,90.32-4.68,73.67,73.67,0,0,0,9.09-5c3-1.65,5.5-3.85,8.53-6.06C528.59,217.84,527.76,216.46,526.94,217.29ZM344.1,20.41h13.22c25.06,0,40.75,12.39,43.23,32.49a108.81,108.81,0,0,0-41.85,7.71,138.49,138.49,0,0,0-14.32,6.89Zm57,37.45c0,24.23-16.25,40.2-43.78,40.2-2.75,0-7.43,0-12.94-.28V70.52c1.93-1.1,3.85-2.2,6.06-3.3a106.23,106.23,0,0,1,36.62-11,119,119,0,0,1,14-.55v2.2Z"/><path class="cls-1" d="M652.49,180.66a114.74,114.74,0,0,0-12.66,6.89,103.26,103.26,0,0,1-12.94,4.95A54.15,54.15,0,0,1,606,194.16a10.66,10.66,0,0,1-7.16-3.58,8,8,0,0,1,0-8.54,19.77,19.77,0,0,0,23.41-3c3.3-3,4.4-9.08-1.38-10.46a25.34,25.34,0,0,0-16.52,4.13,21,21,0,0,0-10.19,11,10.15,10.15,0,0,0,3,10.19c5.51,4.68,14.59,4.13,21.2,3.31a69.2,69.2,0,0,0,26.16-9.37,35.35,35.35,0,0,0,8.26-6c.55-.28.28-.83-.28-1.11Zm-52.86,0a30.82,30.82,0,0,1,11-7.71,15,15,0,0,1,6.89-1.65,9.34,9.34,0,0,1,3.85.55c1.38.55,1.1,1.66.55,2.76a15.24,15.24,0,0,1-11,7.16A22,22,0,0,1,599.63,180.66Z"/><path class="cls-1" d="M760.16,167.45a38.51,38.51,0,0,0-9.64,2.75,79.91,79.91,0,0,0-33.87,27.26c3.86-7.71,8-15.42,12.39-22.85a336.88,336.88,0,0,1,19-28.36c.55-.55-.55-1.66-1.1-.83a258.29,258.29,0,0,0-32.77,51.49c-3.58,7.16-6.88,14.59-10.18,22-2.76,6.06-5.51,12.11-8,17.9-5.51,14.87-10.19,30-14.87,45.15a33.64,33.64,0,0,1-1.65,5c-.83,1.65,1.93,1.93,2.48.55,6.06-19.55,12.66-39.1,20.1-57.82,1.65-4.13,3.3-8,5-12.12,1.66-2.75,3-6.06,5-8.81a91.26,91.26,0,0,1,25.88-29.46,62.76,62.76,0,0,1,16.52-8.54,36.47,36.47,0,0,1,9.09-2.2c.83,0,1.65,0,1.65,1.38a5.25,5.25,0,0,1-1.37,2.75,43.51,43.51,0,0,1-2.76,3.85,52.86,52.86,0,0,1-16.52,12.67c-3.85,1.93-13.22,6.06-15.69,0-.55-.83-1.93,0-1.66.83,1.66,5.5,8.26,5.5,12.95,4.13a50.56,50.56,0,0,0,17.07-9.92,59.74,59.74,0,0,0,6.88-7.43c1.65-1.93,5-5.51,3.31-8.54S762.63,166.9,760.16,167.45Z"/><path class="cls-1" d="M855.43,105.77a67.39,67.39,0,0,0,7.71-11.84l1.1-2.75v25.6h20.37V1.69h-19l-38,53.69L788.52,1.69H768.14V116.78h20.1V34.18l36.62,50.39h3l36.35-50.94V78.51a9.84,9.84,0,0,0-6.33.55,95.15,95.15,0,0,0-11,7.44,198.28,198.28,0,0,0-20.1,17.07A203.72,203.72,0,0,0,794,145.7a185.72,185.72,0,0,0-13.21,28.08,82.15,82.15,0,0,0-5.51,33.59c0,1.66,2.75,1.66,2.75,0A100.63,100.63,0,0,1,783,179a163.81,163.81,0,0,1,10.46-24.78l.83-1.65a146.41,146.41,0,0,0,40.48-25.06A140.75,140.75,0,0,0,855.43,105.77ZM796.78,150.1h-1.1a189.37,189.37,0,0,1,26.15-36.62,214,214,0,0,1,17.9-17.35c3.31-2.75,6.61-5.5,10.19-8a51.27,51.27,0,0,1,10.19-6.89,10,10,0,0,1,2.75-.55c1.65.55,1.38,1.65,1.1,2.76a21.57,21.57,0,0,1-1.65,6,42.8,42.8,0,0,1-6.88,11.84A145.57,145.57,0,0,1,837,122a139.6,139.6,0,0,1-18.72,14.86A172.32,172.32,0,0,1,796.78,150.1Z"/><path class="cls-1" d="M972.18,182.32c-6.06,2.75-12.12,5.78-17.9,9.08-5.51,3.58-11.29,7.71-16.8,11.84a233.42,233.42,0,0,0-19.82,17.08,235.35,235.35,0,0,1,17.62-45.16c1.65-2.76,3.3-5.51,5-8.54a1.87,1.87,0,0,0-1.11-2.2c-.55-.28-1.1,0-1.65.27a113.86,113.86,0,0,1-31.39,33.6,28,28,0,0,1-8.81,5c-2.48.55-5.78,1.1-7.16-1.37a6.48,6.48,0,0,1,0-5.51,20,20,0,0,1,2.48-5.51,64.16,64.16,0,0,1,5.51-9.36,106.68,106.68,0,0,1,8.53-11,35.51,35.51,0,0,1,4.68-4.41l5-5a.6.6,0,0,0-.55-.55h0a21.83,21.83,0,0,0-5.51,3,25.93,25.93,0,0,0-5,4.41,93.32,93.32,0,0,0-8.3,10.2,39.68,39.68,0,0,0-3,4.4h0c-3,1.1-5.79,2.21-8.81,3.58a68.89,68.89,0,0,1-9.09,3.58,72.3,72.3,0,0,1-18.45,4.41c-3.85.55-13.49,1.37-13.49-5a21.14,21.14,0,0,1,7.16-14c.27-.28.82-.55.82-.83,1.66-1.38-.55-3.58-2.47-2.2v.55a48.36,48.36,0,0,0-3.86,3.3v-.55c-3.85-6.88-12.67-5.5-19.27-4.13a34.08,34.08,0,0,0-16.8,9.36c-4.13,4.41-7.71,14.05.55,16a24.89,24.89,0,0,0,11-1.11,47.19,47.19,0,0,0,10.19-4.4c3.58-2.2,6.89-4.68,10.19-7.16-1.93,5-1.65,9.64,3.3,12.11a28.41,28.41,0,0,0,15.15,1.11,81.72,81.72,0,0,0,16.52-4.13c2.75-1.11,5.51-2.48,8.54-3.58a67.74,67.74,0,0,0,6.33-3c-.55.82-1.1,1.92-1.65,2.75a21.48,21.48,0,0,0-3.58,12.12c1.37,7.43,11,5.5,15.42,3a80.17,80.17,0,0,0,10.18-6.6c3.31-2.76,6.61-5.51,9.64-8.54l5.51-5.51A320.58,320.58,0,0,0,912.43,225c-1.93,1.92-4.13,4.13-6.06,6.33a302.41,302.41,0,0,0-48.46,68,158.56,158.56,0,0,0-9.09,21.2,53.5,53.5,0,0,0-3,19.83,9.49,9.49,0,0,0,3.58,6.88,10.19,10.19,0,0,0,8,1.65,24.57,24.57,0,0,0,15.14-11.56,173.88,173.88,0,0,0,19.82-39.1c5.51-13.77,10.47-28.09,14.6-42.4,2.75-9.92,5.51-19.83,8.53-29.74a242,242,0,0,1,49-37.73c2.75-1.65,5.5-3.3,8-4.68C973.83,183.14,973,181.77,972.18,182.32Zm-153.92,11c-2.76.55-7.16,1.65-9.09-.83s.55-6.05,1.93-8a26.55,26.55,0,0,1,13.21-9.36,49.12,49.12,0,0,1,11-2.21,11.27,11.27,0,0,1,9.91,3.58c0,.56.55.56.55,0a65.86,65.86,0,0,1-27.53,16.8Zm90,47.36c-3.85,13.22-7.7,26.71-12.39,39.93-2.47,7.16-5.5,14.31-8.26,21.2s-5.5,12.94-8.53,19.27a91.57,91.57,0,0,1-11.29,17.63,26.81,26.81,0,0,1-7.44,6,8.76,8.76,0,0,1-8.26,0,8.58,8.58,0,0,1-2.47-7.16A37.16,37.16,0,0,1,851,328a98.47,98.47,0,0,1,7.44-21.48,268.6,268.6,0,0,1,44.88-66.91c2.75-2.75,5.51-6.06,8-8.54-1.1,3-1.92,6.34-3,9.64Z"/><rect class="cls-1" x="497.47" y="1.69" width="20.1" height="115.1"/><path class="cls-1" d="M701.51,116.78,653.05,1.41H635.42L586.69,116.78h14.59a212.25,212.25,0,0,0-20.65,28.92A214.54,214.54,0,0,0,568.24,171a237.85,237.85,0,0,0-35.52,15.42,90.8,90.8,0,0,1-19,6.33,37.38,37.38,0,0,1-12.39.55,46.11,46.11,0,0,0,8-6.61,28.45,28.45,0,0,0,6.34-9.08,6.66,6.66,0,0,0-3.86-8.26,10.71,10.71,0,0,0-7.71-.56A33,33,0,0,0,487.29,176c-5,3.86-12.4,12.12-8,18.73s12.39,3.58,18.45.82a45.94,45.94,0,0,0,22.85-1.65c16.52-4.68,31.12-14.59,47.09-20.92v.55a82.15,82.15,0,0,0-5.51,33.59c0,1.65,2.75,1.65,2.75,0a100.66,100.66,0,0,1,5-28.36A162,162,0,0,1,580.35,154c.28-.55.55-1.11.83-1.66a144.87,144.87,0,0,0,40.2-25,159.53,159.53,0,0,0,20.93-22A67.84,67.84,0,0,0,650,93.38c.82-1.93,1.65-4.13,2.48-6.06v-.55h16l12.11,29.46ZM486.18,195.53a7.53,7.53,0,0,1-4.95-2.75,6.41,6.41,0,0,1,0-5.51,26.52,26.52,0,0,1,6.88-8.81,20.82,20.82,0,0,1,3-2.2,13.25,13.25,0,0,0-3,5,10.11,10.11,0,0,0,5.51,12.11A11.9,11.9,0,0,1,486.18,195.53Zm11-3.3a13,13,0,0,1-2.76-1.38,7.85,7.85,0,0,1-3.85-6.88,8.65,8.65,0,0,1,3.58-6.06,19.13,19.13,0,0,1,15.42-6.61,4.37,4.37,0,0,1,3.3,2.48c.83,1.93-.55,3.86-1.37,5.51a55.42,55.42,0,0,1-6.34,7.43,30,30,0,0,1-8,5.51ZM618.9,87.32h13.77q-9.92,7.84-19,16.52l-1.93,1.93Zm29.19,2.48a43.05,43.05,0,0,1-6.88,11.84,145.86,145.86,0,0,1-18.45,20.65A138.62,138.62,0,0,1,604,137.16a163.56,163.56,0,0,1-20.92,12.94H582a199.67,199.67,0,0,1,23.68-33.59h1.37l1.1-2.76h0a215.44,215.44,0,0,1,17.9-17.34c3.31-2.76,6.61-5.51,10.19-8l1.38-1.1h11.29a4.44,4.44,0,0,1-.83,2.48ZM626.61,68.32l16.8-41,16.79,41Z"/><path class="cls-1" d="M1016.51,0a57.61,57.61,0,0,0-59.74,55.4c0,.07,0,.15,0,.22V59.2c0,35.79,25.6,59.2,59.75,59.2a58,58,0,0,0,60-55.62V59C1076.53,23.44,1050.93,0,1016.51,0Zm0,99.67a38.79,38.79,0,0,1-38.28-39.29V60.3h0V59.2c0-23.68,16.52-40.48,38.28-40.48a38.19,38.19,0,0,1,38.27,38.11v2.38c.55,22.6-14,40.5-38.27,40.5Z"/><polygon class="cls-1" points="1228.53 81.81 1165.2 1.69 1149.23 1.69 1149.23 116.78 1168.22 116.78 1168.22 37.21 1231.28 116.78 1247.53 116.78 1247.53 1.69 1228.53 1.69 1228.53 81.81"/><path class="cls-1" d="M1362.35,1.14c-8.26,0-24.78.55-31.67.55h-2.2V116.78h2.2c10.46,0,23.41.28,30.29.28,43.78,0,65.81-26.71,65.81-58.93C1427.05,27.85,1408.33,1.14,1362.35,1.14Zm-.55,96.92c-2.76,0-7.44,0-13-.28V20.41c4.69-.27,8.54-.55,13.22-.55,27.26,0,43.78,14.87,43.78,38-.22,24.5-16.19,40.2-44,40.2Z"/></g><path class="cls-1" d="M129.88,71.39a6.19,6.19,0,1,0,6.18,6.19A6.19,6.19,0,0,0,129.88,71.39Z"/><path class="cls-1" d="M259.7,77.53a1.62,1.62,0,0,0,0-.22c0-.08,0-.16,0-.24a.76.76,0,0,1,0-.15l0-.21c0-.08,0-.15,0-.23l0-.18s0-.11,0-.17l-.06-.23-.06-.2a1.12,1.12,0,0,0-.05-.13,2.5,2.5,0,0,0-.09-.25c0-.07,0-.13-.07-.2a.31.31,0,0,1-.05-.1c0-.08-.08-.17-.13-.26a1.74,1.74,0,0,0-.1-.19l0,0L221.86,9l-.06-.09a5.65,5.65,0,0,0-.34-.51l-.09-.13a6.8,6.8,0,0,0-.5-.57h0a6.17,6.17,0,0,0-.54-.48l-.14-.11-.48-.32-.17-.1a6.59,6.59,0,0,0-.65-.33h0a4.45,4.45,0,0,0-.7-.24l-.2-.05a4.88,4.88,0,0,0-.55-.12l-.2,0a4.6,4.6,0,0,0-.74,0H43.34a3.94,3.94,0,0,0-.77,0l-.18,0a5.05,5.05,0,0,0-.56.12l-.21.05q-.3.09-.6.21l-.1,0h0l-.64.32-.15.1a5.72,5.72,0,0,0-.48.32l-.15.12a5,5,0,0,0-.49.43l-.06.06a5.37,5.37,0,0,0-.5.57,1,1,0,0,1-.08.11,5.8,5.8,0,0,0-.34.52L38,9,.93,74.4h0l-.08.13s0,0,0,0l-.1.2c0,.09-.09.18-.13.27s0,0,0,.08a1.8,1.8,0,0,0-.08.21,2.77,2.77,0,0,0-.1.26s0,.07,0,.11l-.06.21-.06.24s0,.1,0,.15l0,.19c0,.08,0,.16,0,.24a1.23,1.23,0,0,0,0,.19s0,.11,0,.16,0,.17,0,.25,0,.14,0,.2v0a.45.45,0,0,0,0,.11v.24c0,.07,0,.14,0,.21a1.11,1.11,0,0,0,0,.17l0,.23,0,.18a1.06,1.06,0,0,0,0,.19,1.42,1.42,0,0,0,0,.22l0,.17.06.19c0,.07,0,.14.07.21l.06.16.08.2.09.19.09.17.09.18.1.16.11.19.12.16.1.15.14.18.13.16.08.09L126,221a5.44,5.44,0,0,0,.48.48l.08.06a4.63,4.63,0,0,0,.56.43l.19.13.55.31.16.08a6.61,6.61,0,0,0,.74.28l.18.05a4.61,4.61,0,0,0,.62.14l.23,0a5.55,5.55,0,0,0,.82.06h0a7.72,7.72,0,0,0,.82-.06l.22,0,.63-.14.18-.05a6.67,6.67,0,0,0,.74-.29l.15-.08a6.22,6.22,0,0,0,.56-.32l.19-.13a5.57,5.57,0,0,0,.56-.43l.08-.06c.17-.16.33-.32.48-.49L258.16,81.67l.06-.08.12-.14.15-.2.11-.15.1-.15.12-.2.1-.16.09-.17.09-.18.09-.19.07-.18.06-.17a2,2,0,0,0,.08-.22,9062601940491.17,9062601940491.17,0,0,1,.1-.36l.06-.22,0-.17,0-.2a2,2,0,0,0,0-.24c0-.05,0-.1,0-.15s0-.15,0-.22,0-.16,0-.24v-.15Zm-52.52-59.3-20,47.83L143.82,18.23Zm-91.15,0L73.1,66.13,52.68,18.23ZM42.54,26,61.91,71.39H16.84ZM20,83.76H67.18l43,101ZM130.6,201l-50-117.22h24.53a6.19,6.19,0,0,0,0-12.37H85L129.9,21.28l45.39,50.11H154.61a6.19,6.19,0,1,0,0,12.37h25.11Zm20.28-16.4L193.13,83.76h46.69ZM198.31,71.39l19-45.32,25.63,45.32Z"/></svg>