<svg id="Capa_1" data-name="Capa 1" xmlns="http://www.w3.org/2000/svg" viewBox="0 0 365.45 365.45"><defs><style>.cls-1{fill:#fff;}</style></defs><title>mobile</title><path class="cls-1" d="M281.51,10.85A35.09,35.09,0,0,0,255.81,0H109.64a35.13,35.13,0,0,0-25.7,10.85A35.13,35.13,0,0,0,73.09,36.54V328.9a35.13,35.13,0,0,0,10.85,25.7,35.13,35.13,0,0,0,25.7,10.85H255.81a37.06,37.06,0,0,0,36.55-36.55V36.54A35.13,35.13,0,0,0,281.51,10.85ZM159.88,36.54h45.69c3.05,0,4.56,1.53,4.56,4.57s-1.52,4.57-4.56,4.57H159.88q-4.56,0-4.56-4.57C155.32,38.07,156.84,36.54,159.88,36.54Zm39,308.5a22.75,22.75,0,1,1,6.71-16.14A22,22,0,0,1,198.86,345ZM265,283.23a9.26,9.26,0,0,1-9.13,9.13H109.64a9.26,9.26,0,0,1-9.14-9.13v-201a9.27,9.27,0,0,1,9.14-9.14H255.81A9.27,9.27,0,0,1,265,82.23v201h0Z"/></svg>