<svg height="483pt" viewBox="0 0 483.60307 483" width="483pt" xmlns="http://www.w3.org/2000/svg"><path d="m475.601562 13.976562-28.320312 39.519532-16.882812-16.878906 39.523437-28.320313zm0 0" fill="#898890"/><path d="m450.160156 56.375c4.640625 4.703125 4.640625 12.261719 0 16.960938-2.230468 2.277343-5.292968 3.546874-8.480468 3.519531-3.191407.042969-6.257813-1.230469-8.480469-3.519531l-2.878907-2.800782-16.960937-16.957031-2.800781-2.882813c-2.261719-2.238281-3.539063-5.292968-3.539063-8.480468 0-3.183594 1.277344-6.238282 3.539063-8.476563 4.703125-4.640625 12.261718-4.640625 16.960937 0l2.800781 2.878907 16.960938 16.960937zm0 0" fill="#d9ccbc"/><path d="m413.359375 53.578125 16.960937 16.957031-22.640624 22.640625-16.960938-16.960937zm0 0" fill="#898890"/><path d="m264 11.898438c8.824219.023437 15.972656 7.171874 16 16-.066406 8.808593-7.191406 15.933593-16 16h-192c-8.824219-.027344-15.972656-7.175782-16-16 .066406-8.8125 7.191406-15.9375 16-16zm0 0" fill="#57a4ff"/><path d="m248 395.898438v16h-32v-32h32zm0 0" fill="#d9ccbc"/><path d="m120 443.898438h96v32h-96zm0 0" fill="#d9ccbc"/><path d="m216 411.898438v32h-96v-320h96zm0 0" fill="#57a4ff"/><path d="m216 107.898438v16h-96v-16c.027344-8.828126 7.175781-15.976563 16-16h64c8.824219.023437 15.972656 7.171874 16 16zm0 0" fill="#d9ccbc"/><path d="m152 43.898438h32v48h-32zm0 0" fill="#d8d7da"/><path d="m24 443.898438h64v32h-64zm0 0" fill="#d9ccbc"/><path d="m24 403.898438h64v40h-64zm0 0" fill="#57a4ff"/><path d="m88 395.898438v8h-64v-8c0-17.675782 14.328125-32 32-32s32 14.324218 32 32zm0 0" fill="#d9ccbc"/><path d="m481.257812 8.296875-5.664062-5.65625c-2.769531-2.761719-7.125-3.121094-10.304688-.847656l-34.328124 24.503906c-7.996094-5.746094-18.945313-4.996094-26.082032 1.785156-6.710937 6.71875-7.769531 17.234375-2.535156 25.160157l-17.253906 17.261718c-3.125 3.125-3.125 8.1875 0 11.3125l2.75 2.753906-3.558594 3.460938c-6.511719 6.234375-8.921875 15.617188-6.226562 24.21875 1.996093 5.972656 5.335937 11.40625 9.769531 15.878906 7.589843 7.550782 17.867187 11.78125 28.574219 11.769532h17.53125c8.417968.054687 16.460937 3.515624 22.285156 9.597656 5.148437 5.15625 7.964844 12.195312 7.785156 19.480468-.613281 15.027344-12.960938 26.898438-28 26.921876h-93.40625c-17.308594.070312-33.851562 7.136718-45.867188 19.589843-11.171874 11.34375-17.203124 26.773438-16.679687 42.6875 1.164063 32.253907 27.679687 57.78125 59.953125 57.722657h88c19.882812 0 36 16.117187 36 36 0 19.878906-16.117188 36-36 36h-172v-8c0-4.421876-3.582031-8-8-8h-24v-264c0-13.257813-10.746094-24-24-24h-8v-32h72c13.253906 0 24-10.746094 24-24 0-13.257813-10.746094-24-24-24h-192c-13.253906 0-24 10.742187-24 24 0 13.253906 10.746094 24 24 24h72v32h-8c-13.253906 0-24 10.742187-24 24v360h-16v-72c0-22.09375-17.910156-40-40-40s-40 17.90625-40 40v72h-16v16h264v-16h-40v-48h24c4.417969 0 8-3.582032 8-8v-8h172c28.71875 0 52-23.28125 52-52s-23.28125-52-52-52h-88c-23.683594.074218-43.152344-18.652344-44-42.320313-.34375-11.566406 4.070312-22.765625 12.214844-30.984375 9.003906-9.34375 21.402344-14.644531 34.378906-14.695312h93.40625c23.644531-.007813 43.066406-18.6875 44-42.3125.375-11.636719-4.042969-22.917969-12.222656-31.203126-8.859375-9.207031-21.070313-14.433593-33.847656-14.484374h-17.53125c-6.457032.015624-12.664063-2.523438-17.261719-7.058594-2.671875-2.707032-4.691407-5.992188-5.898438-9.597656-.785156-2.785157.070313-5.777344 2.210938-7.722657l3.75-3.621093 2.90625 2.902343c3.121093 3.121094 8.1875 3.121094 11.308593 0l17.257813-17.257812c8.097656 5.347656 18.871094 4.089843 25.519531-2.976563 6.648438-7.070312 7.242188-17.898437 1.410156-25.652344l24.511719-34.304687c2.273438-3.183594 1.910157-7.546875-.855469-10.3125zm-273.257812 427.601563h-80v-304h80zm-144-408c0-4.421876 3.582031-8 8-8h192c4.417969 0 8 3.578124 8 8 0 4.417968-3.582031 8-8 8h-192c-4.417969 0-8-3.582032-8-8zm96 24h16v32h-16zm-24 48h64c4.417969 0 8 3.578124 8 8v8h-80v-8c0-4.421876 3.582031-8 8-8zm-56 336h-48v-24h48zm-24-64c13.253906 0 24 10.742187 24 24h-48c0-13.257813 10.746094-24 24-24zm-24 80h48v16h-48zm96 16v-16h80v16zm112-64h-16v-16h16zm215.335938-375.335938-9.046876 12.652344-3.609374-3.613282zm-47.617188 53.277344-5.664062-5.65625 11.320312-11.320313 5.65625 5.664063zm36.800781-14.144532c-1.5625 1.5625-4.09375 1.5625-5.65625 0l-11.351562-11.3125-8.480469-8.484374-2.832031-2.832032c-1.554688-1.5625-1.554688-4.089844 0-5.648437 1.5625-1.558594 4.085937-1.558594 5.648437 0l2.832032 2.832031 16.96875 16.964844 2.832031 2.832031c1.5625 1.5625 1.5625 4.097656 0 5.65625zm0 0"/></svg>