<svg height="480pt" viewBox="0 0 480.00179 480" width="480pt" xmlns="http://www.w3.org/2000/svg"><path d="m408 408.003906h64v64h-64zm0 0" fill="#ffe477"/><path d="m472 376.003906v32h-64v64h-336v-64h-64v-32zm0 0" fill="#57a4ff"/><path d="m472 192.003906v64h-128v32l-96-64 96-64v32zm0 0" fill="#d80027"/><path d="m472 72.003906-96 64v-32h-128v-64h128v-32zm0 0" fill="#57a4ff"/><path d="m440 328.003906v48h-400v-48zm0 0" fill="#ffe477"/><path d="m184 280.003906v48h-80v-48zm0 0" fill="#57a4ff"/><path d="m184 184.003906v48h-80v-48zm0 0" fill="#57a4ff"/><path d="m128 232.003906h32v48h-32zm0 0" fill="#ffe477"/><path d="m160 88.003906v16c0 8.835938-7.164062 16-16 16s-16-7.164062-16-16v-16c.027344-8.828125 7.175781-15.976562 16-16 8.808594.0625 15.933594 7.1875 16 16zm0 0" fill="#57a4ff"/><path d="m168 48.003906h-48c-8.824219.023438-15.972656 7.171875-16 16v64c.027344 8.824219 7.175781 15.972656 16 16h48c8.824219-.027344 15.972656-7.175781 16-16v-64c-.027344-8.828125-7.175781-15.976562-16-16zm-24 72c-8.824219-.027344-15.972656-7.175781-16-16v-16c.027344-8.828125 7.175781-15.976562 16-16 8.808594.0625 15.933594 7.1875 16 16v16c-.027344 8.824219-7.175781 15.972656-16 16zm0 0" fill="#d9ccbc"/><path d="m192 8.003906h-96c-8.824219.023438-15.972656 7.171875-16 16v144c.027344 8.824219 7.175781 15.972656 16 16h96c8.824219-.027344 15.972656-7.175781 16-16v-144c-.027344-8.828125-7.175781-15.976562-16-16zm-8 96v24c-.027344 8.824219-7.175781 15.972656-16 16h-48c-8.824219-.027344-15.972656-7.175781-16-16v-64c.027344-8.828125 7.175781-15.976562 16-16h48c8.824219.023438 15.972656 7.171875 16 16zm0 0" fill="#ffe477"/><path d="m8 408.003906h64v64h-64zm0 0" fill="#ffe477"/><path d="m120 152.003906h48c13.253906 0 24-10.746094 24-24v-64c0-13.257812-10.746094-24-24-24h-48c-13.253906 0-24 10.742188-24 24v64c0 13.253906 10.746094 24 24 24zm-8-88c0-4.421875 3.582031-8 8-8h48c4.417969 0 8 3.578125 8 8v64c0 4.417969-3.582031 8-8 8h-48c-4.417969 0-8-3.582031-8-8zm0 0"/><path d="m144 128.003906c13.253906 0 24-10.746094 24-24v-16c0-13.257812-10.746094-24-24-24s-24 10.742188-24 24v16c0 13.253906 10.746094 24 24 24zm-8-40c0-4.421875 3.582031-8 8-8s8 3.578125 8 8v16c0 4.417969-3.582031 8-8 8s-8-3.582031-8-8zm0 0"/><path d="m472 368.003906h-24v-40c0-4.421875-3.582031-8-8-8h-248v-40c0-4.421875-3.582031-8-8-8h-16v-32h16c4.417969 0 8-3.582031 8-8v-40c13.253906 0 24-10.746094 24-24v-144c0-13.257812-10.746094-23.99999975-24-23.99999975h-96c-13.253906 0-24 10.74218775-24 23.99999975v144c0 13.253906 10.746094 24 24 24v40c0 4.417969 3.582031 8 8 8h16v32h-16c-4.417969 0-8 3.578125-8 8v40h-56c-4.417969 0-8 3.578125-8 8v40h-24c-4.417969 0-8 3.578125-8 8v96c0 4.417969 3.582031 8 8 8h464c4.417969 0 8-3.582031 8-8v-96c0-4.421875-3.582031-8-8-8zm-384-200v-144c0-4.421875 3.582031-8 8-8h96c4.417969 0 8 3.578125 8 8v144c0 4.417969-3.582031 8-8 8h-96c-4.417969 0-8-3.582031-8-8zm24 24h64v32h-64zm24 48h16v32h-16zm-24 48h64v32h-64zm-64 48h384v32h-384zm416 48v16h-56c-4.417969 0-8 3.578125-8 8v56h-320v-56c0-4.421875-3.582031-8-8-8h-56v-16zm-448 32h48v48h-48zm400 48v-48h48v48zm0 0"/><path d="m248 112.003906h120v24c0 2.949219 1.625 5.660156 4.226562 7.054688 2.601563 1.390625 5.757813 1.238281 8.214844-.402344l96-64c2.222656-1.480469 3.558594-3.980469 3.558594-6.652344 0-2.675781-1.335938-5.175781-3.558594-6.65625l-96-64c-2.457031-1.640625-5.613281-1.792968-8.214844-.402344-2.601562 1.394532-4.226562 4.105469-4.226562 7.058594v24h-120c-4.417969 0-8 3.578125-8 8v64c0 4.417969 3.582031 8 8 8zm8-64h120c4.417969 0 8-3.582031 8-8v-17.050781l73.601562 49.050781-73.601562 49.046875v-17.046875c0-4.421875-3.582031-8-8-8h-120zm0 0"/><path d="m472 184.003906h-120v-24c0-2.953125-1.625-5.664062-4.226562-7.058594-2.601563-1.390624-5.757813-1.238281-8.214844.402344l-96 64c-2.222656 1.480469-3.558594 3.980469-3.558594 6.65625 0 2.671875 1.335938 5.171875 3.558594 6.652344l96 64c2.457031 1.640625 5.613281 1.792969 8.214844.402344 2.601562-1.394532 4.226562-4.105469 4.226562-7.054688v-24h120c4.417969 0 8-3.582031 8-8v-64c0-4.421875-3.582031-8-8-8zm-8 64h-120c-4.417969 0-8 3.578125-8 8v17.046875l-73.601562-49.046875 73.601562-49.050781v17.050781c0 4.417969 3.582031 8 8 8h120zm0 0"/></svg>