<svg height="480pt" viewBox="0 0 480 480.00012" width="480pt" xmlns="http://www.w3.org/2000/svg"><g fill="#d8d7da"><path d="m472 440v24c0 4.417969-3.582031 8-8 8h-448c-4.417969 0-8-3.582031-8-8v-24c0-4.417969 3.582031-8 8-8h448c4.417969 0 8 3.582031 8 8zm0 0"/><path d="m472 256v24c0 4.417969-3.582031 8-8 8h-448c-4.417969 0-8-3.582031-8-8v-24c0-4.417969 3.582031-8 8-8h448c4.417969 0 8 3.582031 8 8zm0 0"/><path d="m472 168v24c0 4.417969-3.582031 8-8 8h-448c-4.417969 0-8-3.582031-8-8v-24c0-4.417969 3.582031-8 8-8h448c4.417969 0 8 3.582031 8 8zm0 0"/></g><path d="m456 288v144h-120v-144zm0 0" fill="#ffe477"/><path d="m24 200h432v48h-432zm0 0" fill="#57a4ff"/><path d="m424 128v32h-64v-32zm0 0" fill="#d80027"/><path d="m376 96h32v32h-32zm0 0" fill="#d80027"/><path d="m144 288v144h192v-144zm0 0" fill="#00eed1"/><path d="m288 40-80 96 24-72h-40l24-56h40l-16 32zm0 0" fill="#ffe477"/><path d="m144 400v32h-120v-144h120zm0 0" fill="#ffe477"/><path d="m120 128v32h-64v-32zm0 0" fill="#57a4ff"/><path d="m72 96h32v32h-32zm0 0" fill="#57a4ff"/><path d="m480 192v-24c0-8.835938-7.164062-16-16-16h-32v-24c0-4.417969-3.582031-8-8-8h-8v-24c0-4.417969-3.582031-8-8-8h-32c-4.417969 0-8 3.582031-8 8v24h-8c-4.417969 0-8 3.582031-8 8v24h-224v-24c0-4.417969-3.582031-8-8-8h-8v-24c0-4.417969-3.582031-8-8-8h-32c-4.417969 0-8 3.582031-8 8v24h-8c-4.417969 0-8 3.582031-8 8v24h-32c-8.835938 0-16 7.164062-16 16v24c0 8.835938 7.164062 16 16 16v32c-8.835938 0-16 7.164062-16 16v24c0 8.835938 7.164062 16 16 16v128c-8.835938 0-16 7.164062-16 16v24c0 8.835938 7.164062 16 16 16h448c8.835938 0 16-7.164062 16-16v-24c0-8.835938-7.164062-16-16-16v-128c8.835938 0 16-7.164062 16-16v-24c0-8.835938-7.164062-16-16-16v-32c8.835938 0 16-7.164062 16-16zm-96-88h16v16h-16zm-16 32h48v16h-48zm-288-32h16v16h-16zm-16 32h48v16h-48zm-48 32h448v24h-448zm16 128h104v128h-104zm120 128v-128h176v128zm312 40h-448v-24h448zm-16-40h-104v-128h104zm16-144h-448v-24h448zm-16-40h-416v-32h416zm0 0"/><path d="m192 72h28.894531l-20.476562 61.472656c-1.214844 3.648438.335937 7.644532 3.695312 9.515625 3.363281 1.871094 7.578125 1.085938 10.039063-1.867187l80-96c1.988281-2.386719 2.414062-5.707032 1.097656-8.515625-1.320312-2.8125-4.144531-4.605469-7.25-4.605469h-35.054688l10.253907-20.425781c1.242187-2.484375 1.105469-5.4375-.363281-7.800781-1.46875-2.359376-4.054688-3.789063-6.835938-3.773438h-40c-3.199219 0-6.089844 1.90625-7.351562 4.847656l-24 56c-1.058594 2.472656-.808594 5.3125.671874 7.554688 1.480469 2.246094 3.992188 3.597656 6.679688 3.597656zm29.273438-56h21.78125l-10.214844 20.425781c-1.238282 2.480469-1.105469 5.425781.351562 7.78125 1.460938 2.359375 4.035156 3.792969 6.808594 3.792969h30.921875l-41.921875 50.3125 10.585938-31.785156c.808593-2.4375.402343-5.117188-1.101563-7.203125-1.5-2.085938-3.914063-3.320313-6.484375-3.324219h-27.863281zm0 0"/><path d="m368 40h48v16h-48zm0 0"/><path d="m80 72h16v-16h16v-16h-16v-16h-16v16h-16v16h16zm0 0"/><path d="m168 312h16v16h-16zm0 0"/><path d="m200 312h80v16h-80zm0 0"/><path d="m296 312h16v16h-16zm0 0"/><path d="m168 392h16v16h-16zm0 0"/><path d="m200 392h80v16h-80zm0 0"/><path d="m296 392h16v16h-16zm0 0"/><path d="m168 352h144v16h-144zm0 0"/></svg>