<svg height="480pt" viewBox="0 0 480 480" width="480pt" xmlns="http://www.w3.org/2000/svg"><path d="m8 440h464v32h-464zm0 0" fill="#ff5023"/><path d="m392 248 80 192h-464l80-192h55.199219l-9.4375 28.960938-14.722657 45.359374c-14.558593 6.238282-23.039062 13.679688-23.039062 21.679688 0 22.078125 64.480469 40 144 40s144-17.921875 144-40c0-8-8.480469-15.441406-23.039062-21.679688l-14.722657-45.359374-9.4375-28.960938zm0 0" fill="#c0ab91"/><path d="m360.960938 322.320312c14.558593 6.238282 23.039062 13.679688 23.039062 21.679688 0 22.078125-64.480469 40-144 40s-144-17.921875-144-40c0-8 8.480469-15.441406 23.039062-21.679688l-.960937 2.960938c25.523437 11.277344 70.5625 18.71875 121.921875 18.71875s96.398438-7.441406 121.921875-18.71875zm0 0" fill="#ff6243"/><path d="m360.960938 322.320312.960937 2.960938c-25.523437 11.277344-70.5625 18.71875-121.921875 18.71875s-96.398438-7.441406-121.921875-18.71875l.960937-2.960938 14.722657-45.359374c34.644531-9.199219 70.398437-13.5625 106.238281-12.960938 35.839844-.601562 71.59375 3.761719 106.238281 12.960938zm0 0" fill="#ffbcab"/><path d="m336.800781 248 9.4375 28.960938c-34.644531-9.199219-70.398437-13.5625-106.238281-12.960938-35.839844-.601562-71.59375 3.761719-106.238281 12.960938l9.4375-28.960938 18.722656-57.601562c25.785156-4.417969 51.914063-6.558594 78.078125-6.398438 26.164062-.160156 52.292969 1.980469 78.078125 6.398438zm0 0" fill="#ff6243"/><path d="m289.199219 101.601562 28.878906 88.796876c-25.785156-4.417969-51.914063-6.558594-78.078125-6.398438-26.164062-.160156-52.292969 1.980469-78.078125 6.398438l28.878906-88.796876c15.359375 1.519532 31.917969 2.398438 49.199219 2.398438s33.839844-.878906 49.199219-2.398438zm0 0" fill="#ffbcab"/><path d="m264.160156 24.558594 25.039063 77.042968c-15.359375 1.519532-31.917969 2.398438-49.199219 2.398438s-33.839844-.878906-49.199219-2.398438l25.039063-77.042968h.238281c.402344 8.5625 10.960937 15.441406 23.921875 15.441406s23.519531-6.878906 23.921875-15.441406zm0 0" fill="#ff6243"/><path d="m264 24c.011719.191406-.015625.382812-.078125.558594-.402344 8.5625-10.960937 15.441406-23.921875 15.441406s-23.519531-6.878906-23.921875-15.441406c-.0625-.175782-.089844-.367188-.078125-.558594 0-8.800781 10.71875-16 24-16s24 7.199219 24 16zm0 0" fill="#ff5023"/><path d="m479.945312 440c.019532-1.054688-.171874-2.101562-.5625-3.078125l-80-192c-1.242187-2.980469-4.152343-4.921875-7.382812-4.921875h-49.382812l-70.898438-218.128906c-1.40625-12.398438-14.75-21.871094-31.71875-21.871094s-30.3125 9.472656-31.71875 21.871094l-70.898438 218.128906h-49.382812c-3.230469 0-6.140625 1.941406-7.382812 4.921875l-80 192c-.390626.976563-.5820318 2.023437-.5625005 3.078125h-.0546875v32c0 4.417969 3.582031 8 8 8h464c4.417969 0 8-3.582031 8-8v-32zm-115.53125-107.113281c8.386719 4.539062 11.585938 8.714843 11.585938 11.113281 0 10.855469-48 32-136 32s-136-21.144531-136-32c0-2.398438 3.199219-6.574219 11.585938-11.113281 27.613281 11.960937 73.957031 19.113281 124.414062 19.113281s96.800781-7.152344 124.414062-19.113281zm-124.414062 3.113281c-44.753906 0-85.800781-5.679688-112-15.34375l12.0625-37.113281c32.683594-8.105469 66.269531-11.988281 99.9375-11.542969 33.671875-.445312 67.261719 3.433594 99.945312 11.542969l12.054688 37.113281c-26.199219 9.664062-67.246094 15.34375-112 15.34375zm0-80c-31.621094-.25-63.175781 2.953125-94.105469 9.550781l22.105469-68c23.808594-3.792969 47.890625-5.652343 72-5.550781 24.109375-.101562 48.191406 1.757812 72 5.550781l22.105469 68c-30.929688-6.597656-62.484375-9.800781-94.105469-9.550781zm-21.390625-214.128906c13.089844 8.171875 29.691406 8.171875 42.78125 0l17.066406 52.527344c-25.601562 1.96875-51.3125 1.96875-76.914062 0zm21.390625 70.128906c14.640625 0 29.222656-.734375 43.550781-1.96875l22.914063 70.488281c-44.105469-6.027343-88.824219-6.027343-132.929688 0l22.914063-70.488281c14.328125 1.234375 28.910156 1.96875 43.550781 1.96875zm0-96c9.769531 0 16 4.734375 16 8s-6.230469 8-16 8-16-4.734375-16-8 6.230469-8 16-8zm-146.664062 240h38.847656l-19.679688 60.558594c-16.191406 7.632812-24.503906 16.839844-24.503906 27.441406 0 31.511719 76.464844 48 152 48s152-16.488281 152-48c0-10.601562-8.3125-19.808594-24.503906-27.441406l-19.679688-60.558594h38.847656l73.335938 176h-440zm-77.335938 208v-16h448v16zm0 0"/></svg>