<svg height="480pt" viewBox="0 -44 480 480" width="480pt" xmlns="http://www.w3.org/2000/svg"><path d="m472 240v144h-464v-144c0-128.128906 103.871094-232 232-232s232 103.871094 232 232zm-24 40c0-39.765625-32.234375-72-72-72-1.28125 0-2.558594 0-3.761719.078125 13.210938-54.777344-8.726562-112.03125-55.160156-143.953125s-107.746094-31.90625-154.164063.046875c-46.414062 31.953125-68.316406 89.21875-55.074218 143.988281-36.722656 2.128906-65.933594 31.59375-67.746094 68.332032-1.8125 36.742187 24.363281 68.9375 60.695312 74.667968 36.335938 5.730469 71.144532-16.847656 80.730469-52.359375 39.539063 18.820313 85.726563 17.449219 124.082031-3.679687 7.71875 36.011718 41.375 60.390625 78 56.503906 36.625-3.890625 64.410157-34.792969 64.398438-71.625zm-16-112c0-8.835938-7.164062-16-16-16s-16 7.164062-16 16 7.164062 16 16 16c8.824219-.027344 15.972656-7.175781 16-16zm-352 0c0-8.835938-7.164062-16-16-16s-16 7.164062-16 16 7.164062 16 16 16c8.824219-.027344 15.972656-7.175781 16-16zm0 0" fill="#57a4ff"/><path d="m376 208c39.203125.195312 70.96875 31.859375 71.289062 71.0625.320313 39.203125-30.925781 71.382812-70.121093 72.214844-39.195313.835937-71.78125-29.984375-73.128907-69.167969-1.347656-39.179687 29.042969-72.167969 68.199219-74.03125 1.203125-.078125 2.480469-.078125 3.761719-.078125zm0 0" fill="#ffe477"/><path d="m432 168c0 8.835938-7.164062 16-16 16s-16-7.164062-16-16 7.164062-16 16-16 16 7.164062 16 16zm0 0" fill="#d80027"/><path d="m376 176c.019531 10.804688-1.242188 21.574219-3.761719 32.078125-21.058593 1.113281-40.578125 11.402344-53.398437 28.148437-12.820313 16.746094-17.660156 38.269532-13.238282 58.894532-38.355468 21.128906-84.542968 22.5-124.082031 3.679687 1.640625-6.132812 2.476563-12.453125 2.480469-18.800781 0-39.765625-32.234375-72-72-72-1.441406 0-2.800781.078125-4.160156.160156-12.378906-50.976562 5.667968-104.527344 46.371094-137.621094 40.707031-33.089843 96.816406-39.816406 144.191406-17.289062s77.570312 70.292969 77.597656 122.75zm-112 104v-32h-48v32zm-24-64c13.253906 0 24-10.746094 24-24 0-13.28125-24-72-24-72s-24 58.71875-24 72c0 13.253906 10.746094 24 24 24zm0 0" fill="#d8d7da"/><path d="m216 248h48v32h-48zm0 0" fill="#00b6bd"/><path d="m264 192c0 13.253906-10.746094 24-24 24s-24-10.746094-24-24c0-13.28125 24-72 24-72s24 58.71875 24 72zm0 0" fill="#ffe477"/><path d="m184 280c-.003906 6.347656-.839844 12.667969-2.480469 18.800781-9.585937 35.511719-44.394531 58.089844-80.730469 52.359375-36.332031-5.730468-62.507812-37.925781-60.695312-74.667968 1.8125-36.738282 31.023438-66.203126 67.746094-68.332032 1.359375-.082031 2.71875-.160156 4.160156-.160156 39.765625 0 72 32.234375 72 72zm0 0" fill="#ffe477"/><path d="m80 168c0 8.835938-7.164062 16-16 16s-16-7.164062-16-16 7.164062-16 16-16 16 7.164062 16 16zm0 0" fill="#d80027"/><path d="m381.960938 200.304688c1.355468-8.03125 2.035156-16.160157 2.039062-24.304688.011719-54.492188-30.738281-104.320312-79.445312-128.746094-48.707032-24.429687-107.03125-19.269531-150.699219 13.324219-43.664063 32.597656-65.1875 87.050781-55.617188 140.695313-37.980469 6.609374-65.839843 39.382812-66.246093 77.933593-.402344 38.554688 26.757812 71.90625 64.597656 79.3125 37.835937 7.40625 75.570312-13.242187 89.730468-49.105469 17.039063 6.976563 35.269532 10.570313 53.679688 10.585938 20.949219 0 41.644531-4.574219 60.640625-13.40625 13.257813 37.652344 52.261719 59.757812 91.378906 51.785156 39.117188-7.972656 66.359375-43.578125 63.824219-83.417968-2.535156-39.84375-34.070312-71.707032-73.882812-74.65625zm-269.960938 143.695312c-35.347656 0-64-28.652344-64-64s28.652344-64 64-64 64 28.652344 64 64c-.039062 35.328125-28.671875 63.960938-64 64zm128-40c-16.941406-.007812-33.707031-3.429688-49.296875-10.054688 4.183594-22.894531-1.867187-46.472656-16.558594-64.519531-14.691406-18.050781-36.550781-28.757812-59.816406-29.304687-10.066406-50.863282 11.527344-102.773438 54.695313-131.488282 43.167968-28.714843 99.394531-28.566406 142.410156.375 43.015625 28.945313 64.335937 80.96875 54 131.777344-21.097656 2.644532-40.25 13.652344-53.152344 30.550782-12.90625 16.898437-18.480469 38.269531-15.480469 59.320312-17.648437 8.777344-37.089843 13.34375-56.800781 13.34375zm136 40c-35.347656 0-64-28.652344-64-64s28.652344-64 64-64 64 28.652344 64 64c-.039062 35.328125-28.671875 63.960938-64 64zm0 0"/><path d="m240 0c-132.484375.148438-239.851562 107.515625-240 240v144c0 4.417969 3.582031 8 8 8h464c4.417969 0 8-3.582031 8-8v-144c-.148438-132.484375-107.515625-239.851562-240-240zm224 376h-448v-136c0-123.710938 100.289062-224 224-224s224 100.289062 224 224zm0 0"/><path d="m264 240h-48c-4.417969 0-8 3.582031-8 8v32c0 4.417969 3.582031 8 8 8h48c4.417969 0 8-3.582031 8-8v-32c0-4.417969-3.582031-8-8-8zm-8 32h-32v-16h32zm0 0"/><path d="m128 168h32v16h-32zm0 0"/><path d="m155.152344 102.460938 11.316406-11.3125 27.308594 27.3125-11.3125 11.3125zm0 0"/><path d="m232 64h16v32h-16zm0 0"/><path d="m286.226562 118.464844 27.3125-27.308594 11.3125 11.3125-27.308593 27.3125zm0 0"/><path d="m304 168h48v16h-48zm0 0"/><path d="m352 296h48v16h-48zm0 0"/><path d="m88 296h48v16h-48zm0 0"/><path d="m64 192c13.253906 0 24-10.746094 24-24s-10.746094-24-24-24-24 10.746094-24 24 10.746094 24 24 24zm0-32c4.417969 0 8 3.582031 8 8s-3.582031 8-8 8-8-3.582031-8-8 3.582031-8 8-8zm0 0"/><path d="m416 192c13.253906 0 24-10.746094 24-24s-10.746094-24-24-24-24 10.746094-24 24 10.746094 24 24 24zm0-32c4.417969 0 8 3.582031 8 8s-3.582031 8-8 8-8-3.582031-8-8 3.582031-8 8-8zm0 0"/><path d="m240 112c-3.25 0-6.179688 1.964844-7.40625 4.976562-4.105469 10.046876-24.59375 60.902344-24.59375 75.023438 0 17.671875 14.328125 32 32 32s32-14.328125 32-32c0-14.121094-20.488281-64.976562-24.59375-75.023438-1.226562-3.011718-4.15625-4.976562-7.40625-4.976562zm0 96c-8.835938 0-16-7.164062-16-16 3.734375-17.207031 9.089844-34.019531 16-50.214844 6.910156 16.195313 12.265625 33.007813 16 50.214844 0 8.835938-7.164062 16-16 16zm0 0"/><path d="m106.347656 274.34375 32-32 11.3125 11.3125-32 32zm0 0"/><path d="m338.347656 253.660156 11.3125-11.3125 32.003906 32-11.316406 11.316406zm0 0"/></svg>