<svg height="480pt" viewBox="0 0 480 480.0047" width="480pt" xmlns="http://www.w3.org/2000/svg"><path d="m315.890625 371.601562c37.078125-21.371093 63.414063-57.398437 72.523437-99.214843 9.109376-41.8125.144532-85.53125-24.683593-120.386719h36.160156l31.121094-43.519531c56.5625 82.195312 54.234375 191.355469-5.78125 271.066406-60.019531 79.710937-164.28125 112.117187-258.910157 80.476563-94.628906-31.640626-158.429687-120.242188-158.429687-220.023438-.097656-46.980469 14.164063-92.871094 40.878906-131.519531l31.121094 43.519531h36.160156c-41.429687 58.234375-36.671875 137.46875 11.429688 190.328125 48.101562 52.859375 126.539062 65.042969 188.410156 29.273437zm0 0" fill="#d8d7da"/><path d="m439.890625 96-8.878906 12.480469-31.121094 43.519531h-40l-12-8.960938c6.570313-4.792968 11.847656-11.144531 15.359375-18.480468l4.640625 3.441406h19.679687l27.199219-38.078125c-9.4375-25.523437-75.519531-57.921875-174.878906-57.921875s-165.441406 32.398438-174.878906 57.921875l27.199219 38.078125h19.679687l4.640625-3.441406c3.511719 7.335937 8.789062 13.6875 15.359375 18.480468l-12 8.960938h-40l-31.121094-43.519531-8.878906-12.480469c0-48.640625 89.519531-88 200-88s200 39.359375 200 88zm0 0" fill="#57a4ff"/><path d="m331.410156 150.640625c-3.773437.902344-7.640625 1.359375-11.519531 1.359375-20.046875-.015625-37.976563-12.488281-44.960937-31.28125-9.046876 9.746094-21.742188 15.28125-35.039063 15.28125s-25.992187-5.535156-35.039063-15.28125c-6.984374 18.792969-24.914062 31.265625-44.960937 31.28125-3.878906 0-7.746094-.457031-11.519531-1.359375-5.910156-1.507813-11.496094-4.082031-16.480469-7.601563-6.570313-4.792968-11.847656-11.144531-15.359375-18.480468l-4.640625 3.441406h-19.679687l-27.199219-38.078125c9.4375-25.523437 75.519531-57.921875 174.878906-57.921875s165.441406 32.398438 174.878906 57.921875l-27.199219 38.078125h-19.679687l-4.640625-3.441406c-3.511719 7.335937-8.789062 13.6875-15.359375 18.480468-4.984375 3.519532-10.570313 6.09375-16.480469 7.601563zm0 0" fill="#d80027"/><path d="m363.730469 152c38 53.503906 37.355469 125.359375-1.597657 178.175781-38.953124 52.816407-107.414062 74.65625-169.753906 54.15625-62.34375-20.5-104.480468-78.707031-104.488281-144.332031-.0625-31.558594 9.785156-62.339844 28.160156-88h3.839844l12-8.960938c4.984375 3.519532 10.570313 6.09375 16.480469 7.601563-49.164063 50.277344-48.558594 130.796875 1.347656 180.335937 49.910156 49.535157 130.433594 49.535157 180.34375 0 49.90625-49.539062 50.507812-130.058593 1.347656-180.335937 5.910156-1.507813 11.496094-4.082031 16.480469-7.601563l12 8.960938zm0 0" fill="#ffd422"/><path d="m331.410156 150.640625c49.160156 50.277344 48.558594 130.796875-1.347656 180.335937-49.910156 49.535157-130.433594 49.535157-180.34375 0-49.90625-49.539062-50.511719-130.058593-1.347656-180.335937 3.773437.902344 7.640625 1.359375 11.519531 1.359375 20.046875-.015625 37.976563-12.488281 44.960937-31.28125 9.046876 9.746094 21.742188 15.28125 35.039063 15.28125-8.835937 0-16 7.164062-16 16s7.164063 16 16 16 16-7.164062 16-16c-.027344-8.824219-7.175781-15.972656-16-16 13.296875 0 25.992187-5.535156 35.039063-15.28125 6.984374 18.792969 24.914062 31.265625 44.960937 31.28125 3.878906 0 7.746094-.457031 11.519531-1.359375zm2.320313 145.359375c4.429687-7.648438 1.816406-17.441406-5.835938-21.871094-7.652343-4.425781-17.441406-1.804687-21.863281 5.847656-4.421875 7.65625-1.796875 17.445313 5.859375 21.863282 3.667969 2.128906 8.035156 2.710937 12.132813 1.613281 4.097656-1.09375 7.589843-3.777344 9.707031-7.453125zm-9.601563-86.160156c7.628906-4.441406 10.214844-14.222656 5.785156-21.855469-4.429687-7.632813-14.207031-10.238281-21.847656-5.820313-7.640625 4.417969-10.261718 14.1875-5.855468 21.835938 2.125 3.691406 5.632812 6.378906 9.746093 7.476562 4.113281 1.09375 8.496094.507813 12.171875-1.636718zm-44.238281 30.160156c0-22.089844-17.910156-40-40-40s-40 17.910156-40 40 17.910156 40 40 40 40-17.910156 40-40zm-24 88c0-8.835938-7.164063-16-16-16s-16 7.164062-16 16 7.164063 16 16 16c8.824219-.027344 15.972656-7.175781 16-16zm-82.160156-120c4.429687-7.648438 1.816406-17.441406-5.835938-21.871094-7.652343-4.425781-17.441406-1.804687-21.863281 5.847656-4.421875 7.65625-1.796875 17.445313 5.859375 21.863282 3.667969 2.128906 8.035156 2.710937 12.132813 1.613281 4.097656-1.09375 7.589843-3.777344 9.707031-7.453125zm-5.839844 93.839844c7.65625-4.417969 10.28125-14.207032 5.859375-21.863282-4.421875-7.652343-14.214844-10.273437-21.867188-5.847656-7.652343 4.429688-10.261718 14.222656-5.832031 21.871094 2.117188 3.675781 5.609375 6.359375 9.707031 7.453125 4.097657 1.097656 8.464844.515625 12.132813-1.613281zm0 0" fill="#ffe477"/><g fill="#57a4ff"><path d="m327.890625 274.160156c7.65625 4.417969 10.28125 14.207032 5.859375 21.863282-4.421875 7.652343-14.214844 10.273437-21.867188 5.847656-7.652343-4.429688-10.261718-14.222656-5.832031-21.871094 2.117188-3.675781 5.609375-6.359375 9.707031-7.453125 4.097657-1.097656 8.464844-.515625 12.132813 1.613281zm0 0"/><path d="m329.96875 188c4.433594 7.648438 1.820312 17.441406-5.832031 21.871094-7.652344 4.425781-17.445313 1.804687-21.867188-5.847656-4.421875-7.65625-1.796875-17.445313 5.859375-21.863282 7.644532-4.410156 17.417969-1.796875 21.839844 5.839844zm0 0"/><path d="m279.890625 240c0 22.089844-17.910156 40-40 40s-40-17.910156-40-40 17.910156-40 40-40 40 17.910156 40 40zm0 0"/><path d="m255.890625 152c0 8.835938-7.164063 16-16 16s-16-7.164062-16-16 7.164063-16 16-16 16 7.164062 16 16zm0 0"/><path d="m255.890625 328c0 8.835938-7.164063 16-16 16s-16-7.164062-16-16 7.164063-16 16-16 16 7.164062 16 16zm0 0"/><path d="m167.890625 186.160156c7.65625 4.417969 10.28125 14.207032 5.859375 21.863282-4.421875 7.652343-14.214844 10.273437-21.867188 5.847656-7.652343-4.429688-10.261718-14.222656-5.832031-21.871094 2.117188-3.675781 5.609375-6.359375 9.707031-7.453125 4.097657-1.097656 8.464844-.515625 12.132813 1.613281zm0 0"/><path d="m173.730469 280c4.429687 7.648438 1.816406 17.441406-5.835938 21.871094-7.652343 4.425781-17.441406 1.804687-21.863281-5.847656-4.421875-7.65625-1.796875-17.445313 5.859375-21.863282 3.667969-2.128906 8.035156-2.710937 12.132813-1.613281 4.097656 1.09375 7.589843 3.777344 9.707031 7.453125zm0 0"/></g><path d="m239.890625 288c26.507813 0 48-21.492188 48-48s-21.492187-48-48-48c-26.511719 0-48 21.492188-48 48 .027344 26.5 21.5 47.972656 48 48zm0-80c17.671875 0 32 14.328125 32 32s-14.328125 32-32 32-32-14.328125-32-32 14.328125-32 32-32zm0 0"/><path d="m147.890625 220.800781c9.917969 5.714844 22.496094 3.625 30.035156-4.988281 7.542969-8.613281 7.949219-21.355469.976563-30.433594-6.976563-9.074218-19.394532-11.964844-29.65625-6.894531-10.265625 5.070313-15.523438 16.683594-12.554688 27.738281 1.636719 6.160156 5.667969 11.410156 11.199219 14.578125zm5.078125-24.800781c1.054688-1.839844 2.800781-3.183594 4.847656-3.726562.679688-.179688 1.375-.273438 2.074219-.273438 1.40625-.003906 2.785156.367188 4 1.070312 3.828125 2.207032 5.144531 7.101563 2.9375 10.929688-2.210937 3.828125-7.105469 5.140625-10.933594 2.933594-3.824219-2.210938-5.136719-7.105469-2.925781-10.933594zm0 0"/><path d="m147.890625 267.199219c-11.476563 6.628906-15.40625 21.304687-8.78125 32.78125 6.625 11.476562 21.296875 15.410156 32.773437 8.792969 11.480469-6.621094 15.421876-21.292969 8.808594-32.773438-3.148437-5.554688-8.394531-9.613281-14.558594-11.265625-6.164062-1.65625-12.738281-.765625-18.242187 2.464844zm19.734375 22.855469c-.988281 3.6875-4.441406 6.164062-8.25 5.914062s-6.910156-3.15625-7.40625-6.9375c-.5-3.785156 1.742188-7.394531 5.359375-8.621094 3.613281-1.226562 7.589844.269532 9.5 3.574219 1.0625 1.839844 1.351563 4.03125.796875 6.085937zm0 0"/><path d="m239.890625 304c-13.253906 0-24 10.746094-24 24s10.746094 24 24 24 24-10.746094 24-24-10.746094-24-24-24zm0 32c-4.417969 0-8-3.582031-8-8s3.582031-8 8-8 8 3.582031 8 8-3.582031 8-8 8zm0 0"/><path d="m331.890625 267.199219c-11.488281-6.625-26.171875-2.6875-32.800781 8.800781-6.625 11.488281-2.6875 26.171875 8.800781 32.800781 11.488281 6.625 26.171875 2.6875 32.800781-8.800781 6.625-11.488281 2.6875-26.171875-8.800781-32.800781zm-5.074219 24.800781c-1.90625 3.304688-5.882812 4.800781-9.5 3.574219-3.613281-1.226563-5.855468-4.835938-5.355468-8.621094.496093-3.785156 3.597656-6.6875 7.40625-6.9375 3.808593-.25 7.261718 2.226563 8.25 5.914063.550781 2.046874.261718 4.234374-.800782 6.070312zm0 0"/><path d="m316.136719 220c4.214843.011719 8.355469-1.09375 12-3.199219 10.441406-6.007812 14.808593-18.824219 10.210937-29.957031-4.59375-11.132812-16.730468-17.136719-28.367187-14.035156-11.636719 3.105468-19.171875 14.351562-17.613281 26.296875 1.558593 11.941406 11.726562 20.882812 23.769531 20.894531zm-4-30.921875c3.835937-2.191406 8.722656-.863281 10.917969 2.96875 2.195312 3.835937.867187 8.722656-2.96875 10.917969-3.832032 2.195312-8.71875.867187-10.914063-2.964844-1.074219-1.835938-1.371094-4.023438-.820313-6.074219.550782-2.054687 1.898438-3.800781 3.746094-4.855469zm0 0"/><path d="m440.632812 108.710938 5.761719-8.0625c.972657-1.355469 1.496094-2.980469 1.496094-4.648438 0-53.832031-91.367187-96-208-96s-208 42.167969-208 96c0 1.667969.523437 3.292969 1.496094 4.648438l5.757812 8.0625c-56.117187 85.789062-51.53125 197.757812 11.410157 278.671874 62.941406 80.917969 170.335937 112.90625 267.296874 79.621094 96.960938-33.285156 162.066407-124.488281 162.039063-227.003906.070313-46.664062-13.582031-92.320312-39.257813-131.289062zm-200.742187-92.710938c102.128906 0 188.695313 35.273438 191.902344 77.601562l-36 50.398438h-33.238281l-2.089844-1.601562c2.011718-2.070313 3.859375-4.296876 5.523437-6.65625.621094.160156 1.257813.246093 1.902344.257812h19.664063c2.585937 0 5.011718-1.25 6.511718-3.351562l27.199219-38.074219c1.539063-2.152344 1.914063-4.921875 1-7.40625-11.457031-31.054688-82.785156-63.167969-182.375-63.167969-99.59375 0-170.921875 32.113281-182.351563 63.199219-.914062 2.484375-.539062 5.257812 1 7.410156l27.199219 38.070313c1.5 2.105468 3.925781 3.351562 6.511719 3.351562h19.640625c.636719 0 1.269531-.078125 1.886719-.222656 1.664062 2.359375 3.511718 4.585937 5.519531 6.65625l-2.085937 1.597656h-33.199219l-36-50.398438c3.183593-42.390624 89.75-77.664062 191.878906-77.664062zm0 368c-79.492187-.09375-143.90625-64.507812-144-144-.050781-28.546875 8.488281-56.453125 24.511719-80.078125 1.546875-.082031 3.035156-.609375 4.289062-1.523437l7.695313-5.757813c.800781.449219 1.601562.886719 2.398437 1.296875-45.464844 55.386719-40.152344 136.554688 12.148438 185.546875 52.300781 48.988281 133.644531 48.988281 185.945312 0 52.300782-48.992187 57.613282-130.160156 12.148438-185.546875.800781-.410156 1.597656-.847656 2.398437-1.296875l7.695313 5.757813c1.253906.910156 2.742187 1.433593 4.289062 1.511718 16.011719 23.636719 24.542969 51.542969 24.480469 80.089844-.09375 79.492188-64.507813 143.90625-144 144zm-80-224c19.332031-.070312 37.269531-10.0625 47.511719-26.457031 3.71875 2.574219 7.75 4.660156 12 6.199219-2.265625 3.691406-3.480469 7.929687-3.511719 12.257812 0 13.253906 10.746094 24 24 24s24-10.746094 24-24c-.019531-4.328125-1.226563-8.5625-3.480469-12.257812 4.25-1.539063 8.28125-3.625 12-6.199219 10.234375 16.386719 28.160156 26.375 47.480469 26.457031 2.839844-.023438 5.675781-.265625 8.480469-.726562 43.847656 47.859374 41.691406 121.914062-4.875 167.140624-46.5625 45.226563-120.648438 45.226563-167.214844 0-46.5625-45.226562-48.722656-119.28125-4.871094-167.140624 2.804688.460937 5.640625.703124 8.480469.726562zm80-16c4.417969 0 8 3.582031 8 8s-3.582031 8-8 8-8-3.582031-8-8 3.582031-8 8-8zm116.128906-22.855469c-6.902343 14.507813-21.8125 23.480469-37.859375 22.78125-16.050781-.699219-30.128906-10.929687-35.742187-25.980469-.96875-2.597656-3.214844-4.503906-5.933594-5.046874-2.714844-.539063-5.519531.363281-7.410156 2.390624-7.535157 8.128907-18.117188 12.75-29.199219 12.75-11.085938 0-21.667969-4.621093-29.199219-12.75-1.890625-2.027343-4.695312-2.929687-7.414062-2.390624-2.71875.542968-4.960938 2.449218-5.929688 5.046874-5.617187 15.050782-19.691406 25.28125-35.742187 25.980469-16.050782.699219-30.960938-8.273437-37.859375-22.78125-1.023438-2.164062-2.964844-3.757812-5.289063-4.339843-2.324218-.578126-4.789062-.089844-6.710937 1.339843l-2.472657 1.855469h-12.894531l-22.074219-30.855469c13.175782-21.25 75.457032-49.144531 165.601563-49.144531s152.421875 27.894531 165.601563 49.144531l-22.074219 30.855469h-12.894531l-2.496094-1.855469c-1.925782-1.429687-4.386719-1.917969-6.710938-1.339843-2.324218.582031-4.265625 2.175781-5.289062 4.339843zm-116.128906 342.855469c-81.144531.0625-155.96875-43.796875-195.554687-114.628906-39.589844-70.835938-37.742188-157.546875 4.828124-226.628906l24.222657 33.90625c1.5 2.101562 3.921875 3.347656 6.503906 3.351562h21.550781c-12.136718 20.792969-19.355468 44.089844-21.09375 68.105469-14.019531-7.210938-25.644531-18.324219-33.480468-32l-13.953126 7.824219c10.738282 18.679687 27.355469 33.285156 47.257813 41.542968 1.707031 50.933594 27.597656 98.003906 69.703125 126.71875-13.238281 8.632813-28.726562 13.164063-44.527344 13.023438l-.191406 16h.933594c21.175781-.179688 41.71875-7.226563 58.542968-20.078125 44.988282 24.152343 98.847657 25.1875 144.730469 2.785156.8125 15.8125-3.003906 31.519531-10.984375 45.199219l13.742188 8.191406c10.8125-18.652344 15.15625-40.351562 12.351562-61.726562 43.234375-26.972657 71.023438-72.9375 74.816406-123.753907 14.078126 7.214844 25.75 18.367188 33.601563 32.097657l13.953125-7.824219c-10.730469-18.660157-27.324219-33.253907-47.203125-41.511719-.789063-26.25-8.109375-51.886719-21.300781-74.59375h21.550781c2.582031-.003906 5.003906-1.25 6.503906-3.351562l24.222657-33.90625c42.570312 69.082031 44.417968 155.792968 4.828124 226.628906-39.585937 70.832031-114.410156 114.691406-195.554687 114.628906zm0 0"/></svg>