<svg height="480pt" viewBox="0 0 480 480" width="480pt" xmlns="http://www.w3.org/2000/svg"><path d="m472 32v48h-40c-4.417969 0-8-3.582031-8-8v-32c0-4.417969 3.582031-8 8-8zm0 0" fill="#57a4ff"/><path d="m392 40h32v32h-32zm0 0" fill="#d8d7da"/><path d="m392 40v32c0 17.671875-14.328125 32-32 32h-16v-96h16c17.671875 0 32 14.328125 32 32zm0 0" fill="#57a4ff"/><path d="m312 8h32v96h-32zm0 0" fill="#ffe477"/><path d="m312 8v96l-64 32v-128zm0 0" fill="#57a4ff"/><path d="m264 440v32h-256v-64h144l32 32zm0 0" fill="#57a4ff"/><path d="m264 408v32h-80l-32-32h-144v-16c.027344-8.824219 7.175781-15.972656 16-16h152zm0 0" fill="#ffe477"/><path d="m144 184h-136v-176h32v48c.027344 8.824219 7.175781 15.972656 16 16h192v112zm72-32v-48h-176v48zm0 0" fill="#ffe477"/><path d="m248 8v64h-192c-8.824219-.027344-15.972656-7.175781-16-16v-48zm0 0" fill="#57a4ff"/><path d="m168 184h-24v96h16c26.855469-.007812 50.847656-16.78125 60.078125-42 2.613281-7.039062 3.941406-14.492188 3.921875-22v-32zm0 0" fill="#d8d7da"/><path d="m40 104h176v48h-176zm0 0" fill="#ff6243"/><path d="m144 368v8h-96v-192h64v128.878906l32 15.121094zm0 0" fill="#57a4ff"/><path d="m144 280v48l-32-15.121094v-128.878906h32zm0 0" fill="#ffe477"/><path d="m472 24h-40c-5.691406.015625-10.941406 3.066406-13.777344 8h-19.023437c-3.828125-18.613281-20.199219-31.9765625-39.199219-32h-352c-4.417969 0-8 3.582031-8 8v176c0 4.417969 3.582031 8 8 8h32v176h-16c-13.253906 0-24 10.746094-24 24v80c0 4.417969 3.582031 8 8 8h256c4.417969 0 8-3.582031 8-8v-64c-.003906-3.359375-2.105469-6.363281-5.265625-7.511719l-88-32c-.875-.320312-1.800781-.488281-2.734375-.488281h-24v-80h8c39.746094-.042969 71.957031-32.253906 72-72v-24h16c4.417969 0 8-3.582031 8-8v-43.054688l57.886719-28.945312h46.113281c19-.023438 35.371094-13.386719 39.199219-32h19.03125c2.835937 4.929688 8.082031 7.980469 13.769531 8h40c4.417969 0 8-3.582031 8-8v-48c0-4.417969-3.582031-8-8-8zm-232 40h-184c-4.417969 0-8-3.582031-8-8v-40h192zm-224 400v-48h132.6875l29.65625 29.65625c1.5 1.5 3.535156 2.34375 5.65625 2.34375h72v16zm158.59375-80 81.40625 29.601562v18.398438h-68.6875l-29.65625-29.65625c-1.5-1.5-3.535156-2.34375-5.65625-2.34375h-136v-8c0-4.417969 3.582031-8 8-8zm-118.59375-16v-176h48v120.800781c.011719 3.082031 1.792969 5.878907 4.574219 7.199219l27.425781 13.0625v34.9375zm64-176h16v123.359375l-16-7.574219zm96 24c-.035156 30.914062-25.085938 55.964844-56 56h-8v-80h8v24c0 13.253906 10.746094 24 24 24h16v-16h-16c-4.417969 0-8-3.582031-8-8v-24h40zm-200-40v-160h16v40c0 13.253906 10.746094 24 24 24h184v96zm288-76.945312-48 24v-107.054688h48zm32-3.054688h-16v-80h16zm48-24c0 13.253906-10.746094 24-24 24h-8v-80h8c13.253906 0 24 10.746094 24 24zm32-24v16h-16v-16zm48 24h-32v-32h32zm0 0"/><path d="m216 96h-176c-4.417969 0-8 3.582031-8 8v48c0 4.417969 3.582031 8 8 8h176c4.417969 0 8-3.582031 8-8v-48c0-4.417969-3.582031-8-8-8zm-8 48h-160v-32h160zm0 0"/></svg>