<svg height="480pt" viewBox="0 0 480 480" width="480pt" xmlns="http://www.w3.org/2000/svg"><path d="m472 24v432h-16l-80.320312-80.320312c36.054687-35.945313 56.320312-84.765626 56.320312-135.679688s-20.265625-99.734375-56.320312-135.679688l80.320312-80.320312zm0 0" fill="#d8d7da"/><path d="m375.679688 104.320312c36.054687 35.945313 56.320312 84.765626 56.320312 135.679688s-20.265625 99.734375-56.320312 135.679688l17.039062 17.039062c-22.8125 22.875-50.484375 40.320312-80.957031 51.042969.160156-1.25.242187-2.503907.238281-3.761719 0-17.679688-10.71875-32-24-32-6.285156.195312-12.152344 3.1875-16 8.160156-3.71875-5.125-9.667969-8.160156-16-8.160156s-12.28125 3.035156-16 8.160156c-3.71875-5.125-9.667969-8.160156-16-8.160156s-12.28125 3.035156-16 8.160156c-3.847656-4.972656-9.714844-7.964844-16-8.160156-13.28125 0-24 14.320312-24 32-.003906 1.257812.078125 2.511719.238281 3.761719-30.472656-10.722657-58.144531-28.167969-80.957031-51.042969l17.039062-17.039062c-36.054687-35.945313-56.320312-84.765626-56.320312-135.679688s20.265625-99.734375 56.320312-135.679688l-17.039062-17.039062c22.8125-22.875 50.484375-40.320312 80.957031-51.042969-.160156 1.25-.242187 2.503907-.238281 3.761719 0 17.679688 10.71875 32 24 32 6.285156-.195312 12.152344-3.1875 16-8.160156 3.71875 5.125 9.667969 8.160156 16 8.160156s12.28125-3.035156 16-8.160156c3.71875 5.125 9.667969 8.160156 16 8.160156s12.28125-3.035156 16-8.160156c3.847656 4.972656 9.714844 7.964844 16 8.160156 13.28125 0 24-14.320312 24-32 .003906-1.257812-.078125-2.511719-.238281-3.761719 30.472656 10.722657 58.144531 28.167969 80.957031 51.042969zm.320312 135.679688c0-75.109375-60.890625-136-136-136s-136 60.890625-136 136 60.890625 136 136 136 136-60.890625 136-136zm0 0" fill="#ffe477"/><path d="m240 104c75.109375 0 136 60.890625 136 136s-60.890625 136-136 136-136-60.890625-136-136 60.890625-136 136-136zm80.078125 112c8.839844-.042969 15.964844-7.242188 15.921875-16.078125-.042969-8.839844-7.242188-15.964844-16.082031-15.921875-8.835938.042969-15.960938 7.242188-15.917969 16.078125.042969 8.839844 7.242188 15.964844 16.078125 15.921875zm15.921875 72c0-8.835938-7.164062-16-16-16s-16 7.164062-16 16 7.164062 16 16 16c8.824219-.027344 15.972656-7.175781 16-16zm-56-48c0-22.089844-17.910156-40-40-40s-40 17.910156-40 40 17.910156 40 40 40 40-17.910156 40-40zm-24-88c0-8.835938-7.164062-16-16-16s-16 7.164062-16 16 7.164062 16 16 16c8.824219-.027344 15.972656-7.175781 16-16zm0 176c0-8.835938-7.164062-16-16-16s-16 7.164062-16 16 7.164062 16 16 16c8.824219-.027344 15.972656-7.175781 16-16zm-80-128c0-8.835938-7.164062-16-16-16s-16 7.164062-16 16 7.164062 16 16 16c8.824219-.027344 15.972656-7.175781 16-16zm0 88c0-8.835938-7.164062-16-16-16s-16 7.164062-16 16 7.164062 16 16 16c8.824219-.027344 15.972656-7.175781 16-16zm0 0" fill="#d9ccbc"/><path d="m336 207.921875c.042969 8.835937-7.082031 16.035156-15.917969 16.078125-8.839843.042969-16.039062-7.082031-16.082031-15.921875-.042969-8.835937 7.082031-16.035156 15.921875-16.078125 8.835937-.042969 16.035156 7.082031 16.078125 15.921875zm0 0" fill="#57a4ff"/><path d="m336 288c0 8.835938-7.164062 16-16 16s-16-7.164062-16-16 7.164062-16 16-16 16 7.164062 16 16zm0 0" fill="#57a4ff"/><g fill="#d80027"><path d="m311.761719 36.238281c.160156 1.25.242187 2.503907.238281 3.761719 0 17.679688-10.71875 32-24 32-6.285156-.195312-12.152344-3.1875-16-8.160156-5.332031-6.789063-8.15625-15.210938-8-23.839844-.15625-8.628906 2.667969-17.050781 8-23.839844 3.847656-4.972656 9.714844-7.964844 16-8.160156 12.320312 0 22.480469 12.320312 23.761719 28.238281zm0 0"/><path d="m312 440c.003906 1.257812-.078125 2.511719-.238281 3.761719-1.28125 15.917969-11.441407 28.238281-23.761719 28.238281-6.285156-.195312-12.152344-3.1875-16-8.160156-10.667969-14.101563-10.667969-33.578125 0-47.679688 3.847656-4.972656 9.714844-7.964844 16-8.160156 13.28125 0 24 14.320312 24 32zm0 0"/><path d="m272 16.160156c-5.332031 6.789063-8.15625 15.210938-8 23.839844-.15625 8.628906 2.667969 17.050781 8 23.839844-3.71875 5.125-9.667969 8.160156-16 8.160156s-12.28125-3.035156-16-8.160156c-5.332031-6.789063-8.15625-15.210938-8-23.839844-.15625-8.628906 2.667969-17.050781 8-23.839844 3.71875-5.125 9.667969-8.160156 16-8.160156s12.28125 3.035156 16 8.160156zm0 0"/><path d="m272 416.160156c-10.667969 14.101563-10.667969 33.578125 0 47.679688-3.71875 5.125-9.667969 8.160156-16 8.160156s-12.28125-3.035156-16-8.160156c-10.667969-14.101563-10.667969-33.578125 0-47.679688 3.71875-5.125 9.667969-8.160156 16-8.160156s12.28125 3.035156 16 8.160156zm0 0"/></g><path d="m280 240c0 22.089844-17.910156 40-40 40s-40-17.910156-40-40 17.910156-40 40-40 40 17.910156 40 40zm0 0" fill="#57a4ff"/><path d="m256 152c0 8.835938-7.164062 16-16 16s-16-7.164062-16-16 7.164062-16 16-16 16 7.164062 16 16zm0 0" fill="#57a4ff"/><path d="m256 328c0 8.835938-7.164062 16-16 16s-16-7.164062-16-16 7.164062-16 16-16 16 7.164062 16 16zm0 0" fill="#57a4ff"/><path d="m240 16.160156c-5.332031 6.789063-8.15625 15.210938-8 23.839844-.15625 8.628906 2.667969 17.050781 8 23.839844-3.71875 5.125-9.667969 8.160156-16 8.160156s-12.28125-3.035156-16-8.160156c-5.332031-6.789063-8.15625-15.210938-8-23.839844-.15625-8.628906 2.667969-17.050781 8-23.839844 3.71875-5.125 9.667969-8.160156 16-8.160156s12.28125 3.035156 16 8.160156zm0 0" fill="#d80027"/><path d="m240 416.160156c-10.667969 14.101563-10.667969 33.578125 0 47.679688-3.71875 5.125-9.667969 8.160156-16 8.160156s-12.28125-3.035156-16-8.160156c-10.667969-14.101563-10.667969-33.578125 0-47.679688 3.71875-5.125 9.667969-8.160156 16-8.160156s12.28125 3.035156 16 8.160156zm0 0" fill="#d80027"/><path d="m208 16.160156c-5.332031 6.789063-8.15625 15.210938-8 23.839844-.15625 8.628906 2.667969 17.050781 8 23.839844-3.847656 4.972656-9.714844 7.964844-16 8.160156-13.28125 0-24-14.320312-24-32-.003906-1.257812.078125-2.511719.238281-3.761719 1.28125-15.917969 11.441407-28.238281 23.761719-28.238281 6.285156.195312 12.152344 3.1875 16 8.160156zm0 0" fill="#d80027"/><path d="m208 416.160156c-10.667969 14.101563-10.667969 33.578125 0 47.679688-3.847656 4.972656-9.714844 7.964844-16 8.160156-12.320312 0-22.480469-12.320312-23.761719-28.238281-.160156-1.25-.242187-2.503907-.238281-3.761719 0-17.679688 10.71875-32 24-32 6.285156.195312 12.152344 3.1875 16 8.160156zm0 0" fill="#d80027"/><path d="m176 200c0 8.835938-7.164062 16-16 16s-16-7.164062-16-16 7.164062-16 16-16 16 7.164062 16 16zm0 0" fill="#57a4ff"/><path d="m176 288c0 8.835938-7.164062 16-16 16s-16-7.164062-16-16 7.164062-16 16-16 16 7.164062 16 16zm0 0" fill="#57a4ff"/><path d="m104.320312 375.679688-80.320312 80.320312h-16v-432h16l80.320312 80.320312c-36.054687 35.945313-56.320312 84.765626-56.320312 135.679688s20.265625 99.734375 56.320312 135.679688zm0 0" fill="#d8d7da"/><path d="m240 192c-26.507812 0-48 21.492188-48 48s21.492188 48 48 48 48-21.492188 48-48c-.027344-26.5-21.5-47.972656-48-48zm0 80c-17.671875 0-32-14.328125-32-32s14.328125-32 32-32 32 14.328125 32 32-14.328125 32-32 32zm0 0"/><path d="m240 176c13.253906 0 24-10.746094 24-24s-10.746094-24-24-24-24 10.746094-24 24 10.746094 24 24 24zm0-32c4.417969 0 8 3.582031 8 8s-3.582031 8-8 8-8-3.582031-8-8 3.582031-8 8-8zm0 0"/><path d="m320 224h.167969c13.253906-.046875 23.960937-10.828125 23.917969-24.085938-.046876-13.253906-10.832032-23.960937-24.085938-23.914062h-.160156c-13.253906.042969-23.964844 10.824219-23.917969 24.078125.042969 13.257813 10.824219 23.964844 24.078125 23.921875zm-.046875-32h.046875c4.417969-.015625 8.011719 3.554688 8.027344 7.972656.015625 4.417969-3.554688 8.011719-7.972656 8.027344h-.054688c-4.417969.015625-8.011719-3.554688-8.027344-7.972656-.015625-4.417969 3.554688-8.011719 7.972656-8.027344zm0 0"/><path d="m320 264c-13.253906 0-24 10.746094-24 24s10.746094 24 24 24 24-10.746094 24-24-10.746094-24-24-24zm0 32c-4.417969 0-8-3.582031-8-8s3.582031-8 8-8 8 3.582031 8 8-3.582031 8-8 8zm0 0"/><path d="m240 304c-13.253906 0-24 10.746094-24 24s10.746094 24 24 24 24-10.746094 24-24-10.746094-24-24-24zm0 32c-4.417969 0-8-3.582031-8-8s3.582031-8 8-8 8 3.582031 8 8-3.582031 8-8 8zm0 0"/><path d="m160 264c-13.253906 0-24 10.746094-24 24s10.746094 24 24 24 24-10.746094 24-24-10.746094-24-24-24zm0 32c-4.417969 0-8-3.582031-8-8s3.582031-8 8-8 8 3.582031 8 8-3.582031 8-8 8zm0 0"/><path d="m160 176c-13.253906 0-24 10.746094-24 24s10.746094 24 24 24 24-10.746094 24-24-10.746094-24-24-24zm0 32c-4.417969 0-8-3.582031-8-8s3.582031-8 8-8 8 3.582031 8 8-3.582031 8-8 8zm0 0"/><path d="m240 96c-79.527344 0-144 64.472656-144 144s64.472656 144 144 144 144-64.472656 144-144c-.09375-79.492188-64.507812-143.90625-144-144zm0 272c-70.691406 0-128-57.308594-128-128s57.308594-128 128-128 128 57.308594 128 128c-.082031 70.65625-57.34375 127.917969-128 128zm0 0"/><path d="m472 16h-16c-2.121094 0-4.15625.84375-5.65625 2.34375l-57.785156 57.785156c-21.335938-19.859375-46.335938-35.375-73.597656-45.6875-3.441407-17.433594-15.96875-30.441406-30.960938-30.441406-5.757812.09375-11.335938 2.023438-15.921875 5.503906-9.433594-7.320312-22.621094-7.339844-32.078125-.046875-9.425781-7.273437-22.574219-7.273437-32 0-4.621094-3.46875-10.222656-5.378906-16-5.457031-15.289062 0-27.671875 12.800781-31.023438 30.457031-27.238281 10.316407-52.214843 25.828125-73.535156 45.671875l-57.785156-57.785156c-1.5-1.5-3.535156-2.34375-5.65625-2.34375h-16c-4.417969 0-8 3.582031-8 8v432c0 4.417969 3.582031 8 8 8h16c2.121094 0 4.15625-.84375 5.65625-2.34375l57.785156-57.785156c21.320313 19.84375 46.296875 35.355468 73.535156 45.671875 3.351563 17.65625 15.734376 30.457031 31.023438 30.457031 5.777344-.078125 11.378906-1.988281 16-5.457031 9.425781 7.273437 22.574219 7.273437 32 0 9.457031 7.292969 22.644531 7.273437 32.078125-.046875 4.585937 3.480468 10.164063 5.410156 15.921875 5.503906 14.992188 0 27.519531-13.007812 30.976562-30.398438 27.261719-10.316406 52.261719-25.832031 73.597657-45.691406l57.785156 57.785156c1.503906 1.484376 3.53125 2.3125 5.640625 2.304688h16c4.417969 0 8-3.582031 8-8v-432c0-4.417969-3.582031-8-8-8zm-184 0c8.671875 0 16 10.992188 16 24s-7.328125 24-16 24-16-10.992188-16-24 7.328125-24 16-24zm-32 0c1.941406.03125 3.835938.585938 5.488281 1.601562-3.660156 6.894532-5.546875 14.59375-5.488281 22.398438-.058594 7.804688 1.828125 15.503906 5.488281 22.398438-1.652343 1.015624-3.546875 1.570312-5.488281 1.601562-3.890625-.269531-7.480469-2.195312-9.855469-5.289062-4.132812-5.347657-6.300781-11.953126-6.144531-18.710938-.15625-6.746094 2.003906-13.34375 6.121094-18.6875 2.375-3.109375 5.976562-5.046875 9.878906-5.3125zm-32 0c1.941406.03125 3.835938.585938 5.488281 1.601562-7.316406 14.019532-7.316406 30.730469 0 44.75-1.648437 1.03125-3.542969 1.601563-5.488281 1.648438-3.890625-.269531-7.480469-2.195312-9.855469-5.289062-4.132812-5.347657-6.300781-11.953126-6.144531-18.710938-.15625-6.746094 2.003906-13.34375 6.121094-18.6875 2.375-3.109375 5.976562-5.046875 9.878906-5.3125zm-32 0c1.941406.03125 3.835938.585938 5.488281 1.601562-7.316406 14.019532-7.316406 30.730469 0 44.75-1.648437 1.03125-3.542969 1.601563-5.488281 1.648438-8.671875 0-16-10.992188-16-24s7.328125-24 16-24zm-171.3125 432h-4.6875v-416h4.6875l72.425781 72.425781c-70.820312 76.511719-70.820312 194.636719 0 271.148438zm155.3125-8c0-13.007812 7.328125-24 16-24 1.941406.03125 3.835938.585938 5.488281 1.601562-7.316406 14.019532-7.316406 30.730469 0 44.75-1.648437 1.03125-3.542969 1.601563-5.488281 1.648438-8.671875 0-16-10.992188-16-24zm38.144531 18.710938c-8.175781-11.125-8.175781-26.273438 0-37.398438 2.371094-3.105469 5.960938-5.039062 9.855469-5.3125 1.941406.03125 3.835938.585938 5.488281 1.601562-7.316406 14.019532-7.316406 30.730469 0 44.75-1.648437 1.03125-3.542969 1.601563-5.488281 1.648438-3.890625-.269531-7.480469-2.195312-9.855469-5.289062zm32 0c-8.175781-11.125-8.175781-26.273438 0-37.398438 2.371094-3.105469 5.960938-5.039062 9.855469-5.3125 1.941406.03125 3.835938.585938 5.488281 1.601562-7.316406 14.019532-7.316406 30.730469 0 44.75-1.648437 1.03125-3.542969 1.601563-5.488281 1.648438-3.890625-.269531-7.480469-2.195312-9.855469-5.289062zm41.855469 5.289062c-8.671875 0-16-10.992188-16-24s7.328125-24 16-24 16 10.992188 16 24-7.328125 24-16 24zm31.375-31.71875c-2.886719-18.371094-15.847656-32.28125-31.375-32.28125-5.757812.09375-11.335938 2.023438-15.921875 5.503906-9.433594-7.320312-22.621094-7.339844-32.078125-.046875-9.425781-7.273437-22.574219-7.273437-32 0-4.621094-3.46875-10.222656-5.378906-16-5.457031-15.816406 0-28.585938 13.671875-31.390625 32.273438-22.800781-9.484376-43.746094-22.929688-61.855469-39.714844l11.199219-11.199219c1.5-1.5 2.34375-3.535156 2.34375-5.660156 0-2.121094-.84375-4.160157-2.34375-5.660157-34.539063-34.445312-53.953125-81.21875-53.953125-130 0-48.777343 19.414062-95.554687 53.953125-130 1.5-1.5 2.34375-3.535156 2.34375-5.660156 0-2.121094-.84375-4.160156-2.34375-5.660156l-11.199219-11.199219c18.109375-16.785156 39.054688-30.230469 61.855469-39.710937 2.804687 18.519531 15.574219 32.191406 31.390625 32.191406 5.777344-.078125 11.378906-1.988281 16-5.457031 9.425781 7.273437 22.574219 7.273437 32 0 9.457031 7.292969 22.644531 7.273437 32.078125-.046875 4.585937 3.480468 10.164063 5.410156 15.921875 5.503906 15.527344 0 28.488281-13.910156 31.375-32.28125 22.804688 9.488281 43.753906 22.933594 61.871094 39.722656l-11.199219 11.199219c-1.5 1.5-2.34375 3.535156-2.34375 5.660156 0 2.121094.84375 4.160157 2.34375 5.660157 34.539063 34.445312 53.953125 81.21875 53.953125 130 0 48.777343-19.414062 95.554687-53.953125 130-1.5 1.5-2.34375 3.535156-2.34375 5.660156 0 2.121094.84375 4.160156 2.34375 5.660156l11.199219 11.199219c-18.113282 16.8125-39.058594 30.289062-61.871094 39.800781zm144.625 15.71875h-4.6875l-72.425781-72.425781c70.820312-76.511719 70.820312-194.636719 0-271.148438l72.425781-72.425781h4.6875zm0 0"/></svg>