<svg height="480pt" viewBox="0 -31 480 479" width="480pt" xmlns="http://www.w3.org/2000/svg"><path d="m472 128.5v192h-16c-8.824219-.027344-15.972656-7.175781-16-16v-160c.027344-8.824219 7.175781-15.972656 16-16zm0 0" fill="#ffe477"/><path d="m416 8.5 32 48h-288l32-48zm0 0" fill="#ffe477"/><path d="m440 208.5v32h-32v-32zm0 0" fill="#57a4ff"/><path d="m408 240.5v96h-120.800781l-10.558594 31.679688-13.441406 40.320312h-175.199219c-8.824219-.027344-15.972656-7.175781-16-16v-200h112.800781l11.597657-32 20.402343-56h175.199219c8.824219.027344 15.972656 7.175781 16 16zm-120 48 80-96h-48l16-32h-40l-24 56h40zm0 0" fill="#d8d7da"/><path d="m392 336.5-16 32h-98.398438l-.960937-.320312 10.558594-31.679688zm0 0" fill="#57a4ff"/><path d="m368 192.5-80 96 24-72h-40l24-56h40l-16 32zm0 0" fill="#ffe477"/><path d="m288 56.5h40v48h-40zm0 0" fill="#57a4ff"/><path d="m196.398438 160.5-11.597657 32h-96.800781l24-32zm0 0" fill="#57a4ff"/><path d="m40 288.5h32v32h-32zm0 0" fill="#898890"/><path d="m40 320.5v64c-.027344 8.824219-7.175781 15.972656-16 16h-16v-192h16c8.824219.027344 15.972656 7.175781 16 16zm0 0" fill="#ffe477"/><path d="m472 120.5h-16c-13.253906 0-24 10.746094-24 24v56h-16v-80c0-13.253906-10.746094-24-24-24h-56v-32h112c2.949219 0 5.664062-1.625 7.054688-4.226562 1.390624-2.601563 1.238281-5.757813-.398438-8.214844l-32-48c-1.484375-2.222656-3.980469-3.558594-6.65625-3.558594h-224c-2.675781 0-5.171875 1.335938-6.65625 3.558594l-32 48c-1.636719 2.457031-1.789062 5.613281-.398438 8.214844 1.390626 2.601562 4.105469 4.226562 7.054688 4.226562h120v32h-63.199219c-3.363281 0-6.371093 2.101562-7.519531 5.265625l-18.480469 50.734375h-78.800781c-2.519531 0-4.890625 1.1875-6.398438 3.199219l-21.601562 28.800781h-12c-4.417969 0-8 3.582031-8 8v88h-16v-56c0-13.253906-10.746094-24-24-24h-16c-4.417969 0-8 3.582031-8 8v192c0 4.417969 3.582031 8 8 8h16c13.253906 0 24-10.746094 24-24v-56h16v64c0 13.253906 10.746094 24 24 24h175.199219c3.445312 0 6.503906-2.203125 7.59375-5.472656l11.542969-34.527344h93.664062c3.046875.015625 5.839844-1.699219 7.199219-4.425781l13.746093-27.574219h11.054688c4.417969 0 8-3.582031 8-8v-88h16v56c0 13.253906 10.746094 24 24 24h16c4.417969 0 8-3.582031 8-8v-192c0-4.417969-3.582031-8-8-8zm-440 264c0 4.417969-3.582031 8-8 8h-8v-176h8c4.417969 0 8 3.582031 8 8zm16-72v-16h16v16zm148.28125-296h215.4375l21.335938 32h-258.109376zm99.71875 48h24v32h-24zm-180 104h68.984375l-5.785156 16h-75.199219zm255.054688 192h-83.390626l5.335938-16h86.054688zm28.945312-32h-112.800781c-3.441407.003906-6.496094 2.207031-7.582031 5.472656l-22.144532 66.527344h-169.472656c-4.417969 0-8-3.582031-8-8v-192h104.800781c3.359375-.003906 6.363281-2.105469 7.511719-5.265625l30.085938-82.734375h169.601562c4.417969 0 8 3.582031 8 8zm32-96h-16v-16h16zm32 80h-8c-4.417969 0-8-3.582031-8-8v-160c0-4.417969 3.582031-8 8-8h8zm0 0"/><path d="m368 184.5h-35.054688l10.253907-20.425781c1.242187-2.484375 1.105469-5.4375-.363281-7.800781-1.46875-2.359376-4.054688-3.789063-6.835938-3.773438h-40c-3.199219 0-6.089844 1.90625-7.351562 4.847656l-24 56c-1.058594 2.472656-.808594 5.308594.671874 7.554688 1.480469 2.246094 3.992188 3.597656 6.679688 3.597656h28.894531l-20.480469 61.472656c-1.210937 3.648438.339844 7.644532 3.699219 9.515625 3.363281 1.871094 7.578125 1.085938 10.039063-1.867187l80-96c1.988281-2.386719 2.414062-5.707032 1.097656-8.515625-1.320312-2.8125-4.144531-4.605469-7.25-4.605469zm-59 66.3125 10.585938-31.785156c.808593-2.4375.402343-5.117188-1.101563-7.203125-1.5-2.085938-3.914063-3.324219-6.484375-3.324219h-27.863281l17.136719-40h21.78125l-10.214844 20.425781c-1.238282 2.480469-1.105469 5.425781.351562 7.78125 1.460938 2.359375 4.035156 3.792969 6.808594 3.792969h30.921875zm0 0"/><path d="m112 232.5h16v16h-16zm0 0"/><path d="m144 232.5h48v16h-48zm0 0"/><path d="m208 232.5h16v16h-16zm0 0"/><path d="m112 272.5h16v16h-16zm0 0"/><path d="m144 272.5h48v16h-48zm0 0"/><path d="m208 272.5h16v16h-16zm0 0"/><path d="m112 312.5h16v16h-16zm0 0"/><path d="m144 312.5h48v16h-48zm0 0"/><path d="m208 312.5h16v16h-16zm0 0"/><path d="m112 352.5h16v16h-16zm0 0"/><path d="m144 352.5h48v16h-48zm0 0"/><path d="m208 352.5h16v16h-16zm0 0"/></svg>