<svg height="480pt" viewBox="-4 0 480 480" width="480pt" xmlns="http://www.w3.org/2000/svg"><path d="m436.210938 16.160156c12.875 7.410156 22.269531 19.640625 26.113281 33.988282 3.84375 14.351562 1.816406 29.640624-5.632813 42.492187l-12.640625 21.917969-97.917969-54.398438 13.597657-23.519531c7.421875-12.867187 19.648437-22.253906 33.996093-26.097656 14.347657-3.839844 29.628907-1.820313 42.484376 5.617187zm0 0" fill="#c0ab91"/><path d="m444.050781 114.558594-31.359375 54.320312-34.640625-20 8-13.839844c3.15625-4.957031 3.335938-11.25.46875-16.378906-2.863281-5.132812-8.308593-8.28125-14.1875-8.203125-5.875.082031-11.234375 3.375-13.960937 8.582031l-8 13.839844-34.640625-20 30.402343-52.71875zm0 0" fill="#d8d7da"/><path d="m428.210938 440v32h-384v-32zm0 0" fill="#57a4ff"/><path d="m427.011719 182.558594c1.179687 4.09375.628906 8.488281-1.519531 12.160156-4.441407 7.617188-14.191407 10.222656-21.839844 5.839844l-41.601563-24 16-27.679688 34.640625 20 6.960938 4c3.679687 2.078125 6.34375 5.578125 7.359375 9.679688zm0 0" fill="#57a4ff"/><path d="m380.210938 113.121094c7.652343 4.449218 10.261718 14.25 5.839843 21.917968l-24 41.519532-28.71875 49.761718-30.640625-10.878906 31.679688-54.882812 24-41.519532c2.09375-3.703124 5.578125-6.410156 9.683594-7.523437 4.105468-1.113281 8.484374-.535156 12.15625 1.605469zm0 0" fill="#c0ab91"/><path d="m372.210938 400v40h-96v-72c0-22.089844-17.90625-40-40-40-22.089844 0-40 17.910156-40 40v72h-96v-40h48v-32h-48v-40h48v-32h-48v-56l38.882812-13.679688 30.636719-10.878906 10.480469-3.679687v84.238281h112v-84.238281l10.480468 3.679687 30.640625 10.878906 38.878907 13.679688v56h-48v32h48v40h-48v32zm0 0" fill="#d8d7da"/><path d="m324.210938 368h48v32h-48zm0 0" fill="#898890"/><path d="m324.210938 296h48v32h-48zm0 0" fill="#898890"/><path d="m350.371094 132.878906-16 27.679688-41.597656-24c-.207032-.105469-.394532-.238282-.5625-.398438v-26.878906c5.015624-3.203125 11.398437-3.359375 16.5625-.402344l6.957031 4zm0 0" fill="#57a4ff"/><path d="m292.210938 136.160156v39.839844h-32v-48h32zm0 0" fill="#898890"/><path d="m292.210938 211.761719v84.238281h-32v-80h-48v80h-32v-120h32v-48h-32v-64c0-30.929688 25.074218-56 56-56 30.929687 0 56 25.070312 56 56v64h-32v48h32zm-32-147.761719c0-13.253906-10.742188-24-24-24-13.253907 0-24 10.746094-24 24s10.746093 24 24 24c13.257812 0 24-10.746094 24-24zm0 0" fill="#57a4ff"/><path d="m276.210938 384v56h-80v-56h24c0 8.835938 7.164062 16 16 16 8.835937 0 16-7.164062 16-16zm0 0" fill="#c0ab91"/><path d="m276.210938 368v16h-24c0-8.835938-7.164063-16-16-16-8.835938 0-16 7.164062-16 16h-24v-16c0-22.089844 17.910156-40 40-40 22.09375 0 40 17.910156 40 40zm0 0" fill="#c0ab91"/><path d="m212.210938 216h48v80h-48zm0 0" fill="#ffe477"/><path d="m260.210938 64c0 13.253906-10.742188 24-24 24-13.253907 0-24-10.746094-24-24s10.746093-24 24-24c13.257812 0 24 10.746094 24 24zm0 0" fill="#ffe477"/><path d="m252.210938 384c0 8.835938-7.164063 16-16 16-8.835938 0-16-7.164062-16-16s7.164062-16 16-16c8.835937 0 16 7.164062 16 16zm0 0" fill="#57a4ff"/><path d="m212.210938 128v48h-32v-48zm0 0" fill="#898890"/><path d="m180.210938 128v8.160156c-.164063.160156-.355469.292969-.558594.398438l-41.601563 24-16-27.679688 34.640625-20 6.960938-4c5.164062-2.957031 11.542968-2.800781 16.558594.402344zm0 0" fill="#57a4ff"/><path d="m138.050781 160.558594 31.679688 54.882812-30.636719 10.878906-28.722656-49.761718-24-41.519532c-3.152344-4.957031-3.332032-11.25-.46875-16.378906 2.867187-5.132812 8.3125-8.28125 14.1875-8.203125 5.878906.082031 11.238281 3.375 13.960937 8.582031zm0 0" fill="#c0ab91"/><path d="m126.292969 60.160156 30.398437 52.71875-34.640625 20-8-13.839844c-2.722656-5.207031-8.082031-8.5-13.960937-8.582031-5.875-.078125-11.320313 3.070313-14.1875 8.203125-2.863282 5.128906-2.683594 11.421875.46875 16.378906l8 13.839844-34.640625 20-31.359375-54.320312zm0 0" fill="#d8d7da"/><path d="m100.210938 368h48v32h-48zm0 0" fill="#898890"/><path d="m100.210938 296h48v32h-48zm0 0" fill="#898890"/><path d="m126.292969 60.160156-97.921875 54.398438-12.640625-21.917969c-10.566407-17.351563-10.90625-39.066406-.886719-56.742187 10.019531-17.675782 28.828125-28.535157 49.144531-28.382813 20.316407.15625 38.953125 11.300781 48.703125 29.125zm0 0" fill="#c0ab91"/><path d="m94.371094 148.878906 16 27.679688-41.597656 24c-7.648438 4.382812-17.402344 1.777344-21.839844-5.839844-2.152344-3.671875-2.699219-8.066406-1.519532-12.160156 1.015626-4.101563 3.679688-7.601563 7.359376-9.679688l6.957031-4zm0 0" fill="#57a4ff"/><path d="m236.210938 96c17.675781 0 32-14.328125 32-32s-14.324219-32-32-32c-17.671876 0-32 14.328125-32 32s14.328124 32 32 32zm0-48c8.835937 0 16 7.164062 16 16s-7.164063 16-16 16c-8.835938 0-16-7.164062-16-16s7.164062-16 16-16zm0 0"/><path d="m236.210938 360c-13.253907 0-24 10.746094-24 24s10.746093 24 24 24c13.257812 0 24-10.746094 24-24s-10.742188-24-24-24zm0 32c-4.417969 0-8-3.582031-8-8s3.582031-8 8-8c4.417968 0 8 3.582031 8 8s-3.582032 8-8 8zm0 0"/><path d="m463.636719 96.65625c11.613281-19.8125 11.722656-44.328125.285156-64.246094-11.441406-19.914062-32.671875-32.171875-55.636719-32.121094-22.96875.050782-44.144531 12.402344-55.496094 32.367188l-9.648437 16.703125-15.039063-8.351563-7.777343 13.984376 14.816406 8.207031-22.398437 38.730469c-3.8125-2.203126-8.15625-3.308594-12.554688-3.203126v-34.726562c0-35.347656-28.652344-64-64-64-35.34375 0-64 28.652344-64 64v34.761719c-4.394531-.113281-8.738281.992187-12.542969 3.199219l-22.359375-38.761719 14.816406-8.230469-7.777343-13.984375-15.039063 8.375-9.648437-16.703125c-11.351563-19.964844-32.53125-32.316406-55.496094-32.367188-22.964844-.050781-44.199219 12.207032-55.636719 32.121094-11.4375 19.917969-11.332031 44.433594.285156 64.246094l8.589844 14.878906-17.054687 9.472656 7.777343 13.984376 17.277344-9.601563 23.410156 40.546875c-11.445312 6.660156-15.375 21.304688-8.800781 32.796875 3.1875 5.523437 8.453125 9.535156 14.625 11.144531 2.046875.542969 4.160157.8125 6.277344.800782 4.191406.003906 8.304687-1.101563 11.929687-3.199219l34.648438-20 19.886719 34.441406-29.773438 10.511719c-3.21875 1.121094-5.375 4.15625-5.371093 7.566406v192h-48c-4.417969 0-8 3.582031-8 8v32c0 4.417969 3.582031 8 8 8h384c4.417968 0 8-3.582031 8-8v-32c0-4.417969-3.582032-8-8-8h-48v-192c0-3.390625-2.136719-6.414062-5.335938-7.542969l-29.773438-10.511719 19.886719-34.402343 34.648438 20c3.625 2.097656 7.738281 3.203125 11.925781 3.199219 2.121094.011718 4.234375-.257813 6.28125-.796876 6.164062-1.632812 11.414062-5.667968 14.578125-11.203124 6.578125-11.492188 2.648437-26.140626-8.800781-32.796876l23.40625-40.546874 17.28125 9.601562 7.777344-13.984375-17.058594-9.472656zm-96.992188-56c13.34375-22.761719 42.558594-30.488281 65.410157-17.292969 22.847656 13.191407 30.765624 42.355469 17.726562 65.292969l-8.730469 15.105469-83.917969-46.625zm-61.855469 75.199219 34.65625 20-8 13.832031-31.234374-18.054688v-16.800781c1.589843-.136719 3.183593.207031 4.578124.984375zm-20.578124 52.144531h-16v-32h16zm16-17.910156 23.242187 13.40625-23.242187 40.238281zm-64-134.089844c26.511718 0 48 21.492188 48 48v56h-24c-4.417969 0-8 3.582031-8 8v48c0 4.417969 3.582031 8 8 8h24v104h-16v-72c0-4.417969-3.582032-8-8-8h-48c-4.417969 0-8 3.582031-8 8v72h-16v-104h24c4.417968 0 8-3.582031 8-8v-48c0-4.417969-3.582032-8-8-8h-24v-56c.027343-26.5 21.503906-47.972656 48-48zm16 272h-32v-64h32zm-64-152h16v32h-16zm-16 67.734375-23.246094-40.238281 23.246094-13.425782zm0-88.894531v16.800781l-31.246094 18.023437-8-13.832031 34.664062-20c1.390625-.789062 2.988282-1.136719 4.582032-.992187zm-149.597657-26.183594c-8.710937-14.859375-8.792969-33.246094-.214843-48.183594 8.578124-14.9375 24.503906-24.128906 41.726562-24.09375 17.226562.039063 33.109375 9.304688 41.625 24.277344l9.511719 16.480469-83.847657 46.625zm100.648438-17.664062 22.496093 38.960937-20.800781 12-4-6.875c-4.273437-7.472656-12.214843-12.09375-20.824219-12.117187-4.203124.007812-8.324218 1.128906-11.953124 3.246093-11.382813 6.710938-15.273438 21.316407-8.734376 32.800781l4 6.894532-20.800781 12-23.230469-40.300782zm-58.472657 122.65625c-3.828124 2.207031-8.71875.898437-10.929687-2.929688-1.082031-1.863281-1.34375-4.09375-.726563-6.160156.507813-2.03125 1.828126-3.769532 3.65625-4.796875l34.640626-20 8 13.855469zm28.527344-62.585938c-1.6875-2.476562-1.847656-5.6875-.414062-8.320312 1.429687-2.632813 4.214844-4.246094 7.207031-4.175782 2.996094.066406 5.703125 1.804688 7.015625 4.496094l50.871094 88.082031-15.320313 5.40625zm14.894532 172.9375h32v16h-32zm0 72h32v16h-32zm312 88h-368v-16h368zm-152-32h-64v-64c0-17.671875 14.328124-32 32-32 17.675781 0 32 14.328125 32 32zm96-40h-32v-16h32zm0-72h-32v-16h32zm0-32h-40c-4.417969 0-8 3.582031-8 8v32c0 4.417969 3.582031 8 8 8h40v24h-40c-4.417969 0-8 3.582031-8 8v32c0 4.417969 3.582031 8 8 8h40v24h-80v-64c0-26.507812-21.488282-48-48-48-26.507813 0-48 21.492188-48 48v64h-80v-24h40c4.417968 0 8-3.582031 8-8v-32c0-4.417969-3.582032-8-8-8h-40v-24h40c4.417968 0 8-3.582031 8-8v-32c0-4.417969-3.582032-8-8-8h-40v-42.335938l64-22.59375v72.929688c0 4.417969 3.582031 8 8 8h112c4.417968 0 8-3.582031 8-8v-72.929688l64 22.59375zm-49.78125-76.878906 50.894531-88.121094c1.300781-2.710938 4.011719-4.464844 7.019531-4.539062 3.007812-.070313 5.800781 1.546874 7.230469 4.191406 1.429687 2.648437 1.257812 5.871094-.449219 8.347656l-49.375 85.527344zm104.132812-20.402344c-2.207031 3.828125-7.101562 5.136719-10.925781 2.929688l-34.640625-20 8-13.855469 34.640625 20c1.871093 1.070312 3.214843 2.867187 3.710937 4.96875.558594 2.007812.273438 4.160156-.785156 5.957031zm-8.796875-32.796875-20.800781-12 4-6.921875c6.527344-11.5 2.605468-26.113281-8.800782-32.800781-3.625-2.113281-7.742187-3.230469-11.9375-3.238281-8.59375.015624-16.53125 4.617187-20.8125 12.070312l-4 6.921875-20.800781-12 22.496094-38.960937 83.941406 46.609374zm0 0"/></svg>