<svg height="480pt" viewBox="0 0 480.144 480" width="480pt" xmlns="http://www.w3.org/2000/svg"><path d="m472.160156 192.472656-88.160156 95.597656-112-136 20.71875-20.71875 22.5625-22.558593 20.71875-20.722657zm0 0" fill="#57a4ff"/><path d="m292.71875 86.152344 22.5625 22.640625-22.5625 22.558593-22.640625-22.558593c-3.007813-3.019531-7.09375-4.71875-11.359375-4.722657h-82.71875v-32h82.71875c12.765625-.050781 25.011719 5.019532 34 14.082032zm0 0" fill="#898890"/><path d="m240 184.070312v272c-.027344 8.828126-7.175781 15.976563-16 16h-144c-8.824219-.023437-15.972656-7.171874-16-16v-272c0-17.671874 14.328125-32 32-32h112c17.671875 0 32 14.328126 32 32zm-32 256v-64h-112v64zm-8-144c.023438-.855468-.03125-1.710937-.160156-2.558593-1.359375-26.71875-23.839844-77.441407-23.839844-77.441407s-6.238281 3.921876-15.039062 10.160157c-10.085938-12.929688-18.476563-27.097657-24.960938-42.160157 0 0-32 85.523438-32 112 0 25.53125 20.023438 46.574219 45.519531 47.839844.800781.082032 1.679688.160156 2.480469.160156s1.679688-.078124 2.480469-.160156c25.496093-1.269531 45.515625-22.308594 45.519531-47.839844zm0 0" fill="#ff6243"/><path d="m96 376.070312h112v64h-112zm0 0" fill="#00b6bd"/><path d="m200 152.070312h-96c.003906-14.679687 9.996094-27.476562 24.238281-31.039062 2.539063-.644531 5.144531-.964844 7.761719-.960938h32c2.617188-.003906 5.222656.316407 7.761719.960938 14.242187 3.5625 24.234375 16.359375 24.238281 31.039062zm0 0" fill="#898890"/><path d="m199.839844 293.511719c.128906.847656.183594 1.703125.160156 2.558593-.003906 25.53125-20.023438 46.570313-45.519531 47.839844 12.238281-1.226562 21.546875-11.539062 21.519531-23.839844-1.304688-13.566406-3.984375-26.96875-8-40 0 0-6 4-13.359375 9.683594-7.085937-7.894531-13.332031-16.5-18.640625-25.683594-3.625 18.519532-6.292969 37.210938-8 56-.027344 12.300782 9.28125 22.613282 21.519531 23.839844-25.496093-1.265625-45.519531-22.308594-45.519531-47.839844 0-26.476562 32-112 32-112 6.484375 15.0625 14.875 29.230469 24.960938 42.160157 8.800781-6.238281 15.039062-10.160157 15.039062-10.160157s22.480469 50.722657 23.839844 77.441407zm0 0" fill="#d80027"/><path d="m176 104.070312v16l-.238281.960938c-2.539063-.644531-5.144531-.964844-7.761719-.960938h-32c-2.617188-.003906-5.222656.316407-7.761719.960938l-.238281-.960938v-112h16c17.671875 0 32 14.328126 32 32zm0 0" fill="#d8d7da"/><path d="m168 280.070312c4.015625 13.03125 6.695312 26.433594 8 40 .027344 12.300782-9.28125 22.613282-21.519531 23.839844-.800781.082032-1.679688.160156-2.480469.160156s-1.679688-.078124-2.480469-.160156c-12.238281-1.226562-21.546875-11.539062-21.519531-23.839844 1.707031-18.789062 4.375-37.480468 8-56 5.308594 9.183594 11.554688 17.789063 18.640625 25.683594 7.359375-5.683594 13.359375-9.683594 13.359375-9.683594zm0 0" fill="#ffe477"/><path d="m128 72.070312v32h-96c-.011719-8.488281 3.355469-16.632812 9.359375-22.636718s14.152344-9.371094 22.640625-9.363282zm0 0" fill="#898890"/><path d="m128 8.070312v32h-88c-8.488281.011719-16.636719-3.355468-22.640625-9.359374-6.003906-6.003907-9.371094-14.148438-9.359375-22.640626zm0 0" fill="#d8d7da"/><path d="m477.007812 186.105469-136.144531-104.386719c-3.183593-2.4375-7.683593-2.140625-10.519531.695312l-15.046875 15.050782-16.898437-16.96875c-10.5-10.558594-24.789063-16.472656-39.679688-16.425782h-74.71875v-24c-.027344-22.078124-17.917969-39.9726558-40-39.9999995h-136c-4.417969 0-8 3.5820315-8 7.9999995-.0117188 10.613282 4.199219 20.792969 11.703125 28.296876 7.503906 7.503906 17.683594 11.714843 28.296875 11.703124h80v16h-56c-10.613281-.007812-20.792969 4.203126-28.296875 11.707032s-11.714844 17.683594-11.703125 28.292968c0 4.421876 3.582031 8 8 8h88v3.394532c-11.914062 5.210937-20.5625 15.875-23.199219 28.605468h-.800781c-22.082031.027344-39.972656 17.921876-40 40v272c0 13.257813 10.746094 24 24 24h144c13.253906 0 24-10.742187 24-24v-272c-.027344-22.078124-17.917969-39.972656-40-40h-.800781c-2.636719-12.730468-11.285157-23.394531-23.199219-28.605468v-3.394532h74.71875c2.148438.003907 4.207031.867188 5.714844 2.402344l16.964844 16.902344-15.054688 15.058594c-2.914062 2.910156-3.140625 7.5625-.519531 10.742187l112 136c1.472656 1.78125 3.640625 2.839844 5.953125 2.914063h.222656c2.234375-.003906 4.367188-.9375 5.878906-2.578125l88.144532-95.632813c1.527343-1.652344 2.285156-3.871094 2.089843-6.109375-.191406-2.242187-1.320312-4.296875-3.105469-5.664062zm-437.007812-154.035157c-6.347656 0-12.4375-2.507812-16.945312-6.972656-2.53125-2.554687-4.46875-5.636718-5.679688-9.027344h102.625v16zm1.367188 64c3.371093-9.605468 12.453124-16.023437 22.632812-16h56v16zm190.632812 88v272c0 4.421876-3.582031 8-8 8h-144c-4.417969 0-8-3.578124-8-8v-272c0-13.253906 10.746094-24 24-24h112c13.253906 0 24 10.746094 24 24zm-41.472656-40h-77.054688c3.378906-9.554687 12.394532-15.957031 22.527344-16h32c10.132812.042969 19.148438 6.445313 22.527344 16zm-54.527344-32v-96h8c13.253906 0 24 10.746094 24 24v72zm139.734375-8.933593c-4.5-4.535157-10.625-7.078125-17.015625-7.066407h-74.71875v-16h74.71875c10.632812-.03125 20.832031 4.191407 28.328125 11.730469l16.953125 16.984375-11.289062 11.285156zm108.601563 172.800781-101.542969-123.34375 53.902343-53.90625 123.625 94.785156zm0 0"/><path d="m96 368.070312c-4.417969 0-8 3.582032-8 8v64c0 4.421876 3.582031 8 8 8h112c4.417969 0 8-3.578124 8-8v-64c0-4.417968-3.582031-8-8-8zm104 64h-96v-48h96zm0 0"/><path d="m152 352.070312c30.914062-.035156 55.964844-25.085937 56-56 .015625-1.132812-.046875-2.269531-.191406-3.398437-1.601563-28-23.5625-77.726563-24.496094-79.839844-.941406-2.121093-2.757812-3.730469-4.976562-4.410156s-4.625-.359375-6.59375.875c0 0-3.605469 2.269531-9.222657 6.09375-7.46875-10.863281-13.894531-22.40625-19.199219-34.480469-1.289062-3.003906-4.273437-4.921875-7.542968-4.84375-3.269532.074219-6.160156 2.132813-7.304688 5.199219-1.273437 3.550781-32.472656 87.199219-32.472656 114.804687.035156 30.914063 25.085938 55.964844 56 56zm-16-32c.800781-11.6875 2.277344-23.320312 4.417969-34.839843 2.625 3.558593 5.480469 6.941406 8.542969 10.128906 2.84375 2.894531 7.402343 3.199219 10.605468.710937 1.296875-1 2.554688-1.949218 3.738282-2.839843 2.460937 8.769531 4.035156 17.761719 4.695312 26.839843 0 8.839844-7.164062 16-16 16s-16-7.160156-16-16zm1.097656-115.511718c4.953125 9.625 10.953125 18.671875 17.886719 26.984375 2.710937 3.042969 7.273437 3.566406 10.601563 1.210937 2.503906-1.777344 4.796874-3.355468 6.789062-4.707031 6.289062 15.351563 18.527344 47.304687 19.472656 65.863281 0 .304688.074219.722656.121094 1.019532.042969.378906.050781.761718.03125 1.140624-.023438 8.578126-2.828125 16.917969-8 23.761719-1.273438-14.273437-4.066406-28.367187-8.328125-42.046875-.726563-2.4375-2.566406-4.382812-4.957031-5.242187-2.394532-.859375-5.050782-.535157-7.164063.882812-.175781.125-3.292969 2.214844-7.765625 5.496094-4.695312-5.972656-8.972656-12.265625-12.800781-18.824219-1.664063-2.914062-4.972656-4.476562-8.277344-3.917968-3.308593.558593-5.914062 3.125-6.53125 6.421874-3.726562 18.921876-6.453125 38.027344-8.175781 57.238282-5.179688-6.839844-7.992188-15.1875-8-23.769532 0-16.550781 14.785156-62.183593 25.097656-91.511718zm0 0"/></svg>