<svg height="480pt" viewBox="0 0 480 480" width="480pt" xmlns="http://www.w3.org/2000/svg"><path d="m94.558594 156.078125c-14.808594 25.488281-22.59375 54.445313-22.558594 83.921875-.179688 29.558594 7.140625 58.679688 21.28125 84.640625 7.15625 13.011719 16.15625 24.921875 26.71875 35.359375l46.480469-46.480469c-33.285157-33.273437-40.078125-84.753906-16.558594-125.519531 28.71875-49.75 92.328125-66.796875 142.078125-38.078125s66.796875 92.328125 38.078125 142.078125c-4.550781 7.871094-10.117187 15.105469-16.558594 21.519531l46.480469 46.480469c10.5625-10.4375 19.5625-22.347656 26.71875-35.359375 14.140625-25.960937 21.460938-55.082031 21.28125-84.640625-.078125-75.988281-51.148438-142.460938-124.550781-162.113281-73.402344-19.652344-150.855469 12.410156-188.890625 78.191406zm145.441406-148.078125c128.128906 0 232 103.871094 232 232s-103.871094 232-232 232-232-103.871094-232-232 103.871094-232 232-232zm56 432v-32h-16v-96h-80v96h-16v32zm-56-160c13.253906 0 24-10.746094 24-24 0-13.28125-24-88-24-88s-24 74.71875-24 88c0 13.253906 10.746094 24 24 24zm0 0" fill="#d8d7da"/><g fill="#57a4ff"><path d="m408 240h-64c.007812-18.253906-4.792969-36.191406-13.921875-52l55.363281-31.921875c14.808594 25.488281 22.59375 54.445313 22.558594 83.921875zm0 0"/><path d="m344 240h64c.179688 29.558594-7.140625 58.679688-21.28125 84.640625l-1.199219-.640625-55.441406-32c9.128906-15.808594 13.929687-33.746094 13.921875-52zm0 0"/><path d="m385.519531 324 1.199219.640625c-7.15625 13.011719-16.15625 24.921875-26.71875 35.359375l-46.480469-46.480469c6.441407-6.414062 12.007813-13.648437 16.558594-21.519531zm0 0"/><path d="m385.441406 156.078125-55.363281 31.921875c-9.15625-15.796875-22.28125-28.921875-38.078125-38.078125l31.921875-55.363281c25.550781 14.753906 46.765625 35.96875 61.519531 61.519531zm0 0"/><path d="m323.921875 94.558594-31.921875 55.363281c-15.808594-9.128906-33.746094-13.929687-52-13.921875v-64c29.476562-.035156 58.433594 7.75 83.921875 22.558594zm0 0"/></g><path d="m296 408v32h-112v-32zm0 0" fill="#009698"/><path d="m264 256c0 13.253906-10.746094 24-24 24s-24-10.746094-24-24c0-13.28125 24-88 24-88s24 74.71875 24 88zm0 0" fill="#ffe477"/><path d="m240 336c8.824219.027344 15.972656 7.175781 16 16 0 8.800781-16 32-16 32s-16-23.199219-16-32c.027344-8.824219 7.175781-15.972656 16-16zm0 0" fill="#d80027"/><path d="m240 312h-40v96h80v-96zm0 72s-16-23.199219-16-32c0-8.835938 7.164062-16 16-16s16 7.164062 16 16c0 8.800781-16 32-16 32zm0 0" fill="#00b6bd"/><path d="m240 72v64c-18.253906-.007812-36.191406 4.792969-52 13.921875l-31.921875-55.363281c25.488281-14.808594 54.445313-22.59375 83.921875-22.558594zm0 0" fill="#57a4ff"/><path d="m156.078125 94.558594 31.921875 55.363281c-15.796875 9.15625-28.921875 22.28125-38.078125 38.078125l-55.363281-31.921875c14.753906-25.550781 35.96875-46.765625 61.519531-61.519531zm0 0" fill="#57a4ff"/><path d="m166.480469 313.519531-46.480469 46.480469c-10.5625-10.4375-19.5625-22.347656-26.71875-35.359375l1.199219-.640625 55.441406-32c4.550781 7.871094 10.117187 15.105469 16.558594 21.519531zm0 0" fill="#57a4ff"/><path d="m94.558594 156.078125 55.363281 31.921875c-9.128906 15.808594-13.929687 33.746094-13.921875 52h-64c-.035156-29.476562 7.75-58.433594 22.558594-83.921875zm0 0" fill="#57a4ff"/><path d="m149.921875 292-55.441406 32-1.199219.640625c-14.140625-25.960937-21.460938-55.082031-21.28125-84.640625h64c-.007812 18.253906 4.792969 36.191406 13.921875 52zm0 0" fill="#57a4ff"/><path d="m240 0c-132.546875 0-240 107.453125-240 240s107.453125 240 240 240 240-107.453125 240-240c-.148438-132.484375-107.515625-239.851562-240-240zm0 464c-123.710938 0-224-100.289062-224-224s100.289062-224 224-224 224 100.289062 224 224c-.140625 123.652344-100.347656 223.859375-224 224zm0 0"/><path d="m272 256c0-13.808594-20.3125-77.769531-24.382812-90.449219-1.082032-3.28125-4.144532-5.5-7.601563-5.5s-6.519531 2.21875-7.601563 5.5c-4.101562 12.679688-24.414062 76.640625-24.414062 90.449219 0 17.671875 14.328125 32 32 32s32-14.328125 32-32zm-48 0c3.917969-20.734375 9.265625-41.171875 16-61.167969 6.734375 19.996094 12.082031 40.433594 16 61.167969 0 8.835938-7.164062 16-16 16s-16-7.164062-16-16zm0 0"/><path d="m296 400h-8v-88c0-4.417969-3.582031-8-8-8h-80c-4.417969 0-8 3.582031-8 8v88h-8c-4.417969 0-8 3.582031-8 8v32c0 4.417969 3.582031 8 8 8h112c4.417969 0 8-3.582031 8-8v-32c0-4.417969-3.582031-8-8-8zm-88-80h64v80h-64zm80 112h-96v-16h96zm0 0"/><path d="m240 328c-13.253906 0-24 10.746094-24 24 0 10.222656 12.175781 28.96875 17.414062 36.542969 1.496094 2.164062 3.957032 3.457031 6.585938 3.457031s5.089844-1.292969 6.585938-3.457031c5.238281-7.574219 17.414062-26.320313 17.414062-36.542969 0-13.253906-10.746094-24-24-24zm0 41.167969c-3.566406-5.257813-6.265625-11.054688-8-17.167969 0-4.417969 3.582031-8 8-8s8 3.582031 8 8c-1.742188 6.109375-4.441406 11.902344-8 17.167969zm0 0"/><path d="m240 64c-71.125.699219-134.980469 43.738281-162.316406 109.402344-27.339844 65.664062-12.894532 141.300781 36.714844 192.269531 3.125 3.113281 8.175781 3.113281 11.296874 0l46.480469-46.480469c3.125-3.125 3.125-8.1875 0-11.3125-37.503906-37.484375-37.515625-98.277344-.023437-135.777344 37.492187-37.496093 98.285156-37.496093 135.777344 0 37.492187 37.5 37.480468 98.292969-.027344 135.777344-3.121094 3.125-3.121094 8.1875 0 11.3125l46.480468 46.480469c3.125 3.113281 8.175782 3.113281 11.296876 0 49.621093-50.976563 64.058593-126.636719 36.703124-192.304687-27.359374-65.671876-91.246093-108.699219-162.382812-109.367188zm111.648438 184h48c-.847657 22.75-6.375 45.082031-16.242188 65.601562l-42.605469-24.664062c6.203125-12.824219 9.886719-26.722656 10.847657-40.9375zm-.054688-16c-1-14.195312-4.722656-28.066406-10.96875-40.855469l41.597656-24c10.347656 20.132813 16.269532 42.246094 17.371094 64.855469zm-119.59375-103.59375c-14.195312 1-28.066406 4.722656-40.855469 10.96875l-24-41.597656c20.132813-10.347656 42.246094-16.269532 64.855469-17.371094zm16-48c22.621094 1.085938 44.75 6.996094 64.894531 17.335938l-24.039062 41.601562c-12.789063-6.234375-26.660157-9.945312-40.855469-10.9375zm-119.648438 167.59375c.972657 14.21875 4.667969 28.113281 10.886719 40.9375l-42.652343 24.664062c-9.867188-20.519531-15.394532-42.851562-16.242188-65.601562zm.054688-16h-48c1.085938-22.621094 6.996094-44.75 17.335938-64.894531l41.601562 24c-6.238281 12.800781-9.953125 26.6875-10.9375 40.894531zm-8.269531 116.550781c-5.851563-6.535156-11.117188-13.570312-15.738281-21.023437l42.929687-24.800782c2.457031 3.679688 5.128906 7.210938 8 10.578126zm27.152343-171.3125-41.535156-24c12.316406-18.996093 28.503906-35.183593 47.503906-47.503906l24 41.546875c-11.792968 8.003906-21.960937 18.167969-29.96875 29.957031zm155.472657-29.941406 24-41.542969c18.996093 12.316406 35.183593 28.503906 47.503906 47.503906l-41.539063 24c-8.007812-11.792968-18.175781-21.957031-29.964843-29.960937zm57.101562 201.253906-35.199219-35.199219c2.871094-3.363281 5.542969-6.898437 8-10.574218l42.929688 24.796875c-4.621094 7.4375-9.886719 14.457031-15.730469 20.976562zm0 0"/></svg>