<svg height="480pt" viewBox="0 0 480 480" width="480pt" xmlns="http://www.w3.org/2000/svg"><path d="m472 112v188c0 28.71875-23.28125 52-52 52s-52-23.28125-52-52v-20h-24v-32h32c13.238281.039062 23.960938 10.761719 24 24v28c0 11.046875 8.953125 20 20 20s20-8.953125 20-20v-188zm0 0" fill="#ffe477"/><path d="m472 80v32h-40c-13.253906 0-24-10.746094-24-24v-40h40c13.253906 0 24 10.746094 24 24zm0 0" fill="#57a4ff"/><path d="m376 48h32v32h-32zm0 0" fill="#57a4ff"/><path d="m392 440v32h-384v-32c.027344-8.824219 7.175781-15.972656 16-16h352c8.824219.027344 15.972656 7.175781 16 16zm0 0" fill="#009698"/><path d="m344 312v112h-288v-112l32-8v-80l-32-8v-192c.027344-8.824219 7.175781-15.972656 16-16h256c8.824219.027344 15.972656 7.175781 16 16v192l-32 8v80zm-32-128v-144h-224v144zm-112 208c35.347656 0 64-28.652344 64-64 0-35.359375-64-112-64-112s-64 76.640625-64 112c0 35.347656 28.652344 64 64 64zm0 0" fill="#00b6bd"/><g fill="#ffe477"><path d="m344 280v32l-32-8v-80l32-8zm0 0"/><path d="m312 152v32h-224v-32zm0 0"/><path d="m312 40v112h-224v-112zm-32 80v-48h-64v48zm-96 0v-48h-64v48zm0 0"/></g><path d="m216 72h64v48h-64zm0 0" fill="#57a4ff"/><path d="m264 328c0 35.347656-28.652344 64-64 64s-64-28.652344-64-64c0-35.359375 64-112 64-112s64 76.640625 64 112zm-64 32c13.253906 0 24-10.746094 24-24 0-13.28125-24-56-24-56s-24 42.71875-24 56c0 13.253906 10.746094 24 24 24zm0 0" fill="#57a4ff"/><path d="m224 336c0 13.253906-10.746094 24-24 24s-24-10.746094-24-24c0-13.28125 24-56 24-56s24 42.71875 24 56zm0 0" fill="#d80027"/><path d="m120 72h64v48h-64zm0 0" fill="#57a4ff"/><path d="m88 224v80l-32 8v-96zm0 0" fill="#ffe477"/><path d="m320 184v-144c0-4.417969-3.582031-8-8-8h-224c-4.417969 0-8 3.582031-8 8v144c0 4.417969 3.582031 8 8 8h224c4.417969 0 8-3.582031 8-8zm-16-8h-208v-128h208zm0 0"/><path d="m193.855469 210.871094c-6.734375 8.074218-65.855469 79.953125-65.855469 117.128906 0 39.765625 32.234375 72 72 72s72-32.234375 72-72c0-37.175781-59.121094-109.054688-65.855469-117.128906-1.570312-1.738282-3.800781-2.726563-6.144531-2.726563s-4.574219.988281-6.144531 2.726563zm6.144531 173.128906c-30.914062-.035156-55.964844-25.085938-56-56 0-23.855469 36.089844-74.238281 56-99.3125 19.910156 25.074219 56 75.457031 56 99.3125-.035156 30.914062-25.085938 55.964844-56 56zm0 0"/><path d="m120 128h64c4.417969 0 8-3.582031 8-8v-48c0-4.417969-3.582031-8-8-8h-64c-4.417969 0-8 3.582031-8 8v48c0 4.417969 3.582031 8 8 8zm8-48h48v32h-48zm0 0"/><path d="m112 144h80v16h-80zm0 0"/><path d="m216 128h64c4.417969 0 8-3.582031 8-8v-48c0-4.417969-3.582031-8-8-8h-64c-4.417969 0-8 3.582031-8 8v48c0 4.417969 3.582031 8 8 8zm8-48h48v32h-48zm0 0"/><path d="m208 144h80v16h-80zm0 0"/><path d="m448 40h-72c-4.417969 0-8 3.582031-8 8v32c0 4.417969 3.582031 8 8 8h24c0 17.671875 14.328125 32 32 32v180c0 6.628906-5.371094 12-12 12s-12-5.371094-12-12v-28c0-17.671875-14.328125-32-32-32h-24v-216c0-13.253906-10.746094-24-24-24h-256c-13.253906 0-24 10.746094-24 24v392h-24c-13.253906 0-24 10.746094-24 24v32c0 4.417969 3.582031 8 8 8h384c4.417969 0 8-3.582031 8-8v-32c0-13.253906-10.746094-24-24-24h-24v-128h8v12c0 33.136719 26.863281 60 60 60s60-26.863281 60-60v-228c0-17.671875-14.328125-32-32-32zm-64 32v-16h16v16zm-320 154.246094 16 4v67.507812l-16 4zm320 213.753906v24h-368v-24c0-4.417969 3.582031-8 8-8h352c4.417969 0 8 3.582031 8 8zm-320-24v-97.753906l25.945312-6.484375c3.558594-.894531 6.054688-4.09375 6.054688-7.761719v-80c0-3.667969-2.496094-6.867188-6.054688-7.761719l-25.945312-6.484375v-185.753906c0-4.417969 3.582031-8 8-8h256c4.417969 0 8 3.582031 8 8v185.753906l-25.945312 6.484375c-3.558594.894531-6.054688 4.09375-6.054688 7.761719v80c0 3.667969 2.496094 6.867188 6.054688 7.761719l25.945312 6.484375v97.753906zm272-189.753906v75.507812l-16-4v-67.507812zm84 117.753906c-24.289062-.027344-43.972656-19.710938-44-44v-20c0-4.417969-3.582031-8-8-8h-16v-16h24c8.835938 0 16 7.164062 16 16v28c0 15.464844 12.535156 28 28 28s28-12.535156 28-28v-180h16v180c-.027344 24.289062-19.710938 43.972656-44 44zm44-240h-32c-8.835938 0-16-7.164062-16-16v-32h32c8.835938 0 16 7.164062 16 16zm0 0"/><path d="m193.023438 276.078125c-4.183594 7.449219-25.023438 45.3125-25.023438 59.921875 0 17.671875 14.328125 32 32 32s32-14.328125 32-32c0-14.609375-20.839844-52.472656-25.023438-59.921875-1.539062-2.355469-4.160156-3.777344-6.976562-3.777344s-5.4375 1.421875-6.976562 3.777344zm22.976562 59.921875c0 8.835938-7.164062 16-16 16s-16-7.164062-16-16c3.492188-13.714844 8.875-26.875 16-39.105469 7.125 12.230469 12.507812 25.390625 16 39.105469zm0 0"/></svg>