<svg height="480pt" viewBox="0 0 480 480" width="480pt" xmlns="http://www.w3.org/2000/svg"><path d="m472 263.074219v33.679687c-.015625 4.066406-3.078125 7.472656-7.121094 7.921875l-45.117187 5.121094c-3.261719.394531-5.949219 2.742187-6.78125 5.917969-.828125 3.179687.367187 6.542968 3.019531 8.480468l37.921875 27.28125c3.429687 2.449219 4.34375 7.160157 2.078125 10.71875l-18.078125 28.640626c-2.089844 3.339843-6.296875 4.664062-9.921875 3.117187l-41.359375-18c-3.027344-1.34375-6.566406-.6875-8.90625 1.65625-2.34375 2.339844-3 5.878906-1.65625 8.90625l17.84375 41.121094c1.664063 3.703125.246094 8.066406-3.28125 10.078125l-29.28125 16.878906c-3.511719 2.019531-7.980469 1.089844-10.398437-2.160156l-26.800782-36.238282c-1.960937-2.664062-5.355468-3.84375-8.542968-2.976562-3.191407.867188-5.515626 3.609375-5.855469 6.894531l-4.960938 44.640625c-.472656 4.0625-3.914062 7.125-8 7.121094h-33.601562c-4.085938.003906-7.527344-3.058594-8-7.121094l-4.960938-44.640625c-.339843-3.285156-2.664062-6.027343-5.855469-6.894531-3.1875-.867188-6.582031.3125-8.542968 2.976562l-26.800782 36.238282c-2.417968 3.25-6.886718 4.179687-10.398437 2.160156l-29.28125-16.878906c-3.527344-2.011719-4.945313-6.375-3.28125-10.078125l17.84375-41.121094c1.34375-3.027344.6875-6.566406-1.65625-8.90625-2.339844-2.34375-5.878906-3-8.90625-1.65625l-41.121094 17.84375c-3.703125 1.664063-8.066406.246094-10.078125-3.28125l-16.878906-29.28125c-2.019531-3.511719-1.089844-7.980469 2.160156-10.398437l36.238282-26.800782c2.664062-1.960937 3.84375-5.355468 2.976562-8.542968-.867188-3.191407-3.609375-5.515626-6.894531-5.855469l-44.640625-4.960938c-4.0625-.472656-7.125-3.914062-7.121094-8v-34.5625c-.03125-4.066406 3-7.511719 7.039062-8l44.402344-4.957031c3.101563-.300781 5.742188-2.398438 6.726563-5.359375.984375-2.957031.136719-6.21875-2.167969-8.320313v-.082031c-.171875-.207031-.390625-.375-.640625-.480469l-36-26.71875c-3.265625-2.375-4.199219-6.835937-2.160156-10.320312l5.121093-8.960938 11.679688-20.160156c1.992188-3.503906 6.320312-4.921875 10-3.277344l32.480469 14.078126 8.320312 3.679687c3.023438 1.289063 6.523438.613281 8.847657-1.710937 2.324218-2.324219 3-5.824219 1.710937-8.847657l-3.679687-8.320312-14.078126-32.480469c-1.644531-3.679688-.226562-8.007812 3.277344-10l20.160156-11.679688 8.960938-5.121093c3.484375-2.039063 7.945312-1.105469 10.320312 2.160156l26.71875 36c.105469.25.273438.46875.480469.640625h.082031c2.101563 2.304688 5.363282 3.152344 8.320313 2.167969 2.960937-.984375 5.058594-3.625 5.359375-6.726563l4.957031-44.402344c.488281-4.039062 3.933594-7.070312 8-7.039062h34.5625c4.085938-.003906 7.527344 3.058594 8 7.121094l4.960938 44.640625c.339843 3.285156 2.664062 6.027343 5.855469 6.894531 3.1875.867188 6.582031-.3125 8.542968-2.976562l26.800782-36.238282c2.417968-3.25 6.886718-4.179687 10.398437-2.160156l29.28125 16.878906c3.527344 2.011719 4.945313 6.375 3.28125 10.078125l-17.84375 41.121094c-1.34375 3.027344-.6875 6.566406 1.65625 8.90625 2.339844 2.34375 5.878906 3 8.90625 1.65625l41.121094-17.84375c3.703125-1.664063 8.066406-.246094 10.078125 3.28125l16.878906 29.28125c2.019531 3.511719 1.089844 7.980469-2.160156 10.398437l-36.238282 26.800782c-2.664062 1.960937-3.84375 5.355468-2.976562 8.542968.867188 3.191407 3.609375 5.515626 6.894531 5.855469l44.640625 4.960938c4.0625.472656 7.125 3.914062 7.121094 8zm-96 16.800781c0-53.019531-42.980469-96-96-96s-96 42.980469-96 96 42.980469 96 96 96 96-42.980469 96-96zm0 0" fill="#ffe477"/><path d="m376 279.875c0 53.019531-42.980469 96-96 96s-96-42.980469-96-96 42.980469-96 96-96 96 42.980469 96 96zm0 0" fill="#009698"/><path d="m144 87.875c0 26.507812-21.492188 48-48 48s-48-21.492188-48-48c0-26.480469 48-80 48-80s48 53.519531 48 80zm0 0" fill="#57a4ff"/><path d="m56 199.875c0 13.253906-10.746094 24-24 24s-24-10.746094-24-24c0-13.28125 24-56 24-56s24 42.71875 24 56zm0 0" fill="#57a4ff"/><path d="m465.816406 247.132812h-.046875l-44.691406-4.976562 36.203125-26.769531c6.546875-4.828125 8.425781-13.804688 4.367188-20.855469l-16.847657-29.25c-4.050781-7.066406-12.777343-9.941406-20.234375-6.664062l-41.152344 17.800781 17.785157-40.984375c3.324219-7.460938.492187-16.226563-6.566407-20.335938l-29.320312-16.894531c-7.03125-4.058594-15.988281-2.183594-20.800781 4.351563l-26.816407 36.191406-4.96875-44.6875c-.945312-8.082032-7.789062-14.175782-15.925781-14.183594h-34.601562c-8.140625-.003906-14.984375 6.105469-15.902344 14.191406l-4.695313 44.449219c-.152343-.175781-.316406-.339844-.488281-.496094l-26.273437-35.542969c-4.828125-6.515624-13.761719-8.386718-20.800782-4.363281l-29.070312 16.800781c-7.046875 4.035157-9.917969 12.734376-6.65625 20.167969l17.640625 40.792969-40.65625-17.601562c-7.433594-3.332032-16.179687-.503907-20.257813 6.546874l-16.800781 29.167969c-4.007812 7.011719-2.136719 15.914063 4.355469 20.71875l35.871094 26.519531.101562.105469-44.4375 4.933594c-8.027344.945313-14.085937 7.726563-14.128906 15.808594v34.601562c.007812 8.15625 6.125 15.015625 14.230469 15.953125l44.691406 4.972656-36.203125 26.777344c-6.542969 4.828125-8.421875 13.796875-4.367188 20.847656l16.847657 29.242188c4.042969 7.070312 12.777343 9.949219 20.234375 6.664062l41.152344-17.800781-17.785157 40.984375c-3.324219 7.460938-.492187 16.226563 6.566407 20.335938l29.320312 16.894531c7.035156 4.027344 15.96875 2.160156 20.800781-4.351563l26.816407-36.191406 4.96875 44.6875c.945312 8.082032 7.789062 14.175782 15.925781 14.183594h33.601562c8.15625-.007812 15.015625-6.125 15.953125-14.230469l4.972656-44.691406 26.769532 36.203125c4.832031 6.546875 13.804687 8.425781 20.855468 4.367188l29.242188-16.847657c7.0625-4.050781 9.9375-12.777343 6.664062-20.234375l-17.808593-41.152344 41.429687 18.035157c7.234375 3.035156 15.605469.40625 19.808594-6.21875l18.105469-28.6875c4.507812-7.125 2.664062-16.535157-4.199219-21.429688l-37.929688-27.25 45.152344-5.121093c8.070313-.921876 14.167969-7.742188 14.183594-15.863282v-33.679687c0-8.140625-6.097656-14.992188-14.183594-15.941407zm-1.816406 15.941407v33.648437l-45.089844 5.121094c-6.550781.753906-11.972656 5.457031-13.644531 11.839844-1.671875 6.378906.746094 13.132812 6.085937 17.007812l37.90625 27.199219-18.058593 28.726563-41.398438-18.015626c-6.039062-2.636718-13.078125-1.300781-17.730469 3.367188-4.652343 4.664062-5.972656 11.707031-3.316406 17.738281l17.902344 41.078125-29.257812 16.898438-26.847657-36.304688c-3.933593-5.277344-10.695312-7.605468-17.046875-5.871094-6.347656 1.738282-10.984375 7.183594-11.6875 13.726563l-5.015625 44.640625h-33.601562l-4.96875-44.648438c-.695313-6.566406-5.355469-12.03125-11.730469-13.757812-6.375-1.722656-13.15625.644531-17.066406 5.964844l-26.785156 36.234375-29.214844-16.847657 17.855468-41.152343c2.636719-6.039063 1.300782-13.078125-3.367187-17.730469-4.664063-4.652344-11.707031-5.972656-17.738281-3.320312l-41.078125 17.90625-16.898438-29.257813 36.304688-26.847656c5.277343-3.933594 7.605469-10.695313 5.871093-17.046875-1.734374-6.347656-7.183593-10.984375-13.726562-11.6875l-44.65625-5.007813v-34.601562l44.425781-4.933594c6.253907-.664063 11.519531-4.972656 13.414063-10.96875 1.828125-5.535156.425781-11.625-3.632813-15.808594-.207031-.261719-.433593-.515625-.671875-.753906-.269531-.246094-1.078125-.949219-1.367187-1.167969l-36-26.566406 16.632812-29.03125 40.800781 17.703125c6.03125 2.640625 13.070313 1.3125 17.726563-3.34375s5.984375-11.695313 3.34375-17.726563l-17.777344-40.699218 29.027344-16.796875 26.398437 35.71875c.429688.632812.917969 1.21875 1.464844 1.75.246094.257812.511719.488281.800782.699219 4.398437 4.121093 10.753906 5.398437 16.410156 3.300781 5.652344-2.097657 9.636718-7.210938 10.285156-13.207031l4.917969-44.367188h34.601562l4.96875 44.648438c.695313 6.566406 5.355469 12.03125 11.730469 13.757812 6.375 1.722656 13.15625-.644531 17.066406-5.964844l26.785156-36.234375 29.214844 16.847657-17.855468 41.152343c-2.636719 6.039063-1.300782 13.078125 3.367187 17.730469 4.664063 4.652344 11.707031 5.972656 17.738281 3.320312l41.078125-17.90625 16.898438 29.257813-36.304688 26.847656c-5.277343 3.933594-7.605469 10.695313-5.871093 17.046875 1.734374 6.347656 7.183593 10.984375 13.726562 11.6875l44.65625 5.007813.878906-8zm0 0"/><path d="m280 175.875c-57.4375 0-104 46.5625-104 104s46.5625 104 104 104 104-46.5625 104-104c-.066406-57.410156-46.589844-103.933594-104-104zm0 192c-48.601562 0-88-39.398438-88-88s39.398438-88 88-88 88 39.398438 88 88c-.058594 48.578125-39.421875 87.941406-88 88zm0 0"/><path d="m96 143.875c30.910156-.039062 55.960938-25.089844 56-56 0-28.742188-44.921875-79.632812-50.046875-85.34375-1.558594-1.617188-3.707031-2.53125-5.953125-2.53125s-4.394531.914062-5.953125 2.53125c-5.125 5.710938-50.046875 56.601562-50.046875 85.34375.039062 30.910156 25.089844 55.960938 56 56zm0-123.800781c17.472656 20.722656 40 52.535156 40 67.800781 0 22.089844-17.910156 40-40 40s-40-17.910156-40-40c0-15.246094 22.527344-47.070312 40-67.800781zm0 0"/><path d="m25.023438 139.964844c-4.183594 7.429687-25.023438 45.300781-25.023438 59.910156 0 17.671875 14.328125 32 32 32s32-14.328125 32-32c0-14.609375-20.839844-52.480469-25.023438-59.910156-1.535156-2.363282-4.160156-3.789063-6.976562-3.789063s-5.441406 1.425781-6.976562 3.789063zm6.976562 75.910156c-8.835938 0-16-7.164062-16-16 3.492188-13.714844 8.875-26.875 16-39.105469 7.125 12.230469 12.507812 25.390625 16 39.105469 0 8.835938-7.164062 16-16 16zm0 0"/></svg>