<svg height="480pt" viewBox="0 0 480.0143 480" width="480pt" xmlns="http://www.w3.org/2000/svg"><path d="m472.015625 168.007812v144c0 8.835938-7.164063 16-16 16s-16-7.164062-16-16v-144c.023437-8.828124 7.171875-15.972656 16-16 8.808594.066407 15.933594 7.191407 16 16zm0 0" fill="#787680"/><path d="m346.8125 224.007812c6.738281-19.1875 24.867188-32.023437 45.203125-32 1.277344 0 2.558594.078126 3.757813.160157 24.910156 2.039062 44.085937 22.847656 44.085937 47.839843 0 24.992188-19.175781 45.800782-44.085937 47.839844-1.199219.078125-2.480469.160156-3.757813.160156-20.335937.023438-38.464844-12.8125-45.203125-32-3.730469-10.339843-3.730469-21.660156 0-32zm61.203125 16c0-8.835937-7.164063-16-16-16s-16 7.164063-16 16c0 8.835938 7.164063 16 16 16 8.824219-.027343 15.972656-7.175781 16-16zm0 0" fill="#ffe477"/><path d="m408.015625 240.007812c0 8.835938-7.164063 16-16 16s-16-7.164062-16-16c0-8.835937 7.164063-16 16-16s16 7.164063 16 16zm0 0" fill="#57a4ff"/><path d="m311.933594 74.085938 83.839844 118.082031c-1.199219-.082031-2.480469-.160157-3.757813-.160157-20.335937-.023437-38.464844 12.8125-45.203125 32h-6.878906l-85.679688-120h25.761719c16.859375-.007812 30.824219-13.09375 31.917969-29.921874zm0 0" fill="#d8d7da"/><path d="m395.773438 287.847656-77.679688 109.441406c-4.480469-12.769531-16.546875-21.308593-30.078125-21.28125h-33.761719l85.679688-120h6.878906c6.738281 19.1875 24.867188 32.023438 45.203125 32 1.277344 0 2.558594-.082031 3.757813-.160156zm0 0" fill="#d8d7da"/><path d="m341.054688 224.007812h5.757812c-3.730469 10.339844-3.730469 21.660157 0 32h-245.597656c3.734375-10.339843 3.734375-21.660156 0-32zm0 0" fill="#787680"/><path d="m320.015625 408.007812v64h-192v-64c-.023437-3.660156.628906-7.292968 1.917969-10.71875 4.480468-12.769531 16.550781-21.308593 30.082031-21.28125h128c13.53125-.027343 25.597656 8.511719 30.078125 21.28125 1.289062 3.425782 1.941406 7.058594 1.921875 10.71875zm-40 16c0-8.835937-7.164063-16-16-16s-16 7.164063-16 16c0 8.835938 7.164063 16 16 16 8.824219-.027343 15.972656-7.175781 16-16zm-80 0c0-8.835937-7.164063-16-16-16s-16 7.164063-16 16c0 8.835938 7.164063 16 16 16 8.824219-.027343 15.972656-7.175781 16-16zm0 0" fill="#ffe477"/><path d="m312.015625 8.007812v64c.011719.695313-.015625 1.386719-.082031 2.078126-1.09375 16.828124-15.058594 29.914062-31.917969 29.921874h-112c-16.863281-.007812-30.824219-13.09375-31.921875-29.921874-.066406-.691407-.09375-1.382813-.078125-2.078126v-64zm-32 48c0-8.835937-7.164063-16-16-16s-16 7.164063-16 16c0 8.835938 7.164063 16 16 16 8.824219-.027343 15.972656-7.175781 16-16zm-80 0c0-8.835937-7.164063-16-16-16s-16 7.164063-16 16c0 8.835938 7.164063 16 16 16 8.824219-.027343 15.972656-7.175781 16-16zm0 0" fill="#ffe477"/><g fill="#57a4ff"><path d="m280.015625 56.007812c0 8.835938-7.164063 16-16 16s-16-7.164062-16-16c0-8.835937 7.164063-16 16-16s16 7.164063 16 16zm0 0"/><path d="m280.015625 424.007812c0 8.835938-7.164063 16-16 16s-16-7.164062-16-16c0-8.835937 7.164063-16 16-16s16 7.164063 16 16zm0 0"/><path d="m200.015625 56.007812c0 8.835938-7.164063 16-16 16s-16-7.164062-16-16c0-8.835937 7.164063-16 16-16s16 7.164063 16 16zm0 0"/><path d="m200.015625 424.007812c0 8.835938-7.164063 16-16 16s-16-7.164062-16-16c0-8.835937 7.164063-16 16-16s16 7.164063 16 16zm0 0"/></g><path d="m193.773438 104.007812-85.679688 120h-6.878906c-6.734375-19.1875-24.863282-32.023437-45.199219-32-1.28125 0-2.5625.078126-3.761719.160157l83.839844-118.082031c1.097656 16.828124 15.058594 29.914062 31.921875 29.921874zm0 0" fill="#d8d7da"/><path d="m108.09375 256.007812 85.679688 120h-33.757813c-13.53125-.027343-25.601563 8.511719-30.082031 21.28125l-77.679688-109.441406c1.199219.078125 2.480469.160156 3.761719.160156 20.335937.023438 38.464844-12.8125 45.199219-32zm0 0" fill="#d8d7da"/><path d="m101.214844 224.007812c3.734375 10.339844 3.734375 21.660157 0 32-6.734375 19.1875-24.863282 32.023438-45.199219 32-1.28125 0-2.5625-.082031-3.761719-.160156-24.90625-2.039062-44.082031-22.847656-44.082031-47.839844 0-24.992187 19.175781-45.800781 44.082031-47.839843 1.199219-.082031 2.480469-.160157 3.761719-.160157 20.335937-.023437 38.464844 12.8125 45.199219 32zm-29.199219 16c0-8.835937-7.164063-16-16-16s-16 7.164063-16 16c0 8.835938 7.164063 16 16 16 8.824219-.027343 15.972656-7.175781 16-16zm0 0" fill="#ffe477"/><path d="m72.015625 240.007812c0 8.835938-7.164063 16-16 16s-16-7.164062-16-16c0-8.835937 7.164063-16 16-16s16 7.164063 16 16zm0 0" fill="#57a4ff"/><path d="m184.015625 80.007812c13.253906 0 24-10.746093 24-24 0-13.253906-10.746094-24-24-24-13.257813 0-24 10.746094-24 24 0 13.253907 10.742187 24 24 24zm0-32c4.417969 0 8 3.582032 8 8 0 4.417969-3.582031 8-8 8s-8-3.582031-8-8c0-4.417968 3.582031-8 8-8zm0 0"/><path d="m264.015625 80.007812c13.253906 0 24-10.746093 24-24 0-13.253906-10.746094-24-24-24-13.257813 0-24 10.746094-24 24 0 13.253907 10.742187 24 24 24zm0-32c4.417969 0 8 3.582032 8 8 0 4.417969-3.582031 8-8 8s-8-3.582031-8-8c0-4.417968 3.582031-8 8-8zm0 0"/><path d="m184.015625 400.007812c-13.257813 0-24 10.746094-24 24 0 13.253907 10.742187 24 24 24 13.253906 0 24-10.746093 24-24 0-13.253906-10.746094-24-24-24zm0 32c-4.417969 0-8-3.582031-8-8 0-4.417968 3.582031-8 8-8s8 3.582032 8 8c0 4.417969-3.582031 8-8 8zm0 0"/><path d="m264.015625 400.007812c-13.257813 0-24 10.746094-24 24 0 13.253907 10.742187 24 24 24 13.253906 0 24-10.746093 24-24 0-13.253906-10.746094-24-24-24zm0 32c-4.417969 0-8-3.582031-8-8 0-4.417968 3.582031-8 8-8s8 3.582032 8 8c0 4.417969-3.582031 8-8 8zm0 0"/><path d="m80.015625 240.007812c0-13.253906-10.746094-24-24-24-13.257813 0-24 10.746094-24 24 0 13.253907 10.742187 24 24 24 13.253906 0 24-10.746093 24-24zm-32 0c0-4.417968 3.582031-8 8-8s8 3.582032 8 8c0 4.417969-3.582031 8-8 8s-8-3.582031-8-8zm0 0"/><path d="m392.015625 216.007812c-13.257813 0-24 10.746094-24 24 0 13.253907 10.742187 24 24 24 13.253906 0 24-10.746093 24-24 0-13.253906-10.746094-24-24-24zm0 32c-4.417969 0-8-3.582031-8-8 0-4.417968 3.582031-8 8-8s8 3.582032 8 8c0 4.417969-3.582031 8-8 8zm0 0"/><path d="m456.015625 144.007812c-13.257813 0-24 10.746094-24 24v32.886719c-8.527344-8.722656-19.671875-14.414062-31.738281-16.207031l-80.261719-113.046875v-63.632813c0-4.417968-3.582031-7.9999995-8-7.9999995h-176c-4.417969 0-8 3.5820315-8 7.9999995v63.632813l-80.265625 113.046875c-27.429688 4.050781-47.75 27.589844-47.75 55.320312 0 27.726563 20.320312 51.269532 47.75 55.320313l73.441406 103.464844c-.75 3.015625-1.144531 6.105469-1.175781 9.214843v64c0 4.417969 3.582031 8 8 8h192c4.417969 0 8-3.582031 8-8v-64c-.03125-3.109374-.425781-6.199218-1.175781-9.214843l73.4375-103.464844c12.066406-1.792969 23.210937-7.484375 31.738281-16.207031v32.886718c0 13.253907 10.742187 24 24 24 13.253906 0 24-10.746093 24-24v-144c0-13.253906-10.746094-24-24-24zm-258.121094 224-74.257812-104h200.753906l-74.257813 104zm-29.878906-256h10.214844l-72.726563 101.863282c-7.859375-14.84375-21.945312-25.394532-38.402344-28.761719l66.304688-93.421875c7.039062 12.507812 20.253906 20.269531 34.609375 20.320312zm82.117187 0 74.257813 104h-200.753906l74.257812-104zm86.523438 136h-225.28125c.851562-5.300781.851562-10.703124 0-16h225.28125c-.855469 5.296876-.855469 10.699219 0 16zm5.871094-34.136718-72.730469-101.863282h10.21875c14.351563-.050781 27.570313-7.8125 34.605469-20.320312l66.335937 93.421875c-16.464843 3.355469-30.566406 13.910156-38.429687 28.761719zm-198.511719-197.863282h160v56c0 13.253907-10.746094 24-24 24h-112c-13.257813 0-24-10.746093-24-24zm-128 224c0-22.09375 17.90625-40 40-40 22.089844 0 40 17.90625 40 40 0 22.089844-17.910156 40-40 40-22.082031-.027343-39.976563-17.921874-40-40zm51.054687 54.894532c16.457032-3.363282 30.542969-13.914063 38.398438-28.757813l72.761719 101.863281h-18.214844c-11.898437.042969-23.148437 5.410157-30.664063 14.632813zm244.945313 169.105468h-176v-56c0-13.253906 10.742187-24 24-24h128c13.253906 0 24 10.746094 24 24zm-24-96h-18.21875l72.730469-101.863281c7.855468 14.84375 21.941406 25.394531 38.398437 28.757813l-62.246093 87.738281c-7.519532-9.222656-18.769532-14.589844-30.664063-14.632813zm104-88c-22.09375 0-40-17.910156-40-40 0-22.09375 17.90625-40 40-40 22.089844 0 40 17.90625 40 40-.027344 22.078126-17.921875 39.972657-40 40zm72 32c0 4.417969-3.582031 8-8 8s-8-3.582031-8-8v-144c0-4.417968 3.582031-8 8-8s8 3.582032 8 8zm0 0"/></svg>