<svg height="480pt" viewBox="0 0 480 480" width="480pt" xmlns="http://www.w3.org/2000/svg"><path d="m472 48-16 16-24-8-23.601562 39.28125-47.679688-47.679688 71.28125-39.601562zm0 0" fill="#00b6bd"/><path d="m408.398438 95.28125 10.082031 10.078125-33.921875 33.921875-11.277344-11.28125-45.28125-45.28125-11.28125-11.277344 33.921875-33.921875 10.078125 10.082031zm0 0" fill="#c0ab91"/><path d="m305.359375 105.363281 22.636719-22.640625 45.277344 45.277344-22.636719 22.640625zm0 0" fill="#00b6bd"/><path d="m360 160v272c0 22.089844-17.910156 40-40 40h-272c-22.089844 0-40-17.910156-40-40v-384c0-22.089844 17.910156-40 40-40h40v80h200zm-72 240v-240c-.066406-8.808594-7.191406-15.933594-16-16h-176c-8.808594.066406-15.933594 7.191406-16 16v240c.066406 8.808594 7.191406 15.933594 16 16h176c8.808594-.066406 15.933594-7.191406 16-16zm0 0" fill="#c0ab91"/><g fill="#00b6bd"><path d="m288 160v240c.023438 4.246094-1.679688 8.316406-4.71875 11.28125l-59.28125-59.28125v-144l59.28125-59.28125c3.039062 2.964844 4.742188 7.035156 4.71875 11.28125zm0 0"/><path d="m283.28125 148.71875-59.28125 59.28125h-80l-59.28125-59.28125c2.964844-3.039062 7.035156-4.742188 11.28125-4.71875h176c4.246094-.023438 8.316406 1.679688 11.28125 4.71875zm0 0"/><path d="m224 352 59.28125 59.28125c-2.964844 3.039062-7.035156 4.742188-11.28125 4.71875h-176c-4.246094.023438-8.316406-1.679688-11.28125-4.71875l59.28125-59.28125zm0 0"/><path d="m280 56v32h-32v-32h-160v-32h160c17.671875 0 32 14.328125 32 32zm0 0"/><path d="m144 208h80v144h-80zm0 0"/><path d="m144 208v144l-59.28125 59.28125c-3.039062-2.964844-4.742188-7.035156-4.71875-11.28125v-240c-.023438-4.246094 1.679688-8.316406 4.71875-11.28125zm0 0"/></g><path d="m320 424c0 4.417969-3.582031 8-8 8h-16v16h16c13.253906 0 24-10.746094 24-24v-16h-16zm0 0"/><path d="m296 160c-.066406-13.226562-10.773438-23.933594-24-24h-176c-13.230469.058594-23.941406 10.769531-24 24v240c.074219 13.222656 10.777344 23.925781 24 24h176c13.230469-.058594 23.941406-10.769531 24-24zm-75.3125 40h-73.375l-48-48h169.375zm-4.6875 16v128h-64v-128zm-80-4.6875v137.375l-48 48v-233.375zm11.3125 148.6875h73.375l48 48h-169.375zm84.6875-11.3125v-137.375l48-48v233.375zm0 0"/><path d="m477.65625 42.34375-40-40c-2.527344-2.527344-6.421875-3.070312-9.542969-1.335938l-65.992187 36.664063-5.832032-5.839844c-3.125-3.125-8.1875-3.125-11.3125 0l-33.945312 33.945313c-3.121094 3.121094-3.121094 8.1875 0 11.3125l5.65625 5.652344-11.3125 11.320312-11.71875-11.71875c-1.5-1.5-3.535156-2.34375-5.65625-2.34375v-24c-.027344-22.082031-17.917969-39.972656-40-40h-152v-8c0-4.417969-3.582031-8-8-8h-40c-26.5.0273438-47.9726562 21.5-48 48v384c.0273438 26.5 21.5 47.972656 48 48h272c26.5-.027344 47.972656-21.5 48-48v-272c0-2.121094-.84375-4.15625-2.34375-5.65625l-3.71875-3.71875 11.320312-11.3125 5.652344 5.65625c3.125 3.121094 8.191406 3.121094 11.3125 0l33.945313-33.9375c3.125-3.125 3.125-8.1875 0-11.3125l-5.671875-5.664062 17.0625-28.453126 17.914062 5.964844c2.871094.960938 6.039063.214844 8.183594-1.925781l16-16c3.113281-3.121094 3.113281-8.175781 0-11.296875zm-229.65625-10.34375c13.253906 0 24 10.746094 24 24v24h-16v-24c0-4.417969-3.582031-8-8-8h-152v-16zm-152 32h144v16h-144zm256 368c0 17.671875-14.328125 32-32 32h-272c-17.671875 0-32-14.328125-32-32v-384c0-17.671875 14.328125-32 32-32h32v72c0 4.417969 3.582031 8 8 8h196.6875l67.3125 67.3125zm9.945312-304-11.3125 11.3125-33.945312-33.9375 11.3125-11.320312zm22.621094 0-56.566406-56.566406 22.632812-22.632813 56.558594 56.566407zm69.273438-73.160156-19.3125-6.398438c-3.550782-1.1875-7.453125.253906-9.382813 3.460938l-18.304687 30.496094-32.953125-32.957032 56.722656-31.519531 30.078125 30.078125zm0 0"/></svg>