<svg height="480pt" viewBox="0 0 480 480.06126" width="480pt" xmlns="http://www.w3.org/2000/svg"><path d="m472.03125 432.0625v40h-296l256-64zm0 0" fill="#ffe477"/><path d="m437.949219 391.339844c3.386719 1.113281 5.625 4.332031 5.496093 7.890625-.128906 3.5625-2.597656 6.605469-6.054687 7.472656l-5.359375 1.359375-256 64 216-96zm0 0" fill="#c0ab91"/><path d="m392.03125 376.0625-216 96v-56l160-80zm0 0" fill="#ffe477"/><path d="m336.03125 336.0625-160 80v-56l112-64zm0 0" fill="#c0ab91"/><path d="m288.03125 296.0625-112 64v-16l32.960938-26.082031 29.917968-23.679688 13.839844-10.960937c2.988281-2.996094 7.046875-4.675782 11.28125-4.675782 4.230469 0 8.289062 1.679688 11.28125 4.675782zm0 0" fill="#ffe477"/><path d="m157.871094 161.019531 81.039062 133.28125-29.917968 23.679688-3.042969-3.839844-75.757813-137.121094zm0 0" fill="#d8d7da"/><path d="m180.511719 120.300781c2.097656 3.652344 3.199219 7.789063 3.199219 12 .03125 8.566407-4.554688 16.484375-12 20.71875l-55.359376 32c-7.441406 4.730469-16.875 5-24.574218.703125-7.695313-4.292968-12.417969-12.464844-12.300782-21.28125.121094-8.8125 5.0625-16.855468 12.875-20.941406l28.878907-16.71875 26.480469-15.28125c5.515624-3.183594 12.070312-4.046875 18.222656-2.398438 6.152344 1.652344 11.398437 5.679688 14.578125 11.199219zm0 0" fill="#ffe477"/><path d="m88.03125 8.0625c35.34375 0 64 28.652344 64 64 0 35.34375-28.65625 64-64 64-35.347656 0-64-28.65625-64-64 0-35.347656 28.652344-64 64-64zm0 0" fill="#c0ab91"/><path d="m112.03125 72.0625h16c-.027344-22.082031-17.921875-39.976562-40-40v16c13.253906 0 24 10.742188 24 24zm0 0"/><path d="m208.03125 120.0625h16c-.027344-22.082031-17.921875-39.976562-40-40v16c13.253906 0 24 10.742188 24 24zm0 0"/><path d="m240.03125 120.0625h16c-.050781-39.746094-32.257812-71.953125-72-72v16c30.914062.035156 55.964844 25.085938 56 56zm0 0"/><path d="m48.03125 168.0625h-16c.027344 22.078125 17.917969 39.972656 40 40v-16c-13.253906 0-24-10.746094-24-24zm0 0"/><path d="m16.03125 168.0625h-16c.046875 39.742188 32.253906 71.949219 72 72v-16c-30.914062-.035156-55.964844-25.089844-56-56zm0 0"/><path d="m476.152344 425.207031-27.832032-16.699219c2.632813-3.574218 3.683594-8.074218 2.910157-12.445312-1.171875-5.890625-5.46875-10.667969-11.199219-12.457031l-44.328125-14.746094-114.703125-91.140625c-9.355469-8.960938-24.058594-9.117188-33.601562-.363281l-6.398438 5.050781-72.023438-118.511719 5.644532-3.265625c6.546875-3.597656 11.714844-9.265625 14.699218-16.113281 4.554688-10.824219 2.78125-23.28125-4.617187-32.402344-7.398437-9.121093-19.21875-13.429687-30.753906-11.203125 4.585937-10.390625 6.628906-21.726562 5.960937-33.066406-2.25-38.902344-35.039062-68.953125-73.988281-67.8125s-69.925781 33.0625-69.890625 72.03125c.050781 36.644531 27.585938 67.417969 64 71.535156-10.09375 11.824219-10.203125 29.203125-.261719 41.15625 9.945313 11.953125 27.050781 15.007813 40.515625 7.234375l6.824219-3.941406 70.929687 128.367187-27.007812 21.375c-1.90625 1.523438-3.007812 3.832032-3 6.273438v120c0 8.835938 7.164062 16 16 16h288c4.417969 0 8-3.582031 8-8v-40c0-2.808594-1.472656-5.410156-3.878906-6.855469zm-40.714844-26.242187-172 42.992187 128.984375-57.328125zm-251.40625 60.785156v-38.746094l151.269531-75.628906 40.730469 29.085938zm103.144531-153.984375 34.335938 28.617187-137.480469 68.734376v-38.398438zm-255.144531-233.703125c0-30.929688 25.070312-56 56-56 30.925781 0 56 25.070312 56 56 0 30.925781-25.074219 56-56 56-30.914062-.035156-55.964844-25.089844-56-56zm80.289062 106.0625c-4.953124 2.902344-11.085937 2.929688-16.0625.070312-4.980468-2.859374-8.042968-8.167968-8.03125-13.90625.011719-5.742187 3.101563-11.039062 8.09375-13.875 0 0 60.621094-34.152343 63.398438-34.152343 1.40625 0 2.808594.1875 4.167969.550781 6.25 1.675781 10.878906 6.953125 11.722656 13.367188.84375 6.417968-2.261719 12.710937-7.867187 15.945312zm28.679688 1.921875 14.117188-8.152344 73.28125 120.519531-17.601563 13.933594zm116.6875 109.613281c.238281-.191406.46875-.398437.6875-.613281 3.125-3.125 8.1875-3.125 11.3125 0l5.277344 5.277344-83.40625 47.648437zm206.34375 174.402344h-223.015625l189.742187-47.433594 33.273438 19.960938zm0 0"/></svg>