<svg height="480pt" viewBox="0 0 480 480" width="480pt" xmlns="http://www.w3.org/2000/svg"><path d="m472 440v32h-232l72-56 96 14.398438zm0 0" fill="#ffe477"/><path d="m440 299.28125c14.582031 6.386719 24.003906 20.796875 24.003906 36.71875s-9.421875 30.332031-24.003906 36.71875c-10.21875 4.375-21.78125 4.375-32 0-14.582031-6.386719-24.003906-20.796875-24.003906-36.71875s9.421875-30.332031 24.003906-36.71875v36.71875h32zm0 0" fill="#d8d7da"/><path d="m440 372.71875v62.480469l-32-4.800781v-57.679688c10.21875 4.375 21.78125 4.375 32 0zm0 0" fill="#d8d7da"/><path d="m360 184c17.671875 0 32 14.328125 32 32s-14.328125 32-32 32v-57.359375c0-2.242187-.078125-4.402344-.238281-6.640625zm0 0" fill="#ffc477"/><path d="m368 152-11.921875 8.640625-76.078125 55.359375h-248l80-64zm0 0" fill="#57a4ff"/><path d="m368 152h-74.800781c1.332031-7.929688 2-15.957031 2-24 0-47.121094-23.199219-85.519531-52.398438-87.921875 69.4375 1.28125 125.199219 50.882813 125.199219 111.921875zm0 0" fill="#57a4ff"/><path d="m295.519531 377.519531c-8.15625 4.25-16.808593 7.472657-25.757812 9.601563-28.636719 7.15625-58.898438 3.628906-85.121094-9.921875-39.734375-20.683594-64.65625-61.761719-64.640625-106.558594v-54.640625h160l76.078125-55.359375c2.050781 7.632813 3.28125 15.464844 3.683594 23.359375.160156 2.238281.238281 4.398438.238281 6.640625v78.238281c.25 45.351563-24.550781 87.140625-64.480469 108.640625zm0 0" fill="#ffdaaa"/><g fill="#57a4ff"><path d="m295.519531 377.519531 16.480469 38.480469-72 56-72-56 16.640625-38.800781c26.222656 13.550781 56.484375 17.078125 85.121094 9.921875 8.949219-2.128906 17.601562-5.351563 25.757812-9.601563zm0 0"/><path d="m295.199219 128c0 8.042969-.667969 16.070312-2 24h-106.398438c-1.332031-7.929688-2-15.957031-2-24 0-47.121094 23.199219-85.519531 52.398438-87.921875.878906-.078125 1.839843-.078125 2.800781-.078125s1.921875 0 2.800781.078125c29.199219 2.402344 52.398438 40.800781 52.398438 87.921875zm0 0"/><path d="m248 8c8.824219.027344 15.972656 7.175781 16 16-.066406 8.808594-7.191406 15.933594-16 16h-16c-8.824219-.027344-15.972656-7.175781-16-16 .066406-8.808594 7.191406-15.933594 16-16zm0 0"/></g><path d="m240 472h-232v-32l64-9.601562 96-14.398438zm0 0" fill="#ffe477"/><path d="m237.199219 40.078125c-29.199219 2.402344-52.398438 40.800781-52.398438 87.921875 0 8.042969.667969 16.070312 2 24h-74.800781c0-61.039062 55.761719-110.640625 125.199219-111.921875zm0 0" fill="#57a4ff"/><path d="m120 216v32c-17.671875 0-32-14.328125-32-32zm0 0" fill="#ffc477"/><path d="m64 296 16 32-8 32h-32l-8-32 16-32zm0 0" fill="#d8d7da"/><path d="m72 360v70.398438l-32 4.800781v-75.199219zm0 0" fill="#d8d7da"/><path d="m288 304h-16c0 17.671875-14.328125 32-32 32s-32-14.328125-32-32h-16c0 26.507812 21.492188 48 48 48s48-21.492188 48-48zm0 0"/><path d="m473.183594 432.089844-25.183594-3.777344v-50.816406c15.652344-9.0625 24.882812-26.152344 23.878906-44.210938-1.007812-18.058594-12.078125-34.019531-28.640625-41.285156-2.46875-1.09375-5.320312-.867188-7.585937.601562-2.269532 1.464844-3.640625 3.976563-3.652344 6.679688v28.71875h-16v-28.71875c-.015625-2.691406-1.386719-5.191406-3.640625-6.65625s-5.09375-1.699219-7.558594-.625c-16.566406 7.257812-27.648437 23.214844-28.660156 41.273438-1.015625 18.058593 8.210937 35.15625 23.859375 44.222656v43.617187l-82.398438-12.359375-12-28c38.78125-23.957031 62.390626-66.289062 62.398438-111.875v-13.679687c18.777344-3.804688 32.207031-20.40625 32.011719-39.5625-.195313-19.15625-13.960938-35.476563-32.8125-38.902344-.476563-4.269531-1.175781-8.511719-2.09375-12.710937l7.621093-5.542969c2.066407-1.511719 3.28125-3.921875 3.273438-6.480469 0-57.296875-45.769531-105.273438-106.726562-117.128906 1.765624-3.351563 2.703124-7.082032 2.726562-10.871094 0-13.253906-10.746094-24-24-24h-16c-13.253906 0-24 10.746094-24 24 .023438 3.789062.960938 7.519531 2.726562 10.871094-59.527343 11.578125-104.390624 57.601562-106.496093 113.128906l-77.230469 61.753906c-2.652344 2.121094-3.679688 5.6875-2.550781 8.894532 1.125 3.207031 4.152343 5.351562 7.550781 5.351562h48.800781c3.234375 15.699219 15.5 27.964844 31.199219 31.199219v15.441406c-.25 45.15625 23.566406 87.027344 62.503906 109.894531l-12.105468 28.21875-82.398438 12.359375v-60.128906l7.761719-31.046875c.460937-1.851562.25-3.804688-.601563-5.511719l-16-32c-1.355468-2.714843-4.128906-4.425781-7.160156-4.425781h-16c-3.03125 0-5.804688 1.710938-7.160156 4.425781l-16 32c-.851563 1.707031-1.0625 3.660157-.601563 5.511719l7.761719 31.046875v67.328125l-25.183594 3.777344c-3.917968.585937-6.816406 3.949218-6.816406 7.910156v32c0 4.417969 3.582031 8 8 8h464c4.417969 0 8-3.582031 8-8v-32c0-3.960938-2.898438-7.324219-6.816406-7.910156zm-73.183594-117.242188v21.152344c0 4.417969 3.582031 8 8 8h32c4.417969 0 8-3.582031 8-8v-21.152344c6.761719 7.675782 9.449219 18.121094 7.234375 28.109375-2.210937 9.988281-9.0625 18.316407-18.433594 22.417969-8.199219 3.472656-17.453125 3.472656-25.648437 0-9.363282-4.109375-16.203125-12.445312-18.40625-22.429688-2.207032-9.988281.488281-20.425781 7.253906-28.097656zm16 68.488282c5.296875.886718 10.703125.886718 16 0v42.574218l-16-2.398437zm-32-167.335938c-.042969 10.132812-6.445312 19.148438-16 22.527344v-45.054688c9.554688 3.378906 15.957031 12.394532 16 22.527344zm-24.464844-72h-57.277344c.609376-5.3125.933594-10.652344.972657-16 .808593-26.304688-7.011719-52.15625-22.269531-73.601562 43.253906 13.65625 74.910156 48.234374 78.574218 89.601562zm-165.671875 0c-.6875-5.304688-1.050781-10.648438-1.09375-16 0-43.367188 21.597657-80 47.199219-80 25.597656 0 47.199219 36.632812 47.199219 80-.042969 5.351562-.410157 10.695312-1.097657 16zm38.136719-112c-4.417969 0-8-3.582031-8-8s3.582031-8 8-8h16c4.417969 0 8 3.582031 8 8s-3.582031 8-8 8zm-32.960938 22.398438c-15.246093 21.449218-23.054687 47.296874-22.238281 73.601562.039063 5.347656.363281 10.6875.976563 16h-57.28125c3.632812-41.367188 35.289062-75.945312 78.542968-89.601562zm-84.230468 105.601562h228.589844l-66 48h-222.589844zm-17.335938 64h14.527344v14.527344c-6.777344-2.417969-12.109375-7.75-14.527344-14.527344zm30.527344 46.640625v-46.640625h152c1.691406 0 3.335938-.535156 4.703125-1.527344l66.050781-48c.816406 5.351563 1.230469 10.753906 1.246094 16.167969v78.238281c.800781 43.253906-23.40625 83.09375-62.164062 102.304688-38.757813 19.214844-85.121094 14.363281-119.058594-12.464844-27.078125-21.195312-42.859375-53.695312-42.777344-88.078125zm112.183594 128c10.597656-.007813 21.15625-1.273437 31.457031-3.769531 6.761719-1.640625 13.363281-3.871094 19.734375-6.671875l10.839844 25.265625-62.214844 48.398437-62.214844-48.382812 10.941406-25.519531c16.230469 7.078124 33.75 10.71875 51.457032 10.695312zm-187.238282-94.640625h6.109376l12.464843 24.929688-5.765625 23.070312h-19.507812l-5.765625-23.070312zm-4.945312 64h16v55.511719l-16 2.398437zm-32 78.886719 149.800781-22.460938 50.886719 39.574219h-200.6875zm448 17.113281h-200.6875l50.886719-39.574219 149.800781 22.460938zm0 0"/></svg>