<svg height="475pt" viewBox="0 0 475 475.30652" width="475pt" xmlns="http://www.w3.org/2000/svg"><path d="m459.699219 15.761719c4.53125 4.476562 7.070312 10.589843 7.039062 16.960937 0 6.363282-2.53125 12.46875-7.039062 16.960938l-21.921875 21.917968c-5.605469-15.847656-18.070313-28.3125-33.917969-33.917968l21.917969-21.921875c4.480468-4.527344 10.589844-7.078125 16.960937-7.078125 6.371094 0 12.480469 2.550781 16.960938 7.078125zm0 0" fill="#ffe477"/><path d="m366.339844 143.121094c-15.933594-5.539063-28.460938-18.066406-34-34-2.195313-5.996094-3.304688-12.332032-3.28125-18.71875-.023438-14.859375 5.871094-29.113282 16.378906-39.621094 10.503906-10.507812 24.761719-16.398438 39.621094-16.378906 6.410156-.03125 12.777344 1.078125 18.800781 3.28125 15.847656 5.605468 28.3125 18.070312 33.917969 33.917968 2.203125 6.023438 3.3125 12.390626 3.28125 18.800782 0 30.929687-25.074219 56-56 56-6.386719.023437-12.722656-1.085938-18.71875-3.28125zm0 0" fill="#d80027"/><path d="m366.339844 143.121094-19.761719 19.683594-33.921875-33.921876 19.683594-19.761718c5.539062 15.933594 18.066406 28.460937 34 34zm0 0" fill="#898890"/><path d="m335.296875 15.761719 24.640625 24.5625c-15.179688 7.625-26.09375 21.714843-29.679688 38.320312l-28.878906-28.960937c-6.421875-5.984375-9.066406-14.996094-6.894531-23.496094 2.171875-8.503906 8.8125-15.144531 17.316406-17.316406 8.503907-2.171875 17.515625.472656 23.496094 6.890625zm0 0" fill="#ffe477"/><path d="m346.578125 162.804688c12.023437 11.984374 18.78125 28.261718 18.78125 45.238281 0 16.976562-6.757813 33.253906-18.78125 45.238281l-152.71875 152.800781-124.480469-124.480469 152.800782-152.71875c11.984374-12.023437 28.261718-18.78125 45.238281-18.78125 16.976562 0 33.253906 6.757813 45.238281 18.78125zm-33.519531 55.597656c0-30.925782-25.074219-56-56-56-30.929688 0-56 25.074218-56 56 0 30.929687 25.070312 56 56 56 14.855468.011718 29.105468-5.886719 39.609375-16.390625 10.503906-10.503907 16.402343-24.753907 16.390625-39.609375zm0 0" fill="#d8d7da"/><path d="m313.058594 218.402344c0 30.929687-25.074219 56-56 56-30.929688 0-56-25.070313-56-56 0-30.925782 25.070312-56 56-56 30.925781 0 56 25.074218 56 56zm0 0" fill="#57a4ff"/><path d="m193.859375 406.082031-22.640625 22.5625-124.402344-124.402343 22.5625-22.640626zm0 0" fill="#c0ab91"/><path d="m182.578125 440.003906c6.25 6.25 6.25 16.386719 0 22.640625-6.25 6.25-16.386719 6.25-22.640625 0l-147.121094-147.121093c-6.25-6.253907-6.25-16.390626 0-22.640626 6.253906-6.25 16.390625-6.25 22.640625 0zm0 0" fill="#898890"/><path d="m474.738281 32.722656c-.0625-17.609375-14.292969-31.886718-31.902343-32h-.066407c-8.503906-.011718-16.660156 3.382813-22.648437 9.425782l-18.542969 18.496093c-13.15625-3.617187-27.132813-2.839843-39.808594 2.207031l-20.800781-20.746093c-7.984375-8.511719-19.976562-12.003907-31.285156-9.101563-11.308594 2.898438-20.140625 11.726563-23.046875 23.035156-2.902344 11.308594.582031 23.300782 9.09375 31.292969l26.046875 26.117188c-1.308594 8.5-.785156 17.179687 1.535156 25.457031l-10.972656 10.976562c-28.65625-22.847656-69.890625-20.554687-95.832032 5.328126l-169.722656 169.695312-5.65625-5.65625c-9.375-9.371094-24.574218-9.371094-33.945312.003906-9.375 9.375-9.375 24.574219.003906 33.949219l147.070312 147.070313c9.375 9.378906 24.578126 9.378906 33.953126 0 9.375-9.375 9.375-24.574219 0-33.949219l-5.65625-5.65625 169.703124-169.695313c25.875-25.949218 28.167969-67.179687 5.328126-95.832031l10.976562-10.976563c22.070312 6.003907 45.664062-.269531 61.835938-16.441406 16.171874-16.175781 22.4375-39.773437 16.425781-61.839844l18.539062-18.542968c6.015625-5.984375 9.394531-14.128906 9.375-22.617188zm-167.703125 11.28125c-3.039062-2.988281-4.746094-7.078125-4.738281-11.339844.007813-4.261718 1.734375-8.339843 4.785156-11.316406 6.324219-6.023437 16.273438-6 22.566407.054688l17.554687 17.496094c-8.792969 6.46875-15.789063 15.070312-20.335937 24.992187zm-130.144531 412.949219c-1.5 1.503906-3.539063 2.347656-5.660156 2.347656-2.125 0-4.160157-.84375-5.660157-2.347656l-147.0625-147.0625c-3.128906-3.132813-3.121093-8.210937.015626-11.335937 3.132812-3.125 8.207031-3.117188 11.335937.015624l147.03125 147.074219c3.121094 3.121094 3.121094 8.1875 0 11.308594zm-5.65625-39.589844-113.136719-113.136719 11.3125-11.320312 113.144532 113.144531zm169.703125-169.703125-147.078125 147.078125-113.136719-113.136719 147.078125-147.078124c21.886719-21.832032 57.316407-21.832032 79.203125 0l33.933594 33.933593c21.835938 21.886719 21.835938 57.316407 0 79.203125zm5.664062-96.167968-22.632812-22.632813 6.015625-6.015625c5.515625 9.332031 13.300781 17.117188 22.632813 22.632812zm38.457032-13.089844c-26.511719 0-48-21.488282-48-48 0-26.507813 21.488281-48 48-48 26.507812 0 48 21.492187 48 48-.027344 26.5-21.5 47.972656-48 48zm68.984375-94.398438-13.921875 13.917969c-5.515625-9.316406-13.289063-17.089844-22.605469-22.605469l13.917969-13.921875c2.996094-3.027343 7.078125-4.734375 11.335937-4.734375 4.253907.015625 8.324219 1.746094 11.289063 4.796875 3.023437 2.964844 4.710937 7.03125 4.679687 11.265625 0 4.234375-1.691406 8.296875-4.695312 11.28125zm0 0"/><path d="m379.402344 84.746094 15.996094-16 11.3125 11.3125-15.996094 16zm0 0"/><path d="m179.402344 284.746094 15.996094-15.996094 11.3125 11.3125-15.996094 16zm0 0"/><path d="m139.402344 324.746094 32-32.003906 11.316406 11.316406-32.003906 32zm0 0"/><path d="m219.398438 308.746094 16-16 11.3125 11.316406-15.996094 15.996094zm0 0"/><path d="m179.402344 348.742188 32-32 11.3125 11.3125-32 32zm0 0"/><path d="m155.402344 244.746094 15.996094-16 11.316406 11.316406-16 15.996094zm0 0"/><path d="m115.402344 284.742188 32.003906-32 11.3125 11.3125-32 32zm0 0"/><path d="m257.058594 154.402344c-35.347656 0-64 28.652344-64 64s28.652344 64 64 64 64-28.652344 64-64c-.039063-35.328125-28.671875-63.960938-64-64zm0 112c-26.511719 0-48-21.488282-48-48 0-26.507813 21.488281-48 48-48 26.507812 0 48 21.492187 48 48-.027344 26.5-21.5 47.972656-48 48zm0 0"/></svg>