<svg height="480pt" viewBox="-27 0 480 480" width="480pt" xmlns="http://www.w3.org/2000/svg"><path d="m418.480469 105.359375-33.921875 33.921875-11.277344-11.28125-45.28125-45.28125-11.28125-11.277344 33.921875-33.921875zm0 0" fill="#00b6bd"/><path d="m305.363281 105.363281 22.640625-22.636719 45.277344 45.277344-22.640625 22.636719zm0 0" fill="#d9ccbc"/><path d="m360 160v272c0 22.089844-17.910156 40-40 40h-272c-22.089844 0-40-17.910156-40-40v-384c0-22.089844 17.910156-40 40-40h40v80h200zm-32 272v-258.71875l-53.28125-53.28125h-226.71875c-4.417969 0-8 3.582031-8 8v304c0 4.417969 3.582031 8 8 8h272c4.417969 0 8-3.582031 8-8zm0 0" fill="#00b6bd"/><path d="m328 173.28125v258.71875c0 4.417969-3.582031 8-8 8h-272c-4.417969 0-8-3.582031-8-8v-304c0-4.417969 3.582031-8 8-8h226.71875zm-144 234.71875c26.507812 0 48-21.492188 48-48 0-26.480469-48-112-48-112s-48 85.519531-48 112c0 26.507812 21.492188 48 48 48zm-16-192v-64h-96v64zm0 0" fill="#d9ccbc"/><path d="m280 56v32h-32v-32h-160v-32h160c17.671875 0 32 14.328125 32 32zm0 0" fill="#00b6bd"/><path d="m232 360c0 26.507812-21.492188 48-48 48s-48-21.492188-48-48c0-26.480469 48-112 48-112s48 85.519531 48 112zm0 0" fill="#57a4ff"/><path d="m72 152h96v64h-96zm0 0" fill="#ffe477"/><path d="m280.398438 114.34375c-1.5-1.5-3.53125-2.34375-5.65625-2.34375h-226.742188c-8.835938 0-16 7.164062-16 16v304c0 8.835938 7.164062 16 16 16h272c8.835938 0 16-7.164062 16-16v-258.742188c0-2.125-.84375-4.15625-2.34375-5.65625zm39.601562 317.65625h-272v-304h223.433594l48.566406 48.566406zm0 0"/><path d="m176 216v-64c0-4.417969-3.582031-8-8-8h-96c-4.417969 0-8 3.582031-8 8v64c0 4.417969 3.582031 8 8 8h96c4.417969 0 8-3.582031 8-8zm-16-8h-80v-48h80zm0 0"/><path d="m177.023438 244.089844c-5.023438 8.933594-49.023438 88.109375-49.023438 115.910156 0 30.929688 25.070312 56 56 56s56-25.070312 56-56c0-27.800781-44-106.976562-49.023438-115.910156-1.535156-2.363282-4.160156-3.789063-6.976562-3.789063s-5.441406 1.425781-6.976562 3.789063zm6.976562 155.910156c-22.082031-.027344-39.972656-17.917969-40-40 0-15.808594 21.878906-61.695312 40-95.382812 18.121094 33.679687 40 79.566406 40 95.382812-.027344 22.082031-17.917969 39.972656-40 40zm0 0"/><path d="m184 384c13.117188.097656 23.847656-10.425781 24-23.542969h-16c-.242188 4.238281-3.753906 7.550781-8 7.542969zm0 0"/><path d="m192 160h96v16h-96zm0 0"/><path d="m192 192h96v16h-96zm0 0"/><path d="m424.167969 99.71875-67.878907-67.886719c-3.125-3.125-8.1875-3.125-11.3125 0l-33.945312 33.945313c-3.121094 3.121094-3.121094 8.1875 0 11.3125l5.65625 5.652344-11.3125 11.320312-11.71875-11.71875c-1.5-1.5-3.535156-2.34375-5.65625-2.34375v-24c-.027344-22.082031-17.917969-39.972656-40-40h-152v-8c0-4.417969-3.582031-8-8-8h-40c-26.5.0273438-47.9726562 21.5-48 48v384c.0273438 26.5 21.5 47.972656 48 48h272c26.5-.027344 47.972656-21.5 48-48v-272c0-2.121094-.84375-4.15625-2.34375-5.65625l-3.71875-3.71875 11.320312-11.3125 5.652344 5.65625c3.125 3.121094 8.191406 3.121094 11.3125 0l33.945313-33.9375c3.125-3.125 3.125-8.1875 0-11.3125zm-176.167969-67.71875c13.253906 0 24 10.746094 24 24v24h-16v-24c0-4.417969-3.582031-8-8-8h-152v-16zm-152 32h144v16h-144zm256 368c0 17.671875-14.328125 32-32 32h-272c-17.671875 0-32-14.328125-32-32v-384c0-17.671875 14.328125-32 32-32h32v72c0 4.417969 3.582031 8 8 8h196.6875l67.3125 67.3125zm9.945312-304-11.3125 11.3125-33.945312-33.9375 11.3125-11.320312zm22.621094 0-56.566406-56.566406 22.632812-22.632813 56.558594 56.566407zm0 0"/></svg>