<svg height="480pt" viewBox="0 0 480 480" width="480pt" xmlns="http://www.w3.org/2000/svg"><path d="m471.921875 98.503906-28.242187 28.320313-90.558594-90.5625 28.320312-28.238281zm0 0" fill="#c0ab91"/><path d="m392 311.941406c44.183594 0 80 35.816406 80 80s-35.816406 80-80 80-80-35.816406-80-80c-.035156-10.933594 2.230469-21.753906 6.640625-31.757812 12.078125 14.957031 21.199219 26.320312 25.359375 31.757812.339844 7.804688 2.359375 15.449219 5.921875 22.402344 2.25 4.546875 5.25 8.6875 8.878906 12.238281 11.964844 12.84375 29.988281 18.128907 46.992188 13.785157 17.007812-4.34375 30.289062-17.625 34.632812-34.628907 4.34375-17.007812-.945312-35.03125-13.785156-46.996093-3.550781-3.628907-7.691406-6.628907-12.242187-8.878907-6.953126-3.5625-14.59375-5.582031-22.398438-5.921875-5.441406-4.078125-16.800781-13.199218-31.761719-25.359375 10.007813-4.410156 20.828125-6.671875 31.761719-6.640625zm0 0" fill="#57a4ff"/><path d="m443.679688 126.824219-28.320313 28.238281-90.480469-90.480469 28.242188-28.320312zm0 0" fill="#57a4ff"/><path d="m426.640625 358.742188c12.839844 11.964843 18.128906 29.988281 13.785156 46.996093-4.34375 17.003907-17.625 30.285157-34.632812 34.628907-17.003907 4.34375-35.027344-.941407-46.992188-13.785157-3.628906-3.550781-6.628906-7.691406-8.878906-12.238281-3.5625-6.953125-5.582031-14.597656-5.921875-22.402344-4.160156-5.4375-13.28125-16.800781-25.359375-31.757812-20.71875-25.441406-50.160156-61.28125-78.640625-95.601563 7.601562-9.121093 15.011719-18 22.238281-26.640625 35.042969 29.039063 71.921875 59.441406 98 80.640625 14.960938 12.160157 26.320313 21.28125 31.761719 25.359375 7.804688.339844 15.445312 2.359375 22.398438 5.921875 4.550781 2.25 8.691406 5.25 12.242187 8.878907zm-17.679687 50.160156c9.378906-9.371094 9.386718-24.570313.011718-33.949219-9.371094-9.375-24.574218-9.375-33.945312 0-9.375 9.378906-9.367188 24.578125.011718 33.949219 9.371094 9.359375 24.550782 9.359375 33.921876 0zm0 0" fill="#d8d7da"/><path d="m415.359375 155.0625-90.480469 90.558594c-3 3.003906-7.074218 4.695312-11.320312 4.695312s-8.316406-1.691406-11.320313-4.695312l-25.277343-25.277344-17.359376-17.363281-19.601562-19.597657-5.679688-5.679687c-3.003906-3-4.691406-7.074219-4.691406-11.320313 0-4.246093 1.6875-8.320312 4.691406-11.320312l5.679688-5.679688 84.878906-84.800781zm-72.71875 27.519531c12.484375-12.5 12.476563-32.753906-.015625-45.246093-12.496094-12.492188-32.753906-12.492188-45.25 0-12.492188 12.492187-12.5 32.746093-.015625 45.246093 12.515625 12.480469 32.765625 12.480469 45.28125 0zm0 0" fill="#c0ab91"/><path d="m415.984375 391.941406c0 13.246094-10.738281 23.984375-23.984375 23.984375s-23.984375-10.738281-23.984375-23.984375 10.738281-23.984375 23.984375-23.984375 23.984375 10.738281 23.984375 23.984375zm0 0" fill="#57a4ff"/><path d="m352.015625 159.941406c0 17.683594-14.332031 32.015625-32.015625 32.015625s-32.015625-14.332031-32.015625-32.015625c0-17.679687 14.332031-32.015625 32.015625-32.015625s32.015625 14.335938 32.015625 32.015625zm0 0" fill="#d8d7da"/><path d="m259.601562 202.980469 17.359376 17.363281c-4.722657 5.597656-9.679688 11.519531-14.722657 17.597656-7.199219 8.640625-14.613281 17.519532-22.238281 26.640625-28.320312 34-57.839844 70-78.640625 95.519531-12.160156 14.960938-21.28125 26.402344-25.359375 31.839844-.339844 7.804688-2.359375 15.449219-5.921875 22.402344-2.25 4.546875-5.25 8.6875-8.878906 12.238281-11.964844 12.84375-29.988281 18.128907-46.992188 13.785157-17.007812-4.34375-30.289062-17.625-34.632812-34.628907-4.34375-17.007812.945312-35.03125 13.785156-46.996093 3.550781-3.628907 7.691406-6.628907 12.242187-8.878907 6.953126-3.5625 14.59375-5.582031 22.398438-5.921875 5.441406-4.078125 16.878906-13.199218 31.839844-25.359375 26.160156-21.28125 63.199218-51.679687 97.921875-80.640625 7.597656-6.320312 15.039062-12.480468 22.238281-18.558594 6.800781-5.679687 13.359375-11.121093 19.601562-16.402343zm-154.640624 205.921875c9.378906-9.371094 9.386718-24.570313.011718-33.949219-9.371094-9.375-24.574218-9.375-33.945312 0-9.375 9.378906-9.367188 24.578125.011718 33.949219 9.371094 9.359375 24.550782 9.359375 33.921876 0zm0 0" fill="#d8d7da"/><path d="m240 149.382812-5.679688 5.679688c-3.003906 3-4.691406 7.074219-4.691406 11.320312 0 4.246094 1.6875 8.320313 4.691406 11.320313l5.679688 5.679687-19.601562 19.597657-17.359376 17.363281-25.277343 25.277344c-3.003907 3.003906-7.074219 4.695312-11.320313 4.695312s-8.320312-1.691406-11.320312-4.695312l-90.480469-90.558594 90.480469-90.480469zm-57.359375 33.199219c12.484375-12.5 12.476563-32.753906-.015625-45.246093-12.496094-12.492188-32.753906-12.492188-45.25 0-12.492188 12.492187-12.5 32.746093-.015625 45.246093 12.515625 12.480469 32.765625 12.480469 45.28125 0zm0 0" fill="#c0ab91"/><path d="m220.398438 202.980469c6.242187 5.203125 12.800781 10.722656 19.601562 16.402343-7.199219 6.078126-14.640625 12.238282-22.238281 18.558594-5.042969-6.078125-10-12-14.722657-17.597656zm0 0" fill="#d8d7da"/><path d="m192.015625 159.941406c0 17.683594-14.332031 32.015625-32.015625 32.015625s-32.015625-14.332031-32.015625-32.015625c0-17.679687 14.332031-32.015625 32.015625-32.015625s32.015625 14.335938 32.015625 32.015625zm0 0" fill="#d8d7da"/><path d="m161.359375 360.101562c4.417969 10.03125 6.683594 20.878907 6.640625 31.839844 0 44.183594-35.816406 80-80 80s-80-35.816406-80-80 35.816406-80 80-80c10.960938-.039062 21.808594 2.222656 31.839844 6.640625-14.960938 12.160157-26.398438 21.28125-31.839844 25.359375-7.804688.339844-15.445312 2.359375-22.398438 5.921875-4.550781 2.25-8.691406 5.25-12.242187 8.878907-12.839844 11.964843-18.128906 29.988281-13.785156 46.996093 4.34375 17.003907 17.625 30.285157 34.632812 34.628907 17.003907 4.34375 35.027344-.941407 46.992188-13.785157 3.628906-3.550781 6.628906-7.691406 8.878906-12.238281 3.5625-6.953125 5.582031-14.597656 5.921875-22.402344 4.078125-5.4375 13.199219-16.878906 25.359375-31.839844zm0 0" fill="#57a4ff"/><path d="m126.878906 36.261719 28.242188 28.320312-90.480469 90.480469-28.320313-28.238281zm0 0" fill="#57a4ff"/><path d="m126.878906 36.261719-90.558594 90.5625-28.242187-28.320313 90.480469-90.480468zm0 0" fill="#c0ab91"/><path d="m111.984375 391.941406c0 13.246094-10.738281 23.984375-23.984375 23.984375s-23.984375-10.738281-23.984375-23.984375 10.738281-23.984375 23.984375-23.984375 23.984375 10.738281 23.984375 23.984375zm0 0" fill="#57a4ff"/><path d="m65.375 369.316406c-12.5 12.496094-12.5 32.761719-.003906 45.257813 12.496094 12.5 32.761718 12.5 45.257812 0 12.496094-12.496094 12.496094-32.761719-.003906-45.257813-12.65625-12.09375-32.59375-12.09375-45.25 0zm33.9375 33.9375c-6.328125 6.046875-16.296875 6.046875-22.625 0-6.25-6.246094-6.25-16.378906 0-22.628906 6.246094-6.25 16.378906-6.25 22.625 0 6.25 6.25 6.25 16.382812 0 22.628906zm0 0"/><path d="m348.289062 131.652344c-15.625-15.617188-40.949218-15.613282-56.566406.007812-15.621094 15.621094-15.621094 40.945313 0 56.566406 15.617188 15.621094 40.941406 15.621094 56.566406.003907 15.589844-15.636719 15.589844-40.941407 0-56.578125zm-11.3125 45.265625c-9.375 9.367187-24.566406 9.367187-33.9375-.007813-9.371093-9.371094-9.371093-24.5625 0-33.9375 9.371094-9.371094 24.5625-9.375 33.9375-.007812 9.347657 9.386718 9.347657 24.566406 0 33.953125zm0 0"/><path d="m392 423.941406c12.941406 0 24.605469-7.796875 29.558594-19.753906 4.949218-11.957031 2.214844-25.71875-6.933594-34.871094-12.65625-12.09375-32.59375-12.09375-45.25 0-9.148438 9.152344-11.882812 22.914063-6.933594 34.871094 4.953125 11.957031 16.617188 19.753906 29.558594 19.753906zm-11.3125-43.3125c4.019531-4.15625 9.964844-5.824218 15.5625-4.363281 5.59375 1.464844 9.960938 5.835937 11.425781 11.429687 1.464844 5.59375-.203125 11.542969-4.363281 15.558594-6.328125 6.046875-16.296875 6.046875-22.625 0-6.246094-6.246094-6.246094-16.375 0-22.625zm0 0"/><path d="m131.710938 131.652344c-15.617188 15.625-15.613282 40.949218.007812 56.566406 15.617188 15.621094 40.945312 15.621094 56.5625 0 15.621094-15.617188 15.625-40.941406.007812-56.566406-15.636718-15.589844-40.941406-15.589844-56.578124 0zm45.265624 45.265625c-9.375 9.367187-24.566406 9.367187-33.9375-.007813-9.371093-9.371094-9.371093-24.5625 0-33.9375 9.371094-9.371094 24.5625-9.375 33.9375-.007812 9.347657 9.386718 9.347657 24.566406 0 33.953125zm0 0"/><path d="m392 303.941406c-10.335938.007813-20.585938 1.878906-30.257812 5.519532-24.796876-20.199219-57.910157-47.453126-88.238282-72.574219l4-4.726563 19.097656 19.09375c9.371094 9.371094 24.5625 9.371094 33.933594 0l147.066406-147.078125c3.121094-3.125 3.121094-8.191406 0-11.3125l-90.523437-90.519531c-3.121094-3.125-8.1875-3.125-11.308594 0l-135.769531 135.75-135.785156-135.75c-3.121094-3.125-8.1875-3.125-11.3125 0l-90.503906 90.503906c-3.121094 3.121094-3.121094 8.1875 0 11.3125l147.050781 147.117188c9.371093 9.378906 24.578125 9.378906 33.949219 0l19.113281-19.109375 4 4.796875c-31.199219 25.914062-63.785157 52.714844-88.167969 72.53125-9.699219-3.660156-19.976562-5.539063-30.34375-5.554688-48.601562 0-88 39.398438-88 88 0 48.601563 39.398438 88 88 88s88-39.398437 88-88c-.003906-10.359375-1.875-20.636718-5.519531-30.335937 19.046875-23.429688 44.527343-54.398438 69.496093-84.511719 24.085938 29.113281 50.070313 60.6875 69.535157 84.601562-3.636719 9.667969-5.5 19.914063-5.511719 30.246094 0 48.601563 39.398438 88 88 88s88-39.398437 88-88c0-48.601562-39.398438-88-88-88zm-262.398438 83.199219c-1.027343 1.371094-1.589843 3.035156-1.601562 4.746094-.335938 6.632812-2.085938 13.113281-5.128906 19.015625-1.863282 3.746094-4.347656 7.152344-7.34375 10.070312-9.964844 10.742188-25.003906 15.179688-39.203125 11.5625-14.195313-3.617187-25.28125-14.707031-28.890625-28.910156-3.609375-14.199219.835937-29.238281 11.582031-39.195312 2.976563-3.042969 6.449219-5.554688 10.273437-7.429688 5.835938-3 12.246094-4.726562 18.800782-5.058594 1.710937-.011718 3.371094-.570312 4.742187-1.597656 18.769531-14.242188 106.839844-86.546875 166.304688-136.519531l6.984375 6.980469c-49.976563 59.464843-122.28125 147.539062-136.519532 166.335937zm118.160157-184.636719-7.761719 6.503906-7.785156-6.523437 7.769531-7.757813zm71.4375 37.4375c-3.160157 3.023438-8.140625 3.023438-11.304688 0l-67.894531-67.886718c-3.125-3.125-3.125-8.1875 0-11.3125l84.855469-84.847657 79.199219 79.199219zm16.976562-175.359375 16.96875-16.976562 79.199219 79.199219-16.984375 16.96875zm45.257813-45.253906 79.199218 79.199219-16.96875 16.976562-79.199218-79.203125zm-237.601563 45.253906-79.199219 79.199219-16.960937-16.984375 79.199219-79.199219zm-45.273437-45.246093 16.984375 16.964843-79.199219 79.203125-16.953125-17zm73.546875 220.605468c-3.171875 3.003906-8.136719 3.003906-11.304688 0l-84.800781-84.878906 79.199219-79.199219 73.554687 73.519531c-9.375 9.371094-9.375 24.570313 0 33.945313zm41.773437-19.152344 7-7 6.671875 5.601563-8.742187 7.296875c-1.664063-1.945312-3.296875-3.9375-4.929688-5.875zm-53.878906 171.152344c0 30.535156-19.257812 57.75-48.050781 67.90625-28.796875 10.15625-60.867188 1.042969-80.019531-22.734375-19.15625-23.777343-21.226563-57.054687-5.171876-83.027343 16.054688-25.96875 46.746094-38.992188 76.578126-32.488282-7.800782 6.28125-14.105469 11.296875-18.207032 14.472656-8.015625.699219-15.824218 2.933594-22.992187 6.582032-5.351563 2.632812-10.222657 6.148437-14.402344 10.402344-14.933594 13.96875-21.066406 34.972656-15.996094 54.785156 5.070313 19.8125 20.539063 35.285156 40.351563 40.363281 19.8125 5.074219 40.816406-1.054687 54.789062-15.988281 4.214844-4.125 7.703125-8.925782 10.320313-14.207032 3.703125-7.234374 5.976562-15.109374 6.695312-23.203124 3.203125-4.101563 8.195313-10.398438 14.472657-18.207032 1.09375 5.042969 1.640624 10.1875 1.632812 15.34375zm103.199219-142.78125c52.097656 43.117188 109.136719 89.910156 124 101.183594 1.371093 1.027344 3.03125 1.585938 4.746093 1.597656 6.628907.335938 13.113282 2.085938 19.015626 5.128906 3.746093 1.863282 7.148437 4.347657 10.070312 7.34375 10.742188 9.964844 15.179688 25.003907 11.5625 39.203126-3.617188 14.199218-14.710938 25.28125-28.910156 28.890624-14.199219 3.609376-29.238282-.832031-39.195313-11.582031-3.042969-2.976562-5.554687-6.449219-7.433593-10.273437-3-5.835938-4.722657-12.242188-5.054688-18.796875-.011719-1.714844-.570312-3.382813-1.601562-4.753907-11.199219-14.765624-57.558594-71.269531-100-122.527343zm128.800781 214.78125c-21.785156.023438-42.402344-9.828125-56.074219-26.789062-13.667969-16.960938-18.917969-39.199219-14.269531-60.480469 6.273438 7.757813 11.304688 14.070313 14.472656 18.152344.703125 8.011719 2.9375 15.8125 6.582032 22.980469 2.632812 5.351562 6.148437 10.222656 10.402343 14.402343 13.96875 14.9375 34.972657 21.070313 54.785157 15.996094 19.8125-5.070313 35.285156-20.539063 40.359374-40.351563 5.078126-19.8125-1.050781-40.816406-15.984374-54.789062-4.125-4.210938-8.929688-7.703125-14.210938-10.320312-7.230469-3.699219-15.105469-5.972657-23.199219-6.695313-4.070312-3.160156-10.398437-8.191406-18.152343-14.464844 5.023437-1.097656 10.148437-1.648437 15.289062-1.640625 39.765625 0 72 32.238282 72 72 0 39.765625-32.234375 72-72 72zm0 0"/></svg>