<svg height="480pt" viewBox="-24 0 480 480" width="480pt" xmlns="http://www.w3.org/2000/svg"><path d="m424 24v432c-.027344 8.824219-7.175781 15.972656-16 16h-384c-8.824219-.027344-15.972656-7.175781-16-16v-432c.027344-8.824219 7.175781-15.972656 16-16h384c8.824219.027344 15.972656 7.175781 16 16zm-64 232v-32h-32v-8h-32c-.027344-8.824219-7.175781-15.972656-16-16h-8v-128c-.015625-8.484375-3.378906-16.621094-9.359375-22.640625-5.710937-5.699219-13.375-9.015625-21.441406-9.28125-.394531-.066406-.796875-.089844-1.199219-.078125-17.671875 0-32 14.328125-32 32v128h-16c-4.417969 0-8 3.582031-8 8v64c0 4.417969 3.582031 8 8 8h16v128c-.023438 17.207031 13.605469 31.328125 30.800781 31.921875.394531.066406.796875.089844 1.199219.078125 8.488281.011719 16.636719-3.355469 22.640625-9.359375s9.371094-14.152344 9.359375-22.640625v-128h8c8.824219-.027344 15.972656-7.175781 16-16h32v-8zm-208 184v-400h-112v400zm0 0" fill="#d8d7da"/><path d="m328 224h32v32h-32zm0 0" fill="#57a4ff"/><path d="m328 256v8h-32v-48h32zm0 0" fill="#c0ab91"/><path d="m296 216v48c-.027344 8.824219-7.175781 15.972656-16 16h-88c-4.417969 0-8-3.582031-8-8v-64c0-4.417969 3.582031-8 8-8h88c8.824219.027344 15.972656 7.175781 16 16zm0 0" fill="#ffe477"/><path d="m272 280v128c.011719 8.488281-3.355469 16.636719-9.359375 22.640625s-14.152344 9.371094-22.640625 9.359375c-.402344.011719-.804688-.011719-1.199219-.078125l1.199219-23.921875v-136zm0 0" fill="#787680"/><path d="m272 72v128h-32v-136l1.199219-23.921875c8.066406.265625 15.730469 3.582031 21.441406 9.28125 5.980469 6.019531 9.34375 14.15625 9.359375 22.640625zm0 0" fill="#787680"/><path d="m241.199219 40.078125-1.199219 23.921875v136h-32v-128c0-17.671875 14.328125-32 32-32 .402344-.011719.804688.011719 1.199219.078125zm0 0" fill="#787680"/><path d="m240 400v16l-1.199219 23.921875c-17.195312-.59375-30.824219-14.714844-30.800781-31.921875v-128h32zm0 0" fill="#787680"/><g fill="#57a4ff"><path d="m152 400v40h-112v-40zm0 0"/><path d="m152 280v120h-112v-120zm-32 88v-48h-48v48zm0 0"/><path d="m152 160v120h-112v-120zm-32 88v-48h-48v48zm0 0"/><path d="m152 40v120h-112v-120zm-32 88v-48h-48v48zm0 0"/></g><path d="m72 320h48v48h-48zm0 0" fill="#d80027"/><path d="m72 200h48v48h-48zm0 0" fill="#ffe477"/><path d="m72 80h48v48h-48zm0 0" fill="#00b6bd"/><path d="m408 0h-384c-13.253906 0-24 10.746094-24 24v432c0 13.253906 10.746094 24 24 24h384c13.253906 0 24-10.746094 24-24v-432c0-13.253906-10.746094-24-24-24zm8 456c0 4.417969-3.582031 8-8 8h-384c-4.417969 0-8-3.582031-8-8v-432c0-4.417969 3.582031-8 8-8h384c4.417969 0 8 3.582031 8 8zm0 0"/><path d="m152 32h-112c-4.417969 0-8 3.582031-8 8v400c0 4.417969 3.582031 8 8 8h112c4.417969 0 8-3.582031 8-8v-400c0-4.417969-3.582031-8-8-8zm-8 400h-96v-384h96zm0 0"/><path d="m72 136h48c4.417969 0 8-3.582031 8-8v-48c0-4.417969-3.582031-8-8-8h-48c-4.417969 0-8 3.582031-8 8v48c0 4.417969 3.582031 8 8 8zm8-48h32v32h-32zm0 0"/><path d="m64 152h64v16h-64zm0 0"/><path d="m72 256h48c4.417969 0 8-3.582031 8-8v-48c0-4.417969-3.582031-8-8-8h-48c-4.417969 0-8 3.582031-8 8v48c0 4.417969 3.582031 8 8 8zm8-48h32v32h-32zm0 0"/><path d="m64 272h64v16h-64zm0 0"/><path d="m72 376h48c4.417969 0 8-3.582031 8-8v-48c0-4.417969-3.582031-8-8-8h-48c-4.417969 0-8 3.582031-8 8v48c0 4.417969 3.582031 8 8 8zm8-48h32v32h-32zm0 0"/><path d="m64 392h64v16h-64zm0 0"/><path d="m232 64h16v16h-16zm0 0"/><path d="m232 400h16v16h-16zm0 0"/><path d="m392 72h-64v16h56v304h-56v16h64c4.417969 0 8-3.582031 8-8v-320c0-4.417969-3.582031-8-8-8zm0 0"/><path d="m328 272c4.417969 0 8-3.582031 8-8h24c4.417969 0 8-3.582031 8-8v-32c0-4.417969-3.582031-8-8-8h-24c0-4.417969-3.582031-8-8-8h-25.472656c-3.378906-9.554688-12.394532-15.957031-22.527344-16v-120c0-22.089844-17.910156-40-40-40s-40 17.910156-40 40v120h-8c-8.835938 0-16 7.164062-16 16v64c0 8.835938 7.164062 16 16 16h8v120c0 22.089844 17.910156 40 40 40s40-17.910156 40-40v-120c10.132812-.042969 19.148438-6.445312 22.527344-16zm24-40v16h-16v-16zm-32 24h-16v-32h16zm-104-184c0-13.253906 10.746094-24 24-24s24 10.746094 24 24v120h-16v-96h-16v96h-16zm48 336c0 13.253906-10.746094 24-24 24s-24-10.746094-24-24v-120h16v96h16v-96h16zm16-136h-88v-64h88c4.417969 0 8 3.582031 8 8v48c0 4.417969-3.582031 8-8 8zm0 0"/></svg>