<svg height="484pt" viewBox="0 -11 484.50661 484" width="484pt" xmlns="http://www.w3.org/2000/svg"><path d="m476.507812 30.894531-28.320312 39.597657-33.921875-33.917969 39.601563-28.320313zm0 0" fill="#898890"/><path d="m453.867188 76.171875-22.640626 22.5625-45.199218-45.203125 22.558594-22.636719 5.679687 5.679688 33.921875 33.917969zm0 0" fill="#d8d7da"/><path d="m431.226562 98.734375-28.238281 39.597656-56.5625-56.558593 39.601563-28.242188zm0 0" fill="#57a4ff"/><path d="m402.988281 138.332031c4.554688 4.585938 5.90625 11.464844 3.421875 17.433594-2.484375 5.964844-8.316406 9.851563-14.785156 9.847656-4.226562.019531-8.285156-1.652343-11.277344-4.640625l-56.5625-56.558594c-4.554687-4.585937-5.90625-11.464843-3.421875-17.433593 2.484375-5.964844 8.320313-9.851563 14.785157-9.847657 4.226562-.019531 8.285156 1.652344 11.277343 4.640626zm0 0" fill="#d8d7da"/><path d="m380.347656 160.972656c6.25 6.253906 6.25 16.386719 0 22.640625-6.253906 6.25-16.390625 6.25-22.640625 0l-56.558593-56.558593c-6.253907-6.253907-6.253907-16.390626 0-22.640626 6.25-6.253906 16.386718-6.253906 22.636718 0zm0 0" fill="#57a4ff"/><path d="m357.707031 183.613281c4.558594 4.585938 5.910157 11.460938 3.421875 17.429688-2.484375 5.96875-8.316406 9.855469-14.78125 9.851562-4.230468.015625-8.289062-1.652343-11.28125-4.640625l-56.558594-56.5625c-4.558593-4.582031-5.910156-11.460937-3.425781-17.429687 2.488281-5.96875 8.320313-9.855469 14.785157-9.847657 4.226562-.019531 8.289062 1.652344 11.28125 4.640626zm0 0" fill="#d8d7da"/><path d="m335.066406 206.253906-43.28125 60.640625-12.078125-17.363281c1.617188-1.066406 3.117188-2.300781 4.480469-3.679688 12.503906-12.503906 12.503906-32.773437 0-45.277343-12.503906-12.503907-32.777344-12.503907-45.28125 0-1.378906 1.363281-2.609375 2.863281-3.679688 4.480469l-17.359374-12.082032 60.640624-43.28125zm0 0" fill="#ffe477"/><path d="m291.785156 266.894531 20.640625 29.839844-45.199219 45.277344-16.960937-16.957031-90.558594-90.5625-16.960937-16.960938 45.28125-45.199219 29.839844 20.640625 17.359374 12.082032c-8.695312 12.707031-7.105468 29.808593 3.78125 40.695312 10.890626 10.890625 27.988282 12.480469 40.699219 3.78125zm0 0" fill="#ffe477"/><path d="m284.1875 200.574219c12.476562 12.511719 12.476562 32.765625 0 45.277343-1.363281 1.378907-2.863281 2.613282-4.480469 3.679688-12.710937 8.699219-29.808593 7.109375-40.699219-3.78125-10.886718-10.886719-12.476562-27.988281-3.78125-40.695312 1.070313-1.617188 2.300782-3.117188 3.679688-4.480469 12.515625-12.480469 32.765625-12.480469 45.28125 0zm0 0" fill="#57a4ff"/><path d="m250.265625 325.054688c6.867187 6.871093 8.910156 17.207031 5.179687 26.175781-3.730468 8.972656-12.503906 14.804687-22.21875 14.78125-6.371093.035156-12.484374-2.503907-16.960937-7.039063l-90.480469-90.480468c-9.355468-9.398438-9.355468-24.597657 0-34 4.496094-4.503907 10.597656-7.039063 16.960938-7.039063 6.363281 0 12.46875 2.535156 16.960937 7.039063zm0 0" fill="#d8d7da"/><path d="m216.265625 358.972656c9.359375 9.371094 9.359375 24.550782 0 33.921875-4.492187 4.503907-10.59375 7.039063-16.957031 7.039063-6.367188 0-12.46875-2.535156-16.960938-7.039063l-90.480468-90.480469c-6.421876-5.984374-9.0625-14.996093-6.894532-23.5 2.171875-8.5 8.8125-15.140624 17.316406-17.3125 8.503907-2.171874 17.515626.46875 23.496094 6.890626zm0 0" fill="#57a4ff"/><path d="m182.347656 392.894531c9.386719 9.367188 9.40625 24.570313.039063 33.957031-9.367188 9.390626-24.570313 9.410157-33.960938.042969l-45.277343-45.28125-45.28125-45.28125c-9.359376-9.371093-9.359376-24.546875 0-33.917969 9.390624-9.386718 24.609374-9.386718 34 0zm0 0" fill="#d8d7da"/><path d="m79.945312 426.253906c5.78125 5.582032 6.757813 14.496094 2.320313 21.199219-2.734375 3.847656-7.027344 6.292969-11.734375 6.675781-4.703125.386719-9.339844-1.324218-12.664062-4.675781l-45.199219-45.199219c-3.019531-2.992187-4.71875-7.070312-4.71875-11.320312 0-4.253906 1.699219-8.328125 4.71875-11.320313l11.277343-11.359375 33.921876-33.921875 22.640624 22.640625-33.921874 33.921875 22.640624 22.636719zm0 0" fill="#898890"/><path d="m482.164062 25.222656-22.625-22.625c-2.765624-2.765625-7.121093-3.128906-10.304687-.855468l-34.085937 24.34375-.867188-.863282c-3.171875-3.003906-8.136719-3.003906-11.308594 0l-22.167968 22.167969-34.457032 24.621094c-7.203125-3.914063-15.914062-3.839844-23.050781.195312-7.136719 4.03125-11.691406 11.457031-12.054687 19.644531-12.367188.519532-22.238282 10.488282-22.640626 22.859376-12.765624.351562-22.886718 10.875-22.742187 23.644531-.003906 3.171875.621094 6.308593 1.839844 9.234375l-49.894531 35.625-25.242188-17.515625c-3.179688-2.195313-7.476562-1.804688-10.207031.929687l-45.265625 45.257813c-2.242188 2.253906-2.9375 5.625-1.765625 8.582031-15.339844 3.5-25.726563 17.796875-24.320313 33.464844-8.820312-.800782-17.566406 2.164062-24.078125 8.164062-6.511719 5.996094-10.1875 14.46875-10.113281 23.324219 0 .734375.160156 1.429687.214844 2.160156-11.820313-.882812-23.144532 4.894531-29.371094 14.980469s-6.3125 22.800781-.230469 32.96875l-40.398437 40.402344c-9.371094 9.371094-9.371094 24.5625 0 33.933594l45.246094 45.257812c4.496093 4.507812 10.601562 7.039062 16.96875 7.03125.640624 0 1.289062 0 1.9375-.078125 7.046874-.585937 13.484374-4.238281 17.597656-9.992187 6.695312-9.894532 5.347656-23.160157-3.199219-31.503907l-27.679687-27.679687 22.625-22.625 11.320312 11.335937-11.3125 11.3125 11.3125 11.3125 11.304688-11.320312 39.589843 39.597656c9.398438 9.464844 23.699219 12.074219 35.835938 6.542969 12.136719-5.535156 19.542969-18.039063 18.566406-31.339844.71875.046875 1.421875.214844 2.160156.214844 17.671875 0 32-14.328125 32-32 0-.738282-.167969-1.433594-.21875-2.160156.722657.046874 1.433594.207031 2.152344.207031 14.808594.070312 27.691406-10.128907 31.015625-24.558594.929688.375 1.925781.570313 2.929688.574219 2.121093 0 4.15625-.84375 5.65625-2.34375l45.277343-45.238282c2.738281-2.734374 3.128907-7.027343.929688-10.210937l-17.496094-25.246094 35.632813-49.863281c8.980468 3.742188 19.332031 1.691406 26.207031-5.191406 4.179687-4.199219 6.644531-9.808594 6.902343-15.730469 12.277344-.507813 22.113282-10.347656 22.617188-22.621094 8.199219-.359375 15.632812-4.917969 19.667969-12.066406 4.035156-7.144531 4.101562-15.867187.171875-23.070313l24.632812-34.488281 22.167969-22.167969c3.125-3.125 3.125-8.1875 0-11.3125l-.871094-.832031 24.34375-34.089843c2.269531-3.179688 1.90625-7.539063-.855469-10.300782zm-441.234374 362.039063c-3.121094 3.125-3.121094 8.1875 0 11.3125l33.328124 33.335937c3.019532 2.792969 3.652344 7.324219 1.519532 10.839844-1.351563 1.941406-3.5 3.1875-5.859375 3.394531s-4.6875-.640625-6.363281-2.316406l-45.207032-45.261719c-3.117187-3.125-3.117187-8.183594 0-11.304687l39.589844-39.59375 11.3125 11.3125zm140.449218 22.632812c0 6.472657-3.898437 12.308594-9.878906 14.785157-5.980469 2.476562-12.867188 1.105468-17.441406-3.476563l-90.503906-90.503906c-6.230469-6.257813-6.230469-16.378907 0-22.636719 6.335937-6.039062 16.296874-6.039062 22.632812 0l90.511719 90.511719c3.007812 2.996093 4.691406 7.074219 4.679687 11.320312zm33.945313-33.945312c.011719 4.246093-1.679688 8.320312-4.6875 11.3125-6.332031 6.046875-16.296875 6.046875-22.625 0l-90.511719-90.511719c-4.160156-4.019531-5.828125-9.96875-4.363281-15.5625 1.464843-5.59375 5.832031-9.960938 11.425781-11.425781 5.59375-1.464844 11.542969.203125 15.558594 4.363281l90.515625 90.511719c3.007812 2.992187 4.699219 7.066406 4.6875 11.3125zm29.253906-22.625c-6.332031 6.046875-16.300781 6.046875-22.632813 0l-90.511718-90.511719c-6.257813-6.238281-6.273438-16.367188-.035156-22.628906 6.238281-6.257813 16.371093-6.273438 22.628906-.035156l90.582031 90.585937c6.226563 6.242187 6.226563 16.347656 0 22.589844zm22.625-22.625-11.28125-11.277344-101.863281-101.863281 34.878906-34.875 35.808594 24.839844c-6.449219 15.023437-3.101563 32.460937 8.460937 44.023437 11.558594 11.5625 28.996094 14.914063 44.019531 8.464844l24.847657 35.832031zm11.3125-90.519531c-9.496094 9.066406-24.441406 9.066406-33.9375 0-9.375-9.371094-9.375-24.566407-.003906-33.941407 9.375-9.375 24.570312-9.375 33.945312 0 9.371094 9.375 9.371094 24.570313-.003906 33.941407zm13.335937 12.800781-1.488281-2.152344c14.824219-15.710937 14.460938-40.359375-.816406-55.628906s-39.929687-15.617188-55.632813-.785157l-2.152343-1.488281 45.890625-32.800781 46.984375 46.984375zm60.191407-52.40625c-3.160157 3.023437-8.144531 3.023437-11.304688 0l-56.566406-56.5625c-1.5-1.5-2.34375-3.53125-2.34375-5.65625-.003906-3.238281 1.945313-6.15625 4.9375-7.398438 2.992187-1.238281 6.4375-.550781 8.726563 1.742188l56.558593 56.5625c1.503907 1.5 2.347657 3.539062 2.347657 5.664062-.003907 2.125-.851563 4.164063-2.355469 5.664063zm22.648437-22.632813c-1.5 1.5-3.539062 2.347656-5.660156 2.347656-2.125 0-4.160156-.847656-5.660156-2.347656l-56.566406-56.570312c-3.128907-3.121094-3.128907-8.1875-.003907-11.3125 3.121094-3.128906 8.1875-3.128906 11.3125-.003906l56.570313 56.574218c1.503906 1.5 2.351562 3.539063 2.355468 5.664063 0 2.125-.84375 4.164062-2.347656 5.664062zm22.625-22.625c-3.164062 3.023438-8.144531 3.023438-11.304687 0l-56.578125-56.582031c-1.507813-1.492187-2.351563-3.527344-2.34375-5.648437 0-3.234376 1.949218-6.152344 4.941406-7.390626 2.988281-1.238281 6.425781-.554687 8.714844 1.734376l56.570312 56.582031c1.5 1.5 2.34375 3.539062 2.34375 5.660156 0 2.125-.84375 4.160156-2.34375 5.660156zm4.628906-29.304687-43.199218-43.199219 26.402344-18.855469 35.671874 35.671875zm29.304688-38.582031-33.933594-33.921876 11.308594-11.320312 33.945312 33.945312zm15.953125-29.304688-20.585937-20.566406 26.402343-18.859375 13.039063 13.042969zm0 0"/></svg>