<svg height="480pt" viewBox="0 0 480 480" width="480pt" xmlns="http://www.w3.org/2000/svg"><path d="m323.921875 94.558594c-25.488281-14.808594-54.445313-22.59375-83.921875-22.558594v-48l.398438-16c127.976562.21875 231.601562 104.027344 231.601562 232h-64c-.082031-60.003906-32.121094-115.425781-84.078125-145.441406zm0 0" fill="#898890"/><path d="m456 240h16c.097656 61.554688-24.347656 120.605469-67.921875 164.078125l-44.078125-44.078125c10.5625-10.4375 19.5625-22.347656 26.71875-35.359375 14.140625-25.960937 21.460938-55.082031 21.28125-84.640625zm0 0" fill="#898890"/><path d="m408 240h-64c-.003906-6.628906-.617188-13.246094-1.839844-19.761719 23.359375-11.277343 41.839844-20.238281 41.839844-20.238281l18.71875-1.921875c3.515625 13.699219 5.292969 27.78125 5.28125 41.921875zm0 0" fill="#d80027"/><path d="m344 240h64c.179688 29.558594-7.140625 58.679688-21.28125 84.640625l-1.199219-.640625-55.441406-32-1.277344-.800781c9.84375-15.269531 15.117188-33.03125 15.199219-51.199219zm0 0" fill="#d80027"/><path d="m392 392 12.078125 12.078125c-44.894531 44.859375-106.199219 69.378906-169.648437 67.855469-63.449219-1.527344-123.503907-28.96875-166.191407-75.933594l19.761719-4 80-80c-6.34375-6.296875-11.980469-13.273438-16.800781-20.800781-9.84375-15.269531-15.117188-33.03125-15.199219-51.199219-.148438-47.121094 31.453125-88.429688 76.972656-100.617188 45.515625-12.1875 93.53125 7.808594 116.949219 48.695313 3.097656 5.265625 5.695313 10.8125 7.757813 16.5625v.078125c-40.238282 4.160156-93.28125 10-100.71875 12.082031-12.445313 3.847657-19.59375 16.875-16.160157 29.4375 1.363281 6.023438 5.117188 11.230469 10.398438 14.429688 5.277343 3.195312 11.632812 4.113281 17.601562 2.53125 7.4375-2.078125 56.480469-25.359375 93.359375-42.960938 1.222656 6.515625 1.835938 13.132813 1.839844 19.761719-.082031 18.167969-5.355469 35.929688-15.199219 51.199219-4.820312 7.527343-10.457031 14.503906-16.800781 20.800781zm-40 24v-32h-224v32zm0 0" fill="#d8d7da"/><path d="m402.71875 198.078125-18.71875 1.921875s-20.558594 2.078125-46.320312 4.71875v-.078125c-2.0625-5.75-4.660157-11.296875-7.757813-16.5625l.15625-.078125 55.363281-31.921875c7.644532 13.148437 13.457032 27.28125 17.277344 42zm0 0" fill="#d80027"/><path d="m385.519531 324 1.199219.640625c-7.15625 13.011719-16.15625 24.921875-26.71875 35.359375l-48-48c6.34375-6.296875 11.980469-13.273438 16.800781-20.800781l1.277344.800781zm0 0" fill="#d80027"/><g fill="#ffe477"><path d="m385.441406 156.078125-55.363281 31.921875-.15625.078125c-9.070313-15.828125-22.152344-28.988281-37.921875-38.15625l31.921875-55.363281c25.550781 14.753906 46.765625 35.96875 61.519531 61.519531zm0 0"/><path d="m128 384h224v32h-224zm0 0"/><path d="m342.160156 220.238281c-36.878906 17.601563-85.921875 40.882813-93.359375 42.960938-5.96875 1.582031-12.324219.664062-17.601562-2.53125-5.28125-3.199219-9.035157-8.40625-10.398438-14.429688-3.433593-12.5625 3.714844-25.589843 16.160157-29.4375 7.4375-2.082031 60.480468-7.921875 100.71875-12.082031 25.761718-2.640625 46.320312-4.71875 46.320312-4.71875s-18.480469 8.960938-41.839844 20.238281zm0 0"/><path d="m323.921875 94.558594-31.921875 55.363281c-15.796875-9.164063-33.738281-13.96875-52-13.921875v-64c29.476562-.035156 58.433594 7.75 83.921875 22.558594zm0 0"/></g><path d="m156.078125 94.558594c-51.957031 30.015625-83.996094 85.4375-84.078125 145.441406h-64c0-128.128906 103.871094-232 232-232h.398438l-.398438 16v48c-29.476562-.035156-58.433594 7.75-83.921875 22.558594zm0 0" fill="#898890"/><path d="m240 72v64c-18.265625-.007812-36.207031 4.824219-52 14v-.078125l-31.921875-55.363281c25.488281-14.808594 54.445313-22.59375 83.921875-22.558594zm0 0" fill="#ffe477"/><path d="m188 149.921875v.078125c-15.769531 9.128906-28.871094 22.230469-38 38h-.078125l-55.363281-31.921875c14.753906-25.550781 35.96875-46.765625 61.519531-61.519531zm0 0" fill="#ffe477"/><path d="m168 312-48 48c-10.5625-10.4375-19.5625-22.347656-26.71875-35.359375l1.199219-.640625 55.441406-32 1.277344-.800781c4.820312 7.527343 10.457031 14.503906 16.800781 20.800781zm0 0" fill="#57a4ff"/><path d="m151.199219 291.199219-1.277344.800781-55.441406 32-1.199219.640625c-14.140625-25.960937-21.460938-55.082031-21.28125-84.640625h64c.082031 18.167969 5.355469 35.929688 15.199219 51.199219zm0 0" fill="#57a4ff"/><path d="m149.921875 188h.078125c-9.175781 15.792969-14.007812 33.734375-14 52h-64c-.035156-29.476562 7.75-58.433594 22.558594-83.921875zm0 0" fill="#57a4ff"/><path d="m120 360-32 32-19.761719 4c-38.84375-42.660156-60.332031-98.304688-60.238281-156h64c-.179688 29.558594 7.140625 58.679688 21.28125 84.640625 7.15625 13.011719 16.15625 24.921875 26.71875 35.359375zm0 0" fill="#898890"/><path d="m240 0c-132.546875 0-240 107.453125-240 240s107.453125 240 240 240 240-107.453125 240-240c-.148438-132.484375-107.515625-239.851562-240-240zm0 464c-123.710938 0-224-100.289062-224-224s100.289062-224 224-224 224 100.289062 224 224c-.140625 123.652344-100.347656 223.859375-224 224zm0 0"/><path d="m240 64c-71.128906.6875-134.996094 43.722656-162.34375 109.386719-27.351562 65.664062-12.914062 141.308593 36.695312 192.285156 3.125 3.117187 8.179688 3.117187 11.304688 0l48-48c3.121094-3.125 3.121094-8.1875 0-11.3125-18.4375-17.207031-29.132812-41.144531-29.65625-66.359375-.054688-44.679688 30.753906-83.476562 74.285156-93.542969 43.535156-10.066406 88.246094 11.269531 107.8125 51.4375-38.816406 4.097657-84 9.152344-91.3125 11.203125-16.582031 5.046875-26.195312 22.308594-21.753906 39.0625 2.046875 8.332032 7.394531 15.472656 14.816406 19.777344 6.980469 4.070312 15.316406 5.125 23.089844 2.917969 7.382812-2.070313 49.085938-21.6875 84.695312-38.703125.207032 2.574218.367188 5.167968.367188 7.824218-.527344 25.210938-11.222656 49.136719-29.65625 66.34375-3.121094 3.125-3.121094 8.1875 0 11.3125l48 48c3.125 3.117188 8.179688 3.117188 11.304688 0 49.582031-50.980468 64-126.609374 36.652343-192.253906-27.34375-65.648437-91.191406-108.675781-162.300781-109.378906zm-8 64.40625c-14.195312 1-28.066406 4.722656-40.855469 10.96875l-24-41.597656c20.132813-10.347656 42.246094-16.269532 64.855469-17.371094zm16-48c22.621094 1.085938 44.75 6.996094 64.894531 17.335938l-24 41.601562c-12.800781-6.253906-26.683593-10-40.894531-11.03125zm-119.617188 167.59375c1.175782 14.113281 5.261719 27.832031 12 40.289062l-43.796874 25.3125c-9.867188-20.519531-15.394532-42.851562-16.242188-65.601562zm0-16h-48c1.085938-22.621094 6.996094-44.75 17.335938-64.894531l41.601562 24c-6.230468 12.804687-9.9375 26.6875-10.914062 40.894531zm-8.246093 116.550781c-5.851563-6.535156-11.117188-13.570312-15.738281-21.023437l44.480468-25.679688c2.472656 3.398438 5.082032 6.746094 8 9.992188zm27.160156-171.3125-41.542969-24c12.316406-18.996093 28.503906-35.183593 47.503906-47.503906l24 41.546875c-11.792968 8-21.960937 18.167969-29.960937 29.957031zm155.421875-29.871093 24-41.597657c19 12.316407 35.1875 28.503907 47.503906 47.503907l-41.597656 24c-7.980469-11.777344-18.128906-21.925782-29.90625-29.90625zm-56.109375 108.113281c-3.625 1.023437-7.511719.527343-10.761719-1.375-3.675781-2.164063-6.316406-5.726563-7.320312-9.875-2.335938-8.34375 2.335937-17.046875 10.585937-19.710938 6.207031-1.742187 54.613281-7.160156 100.390625-11.945312-41.976562 20.121093-86.703125 41.152343-92.894531 42.90625zm145.085937-57.65625c-1.054687-3.730469-4.628906-6.167969-8.488281-5.785157-4.511719.449219-20.464843 2.039063-40.34375 4.105469-.71875-1.6875-1.472656-3.34375-2.261719-4.984375l41.65625-24.054687c10.339844 20.144531 16.25 42.273437 17.335938 64.894531h-48c-.167969-2.398438-.433594-4.800781-.753906-7.128906 18.070312-8.679688 32.519531-15.6875 36.625-17.679688 3.496094-1.683594 5.277344-5.632812 4.230468-9.367187zm-40.078124 50.175781h48.039062c-.847656 22.75-6.375 45.082031-16.242188 65.601562l-43.773437-25.273437c6.738281-12.46875 10.8125-26.203125 11.976563-40.328125zm8.246093 100.550781-36.710937-36.710937c2.886718-3.246094 5.496094-6.59375 8-9.992188l44.480468 25.679688c-4.632812 7.457031-9.910156 14.492187-15.769531 21.023437zm0 0"/><path d="m352 376h-224c-4.417969 0-8 3.582031-8 8v32c0 4.417969 3.582031 8 8 8h224c4.417969 0 8-3.582031 8-8v-32c0-4.417969-3.582031-8-8-8zm-8 32h-208v-16h208zm0 0"/><path d="m24 232h32v16h-32zm0 0"/><path d="m82.34375 386.339844 15.996094-15.996094 11.316406 11.3125-16 16zm0 0"/><path d="m82.34375 93.65625 11.3125-11.3125 16 16-11.3125 11.3125zm0 0"/><path d="m232 24h16v32h-16zm0 0"/><path d="m370.34375 98.34375 15.996094-16 11.316406 11.316406-16 15.996094zm0 0"/><path d="m424 232h32v16h-32zm0 0"/><path d="m370.339844 381.65625 11.316406-11.3125 15.996094 16-11.3125 11.3125zm0 0"/></svg>