<svg height="480pt" viewBox="0 0 480 480" width="480pt" xmlns="http://www.w3.org/2000/svg"><path d="m437.359375 208c3.519531 21.1875 3.519531 42.8125 0 64h-106.960937c-9.597657 27.199219-58.398438 165.359375-58.398438 165.359375-21.1875 3.519531-42.8125 3.519531-64 0 0 0-48.800781-138.160156-58.398438-165.359375h-106.960937c-3.519531-21.1875-3.519531-42.8125 0-64 0 0 155.597656-64 197.359375-64s197.359375 64 197.359375 64zm-141.359375 32c0-30.929688-25.070312-56-56-56s-56 25.070312-56 56 25.070312 56 56 56c14.855469.011719 29.105469-5.886719 39.609375-16.390625s16.402344-24.753906 16.390625-39.609375zm0 0" fill="#57a4ff"/><path d="m240 8c128.128906 0 232 103.871094 232 232s-103.871094 232-232 232-232-103.871094-232-232 103.871094-232 232-232zm200 232c.015625-10.722656-.867188-21.425781-2.640625-32-15.671875-96.828125-99.269531-167.988281-197.359375-167.988281s-181.6875 71.160156-197.359375 167.988281c-3.519531 21.1875-3.519531 42.8125 0 64 13.824219 84.945312 80.414063 151.535156 165.359375 165.359375 21.1875 3.519531 42.8125 3.519531 64 0 84.945312-13.824219 151.535156-80.414063 165.359375-165.359375 1.773437-10.574219 2.65625-21.277344 2.640625-32zm0 0" fill="#c0ab91"/><path d="m240 184c30.929688 0 56 25.070312 56 56s-25.070312 56-56 56-56-25.070312-56-56c-.011719-14.855469 5.886719-29.105469 16.390625-39.609375s24.753906-16.402344 39.609375-16.390625zm24 56c0-13.253906-10.746094-24-24-24s-24 10.746094-24 24 10.746094 24 24 24 24-10.746094 24-24zm0 0" fill="#ffe477"/><path d="m264 240c0 13.253906-10.746094 24-24 24s-24-10.746094-24-24 10.746094-24 24-24 24 10.746094 24 24zm0 0" fill="#57a4ff"/><path d="m240 0c-132.546875 0-240 107.453125-240 240s107.453125 240 240 240 240-107.453125 240-240c-.148438-132.484375-107.515625-239.851562-240-240zm0 464c-123.710938 0-224-100.289062-224-224s100.289062-224 224-224 224 100.289062 224 224c-.140625 123.652344-100.347656 223.859375-224 224zm0 0"/><path d="m240 32c-114.875 0-208 93.125-208 208s93.125 208 208 208 208-93.125 208-208c-.132812-114.820312-93.179688-207.867188-208-208zm0 16c88.667969.125 165.753906 60.859375 186.632812 147.03125-39.359374-15.742188-150.808593-59.03125-186.632812-59.03125s-147.273438 43.289062-186.632812 59.03125c20.878906-86.171875 97.964843-146.90625 186.632812-147.03125zm-187.777344 232h91.722656l51.847657 146.808594c-72.132813-17.214844-127.96875-74.3125-143.570313-146.808594zm161.730469 150.183594-56.800781-160.847656c-1.128906-3.199219-4.15625-5.339844-7.550782-5.335938h-100.050781c-2.164062-16.703125-2.0625-33.621094.296875-50.296875 54.601563-22.296875 159.152344-61.703125 190.152344-61.703125s135.550781 39.40625 190.152344 61.703125c2.359375 16.675781 2.460937 33.59375.296875 50.296875h-100.050781c-3.390626 0-6.414063 2.136719-7.542969 5.335938l-56.800781 160.847656c-17.28125 2.421875-34.8125 2.421875-52.09375 0zm70.253906-3.375 51.847657-146.808594h91.722656c-15.601563 72.496094-71.4375 129.59375-143.570313 146.808594zm0 0"/><path d="m304 240c0-35.347656-28.652344-64-64-64s-64 28.652344-64 64 28.652344 64 64 64c35.328125-.039062 63.960938-28.671875 64-64zm-112 0c0-26.507812 21.492188-48 48-48s48 21.492188 48 48-21.492188 48-48 48c-26.5-.027344-47.972656-21.5-48-48zm0 0"/><path d="m272 240c0-17.671875-14.328125-32-32-32s-32 14.328125-32 32 14.328125 32 32 32 32-14.328125 32-32zm-48 0c0-8.835938 7.164062-16 16-16s16 7.164062 16 16-7.164062 16-16 16-16-7.164062-16-16zm0 0"/></svg>