<svg height="444pt" viewBox="0 0 444 444.32077" width="444pt" xmlns="http://www.w3.org/2000/svg"><path d="m430.316406 46.15625c9.839844 23.359375 8.957032 49.519531-10 68.480469-7.980468 8.015625-18.132812 13.523437-29.203125 15.839843l-10.957031-18.960937c-2.015625-3.527344-6.378906-4.945313-10.082031-3.28125l-41.121094 17.84375c-3.023437 1.34375-6.5625.6875-8.90625-1.65625-2.339844-2.339844-2.996094-5.878906-1.652344-8.90625l17.839844-41.121094c1.667969-3.703125.246094-8.066406-3.28125-10.078125l-18.957031-10.960937c2.316406-11.070313 7.820312-21.21875 15.839844-29.199219 18.957031-18.960938 45.117187-19.839844 68.480468-10l-32 32 32 32zm0 0" fill="#d8d7da"/><path d="m414.632812 357.917969c15.574219 15.636719 15.574219 40.921875 0 56.558593-15.617187 15.613282-40.9375 15.613282-56.558593 0l-32.640625-30.160156 7.519531-4.320312c3.527344-2.011719 4.949219-6.375 3.28125-10.078125l-8.558594-19.761719 41.679688 41.679688c6.25 6.253906 16.386719 6.253906 22.640625 0 6.25-6.25 6.25-16.386719 0-22.640626l-41.761719-41.679687 20.082031 8.71875c3.621094 1.546875 7.832032.222656 9.917969-3.117187l4.71875-7.441407zm0 0" fill="#00b6bd"/><path d="m414.316406 205.355469v33.679687c-.019531 4.066406-3.082031 7.472656-7.121094 7.921875l-45.121093 5.121094c-3.261719.394531-5.949219 2.742187-6.777344 5.917969-.832031 3.179687.367187 6.542968 3.019531 8.480468l37.917969 27.28125c3.433594 2.449219 4.347656 7.160157 2.082031 10.71875l-13.363281 21.199219-4.71875 7.441407c-2.085937 3.339843-6.296875 4.664062-9.917969 3.117187l-20.082031-8.71875-21.28125-9.28125c-3.023437-1.34375-6.5625-.6875-8.90625 1.65625-2.339844 2.339844-2.996094 5.878906-1.652344 8.90625l9.199219 21.28125.082031.078125 8.558594 19.761719c1.667969 3.703125.246094 8.066406-3.28125 10.078125l-7.519531 4.320312-21.757813 12.558594c-3.515625 2.019531-7.980469 1.089844-10.402343-2.160156l-26.800782-36.238282c-1.957031-2.660156-5.351562-3.84375-8.542968-2.976562-3.1875.867188-5.515626 3.609375-5.855469 6.894531l-4.960938 44.640625c-.46875 4.0625-3.910156 7.125-8 7.121094h-33.597656c-4.089844.003906-7.53125-3.058594-8-7.121094l-4.960937-44.640625c-.339844-3.285156-2.667969-6.027343-5.855469-6.894531-3.191407-.867188-6.585938.316406-8.542969 2.976562l-26.800781 36.238282c-2.421875 3.25-6.886719 4.179687-10.402344 2.160156l-10.320313-5.917969-18.957031-10.960937c-3.527343-2.011719-4.949219-6.375-3.28125-10.078125l17.839844-41.121094c1.34375-3.027344.6875-6.566406-1.652344-8.90625-2.339843-2.34375-5.882812-3-8.90625-1.65625l-41.121093 17.84375c-3.703126 1.664063-8.066407.246094-10.082032-3.28125l-10.957031-18.960937-5.921875-10.320313c-2.015625-3.511719-1.089844-7.980469 2.160156-10.398437l36.242188-26.800782c2.660156-1.960937 3.84375-5.355468 2.976562-8.542968-.871094-3.191407-3.609375-5.515626-6.898437-5.855469l-44.640625-4.960938c-4.058594-.472656-7.121094-3.914062-7.117188-8v-34.5625c-.03125-4.066406 3-7.511719 7.039063-8l44.398437-4.957031c3.105469-.300781 5.742188-2.398438 6.730469-5.359375.984375-2.957031.132813-6.21875-2.167969-8.320313v-.082031c-.171875-.207031-.394531-.375-.640625-.480469l-36-26.71875c-3.265625-2.375-4.199219-6.835937-2.160156-10.320312l5.117187-8.960938 11.683594-20.160156c1.992188-3.503906 6.316406-4.921875 10-3.277344l19.359375 8.398438 13.117188 5.679688 8.320312 3.679687c3.023438 1.289063 6.527344.613281 8.847657-1.710937 2.324218-2.324219 3.003906-5.824219 1.714843-8.847657l-3.679687-8.320312-5.679688-13.121094-8.402344-19.359375c-1.640624-3.679688-.222656-8.007812 3.28125-10l20.160157-11.679688 8.960937-5.121093c3.480469-2.039063 7.945313-1.101563 10.316406 2.160156l26.722657 36c.105469.25.269531.46875.480469.640625h.078124c2.101563 2.304688 5.363282 3.152344 8.324219 2.167969 2.957031-.984375 5.058594-3.625 5.355469-6.726563l4.960938-44.402344c.488281-4.039062 3.929687-7.070312 8-7.039062h34.558593c4.089844-.003906 7.53125 3.058594 8 7.121094l4.960938 44.640625c.339843 3.285156 2.667969 6.027343 5.855469 6.894531 3.191406.867188 6.585937-.3125 8.542968-2.976562l26.800782-36.238282c2.421874-3.25 6.886718-4.179687 10.402343-2.160156l10.320313 5.917969 18.957031 10.960937c3.527344 2.011719 4.949219 6.375 3.28125 10.078125l-17.839844 41.121094c-1.34375 3.027344-.6875 6.566406 1.652344 8.90625 2.34375 2.34375 5.882813 3 8.90625 1.65625l41.121094-17.84375c3.703125-1.664063 8.066406-.246094 10.082031 3.28125l10.957031 18.960937 5.921875 10.320313c2.015625 3.511719 1.089844 7.980469-2.160156 10.398437l-36.242188 26.800782c-2.660156 1.960937-3.84375 5.355468-2.972656 8.542968.867188 3.191407 3.605469 5.515626 6.894532 5.855469l44.640624 4.960938c4.058594.472656 7.121094 3.914062 7.121094 8zm-103.042968 53.039062c11.421874-28.234375 8.839843-60.199219-6.957032-86.238281-8-13.039062-18.964844-24.003906-32-32-33.464844-20.335938-75.914062-18.375-107.363281 4.960938-7.445313 5.605468-14.070313 12.230468-19.679687 19.679687-23.335938 31.445313-25.296876 73.894531-4.957032 107.359375 7.996094 13.039062 18.960938 24.003906 32 32 26.035156 15.800781 58.003906 18.378906 86.238282 6.960938 23.90625-9.832032 42.890624-28.8125 52.71875-52.722657zm0 0" fill="#ffe477"/><path d="m391.996094 369.195312c6.25 6.253907 6.25 16.390626 0 22.640626-6.253906 6.253906-16.390625 6.253906-22.640625 0l-41.679688-41.679688-.082031-.078125-9.199219-21.28125c-1.34375-3.027344-.6875-6.566406 1.652344-8.90625 2.34375-2.34375 5.882813-3 8.90625-1.65625l21.28125 9.28125zm0 0" fill="#009698"/><path d="m294.316406 254.15625 16.957032 4.238281c-9.828126 23.910157-28.8125 42.890625-52.71875 52.722657l-4.238282-16.960938-24-8 20.078125-20.078125 15.839844-15.84375 20.082031-20.078125zm0 0" fill="#00b6bd"/><g fill="#d8d7da"><path d="m304.316406 172.15625-58.480468 58.480469-31.203126-32.800781 57.683594-57.679688c13.035156 7.996094 24 18.960938 32 32zm0 0"/><path d="m214.632812 197.835938 31.203126 32.800781.957031.960937 19.441406 18.636719-15.839844 15.84375-18.640625-19.441406-.960937-.878907v-.082031l-32.796875-31.199219-.960938-.960937-51.761718-48.71875c5.609374-7.449219 12.234374-14.074219 19.679687-19.679687l48.722656 51.757812zm0 0"/><path d="m230.792969 245.675781v.082031l-.476563.398438-58 58c-13.039062-7.996094-24.003906-18.960938-32-32l57.679688-57.679688zm0 0"/><path d="m111.675781 379.996094 18.957031 10.960937c-2.316406 11.070313-7.820312 21.222657-15.839843 29.199219-18.957031 18.960938-45.117188 19.839844-68.476563 10l32-32-32-32-32 32c-9.84375-23.359375-8.960937-49.519531 10-68.480469 7.976563-8.015625 18.128906-13.523437 29.199219-15.839843l10.957031 18.960937c2.015625 3.527344 6.378906 4.945313 10.082032 3.28125l41.121093-17.84375c3.023438-1.34375 6.566407-.6875 8.90625 1.65625 2.339844 2.339844 2.996094 5.878906 1.652344 8.90625l-17.839844 41.121094c-1.667969 3.703125-.246093 8.066406 3.28125 10.078125zm0 0"/><path d="m125.675781 114.957031c1.289063 3.023438.609375 6.523438-1.714843 8.847657-2.320313 2.324218-5.824219 3-8.847657 1.710937l-8.320312-3.679687-13.117188-5.679688-23.359375-22 24-24 22 23.359375 5.679688 13.121094zm0 0"/><path d="m78.316406 38.15625 16 32-24 24-32-16-16-40 16-16zm0 0"/></g><path d="m394.980469 324.757812 10.125-16.058593c4.511719-7.125 2.667969-16.535157-4.199219-21.429688l-37.925781-27.25 45.148437-5.121093c8.070313-.917969 14.167969-7.742188 14.1875-15.863282v-33.679687c-.003906-8.140625-6.097656-14.992188-14.1875-15.941407h-.046875l-44.6875-4.976562 36.199219-26.769531c6.546875-4.828125 8.425781-13.804688 4.367188-20.855469l-.933594-1.601562c8.605468-3.304688 16.417968-8.375 22.941406-14.886719 19.503906-19.496094 23.882812-48.367188 11.722656-77.246094-1.039062-2.453125-3.226562-4.230469-5.839844-4.738281-2.617187-.53125-5.324218.292968-7.199218 2.191406l-26.335938 26.3125-20.691406-20.6875 26.34375-26.34375c1.886719-1.882812 2.710938-4.578125 2.199219-7.195312-.507813-2.613282-2.285157-4.800782-4.742188-5.835938-28.863281-12.160156-57.742187-7.792969-77.246093 11.71875-6.511719 6.523438-11.585938 14.339844-14.890626 22.945312l-1.664062-.960937c-7.03125-4.050781-15.980469-2.179687-20.796875 4.351563l-26.816406 36.191406-4.96875-44.6875c-.949219-8.082032-7.792969-14.175782-15.929688-14.183594h-34.597656c-8.140625-.003906-14.984375 6.105469-15.90625 14.191406l-4.695313 44.449219c-.152343-.175781-.316406-.339844-.488281-.496094l-26.296875-35.542969c-4.824218-6.515624-13.761718-8.386718-20.796875-4.363281l-29.074219 16.800781c-3.011718 1.734376-5.363281 4.425782-6.679687 7.640626l-15.0625-30.253907c-.878906-1.757812-2.371094-3.128906-4.191406-3.859375l-40-16c-2.972657-1.183594-6.363281-.484375-8.625 1.777344l-16 16c-2.261719 2.261719-2.960938 5.652344-1.777344 8.625l16 40c.726563 1.824219 2.101563 3.3125 3.855469 4.191406l30.234375 15.113282c-3.207031 1.296874-5.886719 3.628906-7.617188 6.621093l-16.800781 29.167969c-4.007812 7.011719-2.140625 15.914062 4.351562 20.722656l35.875 26.519532h.039063l.101563.101562-44.4375 4.9375c-8.078126.910156-14.1875 7.730469-14.207032 15.855469v34.601562c.003906 8.160157 6.125 15.015625 14.230469 15.953125l44.6875 4.972656-36.199219 26.777344c-6.542968 4.828125-8.421875 13.796875-4.367187 20.847656l.933593 1.601563c-8.601562 3.304687-16.417968 8.375-22.941406 14.886719-19.503906 19.496094-23.882812 48.367187-11.722656 77.25 1.035156 2.453125 3.226562 4.230468 5.839844 4.742187 2.613281.507813 5.3125-.316406 7.191406-2.199219l26.347656-26.320312 20.6875 20.6875-26.34375 26.34375c-1.886718 1.882812-2.710937 4.578125-2.199218 7.195312.507812 2.613282 2.289062 4.800782 4.742187 5.835938 10.070313 4.367188 20.914063 6.671875 31.886719 6.785156 16.996094.203125 33.355468-6.472656 45.359375-18.503906 6.511719-6.523438 11.585937-14.339844 14.890625-22.945312l1.664062.960937c7.035156 4.027344 15.96875 2.160156 20.796875-4.351563l26.816407-36.191406 4.96875 44.6875c.949218 8.082032 7.792968 14.175782 15.929687 14.183594h33.597656c8.160157-.007812 15.019531-6.125 15.953125-14.230469l4.976563-44.691406 26.769531 36.203125c4.828125 6.546875 13.800781 8.425781 20.855469 4.367188l16.671875-9.601563 28.078125 25.9375c13.738281 13.699219 34.375 17.785156 52.292969 10.347656 17.921874-7.4375 29.601562-24.929687 29.605468-44.332031.085938-12.617188-4.882812-24.742188-13.800781-33.664062zm-59.488281-294.945312c12.644531-12.394531 30.976562-17.039062 48-12.152344l-22.832032 22.839844c-3.125 3.125-3.125 8.1875 0 11.3125l32 32c3.121094 3.121094 8.1875 3.121094 11.308594 0l22.84375-22.839844c4.886719 17.019532.246094 35.355469-12.152344 48-5.550781 5.519532-12.316406 9.664063-19.753906 12.105469l-7.792969-13.523437c-4.050781-7.0625-12.773437-9.9375-20.230469-6.664063l-41.152343 17.800781 17.785156-40.984375c3.320313-7.460937.488281-16.226562-6.570313-20.335937l-13.597656-7.816406c2.449219-7.4375 6.609375-14.199219 12.144532-19.742188zm-237.273438 79.632812-16.417969-15.457031 12.347657-12.34375 15.367187 16.351563 8.75 20.160156zm-66.511719-69.359374 8.535157-8.539063 32.273437 12.90625 12.0625 24.101563-15.839844 15.839843-24.128906-12.039062zm77.429688 374.398437c-12.652344 12.382813-30.976563 17.023437-48 12.160156l22.84375-22.847656c3.121093-3.125 3.121093-8.1875 0-11.3125l-32-32c-3.125-3.125-8.191407-3.125-11.3125 0l-22.855469 22.855469c-4.882812-17.023438-.238281-35.355469 12.15625-48 5.550781-5.519532 12.316406-9.664063 19.753906-12.105469l7.792969 13.523437c4.042969 7.070313 12.777344 9.949219 20.230469 6.664063l41.152344-17.800781-17.785157 40.976562c-3.320312 7.460938-.488281 16.226563 6.570313 20.335938l13.597656 7.816406c-2.449219 7.441406-6.609375 14.203125-12.144531 19.75zm190.570312-24.535156-26.847656-36.304688c-3.933594-5.277343-10.699219-7.605469-17.046875-5.871093-6.347656 1.734374-10.988281 7.183593-11.691406 13.726562l-5.007813 44.65625h-33.597656l-4.96875-44.648438c-.695313-6.566406-5.355469-12.03125-11.730469-13.757812-6.378906-1.722656-13.15625.644531-17.070312 5.964844l-26.785156 36.234375-29.214844-16.847657 17.855468-41.152343c2.636719-6.039063 1.300782-13.078125-3.363281-17.730469-4.667969-4.652344-11.707031-5.972656-17.738281-3.320312l-41.082031 17.90625-16.894531-29.257813 36.304687-26.847656c5.273437-3.933594 7.605469-10.695313 5.867187-17.046875-1.734374-6.347656-7.179687-10.984375-13.726562-11.6875l-44.652344-5.007813-.042968-34.601562 44.425781-4.933594c6.253906-.664063 11.523437-4.972656 13.414062-10.96875 1.828125-5.535156.429688-11.625-3.628906-15.808594-.210937-.261719-.4375-.515625-.671875-.753906-.273438-.246094-1.082031-.949219-1.371094-1.167969l-36-26.566406 16.671875-29.03125 40.800781 17.703125c6.035157 2.640625 13.070313 1.3125 17.726563-3.34375 4.660156-4.65625 5.984375-11.695313 3.347656-17.726563l-17.777343-40.699218 29.023437-16.796875 26.398437 35.71875c.429688.632812.921876 1.21875 1.464844 1.75.246094.257812.515625.488281.800782.699219 4.402343 4.121093 10.757812 5.398437 16.410156 3.300781 5.65625-2.097657 9.636718-7.210938 10.285156-13.207031l4.921875-44.367188h34.597656l4.96875 44.648438c.695313 6.566406 5.359375 12.03125 11.734375 13.757812 6.375 1.722656 13.152344-.644531 17.066406-5.964844l26.785157-36.234375 29.214843 16.847657-17.855468 41.152343c-2.636719 6.039063-1.300782 13.078125 3.363281 17.730469 4.667969 4.652344 11.707031 5.972656 17.738281 3.320312l41.082032-17.90625 16.894531 29.257813-36.304688 26.847656c-5.273437 3.933594-7.605469 10.695313-5.867187 17.046875 1.734375 6.347656 7.179687 10.984375 13.726562 11.6875l44.65625 5.007813.878906-8-.878906 8v33.648437l-45.089844 5.121094c-6.554687.753906-11.972656 5.457031-13.644531 11.839844-1.671875 6.378906.742188 13.132812 6.085938 17.007812l37.902343 27.199219-18.054687 28.726563-41.402344-18.015626c-6.039062-2.636718-13.074219-1.300781-17.730469 3.367188-4.652343 4.664062-5.96875 11.707031-3.316406 17.738281l17.902344 41.078125zm34.71875-44.367188-8.664062-20 19.863281 8.636719 40.691406 40.601562c3.136719 3.117188 3.152344 8.1875.035156 11.324219-3.117187 3.136719-8.1875 3.152344-11.324218.035157zm74.554688 63.199219c-6.054688 6.015625-14.253907 9.375-22.785157 9.332031-8.535156-.039062-16.703124-3.476562-22.695312-9.550781l-24.800781-22.917969c2.554687-1.96875 4.457031-4.660156 5.457031-7.726562l19.566406 19.574219c9.390625 9.363281 24.589844 9.34375 33.957032-.042969 9.363281-9.390625 9.34375-24.59375-.046876-33.957031l-19.4375-19.40625c3.109376-.972657 5.847657-2.878907 7.839844-5.457032l22.960938 24.925782c6.019531 5.972656 9.382812 14.121093 9.320312 22.601562.035156 8.496094-3.328125 16.65625-9.335937 22.664062zm0 0"/><path d="m222.316406 118.15625c-57.4375 0-104 46.5625-104 104s46.5625 104 104 104 104-46.5625 104-104c-.066406-57.410156-46.589844-103.933594-104-104zm83.820313 130.710938-5.597657-1.40625-6.617187-19.832032c-.875-2.628906-3.050781-4.617187-5.746094-5.253906-2.699219-.636719-5.53125.167969-7.492187 2.125l-14.546875 14.542969-8.871094-8.503907 44.992187-44.992187c9.207032 19.871094 10.601563 42.472656 3.90625 63.320313zm-55.621094 5.777343-94.242187-90.457031c2.511718-2.855469 5.203124-5.542969 8.058593-8.054688l90.46875 94.222657zm43.421875-83.425781-47.917969 47.921875-20.121093-21.257813 47.351562-47.351562c7.996094 5.703125 14.988281 12.691406 20.6875 20.6875zm-35.015625-28.984375-44 44-37.503906-39.636719c24.765625-14.898437 55.308593-16.542968 81.527343-4.386718zm-112.128906 34.976563 39.746093 37.410156-44.144531 44.144531c-12.164062-26.230469-10.515625-56.785156 4.398438-81.554687zm3.898437 95.882812 47.464844-47.457031 21.175781 20.191406-47.953125 47.953125c-7.996094-5.699219-14.988281-12.691406-20.6875-20.6875zm35.015625 28.984375 44.984375-44.984375 8.503906 8.871094-14.535156 14.535156c-1.957031 1.960938-2.761718 4.796875-2.125 7.492188.636719 2.695312 2.625 4.871093 5.25 5.75l19.832032 6.613281 1.410156 5.601562c-20.847656 6.695313-43.453125 5.300781-63.320313-3.90625zm78.222657-2.402344-1.855469-7.441406c-.664063-2.652344-2.636719-4.78125-5.230469-5.644531l-11.714844-3.914063 37.683594-37.6875 3.917969 11.710938c.863281 2.597656 2.996093 4.570312 5.648437 5.234375l7.441406 1.855468c-8.214843 15.203126-20.695312 27.671876-35.90625 35.871094zm0 0"/></svg>