<svg height="479pt" viewBox="0 0 479.97754 479" width="479pt" xmlns="http://www.w3.org/2000/svg"><path d="m399.976562 168.433594c38.757813.207031 70.398438 31.058594 71.585938 69.796875 1.183594 38.742187-28.511719 71.46875-67.183594 74.042969-1.441406.082031-2.882812.160156-4.402344.160156-38.386718-.15625-69.902343-30.40625-71.632812-68.753906-1.726562-38.351563 26.933594-71.3125 65.152344-74.925782 2.152344-.226562 4.316406-.332031 6.480468-.320312zm40 72c0-22.089844-17.90625-40-40-40-22.089843 0-40 17.910156-40 40 0 22.09375 17.910157 40 40 40 22.09375 0 40-17.90625 40-40zm0 0" fill="#d8d7da"/><path d="m439.976562 240.433594c0 22.09375-17.90625 40-40 40-22.089843 0-40-17.90625-40-40 0-22.089844 17.910157-40 40-40 22.09375 0 40 17.910156 40 40zm0 0" fill="#898890"/><path d="m404.378906 312.273438-116.402344 111.359374c-.15625-11.890624-4.78125-23.285156-12.960937-31.917968l91.523437-87.519532c10.304688 5.433594 21.785157 8.265626 33.4375 8.238282 1.519532 0 2.960938-.078125 4.402344-.160156zm0 0" fill="#ffe477"/><path d="m236.457031 77.152344 157.039063 91.601562c-13.804688 1.226563-26.957032 6.453125-37.839844 15.039063l-107.917969-62.957031c-.902343-15.152344-4.734375-29.988282-11.28125-43.683594zm0 0" fill="#ffe477"/><path d="m287.976562 423.632812v.800782c0 26.511718-21.488281 48-48 48-26.507812 0-48-21.488282-48-48 0-5.371094.917969-10.699219 2.722657-15.757813 5.488281-15.890625 18.910156-27.734375 35.359375-31.207031 16.449218-3.472656 33.511718 1.933594 44.957031 14.246094 8.179687 8.632812 12.804687 20.027344 12.960937 31.917968zm-24 .800782c0-13.253906-10.746093-24-24-24-13.253906 0-24 10.746094-24 24s10.746094 24 24 24c13.253907 0 24-10.746094 24-24zm0 0" fill="#d8d7da"/><path d="m263.976562 424.433594c0 13.253906-10.746093 24-24 24-13.253906 0-24-10.746094-24-24s10.746094-24 24-24c13.253907 0 24 10.746094 24 24zm0 0" fill="#898890"/><path d="m247.738281 120.835938c.160157 2.476562.238281 5.039062.238281 7.597656-.023437 60.417968-44.945312 111.40625-104.878906 119.039062-5.015625.644532-10.066406.964844-15.121094.960938-8.027343.003906-16.039062-.773438-23.917968-2.320313v-.078125c-55.320313-11.25-95.320313-59.535156-96.078125-115.980468-.761719-56.445313 37.925781-105.789063 92.921875-118.519532 54.992187-12.734375 111.429687 14.582032 135.554687 65.617188 6.546875 13.695312 10.378907 28.53125 11.28125 43.683594zm-31.761719 7.597656c0-48.601563-39.398437-88-88-88-48.601562 0-88 39.398437-88 88 0 48.601562 39.398438 88 88 88 23.34375.011718 45.734376-9.253906 62.242188-25.761719 16.503906-16.503906 25.773438-38.894531 25.757812-62.238281zm0 0" fill="#d8d7da"/><path d="m143.097656 247.472656 74.640625 134.402344c-10.816406 5.667969-19.058593 15.253906-23.039062 26.800781l-90.722657-162.242187.082032-.320313c7.878906 1.546875 15.890625 2.324219 23.917968 2.320313 5.054688.003906 10.105469-.316406 15.121094-.960938zm0 0" fill="#ffe477"/><path d="m127.976562 40.433594c48.601563 0 88 39.398437 88 88 0 48.601562-39.398437 88-88 88-48.601562 0-88-39.398438-88-88-.011718-23.34375 9.253907-45.734375 25.761719-62.238282 16.503907-16.507812 38.894531-25.773437 62.238281-25.761718zm64 88c0-8.835938-7.164062-16-16-16-8.835937 0-16 7.164062-16 16 0 8.835937 7.164063 16 16 16 8.828126-.027344 15.976563-7.175782 16-16zm-48-48c0-8.835938-7.164062-16-16-16-8.835937 0-16 7.164062-16 16 0 8.835937 7.164063 16 16 16 8.828126-.027344 15.976563-7.175782 16-16zm0 48c0-8.835938-7.164062-16-16-16-8.835937 0-16 7.164062-16 16 0 8.835937 7.164063 16 16 16 8.828126-.027344 15.976563-7.175782 16-16zm0 48c0-8.835938-7.164062-16-16-16-8.835937 0-16 7.164062-16 16 0 8.835937 7.164063 16 16 16 8.828126-.027344 15.976563-7.175782 16-16zm-48-48c0-8.835938-7.164062-16-16-16-8.835937 0-16 7.164062-16 16 0 8.835937 7.164063 16 16 16 8.828126-.027344 15.976563-7.175782 16-16zm0 0" fill="#898890"/><g fill="#57a4ff"><path d="m191.976562 128.433594c0 8.835937-7.164062 16-16 16-8.835937 0-16-7.164063-16-16 0-8.835938 7.164063-16 16-16 8.835938 0 16 7.164062 16 16zm0 0"/><path d="m143.976562 80.433594c0 8.835937-7.164062 16-16 16-8.835937 0-16-7.164063-16-16 0-8.835938 7.164063-16 16-16 8.835938 0 16 7.164062 16 16zm0 0"/><path d="m143.976562 128.433594c0 8.835937-7.164062 16-16 16-8.835937 0-16-7.164063-16-16 0-8.835938 7.164063-16 16-16 8.835938 0 16 7.164062 16 16zm0 0"/><path d="m143.976562 176.433594c0 8.835937-7.164062 16-16 16-8.835937 0-16-7.164063-16-16 0-8.835938 7.164063-16 16-16 8.835938 0 16 7.164062 16 16zm0 0"/><path d="m95.976562 128.433594c0 8.835937-7.164062 16-16 16-8.835937 0-16-7.164063-16-16 0-8.835938 7.164063-16 16-16 8.835938 0 16 7.164062 16 16zm0 0"/></g><path d="m239.976562 392.433594c-17.671874 0-32 14.328125-32 32s14.328126 32 32 32c17.675782 0 32-14.328125 32-32s-14.324218-32-32-32zm0 48c-8.835937 0-16-7.164063-16-16 0-8.835938 7.164063-16 16-16 8.835938 0 16 7.164062 16 16 0 8.835937-7.164062 16-16 16zm0 0"/><path d="m399.976562 288.433594c26.511719 0 48-21.488282 48-48 0-26.507813-21.488281-48-48-48-26.507812 0-48 21.492187-48 48 .027344 26.5 21.503907 47.972656 48 48zm0-80c17.675782 0 32 14.328125 32 32s-14.324218 32-32 32c-17.671874 0-32-14.328125-32-32s14.328126-32 32-32zm0 0"/><path d="m479.976562 240.433594c-.046874-44.164063-35.835937-79.949219-80-80-1.511718 0-2.976562.144531-4.464843.222656l-153.132813-89.316406c-26.464844-53.09375-85.957031-81.023438-143.707031-67.464844-57.753906 13.558594-98.6015625 65.046875-98.671875 124.367188-.0703125 59.320312 40.660156 110.90625 98.378906 124.601562l87.664063 156.742188c-5.722657 20.695312.902343 42.839843 17.050781 56.988281 16.152344 14.148437 38.972656 17.808593 58.738281 9.414062 19.761719-8.394531 32.976563-27.355469 34.007813-48.800781l112-107.152344c40.914062-4.085937 72.085937-38.484375 72.136718-79.601562zm-258.726562 131.289062-65.726562-118.351562c56.277343-12.511719 97.261718-61.078125 100.132812-118.65625l86.578125 50.519531c-16.085937 16.726563-24.082031 39.628906-21.902344 62.734375 2.179688 23.101562 14.316407 44.105469 33.246094 57.527344l-78.6875 75.25c-15.082031-12.179688-35.429687-15.597656-53.664063-9.023438zm146.855469-57.953125c5.640625 2.445313 11.546875 4.230469 17.601562 5.3125l-92.378906 88.367188c-1.722656-5.351563-4.242187-10.410157-7.46875-15.015625zm95.871093-73.335937c0 35.347656-28.652343 64-64 64-35.34375 0-64-28.652344-64-64s28.65625-64 64-64c35.332032.039062 63.960938 28.671875 64 64zm-91.871093-74.886719c-5.984375 2.203125-11.683594 5.117187-16.976563 8.679687l-99.785156-58.207031c-.710938-7.054687-2.019531-14.035156-3.910156-20.867187zm-356.128907-37.113281c0-61.855469 50.144532-112 112-112 61.855469 0 112 50.144531 112 112 0 61.855468-50.144531 112-112 112-61.828124-.066406-111.933593-50.171875-112-112zm102.488282 127.519531c3.152344.234375 6.304687.480469 9.511718.480469 3.59375 0 7.128907-.246094 10.648438-.535156l68.480469 123.304687c-4.859375 3.53125-9.117188 7.820313-12.617188 12.703125zm121.511718 208.480469c-22.089843 0-40-17.90625-40-40 0-22.089844 17.910157-40 40-40 22.09375 0 40 17.910156 40 40-.027343 22.082031-17.917968 39.972656-40 40zm0 0"/><path d="m223.976562 128.433594c0-53.019532-42.980468-96-96-96-53.019531 0-96 42.980468-96 96 0 53.019531 42.980469 96 96 96 52.996094-.058594 95.945313-43.003906 96-96zm-176 0c0-44.183594 35.816407-80 80-80 44.183594 0 80 35.816406 80 80s-35.816406 80-80 80c-44.160156-.046875-79.949218-35.835938-80-80zm0 0"/><path d="m151.976562 128.433594c0-13.253906-10.746093-24-24-24-13.253906 0-24 10.746094-24 24s10.746094 24 24 24c13.253907 0 24-10.746094 24-24zm-24 8c-4.417968 0-8-3.582032-8-8 0-4.417969 3.582032-8 8-8 4.417969 0 8 3.582031 8 8 0 4.417968-3.582031 8-8 8zm0 0"/><path d="m151.976562 80.433594c0-13.253906-10.746093-24-24-24-13.253906 0-24 10.746094-24 24s10.746094 24 24 24c13.253907 0 24-10.746094 24-24zm-24 8c-4.417968 0-8-3.582032-8-8 0-4.417969 3.582032-8 8-8 4.417969 0 8 3.582031 8 8 0 4.417968-3.582031 8-8 8zm0 0"/><path d="m79.976562 104.433594c-13.253906 0-24 10.746094-24 24s10.746094 24 24 24c13.253907 0 24-10.746094 24-24s-10.746093-24-24-24zm0 32c-4.417968 0-8-3.582032-8-8 0-4.417969 3.582032-8 8-8 4.417969 0 8 3.582031 8 8 0 4.417968-3.582031 8-8 8zm0 0"/><path d="m151.976562 176.433594c0-13.253906-10.746093-24-24-24-13.253906 0-24 10.746094-24 24s10.746094 24 24 24c13.253907 0 24-10.746094 24-24zm-32 0c0-4.417969 3.582032-8 8-8 4.417969 0 8 3.582031 8 8 0 4.417968-3.582031 8-8 8-4.417968 0-8-3.582032-8-8zm0 0"/><path d="m175.976562 152.433594c13.253907 0 24-10.746094 24-24s-10.746093-24-24-24c-13.253906 0-24 10.746094-24 24s10.746094 24 24 24zm0-32c4.417969 0 8 3.582031 8 8 0 4.417968-3.582031 8-8 8-4.417968 0-8-3.582032-8-8 0-4.417969 3.582032-8 8-8zm0 0"/><path d="m279.976562 80.433594h16c-.027343-22.078125-17.917968-39.972656-40-40v16c13.253907 0 24 10.746094 24 24zm0 0"/><path d="m311.976562 80.433594h16c-.042968-39.746094-32.253906-71.957032-72-72v16c30.914063.039062 55.960938 25.089844 56 56zm0 0"/><path d="m71.976562 256.433594h-16c.027344 22.082031 17.921876 39.972656 40 40v-16c-13.253906 0-24-10.746094-24-24zm0 0"/><path d="m39.976562 256.433594h-16c.046876 39.746094 32.253907 71.957031 72 72v-16c-30.910156-.039063-55.960937-25.089844-56-56zm0 0"/></svg>