<svg height="486pt" viewBox="-3 0 486 486.10971" width="486pt" xmlns="http://www.w3.org/2000/svg"><path d="m472.054688 38.082031v208c-.027344 8.824219-7.175782 15.972657-16 16h-16c-8.824219-.027343-15.972657-7.175781-16-16v-208c.027343-8.828125 7.175781-15.976562 16-16h16c8.824218.023438 15.972656 7.171875 16 16zm0 0" fill="#ffe477"/><path d="m424.054688 70.082031v128h-32v-124.722656zm0 0" fill="#57a4ff"/><path d="m370.613281 198.082031c14.148438 27.171875 21.503907 57.363281 21.441407 88 0 104-82.808594 189.09375-186.769532 191.925781-103.960937 2.832032-191.28125-77.621093-196.945312-181.46875-5.664063-103.847656 72.382812-193.324218 176.035156-201.820312 2.558594-.238281 63.28125-6.476562 122.960938-12.558594 31.4375-3.28125 62.558593-6.480468 84.71875-8.800781v124.722656zm-18.558593 88c0-83.949219-68.050782-152-152-152-83.945313 0-152 68.050781-152 152 0 83.945313 68.054687 152 152 152 83.949218 0 152-68.054687 152-152zm0 0" fill="#c0ab91"/><path d="m200.054688 134.082031c83.949218 0 152 68.050781 152 152 0 83.945313-68.050782 152-152 152-83.945313 0-152-68.054687-152-152 0-83.949219 68.054687-152 152-152zm105.839843 208.480469c20.222657-37.8125 18.695313-83.542969-4-119.921875-11.148437-17.859375-26.789062-32.480469-45.359375-42.398437-37.808594-20.222657-83.542968-18.699219-119.921875 4-17.855469 11.148437-32.476562 26.789062-42.398437 45.359374-20.222656 37.808594-18.695313 83.542969 4 119.917969 11.148437 17.859375 26.789062 32.480469 45.359375 42.402344 37.808593 20.21875 83.542969 18.695313 119.921875-4 17.859375-11.152344 32.476562-26.792969 42.398437-45.359375zm0 0" fill="#57a4ff"/><path d="m286.453125 42.242188 20.882813 39.917968c-59.679688 6.082032-120.402344 12.320313-122.960938 12.558594l-9.921875-19.839844zm0 0" fill="#57a4ff"/><path d="m302.773438 29.121094c1.238281 4.242187-1.195313 8.683594-5.4375 9.917968l-10.882813 3.203126-112 32.636718-30.71875 8.960938c-4.242187 1.238281-8.683594-1.199219-9.917969-5.4375l-4.480468-15.363282c-1.238282-4.238281 1.199218-8.679687 5.4375-9.917968l153.601562-44.800782c4.242188-1.238281 8.683594 1.199219 9.917969 5.441407zm0 0" fill="#ffe477"/><path d="m231.816406 282.402344c.160156 1.21875.242188 2.449218.238282 3.679687-.09375 10.105469-4.882813 19.597657-12.960938 25.679688-4.488281 3.351562-9.789062 5.449219-15.359375 6.078125-1.21875.164062-2.449219.242187-3.679687.242187-10.109376-.097656-19.597657-4.886719-25.679688-12.960937-3.351562-4.492188-5.449219-9.792969-6.082031-15.359375-.160157-1.222657-.242188-2.449219-.238281-3.679688.09375-10.109375 4.882812-19.601562 12.960937-25.679687 4.492187-3.351563 9.792969-5.449219 15.359375-6.082032 1.21875-.160156 2.449219-.242187 3.679688-.238281 10.109374.09375 19.597656 4.882813 25.679687 12.957031 3.351563 4.492188 5.449219 9.792969 6.082031 15.363282zm0 0" fill="#ffe477"/><path d="m301.894531 222.640625c-11.148437-17.859375-26.789062-32.480469-45.359375-42.398437-37.808594-20.222657-83.542968-18.699219-119.921875 4-17.855469 11.148437-32.476562 26.789062-42.398437 45.359374-20.222656 37.808594-18.695313 83.542969 4 119.917969 11.148437 17.859375 26.789062 32.480469 45.359375 42.402344 37.808593 20.21875 83.542969 18.695313 119.921875-4 17.859375-11.152344 32.476562-26.792969 42.398437-45.359375 20.222657-37.8125 18.695313-83.542969-4-119.921875zm-98.160156 95.199219c-1.21875.164062-2.449219.242187-3.679687.242187-10.109376-.097656-19.597657-4.886719-25.679688-12.960937-3.351562-4.492188-5.449219-9.792969-6.082031-15.359375-.160157-1.222657-.242188-2.449219-.238281-3.679688.09375-10.109375 4.882812-19.601562 12.960937-25.679687 4.492187-3.351563 9.792969-5.449219 15.359375-6.082032 1.21875-.160156 2.449219-.242187 3.679688-.238281 10.109374.09375 19.597656 4.882813 25.679687 12.957031 3.351563 4.492188 5.449219 9.792969 6.082031 15.363282.160156 1.21875.242188 2.449218.238282 3.679687-.09375 10.105469-4.882813 19.597657-12.960938 25.679688-4.488281 3.351562-9.789062 5.449219-15.359375 6.078125zm0 0" fill="#d80027"/><path d="m200.054688 158.082031c-70.691407 0-128 57.304688-128 128 0 70.691407 57.308593 128 128 128 70.691406 0 128-57.308593 128-128-.082032-70.660156-57.34375-127.917969-128-128zm87.070312 57.703125c-25.445312 3.519532-48.253906 17.542969-62.886719 38.65625-1.09375-.859375-2.230469-1.660156-3.40625-2.402344.796875-25.480468 14.257813-48.886718 35.878907-62.398437 11.617187 6.828125 21.921874 15.683594 30.414062 26.144531zm23.875 55.742188c-9.34375-5.421875-19.796875-8.652344-30.570312-9.445313-14.972657-.664062-29.882813 2.289063-43.472657 8.613281-.582031-1.246093-1.226562-2.464843-1.933593-3.648437 13.449218-21.707031 36.839843-35.273437 62.359374-36.167969 7.132813 12.539063 11.757813 26.34375 13.617188 40.648438zm-29.34375 33.960937c-12.6875-8.074219-27.136719-12.972656-42.121094-14.273437.21875-1.386719.359375-2.785156.421875-4.191406 12.1875-6.511719 25.910157-9.605469 39.714844-8.941407 11.585937 1.390625 22.640625 5.65625 32.160156 12.40625-.460937 12.28125-2.957031 24.398438-7.386719 35.863281-6.386718-8.171874-14.085937-15.222656-22.789062-20.863281zm-192.546875-4.855469c9.34375 5.425782 19.796875 8.65625 30.570313 9.449219 1.457031.0625 2.878906.101563 4.296874.101563 13.539063-.039063 26.914063-3.007813 39.199219-8.703125.535157 1.273437 1.277344 2.398437 1.933594 3.632812-7.359375 11.730469-17.703125 21.296875-29.972656 27.71875-10.035157 5.179688-21.09375 8.078125-32.378907 8.480469-7.148437-12.542969-11.785156-26.363281-13.648437-40.679688zm29.34375-33.960937c12.683594 8.085937 27.136719 12.980469 42.121094 14.265625-.21875 1.386719-.359375 2.785156-.421875 4.191406-12.203125 6.46875-25.914063 9.558594-39.714844 8.953125-11.585938-1.394531-22.640625-5.65625-32.160156-12.410156.460937-12.28125 2.957031-24.398437 7.386718-35.863281 6.386719 8.171875 14.089844 15.222656 22.789063 20.863281zm81.601563 43.410156c-13.253907 0-24-10.746093-24-24 0-13.257812 10.746093-24 24-24 13.253906 0 24 10.742188 24 24 0 13.253907-10.746094 24-24 24zm5.121093-63.480469c-1.382812-.21875-2.773437-.363281-4.167969-.425781-6.445312-12.210937-9.53125-25.914062-8.953124-39.710937 1.390624-11.585938 5.65625-22.644532 12.40625-32.160156 12.28125.460937 24.402343 2.957031 35.867187 7.382812-20.289063 15.761719-33.035156 39.308594-35.144531 64.914062zm-20.496093 2.574219c-1.25.582031-2.46875 1.234375-3.648438 1.945313-21.734375-13.441406-35.308594-36.859375-36.167969-62.402344 12.53125-7.125 26.332031-11.746094 40.632813-13.597656-5.425782 9.347656-8.652344 19.804687-9.441406 30.582031-.65625 14.972656 2.300781 29.886719 8.625 43.472656zm10.253906 76.386719c1.382812.21875 2.773437.359375 4.167968.421875 6.445313 12.214844 9.53125 25.917969 8.953126 39.710937-1.390626 11.589844-5.65625 22.644532-12.40625 32.160157-12.28125-.460938-24.402344-2.953125-35.867188-7.382813 20.289062-15.761718 33.035156-39.308594 35.144531-64.910156zm20.496094-2.578125c1.25-.582031 2.46875-1.230469 3.648437-1.945313 21.734375 13.445313 35.308594 36.863282 36.167969 62.402344-12.53125 7.128906-26.332032 11.746094-40.632813 13.597656 5.425781-9.347656 8.652344-19.804687 9.441407-30.582031.65625-14.972656-2.300782-29.882812-8.625-43.472656zm-85.648438-124c3.492188 25.457031 17.507812 48.277344 38.632812 62.902344-.859374 1.089843-1.660156 2.222656-2.398437 3.394531-25.484375-.789062-48.894531-14.246094-62.402344-35.871094 6.832031-11.625 15.695313-21.925781 26.167969-30.417968zm-16.796875 157.382813c25.445313-3.519532 48.253906-17.539063 62.886719-38.65625 1.09375.859374 2.230468 1.660156 3.40625 2.402343-.796875 25.484375-14.257813 48.886719-35.878906 62.398438-11.617188-6.824219-21.917969-15.675781-30.414063-26.136719zm157.34375 16.800781c-3.492187-25.457031-17.507813-48.277344-38.632813-62.902344.859376-1.089844 1.660157-2.226563 2.398438-3.402344 25.484375.796875 48.894531 14.253907 62.402344 35.882813-6.832032 11.625-15.695313 21.929687-26.167969 30.421875zm0 0"/><path d="m200.054688 126.082031c-88.367188 0-160 71.632813-160 160 0 88.363281 71.632812 160 160 160 88.367187 0 160-71.636719 160-160-.101563-88.324219-71.675782-159.898437-160-160zm0 304c-79.527344 0-144-64.472656-144-144 0-79.53125 64.472656-144 144-144 79.527343 0 144 64.46875 144 144-.09375 79.488281-64.507813 143.90625-144 144zm0 0"/><path d="m456.054688 14.082031h-16c-13.253907 0-24 10.742188-24 24v24.796875l-104.167969 10.738282-13.832031-26.457032 1.519531-.441406c8.484375-2.472656 13.355469-11.355469 10.878906-19.839844l-4.476563-15.367187c-2.480468-8.480469-11.359374-13.347657-19.839843-10.871094l-153.601563 44.800781c-8.484375 2.472656-13.355468 11.355469-10.878906 19.839844l4.480469 15.367188c2.476562 8.480468 11.359375 13.347656 19.839843 10.871093l24.308594-7.085937 1.816406 3.640625c-105.777343 14.929687-181.148437 110.351562-171.171874 216.714843 9.976562 106.359376 101.777343 186.101563 208.488281 181.101563 106.710937-5 190.652343-92.984375 190.636719-199.808594.09375-27.546875-5.601563-54.800781-16.71875-80h32.71875v40c0 13.253907 10.746093 24 24 24h16c13.253906 0 24-10.746093 24-24v-208c0-13.257812-10.746094-24-24-24zm-314.558594 62.078125-4.480469-15.359375 153.597656-44.800781 4.488281 15.359375zm140.886718-24.421875 12.359376 23.644531c-48.085938 4.953126-90.96875 9.363282-105.671876 10.84375l-3.199218-6.347656zm83.3125 154.34375c12.179688 24.902344 18.464844 52.277344 18.359376 80 0 99.664063-79.351563 181.207031-178.976563 183.929688-99.625 2.71875-183.308594-74.375-188.75-173.890625-5.4375-99.511719 69.339844-185.269532 168.671875-193.425782 3.855469-.300781 131.460938-13.460937 199.054688-20.4375v107.824219h-32v16zm34.359376-16v-109.480469l16-1.65625v111.136719zm64 56c0 4.417969-3.582032 8-8 8h-16c-4.417969 0-8-3.582031-8-8v-208c0-4.417969 3.582031-8 8-8h16c4.417968 0 8 3.582031 8 8zm0 0"/></svg>