<svg height="480pt" viewBox="0 0 480 480.01562" width="480pt" xmlns="http://www.w3.org/2000/svg"><path d="m472.007812 344.015625v96c0 17.671875-14.328124 32-32 32h-400c-17.671874 0-32-14.328125-32-32v-96c-.019531-10.335937 4.996094-20.039063 13.441407-26v-.078125c5.433593-3.832031 11.910156-5.898438 18.558593-5.921875h400c6.648438.023437 13.125 2.089844 18.558594 5.921875 8.4375 6.003906 13.445313 15.722656 13.441406 26.078125zm0 0" fill="#d9ccbc"/><path d="m472.007812 240.015625c.042969 26.554687-4.503906 52.914063-13.441406 77.921875-5.433594-3.832031-11.910156-5.898438-18.558594-5.921875h-84.71875c13.5625-21.5625 20.742188-46.527344 20.71875-72-.035156-19.667969-4.320312-39.101563-12.558593-56.960937-19.839844-42.90625-60.503907-72.460938-107.441407-78.078126-10.628906-1.28125-21.371093-1.28125-32 0-46.9375 5.617188-87.601562 35.171876-107.441406 78.078126-8.238281 17.859374-12.523437 37.292968-12.558594 56.960937-.023437 25.472656 7.15625 50.4375 20.71875 72h-84.71875c-6.648437.023437-13.125 2.089844-18.558593 5.921875-30.992188-87.046875-7.378907-184.1875 60.117187-247.289062 67.496094-63.101563 166-80.136719 250.765625-43.367188 84.769531 36.769531 139.636719 120.335938 139.675781 212.734375zm0 0" fill="#898890"/><path d="m373.367188 213.535156-107.4375 34.878906 46.15625 63.601563h-39.519532l-32.558594-44.800781-32.558593 44.800781h-39.519531l46.15625-63.601563-107.4375-34.878906c2.054687-10.523437 5.386718-20.761718 9.917968-30.480468l107.441406 34.960937v-113.039063c10.628907-1.28125 21.371094-1.28125 32 0v113.039063l107.441407-34.960937c4.53125 9.71875 7.863281 19.957031 9.917969 30.480468zm0 0" fill="#ffe477"/><path d="m40.007812 336.015625h16v16h-16zm0 0"/><path d="m72.007812 336.015625h336v16h-336zm0 0"/><path d="m424.007812 336.015625h16v16h-16zm0 0"/><path d="m40.007812 368.015625h16v16h-16zm0 0"/><path d="m72.007812 368.015625h336v16h-336zm0 0"/><path d="m424.007812 368.015625h16v16h-16zm0 0"/><path d="m40.007812 400.015625h16v16h-16zm0 0"/><path d="m72.007812 400.015625h336v16h-336zm0 0"/><path d="m424.007812 400.015625h16v16h-16zm0 0"/><path d="m40.007812 432.015625h16v16h-16zm0 0"/><path d="m72.007812 432.015625h336v16h-336zm0 0"/><path d="m424.007812 432.015625h16v16h-16zm0 0"/><path d="m467.75 315.3125c29.820312-90.125 3.699219-189.359375-66.625-253.125-70.328125-63.761719-171.636719-80.070312-258.417969-41.597656-86.785156 38.472656-142.7265622 124.496094-142.6992185 219.425781.015625 25.59375 4.1523435 51.019531 12.2578125 75.296875-7.824219 7.5-12.25 17.867188-12.2578125 28.703125v96c.0273437 22.082031 17.9179685 39.972656 39.9999995 40h400c22.082032-.027344 39.972657-17.917969 40-40v-96c-.007812-10.835937-4.433593-21.203125-12.257812-28.703125zm-451.742188-75.296875c-.207031-88.265625 51.4375-168.421875 131.894532-204.714844 80.457031-36.292969 174.726562-21.957031 240.753906 36.617188s91.503906 150.460937 65.0625 234.671875c-4.378906-1.664063-9.023438-2.535156-13.710938-2.574219h-71.152343c9.949219-19.867187 15.136719-41.78125 15.152343-64-.039062-20.832031-4.574218-41.40625-13.304687-60.320313-21.097656-45.335937-64.085937-76.582031-113.71875-82.664062-11.261719-1.347656-22.644531-1.347656-33.90625 0-49.640625 6.0625-92.644531 37.304688-113.757813 82.640625-8.730468 18.921875-13.273437 39.503906-13.3125 60.34375.015626 22.21875 5.203126 44.132813 15.152344 64h-71.152344c-4.6875.039063-9.332031.910156-13.710937 2.574219-6.792969-21.539063-10.261719-43.988282-10.289063-66.574219zm260.632813 64-30.160156-41.503906c-1.574219-1.964844-3.957031-3.105469-6.472657-3.105469-2.515624 0-4.898437 1.140625-6.472656 3.105469l-30.160156 41.503906h-19.75l36.933594-50.902344c1.503906-2.074219 1.925781-4.738281 1.132812-7.171875-.789062-2.433594-2.699218-4.339844-5.132812-5.132812l-100.277344-32.5625c1.320312-5.1875 2.980469-10.289063 4.964844-15.261719l100.28125 32.632813c2.4375.792968 5.105468.371093 7.175781-1.132813 2.074219-1.503906 3.304687-3.90625 3.304687-6.46875v-105.519531c5.328126-.335938 10.671876-.335938 16 0v105.519531c0 2.5625 1.226563 4.96875 3.300782 6.476563 2.074218 1.503906 4.742187 1.925781 7.179687 1.132812l100.289063-32.640625c1.984375 4.972656 3.644531 10.074219 4.964844 15.261719l-100.277344 32.570312c-2.433594.792969-4.34375 2.699219-5.132813 5.132813-.792969 2.433593-.371093 5.097656 1.132813 7.171875l36.925781 50.894531zm-19.769531 0h-33.726563l16.863281-23.199219zm-127.542969 0c-11.328125-19.425781-17.304687-41.511719-17.320313-64 .035157-5.351563.410157-10.695313 1.128907-16l88 28.566406-37.289063 51.433594zm-1.382813-125.671875c18.472657-33.28125 50.703126-56.703125 88.0625-64v92.65625zm136.0625-64c37.355469 7.296875 69.585938 30.71875 88.054688 64l-88.054688 28.65625zm52.160157 189.671875-37.304688-51.390625 88-28.570312c.722657 5.292968 1.105469 10.621093 1.144531 15.960937-.015624 22.488281-5.992187 44.574219-17.320312 64zm147.839843 136c0 13.253906-10.746093 24-24 24h-400c-13.253906 0-24-10.746094-24-24v-96c0-13.253906 10.746094-24 24-24h400c13.253907 0 24 10.746094 24 24zm0 0"/><path d="m240.007812 48.015625v-16c-114.820312.128906-207.871093 93.179687-208 208h16c.125-105.988281 86.011719-191.875 192-192zm0 0"/></svg>