<svg viewBox="0 -48 512.0007 512" xmlns="http://www.w3.org/2000/svg"><path d="m127.574219 242.222656-48.25-33.945312c-7.097657-17.742188-18.925781-33.507813-32.320313-41.242188-21.714844-12.539062-39.316406.769532-39.316406 29.71875 0 28.953125 17.601562 62.585938 39.316406 75.121094 10.292969 5.941406 19.65625 6.070312 26.664063 1.484375zm0 0" fill="#23292e"/><path d="m369.625 381.359375-49.339844-34.710937c-7.144531-17.296876-18.753906-32.582032-31.878906-40.160157-21.710938-12.535156-39.3125.773438-39.3125 29.722657 0 28.949218 17.601562 62.582031 39.3125 75.117187 9.691406 5.59375 18.554688 6.03125 25.410156 2.238281l-.003906.027344zm0 0" fill="#23292e"/><path d="m507.71875 249.433594-.003906-.003906c-1.152344-4.535157-2.5-9.023438-4.058594-13.4375v-.355469l-69.320312-60.675781-45.714844-77.675782c-11.234375-19.089844-27.210938-34.957031-46.378906-46.054687l-66-38.222657c-30.164063-17.46875-66.992188-17.164062-96.5625-.15625l-.035157-.035156-116.179687 67.140625c-9.085938 3.527344-17.730469 8.464844-25.59375 14.792969h-.003906l-19.148438 34.710938c-12.574219 7.257812-19.816406 21.132812-18.582031 35.601562l2.082031 24.425781c.996094 11.722657 7.65625 22.21875 17.832031 28.121094l259.648438 150.550781c44.460937 25.777344 98.886719 26.589844 143.921875 2.671875.613281-.316406 1.226562-.648437 1.835937-.992187 1.882813-1.035156 3.757813-2.097656 5.609375-3.222656l46.148438-26.671876c14.53125-8.394531 25.785156-21.988281 31.226562-37.875 5.882813-17.191406 3.640625-35.355468-.722656-52.636718zm0 0" fill="#ffd613"/><path d="m507.71875 249.433594-.003906-.003906c-1.183594-4.65625-2.566406-9.265626-4.179688-13.792969l-12.996094 30.667969c-4.78125 11.28125-12.289062 20.851562-21.558593 28.082031-12.128907 9.453125-27.457031 14.789062-42.835938 14.894531l-48.539062.339844s-.398438.550781-1.085938 1.578125l-71.566406-62.832031-45.714844-77.675782c-11.238281-19.09375-27.210937-34.957031-46.382812-46.058594l-66-38.222656c-34.558594-20.011718-77.871094-16.699218-108.988281 8.339844l-19.148438 34.707031c-12.574219 7.261719-19.816406 21.136719-18.582031 35.601563l2.082031 24.429687c.996094 11.722657 7.65625 22.21875 17.832031 28.121094l259.648438 150.550781c44.460937 25.777344 98.886719 26.589844 143.917969 2.671875.621093-.316406 1.234374-.652343 1.84375-.996093 1.878906-1.03125 3.746093-2.089844 5.589843-3.210938l46.164063-26.675781c14.53125-8.398438 25.785156-21.992188 31.222656-37.878907 5.886719-17.191406 3.644531-35.355468-.71875-52.636718zm0 0" fill="#c98000"/><path d="m311.484375 242.246094 113.945313-65.644532-48.957032-77.84375c-3.03125-4.816406-9.328125-6.375-14.257812-3.519531l-90.015625 52.144531c-5.738281 3.324219-7.75 10.640626-4.515625 16.429688zm0 0" fill="#304e75"/><path d="m144.992188 99.378906c-3.921876-1.953125-7.878907-3.851562-11.863282-5.6875-27.054687-12.449218-58.804687-8.667968-82.183594 9.78125 0 13.4375 7.183594 25.847656 18.835938 32.542969l75.210938 43.210937zm0 0" fill="#243b58"/><path d="m278.183594 245.59375-24.339844-54.566406c-7.714844-17.296875-19.492188-32.476563-34.328125-44.25-19.222656-15.253906-39.726563-28.789063-61.257813-40.484375v80.558593l113.050782 64.949219c4.085937 2.351563 8.792968-1.902343 6.875-6.207031zm0 0" fill="#243b58"/><path d="m397.832031 176.15625c4.089844 2.351562 8.796875-1.902344 6.878907-6.207031l-24.339844-54.566407c-3.410156-7.640624-7.652344-14.839843-12.558594-21.542968-1.902344-.054688-3.835938.378906-5.59375 1.398437l-52.398438 30.351563zm0 0" fill="#59718b"/><path d="m404.585938 334.863281 17.21875-9.816406c5.742187-3.273437 9.285156-9.371094 9.285156-15.980469-1.636719.125-3.285156.207032-4.945313.21875l-48.539062.339844-6.515625 5.28125c-4.636719 3.757812-5.066406 10.675781-.929688 14.980469 8.984375 9.34375 23.164063 11.394531 34.425782 4.976562zm0 0" fill="#fff"/><path d="m503.535156 235.636719-12.996094 30.667969c-1.96875 4.648437-4.414062 8.988281-7.242187 13.011718l-.011719.042969 2.277344 1.011719c4.914062 2.175781 10.574219 1.875 15.226562-.8125l11.027344-6.367188c-1.160156-12.847656-3.96875-25.457031-8.28125-37.554687zm0 0" fill="#fff"/><g fill="#2e373d"><path d="m500.789062 279.558594c-4.652343 2.6875-10.3125 2.988281-15.226562.8125l-2.277344-1.007813v-.003906c-11.992187 17.046875-31.082031 28.085937-52.195312 29.714844-.003906 6.605469-3.546875 12.703125-9.285156 15.972656l-17.21875 9.816406c-1.734376.988281-3.542969 1.75-5.382813 2.339844v.007813l19.367187-4.757813c35.144532-8.628906 66.464844-28.617187 89.089844-56.863281zm0 0"/><path d="m488.824219 270.023438c.09375-.1875.183593-.375.277343-.566407-.09375.191407-.1875.378907-.277343.566407zm0 0"/><path d="m327.722656 381.609375c0 28.949219-17.601562 42.257813-39.316406 29.71875-21.710938-12.535156-39.316406-46.167969-39.316406-75.117187 0-28.953126 17.605468-42.257813 39.316406-29.722657 21.714844 12.535157 39.316406 46.167969 39.316406 75.121094zm0 0"/></g><path d="m313.8125 373.578125c0 18.707031-11.375 27.308594-25.40625 19.207031-14.03125-8.101562-25.40625-29.835937-25.40625-48.542968 0-18.710938 11.375-27.308594 25.40625-19.207032 14.03125 8.097656 25.40625 29.832032 25.40625 48.542969zm0 0" fill="#cecece"/><path d="m302.1875 366.863281c0 10.148438-6.167969 14.8125-13.78125 10.417969-7.609375-4.394531-13.78125-16.179688-13.78125-26.328125s6.171875-14.8125 13.78125-10.417969c7.613281 4.394532 13.78125 16.183594 13.78125 26.328125zm0 0" fill="#627681"/><path d="m86.320312 242.152344c0 28.953125-17.601562 42.257812-39.316406 29.722656-21.710937-12.539062-39.3125-46.167969-39.3125-75.121094 0-28.949218 17.601563-42.257812 39.3125-29.722656 21.714844 12.539062 39.316406 46.171875 39.316406 75.121094zm0 0" fill="#2e373d"/><path d="m72.410156 234.121094c0 18.710937-11.375 27.308594-25.40625 19.207031-14.03125-8.097656-25.40625-29.832031-25.40625-48.542969 0-18.707031 11.375-27.308594 25.40625-19.207031s25.40625 29.835937 25.40625 48.542969zm0 0" fill="#cecece"/><path d="m60.785156 227.410156c0 10.148438-6.171875 14.8125-13.78125 10.417969s-13.777344-16.183594-13.777344-26.328125c0-10.148438 6.167969-14.8125 13.777344-10.417969s13.78125 16.179688 13.78125 26.328125zm0 0" fill="#627681"/><path d="m507.058594 293.605469c-22.507813 23.84375-50.875 41.371093-82.273438 50.824219l-26.199218 7.890624c-8.871094 2.671876-16.132813 9.082032-19.886719 17.554688-1.945313 4.390625 1.878906 9.148438 6.585937 8.195312l19.054688-3.855468 11.5625-17.007813 24.210937-8.417969c22.414063-7.796874 42.996094-20.09375 60.480469-36.136718l1.121094 3.417968c3.0625-4.9375 5.589844-10.207031 7.308594-15.804687 0-.089844 0-.175781 0-.265625zm0 0" fill="#2e373d"/></svg>