<?xml version="1.0" encoding="iso-8859-1"?>
<!-- Generator: Adobe Illustrator 19.0.0, SVG Export Plug-In . SVG Version: 6.00 Build 0)  -->
<svg version="1.1" id="Capa_1" xmlns="http://www.w3.org/2000/svg" xmlns:xlink="http://www.w3.org/1999/xlink" x="0px" y="0px"
	 viewBox="0 0 512 512" style="enable-background:new 0 0 512 512;" xml:space="preserve">
<path style="fill:#009245;" d="M8.533,110.933H332.8v392.533H8.533V110.933z"/>
<path style="fill:#F2F2F2;" d="M332.8,145.067h-256V179.2H42.667v85.333H76.8v34.133h256V145.067z"/>
<g>
	<path style="fill:#50BB65;" d="M8.533,332.8H384v42.667H8.533V332.8z"/>
	<path style="fill:#50BB65;" d="M8.533,418.133H384V460.8H8.533V418.133z"/>
</g>
<circle style="fill:#009245;" cx="170.667" cy="221.867" r="34.133"/>
<path style="fill:#A67C52;" d="M273.067,136.533c-77.534,30.02-110.933,133.769-110.933,221.406
	c0,103.714,76.407,145.527,170.667,145.527s170.667-41.813,170.667-145.527c0-87.637-33.4-191.386-110.933-221.406H273.067z"/>
<path style="fill:#754C24;" d="M273.067,93.867h119.467v42.667H273.067V93.867z"/>
<path style="fill:#A67C52;" d="M392.533,93.867l34.133-25.6V8.533h-34.133L375.467,25.6L358.4,8.533h-51.2L290.133,25.6
	L273.067,8.533h-34.133v59.733l34.133,25.6H392.533z"/>
<circle style="fill:#EEB83B;" cx="332.8" cy="324.267" r="119.467"/>
<circle style="fill:#FED856;" cx="332.8" cy="324.267" r="85.333"/>
<path d="M401.067,131.081V98.133l30.72-23.04c2.15-1.613,3.413-4.139,3.413-6.827V8.533c0-4.71-3.823-8.533-8.533-8.533h-34.133
	c-2.261,0-4.437,0.896-6.033,2.5l-11.034,11.034L364.433,2.5C362.837,0.896,360.661,0,358.4,0h-51.2c-2.261,0-4.437,0.896-6.033,2.5
	l-11.034,11.034L279.1,2.5c-1.596-1.604-3.772-2.5-6.033-2.5h-34.133c-4.71,0-8.533,3.823-8.533,8.533v59.733
	c0,2.688,1.263,5.214,3.413,6.827l30.72,23.04v4.267h-256c-4.71,0-8.533,3.823-8.533,8.533v392.533C0,508.177,3.823,512,8.533,512
	h315.733v-0.264c2.859,0.068,5.606,0.264,8.533,0.264C446.686,512,512,455.842,512,357.931
	C512,268.348,477.56,164.873,401.067,131.081z M384,128H281.6v-25.6H384V128z M247.467,17.067h22.067L284.1,31.633
	c3.328,3.328,8.738,3.328,12.066,0l14.566-14.566h44.134l14.566,14.566c3.328,3.328,8.738,3.328,12.066,0l14.566-14.566h22.067V64
	l-28.442,21.333H275.908L247.467,64L247.467,17.067z M264.533,119.467v11.614c-3.806,1.707-7.561,3.413-11.153,5.453H76.8
	c-4.71,0-8.533,3.823-8.533,8.533v25.6h-25.6c-4.71,0-8.533,3.823-8.533,8.533v85.333c0,4.71,3.823,8.533,8.533,8.533h25.6v25.6
	c0,4.71,3.823,8.533,8.533,8.533h80.427c-0.802,5.692-1.485,11.383-2.014,17.067H17.067v-204.8H264.533z M153.984,366.933H17.067
	v-25.6H154.01c-0.273,5.572-0.41,11.11-0.41,16.597C153.6,361.02,153.856,363.93,153.984,366.933z M155.46,384
	c1.092,8.661,2.859,17.22,5.299,25.6H17.067V384H155.46z M167.253,426.667c4.045,9.088,9.131,17.681,15.155,25.6H17.067v-25.6
	H167.253z M171.281,247.407c-0.188,0-0.375,0.06-0.572,0.06c-14.14,0.171-25.737-11.153-25.907-25.293
	c-0.171-14.14,11.153-25.737,25.293-25.907c7.39-0.085,14.455,3.021,19.388,8.533c-7.296,13.653-13.406,27.904-18.244,42.607
	H171.281z M198.588,189.619c-17.732-15.445-44.629-13.594-60.075,4.139s-13.594,44.629,4.139,60.075
	c6.613,5.76,14.839,9.335,23.561,10.24c-2.355,8.585-4.42,17.271-6.101,26.052H85.333v-25.6c0-4.71-3.823-8.533-8.533-8.533H51.2
	v-68.267h25.6c4.71,0,8.533-3.823,8.533-8.533v-25.6h143.889c-11.81,10.564-22.127,22.682-30.677,36.019h0.043L198.588,189.619z
	 M17.067,494.933v-25.6h180.992c11.972,10.726,25.651,19.379,40.474,25.6H17.067z M332.8,494.933
	c-48.751,0-162.133-13.346-162.133-137.003c0-85.333,32.179-183.893,104.021-212.864h116.224
	c71.842,29.013,104.021,127.522,104.021,212.864C494.933,481.587,381.551,494.933,332.8,494.933L332.8,494.933z"/>
<path d="M307.2,341.333v1.246c0.043,10.607,6.946,19.959,17.067,23.117v9.771h17.067v-9.771c12.8-3.985,19.942-17.587,15.966-30.379
	c-1.971-6.323-6.434-11.571-12.365-14.524l-16.631-8.32c-3.601-1.801-5.06-6.178-3.26-9.779c1.229-2.466,3.755-4.028,6.511-4.028
	h2.492c4.019,0.009,7.279,3.268,7.287,7.287v1.246H358.4v-1.246c-0.043-10.607-6.946-19.959-17.067-23.117v-9.771h-17.067v9.771
	c-12.8,3.985-19.942,17.587-15.966,30.379c1.971,6.323,6.434,11.571,12.365,14.524l16.631,8.32c3.601,1.801,5.06,6.178,3.26,9.779
	c-1.229,2.466-3.755,4.028-6.511,4.028h-2.492c-4.019-0.009-7.279-3.268-7.287-7.287v-1.246H307.2z"/>
<path d="M273.067,315.733h17.067V332.8h-17.067V315.733z"/>
<path d="M375.467,315.733h17.067V332.8h-17.067V315.733z"/>
<path d="M332.8,196.267c-70.69,0-128,57.31-128,128s57.31,128,128,128s128-57.31,128-128
	C460.723,253.611,403.456,196.343,332.8,196.267z M332.8,435.2c-61.269,0-110.933-49.664-110.933-110.933
	S271.531,213.333,332.8,213.333s110.933,49.664,110.933,110.933C443.665,385.502,394.035,435.132,332.8,435.2z"/>
<path d="M332.8,230.4c-51.84,0-93.867,42.027-93.867,93.867c0,20.309,6.588,40.073,18.773,56.32l13.653-10.24
	c-10.018-13.269-15.411-29.457-15.36-46.08c0.043-42.394,34.441-76.723,76.834-76.681c42.394,0.043,76.723,34.441,76.681,76.834
	c-0.043,42.394-34.441,76.723-76.834,76.681c-13.44-0.017-26.641-3.558-38.281-10.274l-8.533,14.763
	c44.911,25.89,102.315,10.47,128.205-34.441s10.47-102.315-34.441-128.205C365.38,234.735,349.235,230.409,332.8,230.4L332.8,230.4z
	"/>
<path d="M34.133,136.533H51.2V153.6H34.133V136.533z"/>
<path d="M34.133,290.133H51.2V307.2H34.133V290.133z"/>
<g>
</g>
<g>
</g>
<g>
</g>
<g>
</g>
<g>
</g>
<g>
</g>
<g>
</g>
<g>
</g>
<g>
</g>
<g>
</g>
<g>
</g>
<g>
</g>
<g>
</g>
<g>
</g>
<g>
</g>
</svg>
