<svg height="496pt" viewBox="0 -88 496 496" width="496pt" xmlns="http://www.w3.org/2000/svg"><path d="m480 320h-464c-8.824219 0-16-7.175781-16-16v-288c0-8.824219 7.175781-16 16-16h464c8.824219 0 16 7.175781 16 16v288c0 8.824219-7.175781 16-16 16zm-440-280v240h416v-240zm0 0" fill="#f0bc5e"/><path d="m32 32v256h432v-256zm416 240h-400v-224h400zm0 0"/><path d="m416 64h16v16h-16zm0 0"/><path d="m64 64h16v16h-16zm0 0"/><path d="m416 240h16v16h-16zm0 0"/><path d="m64 240h16v16h-16zm0 0"/><path d="m72 176c0 22.054688 17.945312 40 40 40s40-17.945312 40-40h-16c0 13.230469-10.769531 24-24 24s-24-10.769531-24-24v-32c0-13.230469 10.769531-24 24-24s24 10.769531 24 24h16c0-22.054688-17.945312-40-40-40s-40 17.945312-40 40zm0 0"/><path d="m168 152h48v16h-48zm0 0"/><path d="m264 128v16c0 4.40625-3.585938 8-8 8h-24v16h24c4.414062 0 8 3.59375 8 8v16c0 4.40625-3.585938 8-8 8h-40v16h40c13.230469 0 24-10.769531 24-24v-16c0-6.167969-2.40625-11.742188-6.238281-16 3.839843-4.257812 6.238281-9.832031 6.238281-16v-16c0-13.230469-10.769531-24-24-24h-40v16h40c4.414062 0 8 3.59375 8 8zm0 0"/><path d="m360 200h-44.6875l31.03125-31.03125c8.808594-8.800781 13.65625-20.511719 13.65625-32.96875 0-17.648438-14.351562-32-32-32s-32 14.351562-32 32v8h16v-8c0-8.824219 7.175781-16 16-16s16 7.175781 16 16c0 8.175781-3.183594 15.871094-8.96875 21.65625l-39.03125 39.03125v19.3125h64zm0 0"/><path d="m424 200h-16v-96h-32v16h16v80h-16v16h48zm0 0"/></svg>