<svg id="_x33_0" enable-background="new 0 0 64 64" height="512" viewBox="0 0 64 64" width="512" xmlns="http://www.w3.org/2000/svg"><g><g><g><path d="m22 42 3.32 15.49-5.32-1.01-2.98-.57 2.98-13.91z" fill="#fcd770"/></g><g><path d="m23.6 39.6-1.6 2.4h-2l-1.6-2.4 2.6-2.6z" fill="#ffc729"/></g><g><path d="m17 41 1.4-1.4 1.6 2.4-2.98 13.91 2.98.57v5.52h-10c-4.42 0-8-3.58-8-8v-2.71c0-6.12 3.98-11.53 9.82-13.36l2.33-.73z" fill="#4fc1e9"/></g><g><path d="m41.94 49.37c1.19.41 2.47.63 3.81.63h4.25v2.22c0 2.15-.87 4.1-2.28 5.5-1.4 1.41-3.35 2.28-5.5 2.28-2.06 0-4.04-.82-5.5-2.28l-4.72-4.72v9h-4v-1.52c0-1.44-1.02-2.67-2.44-2.94l-.24-.05-3.32-15.49 1.6-2.4 1.4 1.4 3.05-4.07 1.6.37c1.54.36 3.01.92 4.37 1.66h.01c.28 4.84 3.5 8.9 7.91 10.41z" fill="#4fc1e9"/></g><g><path d="m28.05 36.93-3.05 4.07-1.4-1.4-2.6-2.6 3-1z" fill="#3bafda"/></g><g><path d="m21 37-2.6 2.6-1.4 1.4-2.85-3.8 3.85-1.2z" fill="#3bafda"/></g><g><path d="m47.79 17.58.21.42h-4l-2-4c.61-1.23 1.87-2 3.24-2h.88c.23 1.94.79 3.82 1.67 5.58z" fill="#cf9e76"/></g><g><path d="m54 12c0 1.96-.58 3.87-1.66 5.5l-.34.5h-4l-.21-.42c-.88-1.76-1.44-3.64-1.67-5.58-.08-.66-.12-1.33-.12-2 3 0 5 .5 6.25 1s1.75 1 1.75 1z" fill="#d3a06c"/></g><g><path d="m52 18v4h-8v-4h4z" fill="#e6e9ed"/></g><g><path d="m59.28 30.73c1.76 2.11 2.72 4.77 2.72 7.52 0 3.25-1.32 6.18-3.44 8.31-2.13 2.12-5.06 3.44-8.31 3.44h-.25-4.25c-1.34 0-2.62-.22-3.81-.63-4.41-1.51-7.63-5.57-7.91-10.41-.02-.24-.03-.47-.03-.71 0-1.37.24-2.73.7-4s1.14-2.47 2.02-3.52l7.28-8.73h8z" fill="#cf9e76"/></g><g><path d="m29.13 19.03-1.15 2.69c.01-.13.02-.26.02-.39 0-.92-.37-1.75-.98-2.35-.6-.61-1.43-.98-2.35-.98h-.67c0-1.1-.45-2.1-1.17-2.83-.73-.72-1.73-1.17-2.83-1.17h-5.01c-1.12 0-2.1-.62-2.62-1.54-.78.62-1.44 1.36-1.96 2.19h-.01l-1.07-.65c-2.07-1.24-3.33-3.48-3.33-5.89 0-.73.12-1.47.35-2.17l.65-1.94h6 6.21c5.96 0 10.79 4.83 10.79 10.79 0 1.46-.3 2.9-.87 4.24z" fill="#656d78"/></g><g><path d="m28 60.48v1.52h-8v-5.52l5.32 1.01.24.05c1.42.27 2.44 1.5 2.44 2.94z" fill="#f0d0b4"/></g><g><path d="m18 32.33-3.7.62c-.2.03-.4.05-.61.05-1.02 0-1.94-.41-2.61-1.08s-1.08-1.59-1.08-2.61v-.31-4h-.2c-.99 0-1.8-.81-1.8-1.8 0-.13.01-.26.04-.39l1.18-5.29c.23-1.03.63-2 1.18-2.87h.01c.52-.83 1.18-1.57 1.96-2.19.52.92 1.5 1.54 2.62 1.54h5.01c1.1 0 2.1.45 2.83 1.17.72.73 1.17 1.73 1.17 2.83h.67c.92 0 1.75.37 2.35.98.61.6.98 1.43.98 2.35 0 .13-.01.26-.02.39-.11.9-.58 1.73-1.31 2.28l-2.27 1.7c-.25.19-.4.49-.4.8v9.5l-3 1-3-1z" fill="#f0d0b4"/></g></g><g><path d="m14 20c-.551 0-1-.448-1-1h-2c0 1.654 1.346 3 3 3s3-1.346 3-3h-2c0 .552-.449 1-1 1z"/><path d="m11 6.236c0-1.309.309-2.619.895-3.789l-1.789-.895c-.724 1.447-1.106 3.067-1.106 4.684v.764h2z"/><path d="m49 31.184v-2.184h-2v2h-2v3c0 1.654 1.346 3 3 3 .551 0 1 .448 1 1v1h-1c-.551 0-1-.448-1-1v-1h-2v1c0 1.302.839 2.402 2 2.816v2.184h2v-2h2v-3c0-1.654-1.346-3-3-3-.551 0-1-.448-1-1v-1h1c.551 0 1 .448 1 1v1h2v-1c0-1.302-.839-2.402-2-2.816z"/><path d="m63 38.253c0-2.976-1.049-5.874-2.955-8.161l-7.045-8.454v-3.335l.168-.252c1.199-1.798 1.832-3.891 1.832-6.051v-.414l-.293-.293c-.234-.234-2.473-2.293-8.707-2.293h-1v1c0 .338.01.677.03 1.014-1.676.074-3.168 1.027-3.924 2.538l-.224.448 2.118 4.236v3.401l-7.045 8.454c-1.719 2.063-2.732 4.624-2.916 7.29-1.022-.444-2.08-.802-3.168-1.054l-4.871-1.123v-8.704l2.267-1.7c.901-.676 1.495-1.686 1.672-2.786l1.109-2.585c.631-1.476.952-3.038.952-4.643 0-6.499-5.287-11.786-11.786-11.786h-6.214v2h6.214c5.396 0 9.786 4.39 9.786 9.786 0 1.332-.266 2.63-.791 3.855l-.061.141c-.746-1.015-1.91-1.705-3.247-1.777-.192-.956-.661-1.836-1.366-2.541-.944-.944-2.199-1.464-3.534-1.464 0 0-.001 0-.002 0l-5.007.001c-1.099 0-1.993-.895-1.993-1.993.001-1.107.898-2.008 2-2.008v-2c-2.205 0-3.999 1.798-3.999 4.009 0 .404.078.787.191 1.155-.382.356-.732.742-1.053 1.152l-.29-.174c-1.757-1.054-2.848-2.98-2.848-5.028 0-.631.101-1.255.301-1.854l.648-1.943-1.898-.633-.648 1.944c-.267.804-.403 1.641-.403 2.486 0 2.746 1.463 5.329 3.818 6.742l.246.148c-.365.727-.644 1.498-.822 2.299l-1.175 5.286c-.045.198-.067.404-.067.609 0 1.267.845 2.339 2 2.685v3.423c0 2.589 2.106 4.694 4.694 4.694.258 0 .516-.021.772-.063l2.534-.423v1.751l-5.474 1.711c-6.296 1.967-10.526 7.721-10.526 14.317v2.707c0 4.963 4.038 9 9 9h23v-7.586l3.015 3.015c1.658 1.658 3.862 2.571 6.207 2.571 4.84 0 8.778-3.937 8.778-8.778v-1.26c6.68-.39 12-5.933 12-12.709zm-10.013-25.767c-.086 1.591-.594 3.122-1.483 4.455l-.039.059h-2.839c-.911-1.863-1.458-3.908-1.593-5.979 3.503.151 5.293 1.043 5.954 1.465zm-1.987 6.514v2h-6v-2zm-5.764-6h.022c.234 1.372.625 2.718 1.167 4h-1.807l-1.477-2.953c.489-.655 1.256-1.047 2.095-1.047zm-18.908 24.564-1.436 1.914-2.041-2.041 1.197-.399zm.672 23.436h-6v-3.316l4.375.833c.941.18 1.625 1.006 1.625 1.965zm-8.788-5.883 2.597-12.117h.383l2.834 13.225zm3.253-14.117h-.93l-.848-1.273 1.313-1.313 1.313 1.313zm-1.3-8.014-.329-1.973-5.697.95c-.147.025-.296.037-.445.037-1.244 0-2.284-.852-2.592-2h1.898c2.206 0 4-1.794 4-4h-2c0 1.103-.897 2-2 2h-2v-4h-1.198c-.442 0-.802-.359-.802-.802 0-.059.006-.117.019-.175l1.175-5.287c.321-1.445 1.061-2.759 2.086-3.815.713.665 1.663 1.08 2.712 1.08h5.008.001c.8 0 1.553.312 2.119.878.568.566.88 1.32.88 2.121v1h1.667c1.286 0 2.333 1.047 2.333 2.333 0 .73-.349 1.429-.934 1.867l-2.266 1.7c-.501.375-.8.974-.8 1.6v8.78l-2 .667-2-.667v-2.099zm-2.174 4.065 1.158.386-2.041 2.041-1.307-1.743zm-14.991 16.949v-2.707c0-5.717 3.666-10.703 9.123-12.409l1.654-.517 3.116 4.155 1.353-1.353.689 1.034-2.687 12.54-5.248-.999v-6.744h-2v6.363l-1.813-.345-.374 1.965 12.187 2.321v3.696h-9c-3.86 0-7-3.141-7-7zm39.222 5c-1.811 0-3.513-.705-4.793-1.985l-4.429-4.429v-5.586h-2v14h-2v-.518c0-1.771-1.172-3.301-2.833-3.811l-3.101-14.469.689-1.034 1.353 1.353 3.35-4.467.963.222c1.268.292 2.492.744 3.653 1.329.498 4.695 3.554 8.636 7.745 10.4l-.805 4.829 1.973.328.756-4.537c.965.237 1.968.375 3.004.375h3.253v1.222c0 3.737-3.041 6.778-6.778 6.778zm8.031-10h-4.506c-5.926 0-10.747-4.821-10.747-10.747 0-2.509.885-4.953 2.491-6.88l6.978-8.373h7.063l6.978 8.373c1.605 1.927 2.49 4.371 2.49 6.88 0 5.926-4.821 10.747-10.747 10.747z"/></g></g></svg>