<svg id="Layer_1" data-name="Layer 1" xmlns="http://www.w3.org/2000/svg" viewBox="0 0 512 512"><defs><style>.cls-1{fill:#b9c5d6;}</style></defs><title>del-grey</title><path class="cls-1" d="M255-1C113.61-1-1,113.61-1,255S113.61,511,255,511,511,396.39,511,255C510.83,113.68,396.32-.83,255-1Zm0,480C131.29,479,31,378.71,31,255S131.29,31,255,31,479,131.29,479,255,378.66,478.87,255,479Z"/><path class="cls-1" d="M379.45,130.55a16,16,0,0,0-22.63,0L255,232.37,153.18,130.55a16,16,0,0,0-23,22.23l.39.4L232.38,255,130.55,356.82a16,16,0,0,0,22.23,23l.4-.39L255,277.62,356.82,379.45a16,16,0,0,0,22.63-22.63L277.63,255,379.45,153.18A16,16,0,0,0,379.45,130.55Z"/></svg>