<svg id="Layer_1" data-name="Layer 1" xmlns="http://www.w3.org/2000/svg" viewBox="0 0 401 401"><defs><style>.cls-1{fill:#b9c5d6;}</style></defs><title>edit-grey</title><path class="cls-1" d="M370.11,251.91a10,10,0,0,0-10,10v88.68a30,30,0,0,1-30,30H49.93a30,30,0,0,1-30-30V90.32a30,30,0,0,1,30-30h88.68a10,10,0,1,0,0-20H49.93A50,50,0,0,0,0,90.32V350.57A50,50,0,0,0,49.93,400.5H330.16a50,50,0,0,0,49.93-49.93V261.89A10,10,0,0,0,370.11,251.91Z"/><path class="cls-1" d="M376.14,14.68a45,45,0,0,0-63.56,0L134.41,192.86a10,10,0,0,0-2.57,4.39l-23.43,84.59a10,10,0,0,0,12.29,12.3l84.59-23.44a10,10,0,0,0,4.4-2.56L387.86,90a45,45,0,0,0,0-63.56Zm-220,184.67L302,53.52l47,47L203.19,246.38Zm-9.4,18.85,37.58,37.58-52,14.39Zm227-142.36-10.6,10.59-47-47,10.6-10.59a25,25,0,0,1,35.3,0l11.73,11.71A25,25,0,0,1,373.74,75.84Z"/></svg>