<svg id="Capa_1" data-name="Capa 1" xmlns="http://www.w3.org/2000/svg" viewBox="0 0 512 512"><defs><style>.cls-1{fill:#fff;}</style></defs><title>fuel</title><path class="cls-1" d="M469.9,120.32l.43-.43-106-105.67L334.22,44.37l60,60a71,71,0,0,0,25.31,137.39,70.3,70.3,0,0,0,28.45-6V440.89a28.45,28.45,0,0,1-56.89,0v-128A56.88,56.88,0,0,0,334.22,256H305.78V56.89A56.88,56.88,0,0,0,248.89,0H78.22A56.88,56.88,0,0,0,21.33,56.89V512H305.78V298.67h42.66V440.89a71.12,71.12,0,0,0,142.23,0V170.67A71.42,71.42,0,0,0,469.9,120.32Zm-221,78.79H78.22V56.89H248.89Zm170.67,0A28.45,28.45,0,1,1,448,170.67,28.53,28.53,0,0,1,419.56,199.11Z"/></svg>