<svg id="Capa_1" data-name="Capa 1" xmlns="http://www.w3.org/2000/svg" viewBox="0 0 512 512"><defs><style>.cls-1{fill:#b9c5d6;}</style></defs><title>ok-grey</title><path class="cls-1" d="M437,75A256,256,0,0,0,75,437,256,256,0,0,0,437,75ZM256,482C131.38,482,30,380.62,30,256S131.38,30,256,30,482,131.38,482,256,380.62,482,256,482Z"/><path class="cls-1" d="M378.3,173.86a15,15,0,0,0-21.21,0L224.63,306.32l-69.72-69.73a15,15,0,0,0-21.22,21.22L214,338.14a15,15,0,0,0,21.21,0L378.3,195.07A15,15,0,0,0,378.3,173.86Z"/></svg>