<svg id="Phones" xmlns="http://www.w3.org/2000/svg" viewBox="0 0 335.25 699.48"><defs><style>.cls-1{fill:#3d4652;}.cls-2{fill:#2d353d;}</style></defs><title>phone-border</title><path class="cls-1" d="M290.82,0H44.43A44.48,44.48,0,0,0,0,44.43V655.05a44.48,44.48,0,0,0,44.43,44.43H290.82a44.48,44.48,0,0,0,44.43-44.43V44.43A44.48,44.48,0,0,0,290.82,0Zm32.56,656.59a31.35,31.35,0,0,1-31.26,31.26h-249a31.35,31.35,0,0,1-31.25-31.26V42.89A31.35,31.35,0,0,1,43.12,11.63H75.91A4.35,4.35,0,0,1,80.24,16v3A17.42,17.42,0,0,0,97.61,36.38h140.1A17.41,17.41,0,0,0,255.07,19V14.63a4.36,4.36,0,0,1,4.13-3h32.92a31.35,31.35,0,0,1,31.26,31.26Z"/><path class="cls-2" d="M259.2,11.63a4.36,4.36,0,0,0-4.13,3V19a17.41,17.41,0,0,1-17.36,17.37H97.61A17.42,17.42,0,0,1,80.24,19V16a4.35,4.35,0,0,0-4.33-4.34Z"/><path class="cls-1" d="M200.19,23.58a5.41,5.41,0,1,1-5.41-5.41A5.41,5.41,0,0,1,200.19,23.58Z"/><path class="cls-1" d="M175.62,26.33H137.85a2.8,2.8,0,0,1-2.8-2.8v-.44a2.81,2.81,0,0,1,2.8-2.8h37.77a2.81,2.81,0,0,1,2.8,2.8v.44a2.8,2.8,0,0,1-2.8,2.8Z"/></svg>