<svg id="Capa_1" data-name="Capa 1" xmlns="http://www.w3.org/2000/svg" viewBox="0 0 512 512"><defs><style>.cls-1{fill:#fff;}</style></defs><title>power</title><path class="cls-1" d="M26.53,303.61c-7.53-81,27.07-154.36,84.45-201,22.36-18.18,55.81-2.61,55.81,26.13h0a34.59,34.59,0,0,1-13.17,26.86A162.09,162.09,0,0,0,94.46,298.7c7.74,75.15,67.94,136,143,144.33,97.93,11,181.12-65.74,181.12-161.47a162.14,162.14,0,0,0-60.2-126,34.47,34.47,0,0,1-13.06-26.76h0c0-28.43,32.92-44.52,55.07-26.75,52.47,42.32,86.12,107,86.12,179.55,0,132.63-112.66,239.55-247.38,229.83C127.7,503.55,36.88,414.81,26.53,303.61ZM255.94,0a34,34,0,0,0-34,34V190.42a34,34,0,1,0,67.93,0V34A34,34,0,0,0,255.94,0Z"/></svg>