<?xml version="1.0" encoding="utf-8"?>
<!-- Generator: Adobe Illustrator 24.1.1, SVG Export Plug-In . SVG Version: 6.00 Build 0)  -->
<svg version="1.1" id="Capa_1" xmlns="http://www.w3.org/2000/svg" xmlns:xlink="http://www.w3.org/1999/xlink" x="0px" y="0px"
	 viewBox="0 0 512 512" style="enable-background:new 0 0 512 512;" xml:space="preserve">
<style type="text/css">
	.st0{fill:#FFFFFF;}
</style>
<g>
	<g>
		<path class="st0" d="M435.9,193.8l12.7-12.7c2.9-2.9,6.9-4.6,11-4.6s8.1,1.6,11,4.6l19.8-19.8c-8.2-8.2-19.2-12.8-30.8-12.8
			c-11.6,0-22.6,4.5-30.8,12.8l-21,21L369.9,137H206.9l-74.7,65.4H82.4c-36,0-65.4,29.3-65.4,65.4c0,36,29.3,65.3,65.3,65.3
			c6.2,24.1,28.2,42,54.2,42c26.1,0,48-17.9,54.2-42h137c6.2,24.1,28.2,42,54.2,42c26.4,0,48.6-18.4,54.5-43
			c33.1-5.5,58.5-34.4,58.5-69.1C495,228.1,469.3,199.1,435.9,193.8z M136.5,347c-15.4,0-28-12.6-28-28s12.6-28,28-28s28,12.6,28,28
			S151.9,347,136.5,347z M382,347c-15.4,0-28-12.6-28-28s12.6-28,28-28s28,12.6,28,28S397.5,347,382,347z M435.9,303.6
			c-6.7-23.4-28.3-40.6-53.8-40.6c-26.1,0-48,17.9-54.2,42h-137c-6.2-24.1-28.2-42-54.2-42c-26.1,0-48,17.9-54.2,42
			C61.7,305,45,288.2,45,267.7c0-20.6,16.8-37.3,37.3-37.3h60.3l74.7-65.4h139.4l46.7,56H425c23.2,0,42,18.8,42,42
			C467,282.4,453.8,298.8,435.9,303.6z"/>
	</g>
</g>
</svg>
