<svg id="Layer_1" data-name="Layer 1" xmlns="http://www.w3.org/2000/svg" viewBox="0 0 89.24 30.19"><defs><style>.cls-1{fill:#fff;}</style></defs><title>gun-1</title><path class="cls-1" d="M88.18,5.15h-1V3a1.06,1.06,0,0,0-.61-.95,1,1,0,0,0-1.12.13L82.59,4.5H76.74L75.22,2a1.07,1.07,0,0,0-.91-.51H65.57a1,1,0,0,0-.85-.46H54.36A1.06,1.06,0,0,0,53.3,0H46A1.06,1.06,0,0,0,45,1.06V2.4H24.82a1.07,1.07,0,0,0-.88.46L21.69,6.14l-3.11.8L15.93,5.3a1,1,0,0,0-.83-.12L.79,8.93A1.07,1.07,0,0,0,0,10.18L2.33,21.11a1,1,0,0,0,1,.84,1.16,1.16,0,0,0,.48-.11l16.86-8.63,1.67-.14v.83l-2.72,6.34a1.06,1.06,0,0,0,.41,1.32l3.63,2.31a1.11,1.11,0,0,0,.57.16h2.06a1.06,1.06,0,0,0,1.06-1c0-1.5.46-5.41,2-7.38l.19.29a1.07,1.07,0,0,0,.89.48h3a1,1,0,0,0,.63-.21l1.24-.9a1.08,1.08,0,0,0,.44-.86V12s0,0,0-.07l.83-.07c.68,3.3,3.48,13.91,11.95,18.19a1,1,0,0,0,.48.12,1.06,1.06,0,0,0,.92-.53l3.16-5.4a1.06,1.06,0,0,0-.29-1.4c-.07-.05-7.11-5.24-7.4-11.71L47.56,11v1a1,1,0,0,0,1.06,1.06,1.08,1.08,0,0,0,.55-.15l4.43-2.7H64.72a1.06,1.06,0,0,0,1.06-1.05H72l.15,0,.25,0H88.18a1.06,1.06,0,0,0,1.06-1.06V6.21A1,1,0,0,0,88.18,5.15ZM83,6.63a1.1,1.1,0,0,0,.67-.24l1.43-1.15V7.05H77.21V6.63Zm-7.88-.77V7.05H73L71.47,4.74a1.08,1.08,0,0,0-.89-.47h-4.8V3.63h7.93Zm-9.3.54H70l.44.65H65.78ZM63.66,4.27h-9.3V3.18h9.3Zm-38.28.26H46a1.06,1.06,0,0,0,1.06-1.06V2.13h5.17V4.88H49.17a1.06,1.06,0,0,0-1.06,1.06V6H24.36Zm-.05,17.38h-.75L22,20.25l2.45-5.71a1.06,1.06,0,0,0,.09-.42V12.89l3.79-.31v1.06C26.08,15.78,25.48,19.92,25.33,21.91Zm8.33-8-.52.38H31l-.61-.91v-.69a2.07,2.07,0,0,0,.38.58,1.68,1.68,0,0,0,1.24.52A1,1,0,0,0,33,12.19l.69-.06ZM50.82,24l-2.18,3.7c-6.68-4-9.19-12.86-9.89-16l4.55-.38C43.62,17.46,48.81,22.33,50.82,24ZM20.33,11.11a1.14,1.14,0,0,0-.4.11L4.12,19.31,2.31,10.73,15.2,7.35,17.84,9a1.09,1.09,0,0,0,.83.12l3.81-1H47.56v.71Zm33-3a1.07,1.07,0,0,0-.55.16L50.23,9.79V7H53.3a1.06,1.06,0,0,0,1-.6h9.41V8.1Z"/><path class="cls-1" d="M14.43,8.53,4.6,11.12a1.06,1.06,0,0,0-.76,1.3,1.08,1.08,0,0,0,1,.79.84.84,0,0,0,.27,0L15,10.59a1.06,1.06,0,1,0-.54-2.06Z"/></svg>