<svg id="Layer_1" data-name="Layer 1" xmlns="http://www.w3.org/2000/svg" viewBox="0 0 42 32"><defs><style>.cls-1{fill:#fff;}</style></defs><title>gun-5</title><path class="cls-1" d="M26,10h6a.94.94,0,0,0,1-1,.94.94,0,0,0-1-1H26a.94.94,0,0,0-1,1A.94.94,0,0,0,26,10Z"/><path class="cls-1" d="M22,10h1a.94.94,0,0,0,1-1,.94.94,0,0,0-1-1H22a.94.94,0,0,0-1,1A.94.94,0,0,0,22,10Z"/><path class="cls-1" d="M16,22a.94.94,0,0,0,1-1V16a1,1,0,0,0-2,0v5A.94.94,0,0,0,16,22Z"/><path class="cls-1" d="M0,10v9a.94.94,0,0,0,1,1,.94.94,0,0,0,1-1V10A4,4,0,0,1,5,6.1V13a.94.94,0,0,0,1,1h6V24a.94.94,0,0,0,1,1v6a.94.94,0,0,0,1,1h4a.94.94,0,0,0,1-1V25a.94.94,0,0,0,1-1V19.8a3,3,0,0,0,1,.2h4a3,3,0,0,0,3-3V14h8a.94.94,0,0,0,1-1V10h4a.94.94,0,0,0,1-1,.94.94,0,0,0-1-1H37V1a1,1,0,0,0-2,0V4H6A6,6,0,0,0,0,10Zm20,7V14h6v3a.94.94,0,0,1-1,1H21A.94.94,0,0,1,20,17Zm-5,8h2v5H15ZM14,14h4v9H14ZM7,6H35v6H7Z"/></svg>