<svg id="Layer_1" data-name="Layer 1" xmlns="http://www.w3.org/2000/svg" viewBox="0 0 60.32 66"><defs><style>.cls-1{fill:#fff;fill-rule:evenodd;}</style></defs><title>gun-6</title><path class="cls-1" d="M23.82,47.35,15,38.53,19.52,34l-2.88-2.88a1,1,0,0,1,0-1.41l1.41-1.42a1,1,0,0,1,1.42,0l2.88,2.88L52.93.59a2,2,0,0,1,2.83,0c6.32,6.32,6,16.81-.61,23.44l-20,20,2.88,2.88a1,1,0,0,1,0,1.41l-1.41,1.42a1,1,0,0,1-1.42,0l-6.87-6.88Zm8.53-6.18,20-20C56.9,16.62,57.56,9.73,54.22,5L25.17,34ZM13.7,57.47,9.17,62l.59.59a2,2,0,0,1-2.83,2.82L1.76,60.24a6,6,0,0,1,0-8.49l3.11-3.1Zm2.12-2.12L7,46.53l5.88-5.88,8.83,8.82-5.88,5.88Zm22.4-31.06a1,1,0,0,1,1.42,0l1.41,1.42a1,1,0,0,1,0,1.41l-5.58,5.59a1,1,0,0,1-1.42,0l-1.41-1.42a1,1,0,0,1,0-1.41Z"/></svg>