<svg id="Layer_1" data-name="Layer 1" xmlns="http://www.w3.org/2000/svg" viewBox="0 0 60 22"><defs><style>.cls-1{fill:#fff;}</style></defs><title>gun-2</title><path class="cls-1" d="M59,4H49V1a1,1,0,0,0-1-1H45a1,1,0,0,0-.9.55L42.38,4H33.24l-1.79-.89A1,1,0,0,0,31,3h-.47L30,.76A1,1,0,0,0,29,0H20a1,1,0,0,0-1,.76L18.47,3H18a1,1,0,0,0-.45.11L15.76,4H1A1,1,0,0,0,0,5V15a1,1,0,0,0,1,1H6a1,1,0,0,0,.6-.2L10.41,13,15.84,12l.94.47-2.29,6.86A2,2,0,0,0,16.39,22H20a1,1,0,0,0,.95-.68L23.72,13h1v.59a4.39,4.39,0,0,0,.4,1.82,1,1,0,0,0,1.82-.82,2.49,2.49,0,0,1-.21-1V13H28a18.09,18.09,0,0,0,1.87,7l.21.43A1,1,0,0,0,31,21h4a1,1,0,0,0,1-1,1,1,0,0,0-.11-.46l-.21-.42A15.88,15.88,0,0,1,34,12h8a1,1,0,0,0,1-1V10H59a1,1,0,0,0,1-1V5A1,1,0,0,0,59,4ZM15,8v2.15L9.84,11a1,1,0,0,0-.44.19L5.67,14H2V6H15Zm5.78-6h7.44l.25,1H20.53Zm-1.5,18H16.39l2.33-7h2.89ZM26,11H18.24L17,10.38V9h9ZM17,7V5.62L18.24,5H30.76L32,5.62V7Zm12,4H28V9h4v2Zm2.62,8A16.1,16.1,0,0,1,30,13h2a18,18,0,0,0,1.4,6ZM35,10H34V6h1Zm3,0H37V6h1Zm3-1v1H40V6h1Zm4.62-7H47V4H44.62ZM50,8H43V6h7Zm4,0H52V6h2Zm4,0H56V6h2Z"/></svg>