<svg id="Layer_1" data-name="Layer 1" xmlns="http://www.w3.org/2000/svg" viewBox="0 0 84 60"><defs><style>.cls-1{fill:#fff;}</style></defs><title>gun-4</title><path class="cls-1" d="M78,0H6A6,6,0,0,0,0,6V21a3,3,0,0,0,3,3H6.94a11.84,11.84,0,0,1-.22,8.11L.7,47.18A9.35,9.35,0,0,0,9.38,60H24a6,6,0,0,0,3.66-10.75L30.73,39H42a9,9,0,0,0,9-9V24H78a6,6,0,0,0,6-6V6A6,6,0,0,0,78,0ZM9.38,54a3.35,3.35,0,0,1-3.11-4.6l6-15.06A18,18,0,0,0,13.2,24H29L21.13,50.14a3,3,0,0,0,.46,2.65A3,3,0,0,0,24,54ZM45,30a3,3,0,0,1-3,3H32.53l2.7-9H45ZM6,18V6H21V9a3,3,0,0,0,3,3H39a3,3,0,0,0,3-3V6H78V18Z"/></svg>